<svg width="31" height="20" viewBox="0 0 31 20" fill="none" xmlns="http://www.w3.org/2000/svg">
<path d="M25.0831 3.91159C24.616 3.70595 26.3806 -0.149722 26.692 0.00450489C27.0033 0.158732 25.5502 4.06581 25.0831 3.91159Z" fill="#1B0A60"/>
<path d="M26.2249 4.88835C26.0173 4.52849 29.5291 2.24086 29.754 2.57495C29.9616 2.8834 26.4325 5.24822 26.2249 4.88835Z" fill="#1B0A60"/>
<path d="M26.692 6.17359C26.7439 5.76231 31.0514 6.43063 30.9995 6.73909C30.938 7.10476 26.6401 6.58486 26.692 6.17359Z" fill="#1B0A60"/>
<path fill-rule="evenodd" clip-rule="evenodd" d="M11.0781 6.39018C11.3396 5.89084 11.6587 5.28164 12.4718 5.19685C13.4579 5.09403 14.3921 6.0708 14.2364 6.53348C14.2015 6.63713 13.9557 7.06328 13.6068 7.66802C12.3983 9.76273 9.95373 14.0001 10.7592 14.3991C10.7592 14.3991 19.53 2.00948 20.3085 1.54679C22.1769 0.436336 28.3528 10.0807 26.692 11.0061L21.3983 12.8274C21.5021 13.1456 21.8135 14.0906 21.8135 14.0906C21.9173 14.4504 21.7616 14.8617 21.4502 14.9645L15.8971 16.8153C15.3262 16.9695 14.9629 16.661 14.8591 16.3526L14.4439 15.2201L13.0946 15.6843C11.7452 18.7688 6.97057 22.7273 7.07437 16.6611C7.07437 16.6611 1.59502 23.0505 0.223656 18.1519C-1.48897 12.0342 7.07441 0.724231 10.9149 6.68771C10.9695 6.59756 11.0225 6.49636 11.0781 6.39018ZM5.25785 14.6561C2.92241 13.4222 6.71101 5.60808 8.94265 7.76726C9.21834 7.99939 9.41638 8.62109 9.25404 9.46375C8.63125 11.7772 6.80079 15.4712 5.25785 14.6561ZM20.6198 13.1138L15.3781 14.9131L15.6376 15.6842C15.7414 15.8899 15.8971 15.9486 16.1046 15.8899L20.516 14.399C20.7755 14.2962 20.9312 14.0906 20.8793 13.8335L20.6198 13.1138ZM20.6198 2.16368C19.2705 3.34608 24.4177 11.2356 26.0173 10.3377C27.5742 9.46375 21.7616 1.39254 20.6198 2.16368Z" fill="#1B0A60"/>
</svg>
