<svg width="272" height="272" viewBox="0 0 272 272" fill="none" xmlns="http://www.w3.org/2000/svg">
<g clip-path="url(#clip0)">
<path d="M173.711 257.719C249.711 272.519 265.5 206.491 270 171.491C278 -38.0102 226.211 51.7186 108.711 36.2186C-8.78873 20.7186 -10.7883 58.2215 10.2109 147.218C46.5234 301.114 78.7112 239.219 173.711 257.719Z" fill="#C6A4FF" stroke="#C6A4FF"/>
<path d="M134.247 108.268L131.5 109.999L133.033 143.714L124.778 177.218L122.836 188.144L126.478 191.786C130.524 191.947 139.346 191.64 142.259 189.115C145.172 186.59 147.681 155.692 148.571 140.558L150.271 119.193L146.629 114.58L142.259 111.181L134.247 108.268Z" fill="#E3D1FF" stroke="#E3D1FF"/>
<path d="M145.053 83.7471C146.591 86.4215 150.223 92.0172 152.439 93.0047L150.592 94.8562L153.67 101.336C153.67 101.748 153.547 102.694 153.054 103.188C152.739 103.504 148.862 104.551 144.745 104.955C140.833 105.339 136.704 105.142 135.204 103.188L132.127 100.719V86.5243L145.053 83.7471Z" fill="#DECFCF"/>
<path d="M144.745 104.955C140.833 105.339 136.704 105.142 135.204 103.188H133.358L131.819 109.668L139.205 116.766V115.531L143.822 115.223V116.457L145.36 114.914L144.745 104.955Z" fill="#DECFCF"/>
<path d="M135.204 103.188L132.127 100.719V86.5243L145.053 83.7471C146.591 86.4215 150.223 92.0172 152.439 93.0047L150.592 94.8562L153.67 101.336C153.67 101.748 153.547 102.694 153.054 103.188C152.739 103.504 148.862 104.551 144.745 104.955M135.204 103.188C136.704 105.142 140.833 105.339 144.745 104.955M135.204 103.188H133.358L131.819 109.668L139.205 116.766V115.531L143.822 115.223V116.457L145.36 114.914L144.745 104.955" stroke="#DECFCF"/>
<path d="M166.052 256.609L154.155 185.23C138.374 185.716 106.715 187.901 106.327 192.757C105.938 197.612 107.784 215.012 108.755 223.105L110 254.5L129 254L134.975 217.521L146.5 254.5L166.052 256.609Z" fill="black" stroke="black"/>
<path d="M135.461 103.169C134.45 101.339 132.217 96.83 133.43 95.8539C134.947 94.6338 138.283 97.9891 140.103 96.4639C141.923 94.9388 136.767 93.4136 137.677 91.5835C138.586 89.7533 144.349 90.6684 143.742 88.2281C143.136 85.7879 143.136 87.6181 142.226 85.7879C141.316 83.9577 147.989 83.0426 148.292 80.2973C148.595 77.5521 147.079 73.5867 141.316 77.8571C135.553 82.1275 142.529 75.4169 135.857 76.942C134.745 77.1454 132.278 78.1621 131.307 80.6024C129.488 80.5007 125.605 80.8464 124.635 83.0426C123.422 85.7879 124.331 89.7533 125.241 90.6684C126.151 91.5835 124.938 95.2438 124.331 95.2438C123.725 95.2438 128.182 104.39 135.461 103.169Z" fill="#5F3E3E" stroke="#5F3E3E"/>
<path fill-rule="evenodd" clip-rule="evenodd" d="M156.34 93.7009L203.926 49.7568C202.55 56.5548 203.441 71.5589 218.979 77.1915L189.359 87.1457C190.33 89.7354 190.573 95.3033 183.775 96.8571C175.278 98.7994 173.578 98.5566 171.879 93.7009L158.526 97.5854C157.635 96.7762 155.952 94.8663 156.34 93.7009ZM185.475 88.8452L175.52 92.487C176.087 93.7009 178.288 95.8374 182.561 94.672C186.834 93.5067 186.284 90.3019 185.475 88.8452Z" fill="#7F77A2" stroke="#7F77A2"/>
<path d="M178.92 99.7707C180.473 100.936 181.186 104.141 181.347 105.355L188.631 105.597C188.55 104.626 188.194 101.859 187.417 100.499C186.64 99.1394 187.579 96.6145 188.145 95.1578C186.689 97.3428 179.405 97.1 180.134 96.8572C180.134 96.8572 177.948 92.7785 176.249 93.4583C175.035 93.9438 176.977 98.314 178.92 99.7707Z" fill="#DECFCF"/>
<path d="M181.347 105.355L180.852 105.421L180.908 105.84L181.331 105.854L181.347 105.355ZM178.92 99.7707L178.62 100.171L178.92 99.7707ZM176.249 93.4583L176.435 93.9225L176.249 93.4583ZM180.134 96.8572L180.292 97.3316L180.854 97.144L180.574 96.6211L180.134 96.8572ZM188.145 95.1578L188.611 95.339C188.704 95.1012 188.602 94.8318 188.376 94.7141C188.15 94.5964 187.871 94.6681 187.729 94.8804L188.145 95.1578ZM187.417 100.499L186.983 100.747L187.417 100.499ZM188.631 105.597L188.614 106.097L189.176 106.116L189.129 105.556L188.631 105.597ZM181.843 105.289C181.758 104.653 181.533 103.514 181.126 102.376C180.728 101.26 180.121 100.046 179.22 99.3707L178.62 100.171C179.272 100.66 179.798 101.632 180.185 102.713C180.563 103.773 180.775 104.842 180.852 105.421L181.843 105.289ZM179.22 99.3707C178.346 98.7153 177.419 97.3465 176.86 96.0521C176.582 95.4085 176.415 94.8276 176.379 94.4031C176.361 94.1895 176.38 94.0516 176.407 93.9748C176.42 93.9397 176.431 93.9261 176.433 93.9236C176.434 93.9228 176.432 93.9234 176.435 93.9225L176.063 92.994C175.75 93.1192 175.56 93.3689 175.464 93.6435C175.372 93.9044 175.359 94.1989 175.383 94.4861C175.431 95.0631 175.643 95.7568 175.942 96.4485C176.536 97.8247 177.551 99.3693 178.62 100.171L179.22 99.3707ZM176.435 93.9225C176.641 93.84 176.918 93.8745 177.302 94.1225C177.681 94.3675 178.074 94.7668 178.44 95.2179C178.802 95.6636 179.116 96.1335 179.341 96.4948C179.453 96.6747 179.542 96.826 179.602 96.9317C179.633 96.9845 179.656 97.0258 179.671 97.0535C179.679 97.0673 179.684 97.0777 179.688 97.0845C179.69 97.0878 179.691 97.0903 179.692 97.0918C179.692 97.0925 179.693 97.093 179.693 97.0933C179.693 97.0934 179.693 97.0935 179.693 97.0935C179.693 97.0935 179.693 97.0935 179.693 97.0935C179.693 97.0934 179.693 97.0934 180.134 96.8572C180.574 96.6211 180.574 96.621 180.574 96.6209C180.574 96.6209 180.574 96.6207 180.574 96.6206C180.574 96.6204 180.574 96.6201 180.573 96.6197C180.573 96.619 180.573 96.618 180.572 96.6168C180.571 96.6144 180.569 96.611 180.566 96.6067C180.562 96.598 180.555 96.5856 180.546 96.5698C180.529 96.538 180.503 96.4924 180.47 96.435C180.405 96.3202 180.309 96.1582 180.19 95.9663C179.952 95.5841 179.614 95.0767 179.217 94.5877C178.824 94.1041 178.353 93.6112 177.844 93.2826C177.34 92.957 176.707 92.7367 176.063 92.994L176.435 93.9225ZM179.975 96.3829C179.946 96.3928 179.832 96.4296 179.735 96.5259C179.678 96.5825 179.588 96.6999 179.583 96.875C179.577 97.054 179.663 97.1803 179.723 97.2444C179.822 97.3494 179.942 97.3881 179.968 97.397C180.018 97.4141 180.07 97.4259 180.114 97.4344C180.286 97.4677 180.548 97.4895 180.854 97.501C181.48 97.5247 182.39 97.5088 183.367 97.4157C184.342 97.3228 185.406 97.1512 186.329 96.8554C187.231 96.5666 188.099 96.1285 188.561 95.4351L187.729 94.8804C187.463 95.2795 186.875 95.6305 186.024 95.9031C185.195 96.1687 184.21 96.331 183.273 96.4202C182.338 96.5092 181.473 96.5237 180.892 96.5018C180.595 96.4906 180.397 96.4706 180.304 96.4527C180.282 96.4484 180.28 96.4468 180.289 96.4501C180.294 96.4518 180.311 96.4576 180.333 96.4692C180.352 96.4787 180.401 96.506 180.452 96.5599C180.505 96.6168 180.588 96.7357 180.582 96.9072C180.577 97.0749 180.491 97.1849 180.441 97.234C180.393 97.2825 180.347 97.3069 180.33 97.3153C180.309 97.3256 180.295 97.3305 180.292 97.3316L179.975 96.3829ZM187.679 94.9765C187.396 95.7041 187.006 96.7337 186.788 97.7611C186.576 98.7607 186.496 99.8951 186.983 100.747L187.851 100.251C187.561 99.7433 187.562 98.9355 187.767 97.9685C187.966 97.0293 188.328 96.0681 188.611 95.339L187.679 94.9765ZM186.983 100.747C187.329 101.352 187.6 102.316 187.795 103.292C187.987 104.254 188.094 105.169 188.133 105.639L189.129 105.556C189.087 105.055 188.976 104.101 188.775 103.096C188.578 102.106 188.282 101.006 187.851 100.251L186.983 100.747ZM188.648 105.098L181.364 104.855L181.331 105.854L188.614 106.097L188.648 105.098Z" fill="#DECFCF"/>
<path d="M146.5 114C152.408 116.428 166.44 122.253 182.561 133.518C187.417 136.911 180.376 105.355 180.376 105.355C182.804 104.708 188.145 103.995 190.087 106.326C194.215 118.142 200.43 143.084 192.273 148.328C184.115 153.572 173.122 138.859 157.069 138.859C144.687 138.859 174.306 189.359 149.542 197.37C138.132 202.712 142.744 157.311 142.744 152.455C142.744 147.6 146.143 134.975 147.115 128.905C147.891 124.049 147.633 117.561 146.5 114Z" fill="#1B0A60" stroke="#1B0A60"/>
<path d="M131 110C131.647 121.492 132.547 149.784 132.547 149.784C131.861 160.078 127.891 182.56 125.992 192.514C125.992 194.262 120.489 197.774 117.737 199.312C116.2 201.74 108.269 203.439 108.269 203.439C103.413 200.283 89.0889 165.079 89.0889 160.466C89.0889 155.853 109.483 125.505 115.31 117.979C119.971 111.958 127.196 110.324 131 110Z" fill="#1B0A60"/>
<path d="M117.737 199.312C120.489 197.774 125.992 194.262 125.992 192.514C127.891 182.56 131.861 160.078 132.547 149.784C132.547 149.784 131.647 121.492 131 110C127.196 110.324 119.971 111.958 115.31 117.979C109.483 125.505 89.0889 155.853 89.0889 160.466C89.0889 165.079 103.413 200.283 108.269 203.439C108.269 203.439 116.2 201.74 117.737 199.312ZM117.737 199.312L106.327 175.033M106.327 175.033C108.107 170.178 109.483 159.742 109.483 155.125C109.483 154.397 103.899 161.68 103.899 163.622C103.899 165.565 104.142 173.577 106.327 175.033Z" stroke="#1B0A60"/>
<path d="M143.958 115.066L139.06 115.553V117.748C136.032 120.267 128.455 125.258 122.368 125.063C117.458 124.906 105.598 119.679 98.0662 122.137C86.4257 125.935 78.674 134.085 67.3824 135.792C56.0908 137.499 46.4019 130.427 42.4744 135.792C42.9205 136.812 44.6109 139.054 45.3878 139.83C46.3589 140.802 63.1111 142.501 68.4523 142.258C73.7936 142.015 93.9403 130.532 98.8004 128.662C105.113 126.234 117.645 131.479 123.564 130.605C129.726 129.695 139.305 122.787 140.778 120.186L143.473 119.437L143.958 115.066Z" fill="#7F77A2" stroke="#7F77A2"/>
<path d="M179.89 91.5157C178.531 91.3214 178.838 93.5389 179.162 94.6719C179.405 95.1574 185.475 94.1863 185.717 92.9724C185.636 92.4868 185.377 91.4185 184.989 91.0301C184.601 90.6416 183.128 91.1919 182.44 91.5157C182.156 91.5966 181.25 91.7099 179.89 91.5157Z" fill="#DECFCF" stroke="#DECFCF"/>
<path d="M146.872 86.6596C148.426 85.4942 146.872 83.4224 145.901 82.5322L144.201 83.0178L146.872 86.6596Z" fill="#5F3E3E" stroke="#5F3E3E"/>
<ellipse cx="212.36" cy="62.9338" rx="7.50886" ry="16.0665" transform="rotate(-27.9895 212.36 62.9338)" fill="#1B0A60"/>
<path d="M108.512 202.711L110.454 205.625L118.709 201.497L116.766 198.584L108.512 202.711Z" fill="#DECFCF" stroke="#DECFCF"/>
</g>
<defs>
<clipPath id="clip0">
<rect width="272" height="272" fill="white"/>
</clipPath>
</defs>
</svg>
