<svg width="46" height="27" viewBox="0 0 46 27" fill="none" xmlns="http://www.w3.org/2000/svg">
<circle cx="36.2783" cy="12.0195" r="4.82909" stroke="white" stroke-width="1.62007"/>
<path d="M28 25.4227H27.19V26.2328H28V25.4227ZM44.3342 23.4388L43.5445 23.6194L44.3342 23.4388ZM28.81 25.4227C28.81 21.1077 32.1803 17.6587 36.2784 17.6587V16.0386C31.2325 16.0386 27.19 20.267 27.19 25.4227H28.81ZM36.2784 17.6587C39.7868 17.6587 42.7584 20.1824 43.5445 23.6194L45.1238 23.2582C44.1814 19.1377 40.5955 16.0386 36.2784 16.0386V17.6587ZM42.5569 24.6127H28V26.2328H42.5569V24.6127ZM43.5445 23.6194C43.6458 24.0622 43.2796 24.6127 42.5569 24.6127V26.2328C44.0433 26.2328 45.5151 24.969 45.1238 23.2582L43.5445 23.6194Z" fill="white"/>
<circle cx="9.27831" cy="12.0195" r="4.82909" stroke="white" stroke-width="1.62007"/>
<path d="M9.27844 16.8486C5.36573 16.8486 2.08701 19.66 1.22272 23.4388C0.976446 24.5156 1.89543 25.4227 3 25.4227H17.5569C17.5569 20.6874 13.8505 16.8486 9.27844 16.8486Z" stroke="white" stroke-width="1.62007"/>
<circle cx="22.899" cy="7.4686" r="6.4686" stroke="white" stroke-width="1.62007"/>
<path d="M22.8991 13.9375C16.7748 13.9375 11.8101 19.0795 11.8101 25.4226H33.9881C33.9881 19.0795 29.0234 13.9375 22.8991 13.9375Z" stroke="white" stroke-width="1.62007"/>
</svg>
