<svg width="44" height="25" viewBox="0 0 44 25" fill="none" xmlns="http://www.w3.org/2000/svg">
<circle cx="35.2783" cy="11.019" r="4.82909" fill="white"/>
<path d="M35.2784 15.8481C30.7064 15.8481 27 19.6869 27 24.4222H41.5569C42.6615 24.4222 43.5804 23.5151 43.3342 22.4383C42.4699 18.6596 39.1912 15.8481 35.2784 15.8481Z" fill="white"/>
<circle cx="8.27831" cy="11.019" r="4.82909" fill="white"/>
<path d="M8.27844 15.8481C4.36573 15.8481 1.08701 18.6596 0.222724 22.4383C-0.0235536 23.5151 0.895431 24.4222 2 24.4222H16.5569C16.5569 19.6869 12.8505 15.8481 8.27844 15.8481Z" fill="white"/>
<circle cx="21.899" cy="6.4686" r="6.4686" fill="white"/>
<path d="M21.8991 12.937C15.7748 12.937 10.8101 18.0791 10.8101 24.4221H32.9881C32.9881 18.0791 28.0234 12.937 21.8991 12.937Z" fill="white"/>
</svg>
