<svg width="27" height="27" viewBox="0 0 27 27" fill="none" xmlns="http://www.w3.org/2000/svg">
<mask id="path-1-outside-1" maskUnits="userSpaceOnUse" x="6" y="6" width="15" height="15" fill="black">
<rect fill="white" x="6" y="6" width="15" height="15"/>
<path fill-rule="evenodd" clip-rule="evenodd" d="M14 7.5C14 7.22386 13.7761 7 13.5 7C13.2239 7 13 7.22386 13 7.5V13L7.5 13C7.22386 13 7 13.2239 7 13.5C7 13.7761 7.22386 14 7.5 14L13 14V19.5C13 19.7761 13.2239 20 13.5 20C13.7761 20 14 19.7761 14 19.5V14L19.5 14C19.7761 14 20 13.7761 20 13.5C20 13.2239 19.7761 13 19.5 13L14 13V7.5Z"/>
</mask>
<path fill-rule="evenodd" clip-rule="evenodd" d="M14 7.5C14 7.22386 13.7761 7 13.5 7C13.2239 7 13 7.22386 13 7.5V13L7.5 13C7.22386 13 7 13.2239 7 13.5C7 13.7761 7.22386 14 7.5 14L13 14V19.5C13 19.7761 13.2239 20 13.5 20C13.7761 20 14 19.7761 14 19.5V14L19.5 14C19.7761 14 20 13.7761 20 13.5C20 13.2239 19.7761 13 19.5 13L14 13V7.5Z" fill="white"/>
<path d="M13 13L13 13.4L13.4 13.4V13H13ZM7.5 13L7.5 12.6H7.5V13ZM7.5 14L7.5 13.6H7.5V14ZM13 14H13.4V13.6L13 13.6L13 14ZM14 14L14 13.6L13.6 13.6V14H14ZM19.5 14L19.5 14.4H19.5V14ZM19.5 13L19.5 13.4H19.5V13ZM14 13H13.6V13.4L14 13.4L14 13ZM13.5 7.4C13.5552 7.4 13.6 7.44477 13.6 7.5H14.4C14.4 7.00294 13.9971 6.6 13.5 6.6V7.4ZM13.4 7.5C13.4 7.44477 13.4448 7.4 13.5 7.4V6.6C13.0029 6.6 12.6 7.00294 12.6 7.5H13.4ZM13.4 13V7.5H12.6V13H13.4ZM7.5 13.4L13 13.4L13 12.6L7.5 12.6L7.5 13.4ZM7.4 13.5C7.4 13.4448 7.44477 13.4 7.5 13.4V12.6C7.00294 12.6 6.6 13.0029 6.6 13.5H7.4ZM7.5 13.6C7.44477 13.6 7.4 13.5552 7.4 13.5H6.6C6.6 13.9971 7.00294 14.4 7.5 14.4V13.6ZM13 13.6L7.5 13.6L7.5 14.4L13 14.4L13 13.6ZM13.4 19.5V14H12.6V19.5H13.4ZM13.5 19.6C13.4448 19.6 13.4 19.5552 13.4 19.5H12.6C12.6 19.9971 13.0029 20.4 13.5 20.4V19.6ZM13.6 19.5C13.6 19.5552 13.5552 19.6 13.5 19.6V20.4C13.9971 20.4 14.4 19.9971 14.4 19.5H13.6ZM13.6 14V19.5H14.4V14H13.6ZM19.5 13.6L14 13.6L14 14.4L19.5 14.4L19.5 13.6ZM19.6 13.5C19.6 13.5552 19.5552 13.6 19.5 13.6V14.4C19.9971 14.4 20.4 13.9971 20.4 13.5H19.6ZM19.5 13.4C19.5552 13.4 19.6 13.4448 19.6 13.5H20.4C20.4 13.0029 19.9971 12.6 19.5 12.6V13.4ZM14 13.4L19.5 13.4L19.5 12.6L14 12.6L14 13.4ZM13.6 7.5V13H14.4V7.5H13.6Z" fill="white" mask="url(#path-1-outside-1)"/>
<rect x="0.81" y="0.81" width="25.38" height="25.38" rx="3.19" stroke="white" stroke-width="1.62"/>
</svg>
