<svg width="27" height="27" viewBox="0 0 27 27" fill="none" xmlns="http://www.w3.org/2000/svg">
<path fill-rule="evenodd" clip-rule="evenodd" d="M25.3306 9.95177C25.3306 14.5533 21.6004 18.2835 16.9988 18.2835C12.3973 18.2835 8.66707 14.5533 8.66707 9.95177C8.66707 5.35026 12.3973 1.62 16.9988 1.62C21.6004 1.62 25.3306 5.35026 25.3306 9.95177ZM26.9506 9.95177C26.9506 15.448 22.4951 19.9035 16.9988 19.9035C14.5673 19.9035 12.3394 19.0315 10.6109 17.5831L1.43232 26.7616C1.11599 27.078 0.603129 27.078 0.286804 26.7616C-0.0295208 26.4453 -0.0295204 25.9324 0.286804 25.6161L9.45744 16.4455C7.95528 14.7026 7.04707 12.4332 7.04707 9.95177C7.04707 4.45556 11.5026 0 16.9988 0C22.4951 0 26.9506 4.45556 26.9506 9.95177Z" fill="white"/>
<circle cx="17" cy="10" r="7" fill="white"/>
</svg>
