<svg width="25" height="24" viewBox="0 0 25 24" fill="none" xmlns="http://www.w3.org/2000/svg">
<path d="M16.9234 7.58L10.3334 14.17L6.74343 10.59L5.33344 12L10.3334 17L18.3334 9L16.9234 7.58ZM12.3334 2C6.81344 2 2.33344 6.48 2.33344 12C2.33344 17.52 6.81344 22 12.3334 22C17.8534 22 22.3334 17.52 22.3334 12C22.3334 6.48 17.8534 2 12.3334 2ZM12.3334 20C7.91343 20 4.33344 16.42 4.33344 12C4.33344 7.58 7.91343 4 12.3334 4C16.7534 4 20.3334 7.58 20.3334 12C20.3334 16.42 16.7534 20 12.3334 20Z" fill="#1B0A60"/>
</svg>
