<svg width="211" height="194" viewBox="0 0 211 194" fill="none" xmlns="http://www.w3.org/2000/svg">
<path d="M97.2464 28.2646C63.2411 28.2646 35.5775 55.9283 35.5775 89.9335C35.5775 123.939 63.2411 151.602 97.2464 151.602C131.252 151.602 158.915 123.939 158.915 89.9335C158.915 55.9283 131.252 28.2646 97.2464 28.2646ZM97.2464 147.491C65.5075 147.491 39.6888 121.672 39.6888 89.9335C39.6888 58.1946 65.5075 32.3759 97.2464 32.3759C128.985 32.3759 154.804 58.1946 154.804 89.9335C154.804 121.672 128.985 147.491 97.2464 147.491Z" fill="#1B0A60"/>
<path d="M101.078 63.578L92.8884 71.7671C91.7244 72.9311 91.082 74.4806 91.082 76.1302C91.082 77.7773 91.7244 79.3267 92.8884 80.4907C95.2164 82.8238 99.2788 82.8238 101.609 80.4907L109.804 72.299C111.096 71.0091 113.442 71.0091 114.735 72.299C116.096 73.6583 116.096 75.8707 114.735 77.23L106.543 85.4216C104.138 87.8267 104.138 91.7401 106.543 94.1452C107.707 95.3092 109.256 95.9516 110.903 95.9516C112.551 95.9516 114.1 95.3092 115.264 94.1452L123.456 85.9535C126.439 82.9677 128.086 78.9952 128.086 74.7658C128.086 70.5363 126.439 66.5638 123.456 63.5806C117.489 57.6115 107.047 57.6038 101.078 63.578ZM120.544 83.0423L112.353 91.2339C111.574 92.0099 110.225 92.0099 109.447 91.2339C108.645 90.4322 108.645 89.1269 109.447 88.3252L117.638 80.1335C120.601 77.1708 120.601 72.353 117.638 69.3903C116.181 67.936 114.226 67.2088 112.265 67.2088C110.305 67.2088 108.352 67.936 106.892 69.3903L98.6981 77.5794C97.9196 78.358 96.5706 78.358 95.792 77.5794C95.4014 77.1889 95.1907 76.6749 95.1907 76.1251C95.1907 75.5752 95.404 75.0613 95.792 74.6707L103.981 66.4816C108.398 62.0645 116.127 62.0645 120.542 66.4816C122.749 68.6888 123.967 71.6284 123.967 74.7606C123.967 77.8929 122.754 80.835 120.544 83.0423Z" fill="#1B0A60"/>
<path d="M120.544 83.0423L112.353 91.2339C111.574 92.0099 110.225 92.0099 109.447 91.2339C108.645 90.4322 108.645 89.1269 109.447 88.3252L117.638 80.1335C120.601 77.1708 120.601 72.353 117.638 69.3903C116.181 67.936 114.226 67.2088 112.265 67.2088C110.305 67.2088 108.352 67.936 106.892 69.3903L98.6981 77.5794C97.9196 78.358 96.5706 78.358 95.792 77.5794C95.4014 77.1889 95.1907 76.6749 95.1907 76.1251C95.1907 75.5752 95.404 75.0613 95.792 74.6707L103.981 66.4816C108.398 62.0645 116.127 62.0645 120.542 66.4816C122.749 68.6888 123.967 71.6284 123.967 74.7606C123.967 77.8929 122.754 80.835 120.544 83.0423Z" fill="#1B0A60"/>
<path d="M92.8858 99.2277L84.6916 107.419C83.3991 108.709 81.0531 108.709 79.7606 107.419C78.3988 106.06 78.3988 103.848 79.7606 102.488L87.9523 94.2967C90.3574 91.8916 90.3574 87.9782 87.9523 85.5731C85.6243 83.2451 81.5593 83.2451 79.2313 85.5731L71.0396 93.7648C68.0564 96.7506 66.4093 100.723 66.4093 104.953C66.4093 109.182 68.0564 113.155 71.0396 116.138C74.0228 119.124 77.9979 120.768 82.2299 120.768C86.4568 120.768 90.4319 119.124 93.4151 116.138L101.604 107.949C102.768 106.785 103.411 105.235 103.411 103.586C103.411 101.939 102.768 100.389 101.604 99.2251C99.2788 96.8945 95.2138 96.8945 92.8858 99.2277ZM98.7007 105.043L90.5115 113.234C86.0945 117.651 78.3654 117.651 73.9509 113.234C71.7437 111.027 70.5257 108.087 70.5257 104.955C70.5257 101.823 71.7411 98.8833 73.9509 96.6735L82.1426 88.4819C82.5331 88.0939 83.0471 87.8806 83.5969 87.8806C84.1468 87.8806 84.6607 88.0964 85.0513 88.4819C85.853 89.2835 85.853 90.5889 85.0513 91.3906L76.8596 99.5823C73.8969 102.545 73.8969 107.363 76.8596 110.325C79.7735 113.237 84.689 113.237 87.6028 110.325L95.7971 102.134C96.5757 101.355 97.9247 101.355 98.7032 102.134C99.0938 102.524 99.3045 103.038 99.3045 103.588C99.3019 104.138 99.0887 104.652 98.7007 105.043Z" fill="#1B0A60"/>
<path d="M98.7007 105.043L90.5115 113.234C86.0945 117.651 78.3654 117.651 73.9509 113.234C71.7437 111.027 70.5257 108.087 70.5257 104.955C70.5257 101.823 71.7411 98.8833 73.9509 96.6735L82.1426 88.4819C82.5331 88.0939 83.0471 87.8806 83.5969 87.8806C84.1468 87.8806 84.6607 88.0964 85.0513 88.4819C85.853 89.2835 85.853 90.5889 85.0513 91.3906L76.8596 99.5823C73.8969 102.545 73.8969 107.363 76.8596 110.325C79.7735 113.237 84.689 113.237 87.6028 110.325L95.7971 102.134C96.5757 101.355 97.9247 101.355 98.7032 102.134C99.0938 102.524 99.3045 103.038 99.3045 103.588C99.3019 104.138 99.0887 104.652 98.7007 105.043Z" fill="#1B0A60"/>
<path d="M20.5993 16.5781C20.5993 16.1096 20.4132 15.6602 20.0819 15.3289C19.7506 14.9976 19.3013 14.8115 18.8328 14.8115C18.3642 14.8115 17.9149 14.9976 17.5836 15.3289C17.2523 15.6602 17.0662 16.1096 17.0662 16.5781V18.3446H15.2996C14.8311 18.3446 14.3818 18.5308 14.0505 18.862C13.7192 19.1933 13.5331 19.6427 13.5331 20.1112C13.5331 20.5797 13.7192 21.029 14.0505 21.3603C14.3818 21.6916 14.8311 21.8777 15.2996 21.8777H17.0662V23.6443C17.0662 24.1128 17.2523 24.5622 17.5836 24.8934C17.9149 25.2247 18.3642 25.4109 18.8328 25.4109C19.3013 25.4109 19.7506 25.2247 20.0819 24.8934C20.4132 24.5622 20.5993 24.1128 20.5993 23.6443V21.8777H22.3659C22.8344 21.8777 23.2837 21.6916 23.615 21.3603C23.9463 21.029 24.1324 20.5797 24.1324 20.1112C24.1324 19.6427 23.9463 19.1933 23.615 18.862C23.2837 18.5308 22.8344 18.3446 22.3659 18.3446H20.5993V16.5781ZM34.7318 16.5781C34.7318 16.1096 34.5456 15.6602 34.2143 15.3289C33.8831 14.9976 33.4337 14.8115 32.9652 14.8115C32.4967 14.8115 32.0474 14.9976 31.7161 15.3289C31.3848 15.6602 31.1986 16.1096 31.1986 16.5781C31.1986 19.129 30.8471 22.7186 29.1459 25.6211C27.5313 28.3716 24.5917 30.7105 18.8328 30.7105C18.3642 30.7105 17.9149 30.8967 17.5836 31.2279C17.2523 31.5592 17.0662 32.0086 17.0662 32.4771C17.0662 32.9456 17.2523 33.3949 17.5836 33.7262C17.9149 34.0575 18.3642 34.2436 18.8328 34.2436C21.1787 34.2436 24.2773 34.9556 26.7575 37.0171C29.1706 39.0186 31.1986 42.467 31.1986 48.3761C31.1986 48.8446 31.3848 49.2939 31.7161 49.6252C32.0474 49.9565 32.4967 50.1427 32.9652 50.1427C33.4337 50.1427 33.8831 49.9565 34.2143 49.6252C34.5456 49.2939 34.7318 48.8446 34.7318 48.3761C34.7318 45.8252 35.0833 42.2355 36.7845 39.3331C38.3991 36.5826 41.3387 34.2436 47.0977 34.2436C47.5662 34.2436 48.0155 34.0575 48.3468 33.7262C48.6781 33.3949 48.8642 32.9456 48.8642 32.4771C48.8642 32.0086 48.6781 31.5592 48.3468 31.2279C48.0155 30.8967 47.5662 30.7105 47.0977 30.7105C44.7517 30.7105 41.6531 29.9986 39.1729 27.937C36.7598 25.9355 34.7318 22.4872 34.7318 16.5781ZM32.1915 27.4088C32.5218 26.8471 32.8097 26.2694 33.0624 25.6864C33.9719 27.6022 35.2865 29.2976 36.9152 30.6558C37.6996 31.3076 38.5246 31.8535 39.3672 32.3057C36.8145 33.5423 34.9932 35.4043 33.739 37.5453C33.4133 38.1009 33.1225 38.6762 32.868 39.2677C31.9584 37.352 30.6439 35.6566 29.0152 34.2984C28.2549 33.6681 27.4335 33.1153 26.5632 32.6484C29.1159 31.4119 30.9372 29.5499 32.1932 27.4088H32.1915Z" fill="#1B0A60"/>
<path d="M199.908 73.9062C199.908 73.4377 200.094 72.9884 200.425 72.6571C200.757 72.3258 201.206 72.1396 201.675 72.1396C202.143 72.1396 202.592 72.3258 202.924 72.6571C203.255 72.9884 203.441 73.4377 203.441 73.9062V75.6728H205.208C205.676 75.6728 206.126 75.8589 206.457 76.1902C206.788 76.5215 206.974 76.9708 206.974 77.4393C206.974 77.9078 206.788 78.3572 206.457 78.6885C206.126 79.0198 205.676 79.2059 205.208 79.2059H203.441V80.9724C203.441 81.441 203.255 81.8903 202.924 82.2216C202.592 82.5529 202.143 82.739 201.675 82.739C201.206 82.739 200.757 82.5529 200.425 82.2216C200.094 81.8903 199.908 81.441 199.908 80.9724V79.2059H198.141C197.673 79.2059 197.224 79.0198 196.892 78.6885C196.561 78.3572 196.375 77.9078 196.375 77.4393C196.375 76.9708 196.561 76.5215 196.892 76.1902C197.224 75.8589 197.673 75.6728 198.141 75.6728H199.908V73.9062ZM185.776 73.9062C185.776 73.4377 185.962 72.9884 186.293 72.6571C186.624 72.3258 187.074 72.1396 187.542 72.1396C188.011 72.1396 188.46 72.3258 188.791 72.6571C189.123 72.9884 189.309 73.4377 189.309 73.9062C189.309 76.4571 189.66 80.0468 191.361 82.9492C192.976 85.6997 195.916 88.0387 201.675 88.0387C202.143 88.0387 202.592 88.2248 202.924 88.5561C203.255 88.8874 203.441 89.3367 203.441 89.8052C203.441 90.2737 203.255 90.7231 202.924 91.0544C202.592 91.3856 202.143 91.5718 201.675 91.5718C199.329 91.5718 196.23 92.2837 193.75 94.3453C191.337 96.3468 189.309 99.7951 189.309 105.704C189.309 106.173 189.123 106.622 188.791 106.953C188.46 107.285 188.011 107.471 187.542 107.471C187.074 107.471 186.624 107.285 186.293 106.953C185.962 106.622 185.776 106.173 185.776 105.704C185.776 103.153 185.424 99.5637 183.723 96.6612C182.108 93.9107 179.169 91.5718 173.41 91.5718C172.941 91.5718 172.492 91.3856 172.161 91.0544C171.829 90.7231 171.643 90.2737 171.643 89.8052C171.643 89.3367 171.829 88.8874 172.161 88.5561C172.492 88.2248 172.941 88.0387 173.41 88.0387C175.756 88.0387 178.854 87.3267 181.334 85.2652C183.748 83.2637 185.776 79.8153 185.776 73.9062ZM188.316 84.737C187.986 84.1752 187.698 83.5975 187.445 83.0146C186.535 84.9303 185.221 86.6258 183.592 87.9839C182.808 88.6358 181.983 89.1816 181.14 89.6339C183.693 90.8704 185.514 92.7324 186.768 94.8735C187.094 95.429 187.385 96.0043 187.639 96.5959C188.549 94.6802 189.863 92.9847 191.492 91.6265C192.252 90.9962 193.074 90.4435 193.944 89.9766C191.391 88.74 189.57 86.878 188.314 84.737H188.316Z" fill="#1B0A60"/>
<path d="M53.1251 179.7C53.1251 180.169 53.3112 180.618 53.6425 180.949C53.9738 181.281 54.4231 181.467 54.8916 181.467C55.3601 181.467 55.8095 181.281 56.1408 180.949C56.4721 180.618 56.6582 180.169 56.6582 179.7V177.934H58.4247C58.8932 177.934 59.3426 177.748 59.6739 177.416C60.0052 177.085 60.1913 176.636 60.1913 176.167C60.1913 175.699 60.0052 175.249 59.6739 174.918C59.3426 174.587 58.8932 174.401 58.4247 174.401H56.6582V172.634C56.6582 172.165 56.4721 171.716 56.1408 171.385C55.8095 171.054 55.3601 170.867 54.8916 170.867C54.4231 170.867 53.9738 171.054 53.6425 171.385C53.3112 171.716 53.1251 172.165 53.1251 172.634V174.401H51.3585C50.89 174.401 50.4407 174.587 50.1094 174.918C49.7781 175.249 49.5919 175.699 49.5919 176.167C49.5919 176.636 49.7781 177.085 50.1094 177.416C50.4407 177.748 50.89 177.934 51.3585 177.934H53.1251V179.7ZM38.9926 179.7C38.9926 180.169 39.1787 180.618 39.51 180.949C39.8413 181.281 40.2906 181.467 40.7592 181.467C41.2277 181.467 41.677 181.281 42.0083 180.949C42.3396 180.618 42.5257 180.169 42.5257 179.7C42.5257 177.149 42.8773 173.56 44.5785 170.657C46.1931 167.907 49.1326 165.568 54.8916 165.568C55.3601 165.568 55.8095 165.382 56.1408 165.05C56.4721 164.719 56.6582 164.27 56.6582 163.801C56.6582 163.333 56.4721 162.883 56.1408 162.552C55.8095 162.221 55.3601 162.035 54.8916 162.035C52.5456 162.035 49.4471 161.323 46.9668 159.261C44.5537 157.26 42.5257 153.811 42.5257 147.902C42.5257 147.434 42.3396 146.984 42.0083 146.653C41.677 146.322 41.2277 146.136 40.7592 146.136C40.2906 146.136 39.8413 146.322 39.51 146.653C39.1787 146.984 38.9926 147.434 38.9926 147.902C38.9926 150.453 38.6411 154.043 36.9399 156.945C35.3252 159.696 32.3857 162.035 26.6267 162.035C26.1582 162.035 25.7089 162.221 25.3776 162.552C25.0463 162.883 24.8602 163.333 24.8602 163.801C24.8602 164.27 25.0463 164.719 25.3776 165.05C25.7089 165.382 26.1582 165.568 26.6267 165.568C28.9727 165.568 32.0712 166.28 34.5515 168.341C36.9646 170.343 38.9926 173.791 38.9926 179.7ZM41.5329 168.869C41.2026 169.431 40.9146 170.009 40.662 170.592C39.7524 168.676 38.4379 166.981 36.8091 165.623C36.0248 164.971 35.1998 164.425 34.3572 163.973C36.9098 162.736 38.7312 160.874 39.9854 158.733C40.311 158.177 40.6019 157.602 40.8563 157.011C41.7659 158.926 43.0805 160.622 44.7092 161.98C45.4695 162.61 46.2909 163.163 47.1612 163.63C44.6085 164.866 42.7872 166.728 41.5311 168.869H41.5329Z" fill="#1B0A60"/>
</svg>
