<svg width="24" height="24" viewBox="0 0 24 24" fill="none" xmlns="http://www.w3.org/2000/svg">
<path d="M7.312 7.088V6.088H6.6565L6.39501 6.68908L7.312 7.088ZM8.838 7.088L9.75641 6.69236L9.49605 6.088H8.838V7.088ZM13.108 17V18H14.6276L14.0264 16.6044L13.108 17ZM11.092 17L10.1659 17.3773L10.4196 18H11.092V17ZM10.168 14.732L11.0941 14.3547L10.8404 13.732H10.168V14.732ZM5.87 14.732V13.732H5.18985L4.93995 14.3646L5.87 14.732ZM4.974 17V18H5.65415L5.90405 17.3674L4.974 17ZM3 17L2.08301 16.6011L1.47444 18H3V17ZM9.552 13.22V14.22H10.9997L10.4873 12.866L9.552 13.22ZM8.026 9.188L8.96126 8.83403L8.03449 6.38533L7.09291 8.82837L8.026 9.188ZM6.472 13.22L5.53891 12.8604L5.01488 14.22H6.472V13.22ZM7.312 8.088H8.838V6.088H7.312V8.088ZM7.9196 7.48364L12.1896 17.3956L14.0264 16.6044L9.75641 6.69236L7.9196 7.48364ZM13.108 16H11.092V18H13.108V16ZM12.0181 16.6227L11.0941 14.3547L9.24191 15.1093L10.1659 17.3773L12.0181 16.6227ZM10.168 13.732H5.87V15.732H10.168V13.732ZM4.93995 14.3646L4.04395 16.6326L5.90405 17.3674L6.80005 15.0994L4.93995 14.3646ZM4.974 16H3V18H4.974V16ZM3.91699 17.3989L8.22899 7.48692L6.39501 6.68908L2.08301 16.6011L3.91699 17.3989ZM10.4873 12.866L8.96126 8.83403L7.09074 9.54197L8.61674 13.574L10.4873 12.866ZM7.09291 8.82837L5.53891 12.8604L7.4051 13.5796L8.9591 9.54763L7.09291 8.82837ZM6.472 14.22H9.552V12.22H6.472V14.22ZM18.9555 16.076H19.9555V15.076H18.9555V16.076ZM18.9135 16.076V15.076H18.3635L18.069 15.5405L18.9135 16.076ZM17.9895 16.916L18.3999 17.8279L18.4093 17.8237L18.4186 17.8193L17.9895 16.916ZM15.8475 17.042L15.5687 18.0024L15.5768 18.0047L15.8475 17.042ZM15.0635 16.664L14.4635 17.464L14.4713 17.4698L14.4792 17.4755L15.0635 16.664ZM14.5175 16.034L15.3917 15.5484L15.3917 15.5484L14.5175 16.034ZM14.5035 14.228L15.3913 14.6883L15.3947 14.6818L15.3979 14.6752L14.5035 14.228ZM15.0215 13.584L15.6378 14.3715L15.6422 14.368L15.0215 13.584ZM15.7915 13.164L15.4571 12.2216L15.4571 12.2216L15.7915 13.164ZM16.6875 12.94L16.8373 13.9287L16.8493 13.9269L16.8613 13.9248L16.6875 12.94ZM17.6395 12.842L17.6689 13.8416L17.6836 13.8411L17.6982 13.8403L17.6395 12.842ZM18.9555 12.814V13.814H19.9555V12.814H18.9555ZM18.5215 11.694L17.9257 12.4971L17.9342 12.5034L17.9428 12.5095L18.5215 11.694ZM16.4215 11.568L16.788 12.4984L16.8001 12.4937L16.8121 12.4886L16.4215 11.568ZM15.6235 12.072L14.9164 12.7791L15.6086 13.4713L16.3154 12.794L15.6235 12.072ZM14.7415 11.19L14.0257 10.4917L13.336 11.1987L14.0344 11.8971L14.7415 11.19ZM16.0435 10.364L15.7273 9.4153L15.7219 9.41712L16.0435 10.364ZM18.8015 10.28L18.4772 11.2259L18.4894 11.2301L18.5017 11.234L18.8015 10.28ZM19.6135 10.686L20.2298 9.89849L20.2298 9.89849L19.6135 10.686ZM20.1035 11.274L19.2091 11.7212L19.2205 11.7439L19.233 11.7661L20.1035 11.274ZM20.3555 11.932L19.3765 12.136L19.3806 12.1553L19.3854 12.1745L20.3555 11.932ZM20.4535 12.59L19.4545 12.6334L19.4545 12.6354L20.4535 12.59ZM20.4675 17V18H21.4675V17H20.4675ZM18.9555 17H17.9555V18H18.9555V17ZM18.8575 13.99H19.8575V12.99H18.8575V13.99ZM17.7235 14.018L17.6591 13.0201L17.6591 13.0201L17.7235 14.018ZM16.8975 14.158L17.1485 15.126L17.1604 15.1229L17.1722 15.1195L16.8975 14.158ZM16.2535 14.466L16.8467 15.2711L16.8601 15.2612L16.8732 15.2509L16.2535 14.466ZM16.0855 15.432L15.2217 15.9359L15.2471 15.9794L15.2768 16.0202L16.0855 15.432ZM16.3655 15.698L16.9202 14.8659L16.9202 14.8659L16.3655 15.698ZM16.7435 15.866L16.4859 16.8322L16.5164 16.8404L16.5474 16.8466L16.7435 15.866ZM18.4375 15.502L19.1446 16.2091L19.1446 16.2091L18.4375 15.502ZM18.9555 15.076H18.9135V17.076H18.9555V15.076ZM18.069 15.5405C17.9173 15.7797 17.7471 15.924 17.5605 16.0127L18.4186 17.8193C18.9786 17.5533 19.4244 17.1376 19.758 16.6115L18.069 15.5405ZM17.5792 16.0041C17.3466 16.1087 17.0775 16.168 16.7575 16.168V18.168C17.3335 18.168 17.8858 18.0593 18.3999 17.8279L17.5792 16.0041ZM16.7575 16.168C16.5417 16.168 16.3295 16.1388 16.1183 16.0793L15.5768 18.0047C15.9629 18.1132 16.3573 18.168 16.7575 18.168V16.168ZM16.1263 16.0817C15.9413 16.0279 15.7842 15.9506 15.6478 15.8525L14.4792 17.4755C14.8095 17.7134 15.1751 17.8881 15.5687 18.0023L16.1263 16.0817ZM15.6635 15.864C15.5553 15.7829 15.4655 15.6812 15.3917 15.5484L13.6434 16.5196C13.8496 16.8908 14.1237 17.2091 14.4635 17.464L15.6635 15.864ZM15.3917 15.5484C15.3469 15.4678 15.3075 15.3464 15.3075 15.152H13.3075C13.3075 15.6296 13.4081 16.0962 13.6434 16.5196L15.3917 15.5484ZM15.3075 15.152C15.3075 14.9043 15.3522 14.7636 15.3913 14.6883L13.6158 13.7677C13.3935 14.1964 13.3075 14.6717 13.3075 15.152H15.3075ZM15.3979 14.6752C15.4671 14.5368 15.5482 14.4416 15.6378 14.3715L14.4052 12.7965C14.0655 13.0624 13.8012 13.3965 13.6091 13.7808L15.3979 14.6752ZM15.6422 14.368C15.7739 14.2638 15.9323 14.1751 16.1259 14.1064L15.4571 12.2216C15.072 12.3582 14.7171 12.5496 14.4008 12.8L15.6422 14.368ZM16.1259 14.1064C16.3545 14.0253 16.5913 13.966 16.8373 13.9287L16.5377 11.9513C16.1678 12.0073 15.8072 12.0973 15.4571 12.2216L16.1259 14.1064ZM16.8613 13.9248C17.1316 13.8771 17.4007 13.8495 17.6689 13.8416L17.6101 11.8424C17.2436 11.8532 16.8781 11.8909 16.5137 11.9552L16.8613 13.9248ZM17.6982 13.8403C17.9986 13.8226 18.2775 13.814 18.5355 13.814V11.814C18.2335 11.814 17.9151 11.8241 17.5808 11.8437L17.6982 13.8403ZM18.5355 13.814H18.9555V11.814H18.5355V13.814ZM19.9555 12.814V12.632H17.9555V12.814H19.9555ZM19.9555 12.632C19.9555 11.9559 19.7048 11.3075 19.1003 10.8785L17.9428 12.5095C17.9488 12.5138 17.9482 12.5143 17.9449 12.5103C17.9434 12.5086 17.942 12.5067 17.9409 12.5049C17.9398 12.5031 17.9393 12.5022 17.9395 12.5024C17.9395 12.5026 17.9434 12.5108 17.9473 12.5308C17.9514 12.5513 17.9555 12.5841 17.9555 12.632H19.9555ZM19.1174 10.8909C18.6175 10.52 18.025 10.372 17.4155 10.372V12.372C17.702 12.372 17.8469 12.4387 17.9257 12.4971L19.1174 10.8909ZM17.4155 10.372C16.9348 10.372 16.4698 10.4612 16.031 10.6474L16.8121 12.4886C16.9892 12.4134 17.1869 12.372 17.4155 12.372V10.372ZM16.055 10.6376C15.6342 10.8034 15.2556 11.0395 14.9316 11.35L16.3154 12.794C16.4394 12.6752 16.5928 12.5753 16.788 12.4984L16.055 10.6376ZM16.3306 11.3649L15.4486 10.4829L14.0344 11.8971L14.9164 12.7791L16.3306 11.3649ZM15.4573 11.8883C15.7233 11.6157 16.0231 11.427 16.3651 11.3109L15.7219 9.41712C15.0746 9.63698 14.5064 9.999 14.0257 10.4917L15.4573 11.8883ZM16.3597 11.3127C16.7616 11.1787 17.1728 11.112 17.5975 11.112V9.112C16.9582 9.112 16.3334 9.21328 15.7273 9.41532L16.3597 11.3127ZM17.5975 11.112C18.0018 11.112 18.2861 11.1604 18.4772 11.2259L19.1258 9.33405C18.6636 9.17557 18.1452 9.112 17.5975 9.112V11.112ZM18.5017 11.234C18.7419 11.3095 18.8979 11.3958 18.9972 11.4735L20.2298 9.89849C19.8998 9.64018 19.5145 9.45584 19.1013 9.32601L18.5017 11.234ZM18.9972 11.4735C19.1056 11.5583 19.1691 11.6413 19.2091 11.7212L20.9979 10.8268C20.8139 10.4587 20.5508 10.1497 20.2298 9.89849L18.9972 11.4735ZM19.233 11.7661C19.3074 11.8978 19.3525 12.0206 19.3765 12.136L21.3345 11.728C21.2652 11.3954 21.1423 11.0795 20.9741 10.7819L19.233 11.7661ZM19.3854 12.1745C19.4263 12.3381 19.4483 12.4907 19.4545 12.6334L21.4526 12.5466C21.4401 12.2599 21.3968 11.9739 21.3257 11.6895L19.3854 12.1745ZM19.4545 12.6354C19.4634 12.8298 19.4675 12.9961 19.4675 13.136H21.4675C21.4675 12.9585 21.4623 12.7609 21.4525 12.5446L19.4545 12.6354ZM19.4675 13.136V17H21.4675V13.136H19.4675ZM20.4675 16H18.9555V18H20.4675V16ZM19.9555 17V16.076H17.9555V17H19.9555ZM18.8575 12.99H18.5075V14.99H18.8575V12.99ZM18.5075 12.99C18.2483 12.99 17.965 13.0003 17.6591 13.0201L17.7879 15.0159C18.0607 14.9983 18.3001 14.99 18.5075 14.99V12.99ZM17.6591 13.0201C17.3033 13.043 16.9571 13.1009 16.6228 13.1965L17.1722 15.1195C17.3606 15.0657 17.5651 15.0303 17.7879 15.0159L17.6591 13.0201ZM16.6466 13.19C16.2806 13.2849 15.9354 13.4431 15.6339 13.6811L16.8732 15.2509C16.9263 15.2089 17.0104 15.1618 17.1485 15.126L16.6466 13.19ZM15.6603 13.6609C15.1985 14.0012 14.9875 14.503 14.9875 15.026H16.9875C16.9875 15.0274 16.9868 15.0709 16.9573 15.1331C16.9262 15.1985 16.8818 15.2452 16.8467 15.2711L15.6603 13.6609ZM14.9875 15.026C14.9875 15.3223 15.0492 15.6401 15.2217 15.9359L16.9493 14.9281C16.9911 14.9999 16.9875 15.047 16.9875 15.026H14.9875ZM15.2768 16.0202C15.4251 16.2242 15.6064 16.3938 15.8108 16.5301L16.9202 14.8659C16.9007 14.8529 16.8952 14.8452 16.8943 14.8438L15.2768 16.0202ZM15.8108 16.5301C16.0205 16.6699 16.2483 16.7689 16.4859 16.8322L17.0012 14.8998C16.9588 14.8885 16.9345 14.8755 16.9202 14.8659L15.8108 16.5301ZM16.5474 16.8466C16.7507 16.8872 16.9564 16.908 17.1635 16.908V14.908C17.0907 14.908 17.0163 14.9008 16.9396 14.8854L16.5474 16.8466ZM17.1635 16.908C17.8737 16.908 18.6093 16.7444 19.1446 16.2091L17.7304 14.7949C17.7244 14.8009 17.6107 14.908 17.1635 14.908V16.908ZM19.1446 16.2091C19.6491 15.7046 19.8575 15.0519 19.8575 14.368H17.8575C17.8575 14.6361 17.7859 14.7394 17.7304 14.7949L19.1446 16.2091ZM19.8575 14.368V13.99H17.8575V14.368H19.8575Z" fill="black"/>
</svg>
