<svg width="56" height="56" viewBox="0 0 56 56" fill="none" xmlns="http://www.w3.org/2000/svg">
<path d="M27.5001 27.5003C30.3547 27.5003 32.6667 25.1882 32.6667 22.3337C32.6667 19.4791 30.3547 17.167 27.5001 17.167C24.6455 17.167 22.3334 19.4791 22.3334 22.3337C22.3334 25.1882 24.6455 27.5003 27.5001 27.5003ZM27.5001 30.0837C24.0513 30.0837 17.1667 31.8145 17.1667 35.2503V37.8337H37.8334V35.2503C37.8334 31.8145 30.9488 30.0837 27.5001 30.0837Z" fill="white"/>
<circle cx="28" cy="28" r="28" fill="#1B0A60"/>
<path d="M27.5001 27.5003C30.3547 27.5003 32.6667 25.1882 32.6667 22.3337C32.6667 19.4791 30.3547 17.167 27.5001 17.167C24.6455 17.167 22.3334 19.4791 22.3334 22.3337C22.3334 25.1882 24.6455 27.5003 27.5001 27.5003ZM27.5001 30.0837C24.0513 30.0837 17.1667 31.8145 17.1667 35.2503V37.8337H37.8334V35.2503C37.8334 31.8145 30.9488 30.0837 27.5001 30.0837Z" fill="white"/>
</svg>
