<svg width="375" height="176" viewBox="0 0 375 176" fill="none" xmlns="http://www.w3.org/2000/svg">
<g filter="url(#filter0_d)">
<g clip-path="url(#clip0)">
<rect x="12" y="12" width="351" height="144" rx="16" fill="white"/>
<path d="M11 9V89.2801C11 128.35 363 124.068 363 89.2801V9H11Z" fill="#C6A4FF"/>
<path d="M183.5 69V57H191.5V69H201.5V53H207.5L187.5 35L167.5 53H173.5V69H183.5Z" fill="#1B0A60"/>
<path d="M163.759 82.256H166.027V87.332H171.985V82.256H174.253V95H171.985V89.384H166.027V95H163.759V82.256ZM176.471 90.68C176.471 89.996 176.591 89.378 176.831 88.826C177.083 88.262 177.419 87.782 177.839 87.386C178.259 86.99 178.757 86.684 179.333 86.468C179.909 86.252 180.521 86.144 181.169 86.144C181.817 86.144 182.429 86.252 183.005 86.468C183.581 86.684 184.079 86.99 184.499 87.386C184.919 87.782 185.249 88.262 185.489 88.826C185.741 89.378 185.867 89.996 185.867 90.68C185.867 91.364 185.741 91.988 185.489 92.552C185.249 93.104 184.919 93.578 184.499 93.974C184.079 94.37 183.581 94.676 183.005 94.892C182.429 95.108 181.817 95.216 181.169 95.216C180.521 95.216 179.909 95.108 179.333 94.892C178.757 94.676 178.259 94.37 177.839 93.974C177.419 93.578 177.083 93.104 176.831 92.552C176.591 91.988 176.471 91.364 176.471 90.68ZM178.631 90.68C178.631 91.016 178.685 91.34 178.793 91.652C178.913 91.964 179.081 92.24 179.297 92.48C179.525 92.72 179.795 92.912 180.107 93.056C180.419 93.2 180.773 93.272 181.169 93.272C181.565 93.272 181.919 93.2 182.231 93.056C182.543 92.912 182.807 92.72 183.023 92.48C183.251 92.24 183.419 91.964 183.527 91.652C183.647 91.34 183.707 91.016 183.707 90.68C183.707 90.344 183.647 90.02 183.527 89.708C183.419 89.396 183.251 89.12 183.023 88.88C182.807 88.64 182.543 88.448 182.231 88.304C181.919 88.16 181.565 88.088 181.169 88.088C180.773 88.088 180.419 88.16 180.107 88.304C179.795 88.448 179.525 88.64 179.297 88.88C179.081 89.12 178.913 89.396 178.793 89.708C178.685 90.02 178.631 90.344 178.631 90.68ZM187.799 86.36H189.851V87.71H189.887C190.079 87.302 190.385 86.942 190.805 86.63C191.237 86.306 191.813 86.144 192.533 86.144C193.889 86.144 194.789 86.678 195.233 87.746C195.545 87.194 195.935 86.792 196.403 86.54C196.871 86.276 197.429 86.144 198.077 86.144C198.653 86.144 199.139 86.24 199.535 86.432C199.931 86.624 200.249 86.888 200.489 87.224C200.741 87.56 200.921 87.956 201.029 88.412C201.137 88.856 201.191 89.336 201.191 89.852V95H199.031V90.104C199.031 89.84 199.007 89.588 198.959 89.348C198.911 89.096 198.827 88.88 198.707 88.7C198.587 88.508 198.425 88.358 198.221 88.25C198.017 88.142 197.753 88.088 197.429 88.088C197.093 88.088 196.805 88.154 196.565 88.286C196.337 88.406 196.145 88.574 195.989 88.79C195.845 88.994 195.737 89.234 195.665 89.51C195.605 89.774 195.575 90.044 195.575 90.32V95H193.415V89.852C193.415 89.312 193.301 88.886 193.073 88.574C192.845 88.25 192.467 88.088 191.939 88.088C191.579 88.088 191.273 88.148 191.021 88.268C190.781 88.388 190.577 88.55 190.409 88.754C190.253 88.958 190.139 89.192 190.067 89.456C189.995 89.72 189.959 89.996 189.959 90.284V95H187.799V86.36ZM205.279 91.436C205.351 92.084 205.603 92.588 206.035 92.948C206.467 93.308 206.989 93.488 207.601 93.488C208.141 93.488 208.591 93.38 208.951 93.164C209.323 92.936 209.647 92.654 209.923 92.318L211.471 93.488C210.967 94.112 210.403 94.556 209.779 94.82C209.155 95.084 208.501 95.216 207.817 95.216C207.169 95.216 206.557 95.108 205.981 94.892C205.405 94.676 204.907 94.37 204.487 93.974C204.067 93.578 203.731 93.104 203.479 92.552C203.239 91.988 203.119 91.364 203.119 90.68C203.119 89.996 203.239 89.378 203.479 88.826C203.731 88.262 204.067 87.782 204.487 87.386C204.907 86.99 205.405 86.684 205.981 86.468C206.557 86.252 207.169 86.144 207.817 86.144C208.417 86.144 208.963 86.252 209.455 86.468C209.959 86.672 210.385 86.972 210.733 87.368C211.093 87.764 211.369 88.256 211.561 88.844C211.765 89.42 211.867 90.086 211.867 90.842V91.436H205.279ZM209.707 89.816C209.695 89.18 209.497 88.682 209.113 88.322C208.729 87.95 208.195 87.764 207.511 87.764C206.863 87.764 206.347 87.95 205.963 88.322C205.591 88.694 205.363 89.192 205.279 89.816H209.707Z" fill="#1B0A60"/>
<path d="M49.1986 130.504H50.3386L52.9546 137.488H52.9786L55.6786 130.504H56.7466L53.4226 139H52.4506L49.1986 130.504ZM57.4036 133.384H58.3396V139H57.4036V133.384ZM57.1876 131.188C57.1876 131.004 57.2516 130.844 57.3796 130.708C57.5156 130.572 57.6796 130.504 57.8716 130.504C58.0636 130.504 58.2236 130.572 58.3516 130.708C58.4876 130.844 58.5556 131.004 58.5556 131.188C58.5556 131.388 58.4916 131.552 58.3636 131.68C58.2356 131.808 58.0716 131.872 57.8716 131.872C57.6716 131.872 57.5076 131.808 57.3796 131.68C57.2516 131.552 57.1876 131.388 57.1876 131.188ZM65.2185 137.98C64.8825 138.412 64.5145 138.716 64.1145 138.892C63.7145 139.06 63.2505 139.144 62.7225 139.144C62.2825 139.144 61.8865 139.068 61.5345 138.916C61.1825 138.756 60.8825 138.544 60.6345 138.28C60.3945 138.016 60.2065 137.704 60.0705 137.344C59.9425 136.984 59.8785 136.6 59.8785 136.192C59.8785 135.76 59.9505 135.364 60.0945 135.004C60.2385 134.636 60.4385 134.324 60.6945 134.068C60.9505 133.804 61.2545 133.6 61.6065 133.456C61.9585 133.312 62.3425 133.24 62.7585 133.24C63.1505 133.24 63.5105 133.308 63.8385 133.444C64.1665 133.572 64.4465 133.764 64.6785 134.02C64.9185 134.268 65.1025 134.576 65.2305 134.944C65.3585 135.304 65.4225 135.716 65.4225 136.18V136.48H60.8865C60.9025 136.72 60.9585 136.952 61.0545 137.176C61.1585 137.392 61.2905 137.584 61.4505 137.752C61.6105 137.912 61.7985 138.04 62.0145 138.136C62.2305 138.232 62.4665 138.28 62.7225 138.28C63.1305 138.28 63.4745 138.208 63.7545 138.064C64.0345 137.92 64.2865 137.708 64.5105 137.428L65.2185 137.98ZM64.4145 135.688C64.3985 135.208 64.2425 134.824 63.9465 134.536C63.6505 134.248 63.2425 134.104 62.7225 134.104C62.2025 134.104 61.7825 134.248 61.4625 134.536C61.1425 134.824 60.9505 135.208 60.8865 135.688H64.4145ZM72.8944 139H71.9704L70.3744 134.68H70.3504L68.9344 139H67.9744L66.1504 133.384H67.1824L68.4664 137.704H68.4904L69.9424 133.384H70.9264L72.4024 137.704H72.4264L73.6984 133.384H74.7064L72.8944 139ZM79.0328 134.104C79.3208 133.808 79.6608 133.592 80.0528 133.456C80.4528 133.312 80.8568 133.24 81.2648 133.24C82.0968 133.24 82.6968 133.436 83.0648 133.828C83.4328 134.22 83.6168 134.816 83.6168 135.616V138.028C83.6168 138.188 83.6248 138.356 83.6408 138.532C83.6568 138.7 83.6768 138.856 83.7008 139H82.8008C82.7688 138.872 82.7488 138.732 82.7408 138.58C82.7408 138.42 82.7408 138.28 82.7408 138.16H82.7168C82.5328 138.448 82.2848 138.684 81.9728 138.868C81.6688 139.052 81.3008 139.144 80.8688 139.144C80.5808 139.144 80.3088 139.108 80.0528 139.036C79.8048 138.964 79.5848 138.86 79.3928 138.724C79.2088 138.58 79.0608 138.404 78.9488 138.196C78.8368 137.988 78.7808 137.748 78.7808 137.476C78.7808 137.012 78.9008 136.648 79.1408 136.384C79.3808 136.12 79.6768 135.924 80.0288 135.796C80.3888 135.668 80.7728 135.588 81.1808 135.556C81.5968 135.524 81.9768 135.508 82.3208 135.508H82.6808V135.34C82.6808 134.932 82.5568 134.624 82.3088 134.416C82.0688 134.208 81.7288 134.104 81.2888 134.104C80.9848 134.104 80.6848 134.156 80.3888 134.26C80.1008 134.356 79.8448 134.508 79.6208 134.716L79.0328 134.104ZM81.7448 136.3C81.1448 136.3 80.6688 136.384 80.3168 136.552C79.9648 136.72 79.7888 136.996 79.7888 137.38C79.7888 137.732 79.9048 137.984 80.1368 138.136C80.3768 138.28 80.6728 138.352 81.0248 138.352C81.2968 138.352 81.5328 138.308 81.7328 138.22C81.9408 138.124 82.1128 138 82.2488 137.848C82.3848 137.696 82.4888 137.52 82.5608 137.32C82.6328 137.112 82.6728 136.892 82.6808 136.66V136.3H81.7448ZM85.4115 129.928H86.3475V139H85.4115V129.928ZM88.306 129.928H89.242V139H88.306V129.928ZM94.3966 133.384H95.3326V134.2H95.3566C95.6126 133.896 95.9086 133.66 96.2446 133.492C96.5886 133.324 96.9646 133.24 97.3726 133.24C97.8126 133.24 98.2126 133.316 98.5726 133.468C98.9406 133.612 99.2526 133.816 99.5086 134.08C99.7646 134.344 99.9646 134.656 100.109 135.016C100.253 135.376 100.325 135.768 100.325 136.192C100.325 136.616 100.253 137.008 100.109 137.368C99.9646 137.728 99.7646 138.04 99.5086 138.304C99.2606 138.568 98.9646 138.776 98.6206 138.928C98.2766 139.072 97.9086 139.144 97.5166 139.144C97.0126 139.144 96.5686 139.036 96.1846 138.82C95.8086 138.596 95.5326 138.324 95.3566 138.004H95.3326V141.736H94.3966V133.384ZM95.3326 136.192C95.3326 136.488 95.3766 136.764 95.4646 137.02C95.5606 137.268 95.6966 137.488 95.8726 137.68C96.0486 137.864 96.2566 138.012 96.4966 138.124C96.7446 138.228 97.0206 138.28 97.3246 138.28C97.6286 138.28 97.9006 138.228 98.1406 138.124C98.3886 138.012 98.6006 137.864 98.7766 137.68C98.9526 137.488 99.0846 137.268 99.1726 137.02C99.2686 136.764 99.3166 136.488 99.3166 136.192C99.3166 135.896 99.2686 135.624 99.1726 135.376C99.0846 135.12 98.9526 134.9 98.7766 134.716C98.6006 134.524 98.3886 134.376 98.1406 134.272C97.9006 134.16 97.6286 134.104 97.3246 134.104C97.0206 134.104 96.7446 134.16 96.4966 134.272C96.2566 134.376 96.0486 134.524 95.8726 134.716C95.6966 134.9 95.5606 135.12 95.4646 135.376C95.3766 135.624 95.3326 135.896 95.3326 136.192ZM101.457 136.192C101.457 135.752 101.533 135.352 101.685 134.992C101.837 134.632 102.045 134.324 102.309 134.068C102.573 133.804 102.889 133.6 103.257 133.456C103.625 133.312 104.025 133.24 104.457 133.24C104.889 133.24 105.289 133.312 105.657 133.456C106.025 133.6 106.341 133.804 106.605 134.068C106.869 134.324 107.077 134.632 107.229 134.992C107.381 135.352 107.457 135.752 107.457 136.192C107.457 136.632 107.381 137.032 107.229 137.392C107.077 137.752 106.869 138.064 106.605 138.328C106.341 138.584 106.025 138.784 105.657 138.928C105.289 139.072 104.889 139.144 104.457 139.144C104.025 139.144 103.625 139.072 103.257 138.928C102.889 138.784 102.573 138.584 102.309 138.328C102.045 138.064 101.837 137.752 101.685 137.392C101.533 137.032 101.457 136.632 101.457 136.192ZM102.465 136.192C102.465 136.488 102.509 136.764 102.597 137.02C102.693 137.268 102.829 137.488 103.005 137.68C103.181 137.864 103.389 138.012 103.629 138.124C103.877 138.228 104.153 138.28 104.457 138.28C104.761 138.28 105.033 138.228 105.273 138.124C105.521 138.012 105.733 137.864 105.909 137.68C106.085 137.488 106.217 137.268 106.305 137.02C106.401 136.764 106.449 136.488 106.449 136.192C106.449 135.896 106.401 135.624 106.305 135.376C106.217 135.12 106.085 134.9 105.909 134.716C105.733 134.524 105.521 134.376 105.273 134.272C105.033 134.16 104.761 134.104 104.457 134.104C104.153 134.104 103.877 134.16 103.629 134.272C103.389 134.376 103.181 134.524 103.005 134.716C102.829 134.9 102.693 135.12 102.597 135.376C102.509 135.624 102.465 135.896 102.465 136.192ZM109.026 137.524C109.21 137.756 109.41 137.94 109.626 138.076C109.85 138.212 110.13 138.28 110.466 138.28C110.61 138.28 110.754 138.264 110.898 138.232C111.05 138.2 111.186 138.148 111.306 138.076C111.426 138.004 111.522 137.916 111.594 137.812C111.666 137.7 111.702 137.568 111.702 137.416C111.702 137.264 111.666 137.14 111.594 137.044C111.53 136.948 111.442 136.868 111.33 136.804C111.218 136.732 111.09 136.676 110.946 136.636C110.802 136.596 110.654 136.56 110.502 136.528C110.238 136.472 109.986 136.408 109.746 136.336C109.506 136.264 109.294 136.172 109.11 136.06C108.934 135.94 108.79 135.788 108.678 135.604C108.574 135.42 108.522 135.184 108.522 134.896C108.522 134.624 108.582 134.384 108.702 134.176C108.822 133.968 108.982 133.796 109.182 133.66C109.382 133.524 109.606 133.42 109.854 133.348C110.102 133.276 110.358 133.24 110.622 133.24C111.022 133.24 111.39 133.32 111.726 133.48C112.07 133.64 112.338 133.9 112.53 134.26L111.75 134.776C111.63 134.576 111.47 134.416 111.27 134.296C111.078 134.168 110.842 134.104 110.562 134.104C110.434 134.104 110.302 134.12 110.166 134.152C110.038 134.184 109.922 134.232 109.818 134.296C109.714 134.36 109.626 134.444 109.554 134.548C109.49 134.644 109.458 134.756 109.458 134.884C109.458 135.004 109.494 135.108 109.566 135.196C109.646 135.276 109.75 135.348 109.878 135.412C110.014 135.476 110.166 135.532 110.334 135.58C110.51 135.628 110.69 135.668 110.874 135.7C111.122 135.748 111.358 135.812 111.582 135.892C111.806 135.964 112.002 136.064 112.17 136.192C112.338 136.32 112.47 136.48 112.566 136.672C112.662 136.864 112.71 137.1 112.71 137.38C112.71 137.7 112.646 137.972 112.518 138.196C112.39 138.42 112.218 138.604 112.002 138.748C111.794 138.884 111.554 138.984 111.282 139.048C111.018 139.112 110.746 139.144 110.466 139.144C109.986 139.144 109.57 139.072 109.218 138.928C108.874 138.776 108.562 138.5 108.282 138.1L109.026 137.524ZM117.087 134.176H115.431V136.984C115.431 137.168 115.435 137.34 115.443 137.5C115.451 137.652 115.483 137.788 115.539 137.908C115.595 138.02 115.679 138.112 115.791 138.184C115.903 138.248 116.063 138.28 116.271 138.28C116.407 138.28 116.547 138.264 116.691 138.232C116.835 138.2 116.971 138.152 117.099 138.088L117.135 138.94C116.975 139.012 116.795 139.064 116.595 139.096C116.403 139.128 116.219 139.144 116.043 139.144C115.707 139.144 115.439 139.1 115.239 139.012C115.039 138.924 114.883 138.8 114.771 138.64C114.659 138.48 114.583 138.284 114.543 138.052C114.511 137.812 114.495 137.548 114.495 137.26V134.176H113.271V133.384H114.495V131.788H115.431V133.384H117.087V134.176ZM118.354 137.524C118.538 137.756 118.738 137.94 118.954 138.076C119.178 138.212 119.458 138.28 119.794 138.28C119.938 138.28 120.082 138.264 120.226 138.232C120.378 138.2 120.514 138.148 120.634 138.076C120.754 138.004 120.85 137.916 120.922 137.812C120.994 137.7 121.03 137.568 121.03 137.416C121.03 137.264 120.994 137.14 120.922 137.044C120.858 136.948 120.77 136.868 120.658 136.804C120.546 136.732 120.418 136.676 120.274 136.636C120.13 136.596 119.982 136.56 119.83 136.528C119.566 136.472 119.314 136.408 119.074 136.336C118.834 136.264 118.622 136.172 118.438 136.06C118.262 135.94 118.118 135.788 118.006 135.604C117.902 135.42 117.85 135.184 117.85 134.896C117.85 134.624 117.91 134.384 118.03 134.176C118.15 133.968 118.31 133.796 118.51 133.66C118.71 133.524 118.934 133.42 119.182 133.348C119.43 133.276 119.686 133.24 119.95 133.24C120.35 133.24 120.718 133.32 121.054 133.48C121.398 133.64 121.666 133.9 121.858 134.26L121.078 134.776C120.958 134.576 120.798 134.416 120.598 134.296C120.406 134.168 120.17 134.104 119.89 134.104C119.762 134.104 119.63 134.12 119.494 134.152C119.366 134.184 119.25 134.232 119.146 134.296C119.042 134.36 118.954 134.444 118.882 134.548C118.818 134.644 118.786 134.756 118.786 134.884C118.786 135.004 118.822 135.108 118.894 135.196C118.974 135.276 119.078 135.348 119.206 135.412C119.342 135.476 119.494 135.532 119.662 135.58C119.838 135.628 120.018 135.668 120.202 135.7C120.45 135.748 120.686 135.812 120.91 135.892C121.134 135.964 121.33 136.064 121.498 136.192C121.666 136.32 121.798 136.48 121.894 136.672C121.99 136.864 122.038 137.1 122.038 137.38C122.038 137.7 121.974 137.972 121.846 138.196C121.718 138.42 121.546 138.604 121.33 138.748C121.122 138.884 120.882 138.984 120.61 139.048C120.346 139.112 120.074 139.144 119.794 139.144C119.314 139.144 118.898 139.072 118.546 138.928C118.202 138.776 117.89 138.5 117.61 138.1L118.354 137.524ZM127.163 134.176H125.939V133.384H127.163V132.124C127.163 131.78 127.195 131.468 127.259 131.188C127.323 130.9 127.431 130.652 127.583 130.444C127.743 130.236 127.951 130.076 128.207 129.964C128.463 129.844 128.779 129.784 129.155 129.784C129.275 129.784 129.403 129.796 129.539 129.82C129.675 129.844 129.787 129.88 129.875 129.928L129.743 130.768C129.519 130.688 129.307 130.648 129.107 130.648C128.867 130.648 128.679 130.692 128.543 130.78C128.407 130.86 128.303 130.976 128.231 131.128C128.167 131.272 128.127 131.448 128.111 131.656C128.103 131.864 128.099 132.088 128.099 132.328V133.384H129.467V134.176H128.099V139H127.163V134.176ZM130.468 134.716C130.468 134.46 130.46 134.22 130.444 133.996C130.428 133.772 130.42 133.568 130.42 133.384H131.308C131.308 133.536 131.312 133.688 131.32 133.84C131.328 133.992 131.332 134.148 131.332 134.308H131.356C131.42 134.172 131.508 134.04 131.62 133.912C131.74 133.784 131.88 133.672 132.04 133.576C132.2 133.472 132.38 133.392 132.58 133.336C132.78 133.272 132.996 133.24 133.228 133.24C133.292 133.24 133.356 133.244 133.42 133.252C133.484 133.26 133.548 133.276 133.612 133.3L133.552 134.248C133.392 134.2 133.224 134.176 133.048 134.176C132.472 134.176 132.052 134.364 131.788 134.74C131.532 135.108 131.404 135.616 131.404 136.264V139H130.468V134.716ZM134.152 136.192C134.152 135.752 134.228 135.352 134.38 134.992C134.532 134.632 134.74 134.324 135.004 134.068C135.268 133.804 135.584 133.6 135.952 133.456C136.32 133.312 136.72 133.24 137.152 133.24C137.584 133.24 137.984 133.312 138.352 133.456C138.72 133.6 139.036 133.804 139.3 134.068C139.564 134.324 139.772 134.632 139.924 134.992C140.076 135.352 140.152 135.752 140.152 136.192C140.152 136.632 140.076 137.032 139.924 137.392C139.772 137.752 139.564 138.064 139.3 138.328C139.036 138.584 138.72 138.784 138.352 138.928C137.984 139.072 137.584 139.144 137.152 139.144C136.72 139.144 136.32 139.072 135.952 138.928C135.584 138.784 135.268 138.584 135.004 138.328C134.74 138.064 134.532 137.752 134.38 137.392C134.228 137.032 134.152 136.632 134.152 136.192ZM135.16 136.192C135.16 136.488 135.204 136.764 135.292 137.02C135.388 137.268 135.524 137.488 135.7 137.68C135.876 137.864 136.084 138.012 136.324 138.124C136.572 138.228 136.848 138.28 137.152 138.28C137.456 138.28 137.728 138.228 137.968 138.124C138.216 138.012 138.428 137.864 138.604 137.68C138.78 137.488 138.912 137.268 139 137.02C139.096 136.764 139.144 136.488 139.144 136.192C139.144 135.896 139.096 135.624 139 135.376C138.912 135.12 138.78 134.9 138.604 134.716C138.428 134.524 138.216 134.376 137.968 134.272C137.728 134.16 137.456 134.104 137.152 134.104C136.848 134.104 136.572 134.16 136.324 134.272C136.084 134.376 135.876 134.524 135.7 134.716C135.524 134.9 135.388 135.12 135.292 135.376C135.204 135.624 135.16 135.896 135.16 136.192ZM141.601 134.716C141.601 134.46 141.593 134.22 141.577 133.996C141.561 133.772 141.553 133.568 141.553 133.384H142.441C142.441 133.536 142.445 133.688 142.453 133.84C142.461 133.992 142.465 134.148 142.465 134.308H142.489C142.553 134.172 142.641 134.04 142.753 133.912C142.873 133.784 143.013 133.672 143.173 133.576C143.333 133.472 143.513 133.392 143.713 133.336C143.913 133.272 144.129 133.24 144.361 133.24C144.665 133.24 144.917 133.28 145.117 133.36C145.325 133.432 145.497 133.524 145.633 133.636C145.769 133.74 145.873 133.856 145.945 133.984C146.025 134.104 146.089 134.212 146.137 134.308C146.345 133.972 146.585 133.712 146.857 133.528C147.129 133.336 147.481 133.24 147.913 133.24C148.313 133.24 148.649 133.296 148.921 133.408C149.193 133.512 149.413 133.668 149.581 133.876C149.749 134.076 149.869 134.324 149.941 134.62C150.013 134.908 150.049 135.232 150.049 135.592V139H149.113V135.64C149.113 135.448 149.093 135.26 149.053 135.076C149.013 134.892 148.941 134.728 148.837 134.584C148.733 134.44 148.593 134.324 148.417 134.236C148.241 134.148 148.017 134.104 147.745 134.104C147.545 134.104 147.357 134.144 147.181 134.224C147.005 134.304 146.849 134.416 146.713 134.56C146.585 134.704 146.481 134.88 146.401 135.088C146.329 135.288 146.293 135.512 146.293 135.76V139H145.357V135.82C145.357 135.196 145.273 134.756 145.105 134.5C144.937 134.236 144.661 134.104 144.277 134.104C143.973 134.104 143.709 134.156 143.485 134.26C143.269 134.364 143.089 134.512 142.945 134.704C142.809 134.896 142.705 135.124 142.633 135.388C142.569 135.652 142.537 135.944 142.537 136.264V139H141.601V134.716ZM159.155 134.788C158.955 134.548 158.739 134.376 158.507 134.272C158.275 134.16 158.019 134.104 157.739 134.104C157.427 134.104 157.151 134.16 156.911 134.272C156.671 134.376 156.471 134.524 156.311 134.716C156.159 134.908 156.043 135.132 155.963 135.388C155.883 135.636 155.843 135.904 155.843 136.192C155.843 136.48 155.887 136.752 155.975 137.008C156.071 137.256 156.199 137.476 156.359 137.668C156.527 137.86 156.727 138.012 156.959 138.124C157.191 138.228 157.451 138.28 157.739 138.28C158.355 138.28 158.831 138.048 159.167 137.584L159.863 138.244C159.591 138.556 159.271 138.784 158.903 138.928C158.535 139.072 158.147 139.144 157.739 139.144C157.307 139.144 156.911 139.072 156.551 138.928C156.191 138.784 155.883 138.58 155.627 138.316C155.379 138.052 155.183 137.74 155.039 137.38C154.903 137.02 154.835 136.624 154.835 136.192C154.835 135.768 154.903 135.376 155.039 135.016C155.183 134.656 155.383 134.344 155.639 134.08C155.895 133.816 156.199 133.612 156.551 133.468C156.911 133.316 157.307 133.24 157.739 133.24C158.155 133.24 158.547 133.312 158.915 133.456C159.291 133.6 159.619 133.824 159.899 134.128L159.155 134.788ZM160.625 136.192C160.625 135.752 160.701 135.352 160.853 134.992C161.005 134.632 161.213 134.324 161.477 134.068C161.741 133.804 162.057 133.6 162.425 133.456C162.793 133.312 163.193 133.24 163.625 133.24C164.057 133.24 164.457 133.312 164.825 133.456C165.193 133.6 165.509 133.804 165.773 134.068C166.037 134.324 166.245 134.632 166.397 134.992C166.549 135.352 166.625 135.752 166.625 136.192C166.625 136.632 166.549 137.032 166.397 137.392C166.245 137.752 166.037 138.064 165.773 138.328C165.509 138.584 165.193 138.784 164.825 138.928C164.457 139.072 164.057 139.144 163.625 139.144C163.193 139.144 162.793 139.072 162.425 138.928C162.057 138.784 161.741 138.584 161.477 138.328C161.213 138.064 161.005 137.752 160.853 137.392C160.701 137.032 160.625 136.632 160.625 136.192ZM161.633 136.192C161.633 136.488 161.677 136.764 161.765 137.02C161.861 137.268 161.997 137.488 162.173 137.68C162.349 137.864 162.557 138.012 162.797 138.124C163.045 138.228 163.321 138.28 163.625 138.28C163.929 138.28 164.201 138.228 164.441 138.124C164.689 138.012 164.901 137.864 165.077 137.68C165.253 137.488 165.385 137.268 165.473 137.02C165.569 136.764 165.617 136.488 165.617 136.192C165.617 135.896 165.569 135.624 165.473 135.376C165.385 135.12 165.253 134.9 165.077 134.716C164.901 134.524 164.689 134.376 164.441 134.272C164.201 134.16 163.929 134.104 163.625 134.104C163.321 134.104 163.045 134.16 162.797 134.272C162.557 134.376 162.349 134.524 162.173 134.716C161.997 134.9 161.861 135.12 161.765 135.376C161.677 135.624 161.633 135.896 161.633 136.192ZM168.074 134.716C168.074 134.46 168.066 134.22 168.05 133.996C168.034 133.772 168.026 133.568 168.026 133.384H168.914C168.914 133.536 168.918 133.688 168.926 133.84C168.934 133.992 168.938 134.148 168.938 134.308H168.962C169.026 134.172 169.114 134.04 169.226 133.912C169.346 133.784 169.486 133.672 169.646 133.576C169.806 133.472 169.986 133.392 170.186 133.336C170.386 133.272 170.602 133.24 170.834 133.24C171.138 133.24 171.39 133.28 171.59 133.36C171.798 133.432 171.97 133.524 172.106 133.636C172.242 133.74 172.346 133.856 172.418 133.984C172.498 134.104 172.562 134.212 172.61 134.308C172.818 133.972 173.058 133.712 173.33 133.528C173.602 133.336 173.954 133.24 174.386 133.24C174.786 133.24 175.122 133.296 175.394 133.408C175.666 133.512 175.886 133.668 176.054 133.876C176.222 134.076 176.342 134.324 176.414 134.62C176.486 134.908 176.522 135.232 176.522 135.592V139H175.586V135.64C175.586 135.448 175.566 135.26 175.526 135.076C175.486 134.892 175.414 134.728 175.31 134.584C175.206 134.44 175.066 134.324 174.89 134.236C174.714 134.148 174.49 134.104 174.218 134.104C174.018 134.104 173.83 134.144 173.654 134.224C173.478 134.304 173.322 134.416 173.186 134.56C173.058 134.704 172.954 134.88 172.874 135.088C172.802 135.288 172.766 135.512 172.766 135.76V139H171.83V135.82C171.83 135.196 171.746 134.756 171.578 134.5C171.41 134.236 171.134 134.104 170.75 134.104C170.446 134.104 170.182 134.156 169.958 134.26C169.742 134.364 169.562 134.512 169.418 134.704C169.282 134.896 169.178 135.124 169.106 135.388C169.042 135.652 169.01 135.944 169.01 136.264V139H168.074V134.716ZM178.292 134.716C178.292 134.46 178.284 134.22 178.268 133.996C178.252 133.772 178.244 133.568 178.244 133.384H179.132C179.132 133.536 179.136 133.688 179.144 133.84C179.152 133.992 179.156 134.148 179.156 134.308H179.18C179.244 134.172 179.332 134.04 179.444 133.912C179.564 133.784 179.704 133.672 179.864 133.576C180.024 133.472 180.204 133.392 180.404 133.336C180.604 133.272 180.82 133.24 181.052 133.24C181.356 133.24 181.608 133.28 181.808 133.36C182.016 133.432 182.188 133.524 182.324 133.636C182.46 133.74 182.564 133.856 182.636 133.984C182.716 134.104 182.78 134.212 182.828 134.308C183.036 133.972 183.276 133.712 183.548 133.528C183.82 133.336 184.172 133.24 184.604 133.24C185.004 133.24 185.34 133.296 185.612 133.408C185.884 133.512 186.104 133.668 186.272 133.876C186.44 134.076 186.56 134.324 186.632 134.62C186.704 134.908 186.74 135.232 186.74 135.592V139H185.804V135.64C185.804 135.448 185.784 135.26 185.744 135.076C185.704 134.892 185.632 134.728 185.528 134.584C185.424 134.44 185.284 134.324 185.108 134.236C184.932 134.148 184.708 134.104 184.436 134.104C184.236 134.104 184.048 134.144 183.872 134.224C183.696 134.304 183.54 134.416 183.404 134.56C183.276 134.704 183.172 134.88 183.092 135.088C183.02 135.288 182.984 135.512 182.984 135.76V139H182.048V135.82C182.048 135.196 181.964 134.756 181.796 134.5C181.628 134.236 181.352 134.104 180.968 134.104C180.664 134.104 180.4 134.156 180.176 134.26C179.96 134.364 179.78 134.512 179.636 134.704C179.5 134.896 179.396 135.124 179.324 135.388C179.26 135.652 179.228 135.944 179.228 136.264V139H178.292V134.716ZM193.407 137.668C193.407 137.924 193.415 138.164 193.431 138.388C193.447 138.612 193.455 138.816 193.455 139H192.567C192.567 138.848 192.563 138.696 192.555 138.544C192.547 138.392 192.543 138.236 192.543 138.076H192.519C192.455 138.212 192.363 138.344 192.243 138.472C192.131 138.6 191.995 138.716 191.835 138.82C191.675 138.916 191.495 138.992 191.295 139.048C191.095 139.112 190.879 139.144 190.647 139.144C190.279 139.144 189.959 139.088 189.687 138.976C189.423 138.864 189.203 138.708 189.027 138.508C188.851 138.308 188.719 138.068 188.631 137.788C188.551 137.5 188.511 137.188 188.511 136.852V133.384H189.447V136.756C189.447 137.228 189.551 137.6 189.759 137.872C189.967 138.144 190.291 138.28 190.731 138.28C191.035 138.28 191.295 138.228 191.511 138.124C191.735 138.02 191.915 137.872 192.051 137.68C192.195 137.488 192.299 137.26 192.363 136.996C192.435 136.732 192.471 136.44 192.471 136.12V133.384H193.407V137.668ZM195.179 134.716C195.179 134.46 195.171 134.22 195.155 133.996C195.139 133.772 195.131 133.568 195.131 133.384H196.019C196.019 133.536 196.023 133.688 196.031 133.84C196.039 133.992 196.043 134.148 196.043 134.308H196.067C196.131 134.172 196.219 134.04 196.331 133.912C196.451 133.784 196.591 133.672 196.751 133.576C196.911 133.472 197.091 133.392 197.291 133.336C197.491 133.272 197.707 133.24 197.939 133.24C198.307 133.24 198.623 133.296 198.887 133.408C199.159 133.52 199.383 133.676 199.559 133.876C199.735 134.076 199.863 134.32 199.943 134.608C200.031 134.888 200.075 135.196 200.075 135.532V139H199.139V135.628C199.139 135.156 199.035 134.784 198.827 134.512C198.619 134.24 198.295 134.104 197.855 134.104C197.551 134.104 197.287 134.156 197.063 134.26C196.847 134.364 196.667 134.512 196.523 134.704C196.387 134.896 196.283 135.124 196.211 135.388C196.147 135.652 196.115 135.944 196.115 136.264V139H195.179V134.716ZM201.931 133.384H202.867V139H201.931V133.384ZM201.715 131.188C201.715 131.004 201.779 130.844 201.907 130.708C202.043 130.572 202.207 130.504 202.399 130.504C202.591 130.504 202.751 130.572 202.879 130.708C203.015 130.844 203.083 131.004 203.083 131.188C203.083 131.388 203.019 131.552 202.891 131.68C202.763 131.808 202.599 131.872 202.399 131.872C202.199 131.872 202.035 131.808 201.907 131.68C201.779 131.552 201.715 131.388 201.715 131.188ZM207.802 134.176H206.146V136.984C206.146 137.168 206.15 137.34 206.158 137.5C206.166 137.652 206.198 137.788 206.254 137.908C206.31 138.02 206.394 138.112 206.506 138.184C206.618 138.248 206.778 138.28 206.986 138.28C207.122 138.28 207.262 138.264 207.406 138.232C207.55 138.2 207.686 138.152 207.814 138.088L207.85 138.94C207.69 139.012 207.51 139.064 207.31 139.096C207.118 139.128 206.934 139.144 206.758 139.144C206.422 139.144 206.154 139.1 205.954 139.012C205.754 138.924 205.598 138.8 205.486 138.64C205.374 138.48 205.298 138.284 205.258 138.052C205.226 137.812 205.21 137.548 205.21 137.26V134.176H203.986V133.384H205.21V131.788H206.146V133.384H207.802V134.176ZM209.044 133.384H209.98V139H209.044V133.384ZM208.828 131.188C208.828 131.004 208.892 130.844 209.02 130.708C209.156 130.572 209.32 130.504 209.512 130.504C209.704 130.504 209.864 130.572 209.992 130.708C210.128 130.844 210.196 131.004 210.196 131.188C210.196 131.388 210.132 131.552 210.004 131.68C209.876 131.808 209.712 131.872 209.512 131.872C209.312 131.872 209.148 131.808 209.02 131.68C208.892 131.552 208.828 131.388 208.828 131.188ZM216.859 137.98C216.523 138.412 216.155 138.716 215.755 138.892C215.355 139.06 214.891 139.144 214.363 139.144C213.923 139.144 213.527 139.068 213.175 138.916C212.823 138.756 212.523 138.544 212.275 138.28C212.035 138.016 211.847 137.704 211.711 137.344C211.583 136.984 211.519 136.6 211.519 136.192C211.519 135.76 211.591 135.364 211.735 135.004C211.879 134.636 212.079 134.324 212.335 134.068C212.591 133.804 212.895 133.6 213.247 133.456C213.599 133.312 213.983 133.24 214.399 133.24C214.791 133.24 215.151 133.308 215.479 133.444C215.807 133.572 216.087 133.764 216.319 134.02C216.559 134.268 216.743 134.576 216.871 134.944C216.999 135.304 217.063 135.716 217.063 136.18V136.48H212.527C212.543 136.72 212.599 136.952 212.695 137.176C212.799 137.392 212.931 137.584 213.091 137.752C213.251 137.912 213.439 138.04 213.655 138.136C213.871 138.232 214.107 138.28 214.363 138.28C214.771 138.28 215.115 138.208 215.395 138.064C215.675 137.92 215.927 137.708 216.151 137.428L216.859 137.98ZM216.055 135.688C216.039 135.208 215.883 134.824 215.587 134.536C215.291 134.248 214.883 134.104 214.363 134.104C213.843 134.104 213.423 134.248 213.103 134.536C212.783 134.824 212.591 135.208 212.527 135.688H216.055ZM218.631 137.524C218.815 137.756 219.015 137.94 219.231 138.076C219.455 138.212 219.735 138.28 220.071 138.28C220.215 138.28 220.359 138.264 220.503 138.232C220.655 138.2 220.791 138.148 220.911 138.076C221.031 138.004 221.127 137.916 221.199 137.812C221.271 137.7 221.307 137.568 221.307 137.416C221.307 137.264 221.271 137.14 221.199 137.044C221.135 136.948 221.047 136.868 220.935 136.804C220.823 136.732 220.695 136.676 220.551 136.636C220.407 136.596 220.259 136.56 220.107 136.528C219.843 136.472 219.591 136.408 219.351 136.336C219.111 136.264 218.899 136.172 218.715 136.06C218.539 135.94 218.395 135.788 218.283 135.604C218.179 135.42 218.127 135.184 218.127 134.896C218.127 134.624 218.187 134.384 218.307 134.176C218.427 133.968 218.587 133.796 218.787 133.66C218.987 133.524 219.211 133.42 219.459 133.348C219.707 133.276 219.963 133.24 220.227 133.24C220.627 133.24 220.995 133.32 221.331 133.48C221.675 133.64 221.943 133.9 222.135 134.26L221.355 134.776C221.235 134.576 221.075 134.416 220.875 134.296C220.683 134.168 220.447 134.104 220.167 134.104C220.039 134.104 219.907 134.12 219.771 134.152C219.643 134.184 219.527 134.232 219.423 134.296C219.319 134.36 219.231 134.444 219.159 134.548C219.095 134.644 219.063 134.756 219.063 134.884C219.063 135.004 219.099 135.108 219.171 135.196C219.251 135.276 219.355 135.348 219.483 135.412C219.619 135.476 219.771 135.532 219.939 135.58C220.115 135.628 220.295 135.668 220.479 135.7C220.727 135.748 220.963 135.812 221.187 135.892C221.411 135.964 221.607 136.064 221.775 136.192C221.943 136.32 222.075 136.48 222.171 136.672C222.267 136.864 222.315 137.1 222.315 137.38C222.315 137.7 222.251 137.972 222.123 138.196C221.995 138.42 221.823 138.604 221.607 138.748C221.399 138.884 221.159 138.984 220.887 139.048C220.623 139.112 220.351 139.144 220.071 139.144C219.591 139.144 219.175 139.072 218.823 138.928C218.479 138.776 218.167 138.5 217.887 138.1L218.631 137.524ZM229.024 140.284C228.928 140.524 228.828 140.74 228.724 140.932C228.628 141.132 228.508 141.3 228.364 141.436C228.228 141.58 228.06 141.688 227.86 141.76C227.668 141.84 227.432 141.88 227.152 141.88C227.016 141.88 226.872 141.872 226.72 141.856C226.576 141.84 226.44 141.8 226.312 141.736L226.432 140.92C226.528 140.96 226.628 140.984 226.732 140.992C226.836 141.008 226.956 141.016 227.092 141.016C227.396 141.016 227.62 140.932 227.764 140.764C227.908 140.596 228.032 140.372 228.136 140.092L228.52 139.036L226.192 133.384H227.284L229.024 137.788H229.048L230.716 133.384H231.736L229.024 140.284ZM232.425 136.192C232.425 135.752 232.501 135.352 232.653 134.992C232.805 134.632 233.013 134.324 233.277 134.068C233.541 133.804 233.857 133.6 234.225 133.456C234.593 133.312 234.993 133.24 235.425 133.24C235.857 133.24 236.257 133.312 236.625 133.456C236.993 133.6 237.309 133.804 237.573 134.068C237.837 134.324 238.045 134.632 238.197 134.992C238.349 135.352 238.425 135.752 238.425 136.192C238.425 136.632 238.349 137.032 238.197 137.392C238.045 137.752 237.837 138.064 237.573 138.328C237.309 138.584 236.993 138.784 236.625 138.928C236.257 139.072 235.857 139.144 235.425 139.144C234.993 139.144 234.593 139.072 234.225 138.928C233.857 138.784 233.541 138.584 233.277 138.328C233.013 138.064 232.805 137.752 232.653 137.392C232.501 137.032 232.425 136.632 232.425 136.192ZM233.433 136.192C233.433 136.488 233.477 136.764 233.565 137.02C233.661 137.268 233.797 137.488 233.973 137.68C234.149 137.864 234.357 138.012 234.597 138.124C234.845 138.228 235.121 138.28 235.425 138.28C235.729 138.28 236.001 138.228 236.241 138.124C236.489 138.012 236.701 137.864 236.877 137.68C237.053 137.488 237.185 137.268 237.273 137.02C237.369 136.764 237.417 136.488 237.417 136.192C237.417 135.896 237.369 135.624 237.273 135.376C237.185 135.12 237.053 134.9 236.877 134.716C236.701 134.524 236.489 134.376 236.241 134.272C236.001 134.16 235.729 134.104 235.425 134.104C235.121 134.104 234.845 134.16 234.597 134.272C234.357 134.376 234.149 134.524 233.973 134.716C233.797 134.9 233.661 135.12 233.565 135.376C233.477 135.624 233.433 135.896 233.433 136.192ZM244.77 137.668C244.77 137.924 244.778 138.164 244.794 138.388C244.81 138.612 244.818 138.816 244.818 139H243.93C243.93 138.848 243.926 138.696 243.918 138.544C243.91 138.392 243.906 138.236 243.906 138.076H243.882C243.818 138.212 243.726 138.344 243.606 138.472C243.494 138.6 243.358 138.716 243.198 138.82C243.038 138.916 242.858 138.992 242.658 139.048C242.458 139.112 242.242 139.144 242.01 139.144C241.642 139.144 241.322 139.088 241.05 138.976C240.786 138.864 240.566 138.708 240.39 138.508C240.214 138.308 240.082 138.068 239.994 137.788C239.914 137.5 239.874 137.188 239.874 136.852V133.384H240.81V136.756C240.81 137.228 240.914 137.6 241.122 137.872C241.33 138.144 241.654 138.28 242.094 138.28C242.398 138.28 242.658 138.228 242.874 138.124C243.098 138.02 243.278 137.872 243.414 137.68C243.558 137.488 243.662 137.26 243.726 136.996C243.798 136.732 243.834 136.44 243.834 136.12V133.384H244.77V137.668ZM247.286 133.384H246.374L247.178 130.504H248.27L247.286 133.384ZM252.438 139H251.406L249.114 133.384H250.206L251.958 137.788H251.982L253.65 133.384H254.658L252.438 139ZM260.687 137.98C260.351 138.412 259.983 138.716 259.583 138.892C259.183 139.06 258.719 139.144 258.191 139.144C257.751 139.144 257.355 139.068 257.003 138.916C256.651 138.756 256.351 138.544 256.103 138.28C255.863 138.016 255.675 137.704 255.539 137.344C255.411 136.984 255.347 136.6 255.347 136.192C255.347 135.76 255.419 135.364 255.563 135.004C255.707 134.636 255.907 134.324 256.163 134.068C256.419 133.804 256.723 133.6 257.075 133.456C257.427 133.312 257.811 133.24 258.227 133.24C258.619 133.24 258.979 133.308 259.307 133.444C259.635 133.572 259.915 133.764 260.147 134.02C260.387 134.268 260.571 134.576 260.699 134.944C260.827 135.304 260.891 135.716 260.891 136.18V136.48H256.355C256.371 136.72 256.427 136.952 256.523 137.176C256.627 137.392 256.759 137.584 256.919 137.752C257.079 137.912 257.267 138.04 257.483 138.136C257.699 138.232 257.935 138.28 258.191 138.28C258.599 138.28 258.943 138.208 259.223 138.064C259.503 137.92 259.755 137.708 259.979 137.428L260.687 137.98ZM259.883 135.688C259.867 135.208 259.711 134.824 259.415 134.536C259.119 134.248 258.711 134.104 258.191 134.104C257.671 134.104 257.251 134.248 256.931 134.536C256.611 134.824 256.419 135.208 256.355 135.688H259.883ZM266.699 140.26C266.699 140.404 266.675 140.568 266.627 140.752C266.587 140.944 266.507 141.12 266.387 141.28C266.267 141.448 266.095 141.588 265.871 141.7C265.655 141.82 265.375 141.88 265.031 141.88C264.919 141.88 264.811 141.872 264.707 141.856C264.595 141.84 264.487 141.808 264.383 141.76L264.491 140.944C264.643 140.992 264.795 141.016 264.947 141.016C265.123 141.016 265.263 140.984 265.367 140.92C265.479 140.856 265.563 140.768 265.619 140.656C265.675 140.552 265.711 140.428 265.727 140.284C265.751 140.14 265.763 139.988 265.763 139.828V133.384H266.699V140.26ZM265.547 131.188C265.547 131.004 265.611 130.844 265.739 130.708C265.875 130.572 266.039 130.504 266.231 130.504C266.423 130.504 266.583 130.572 266.711 130.708C266.847 130.844 266.915 131.004 266.915 131.188C266.915 131.388 266.851 131.552 266.723 131.68C266.595 131.808 266.431 131.872 266.231 131.872C266.031 131.872 265.867 131.808 265.739 131.68C265.611 131.552 265.547 131.388 265.547 131.188ZM268.238 136.192C268.238 135.752 268.314 135.352 268.466 134.992C268.618 134.632 268.826 134.324 269.09 134.068C269.354 133.804 269.67 133.6 270.038 133.456C270.406 133.312 270.806 133.24 271.238 133.24C271.67 133.24 272.07 133.312 272.438 133.456C272.806 133.6 273.122 133.804 273.386 134.068C273.65 134.324 273.858 134.632 274.01 134.992C274.162 135.352 274.238 135.752 274.238 136.192C274.238 136.632 274.162 137.032 274.01 137.392C273.858 137.752 273.65 138.064 273.386 138.328C273.122 138.584 272.806 138.784 272.438 138.928C272.07 139.072 271.67 139.144 271.238 139.144C270.806 139.144 270.406 139.072 270.038 138.928C269.67 138.784 269.354 138.584 269.09 138.328C268.826 138.064 268.618 137.752 268.466 137.392C268.314 137.032 268.238 136.632 268.238 136.192ZM269.246 136.192C269.246 136.488 269.29 136.764 269.378 137.02C269.474 137.268 269.61 137.488 269.786 137.68C269.962 137.864 270.17 138.012 270.41 138.124C270.658 138.228 270.934 138.28 271.238 138.28C271.542 138.28 271.814 138.228 272.054 138.124C272.302 138.012 272.514 137.864 272.69 137.68C272.866 137.488 272.998 137.268 273.086 137.02C273.182 136.764 273.23 136.488 273.23 136.192C273.23 135.896 273.182 135.624 273.086 135.376C272.998 135.12 272.866 134.9 272.69 134.716C272.514 134.524 272.302 134.376 272.054 134.272C271.814 134.16 271.542 134.104 271.238 134.104C270.934 134.104 270.658 134.16 270.41 134.272C270.17 134.376 269.962 134.524 269.786 134.716C269.61 134.9 269.474 135.12 269.378 135.376C269.29 135.624 269.246 135.896 269.246 136.192ZM275.771 133.384H276.707V139H275.771V133.384ZM275.555 131.188C275.555 131.004 275.619 130.844 275.747 130.708C275.883 130.572 276.047 130.504 276.239 130.504C276.431 130.504 276.591 130.572 276.719 130.708C276.855 130.844 276.923 131.004 276.923 131.188C276.923 131.388 276.859 131.552 276.731 131.68C276.603 131.808 276.439 131.872 276.239 131.872C276.039 131.872 275.875 131.808 275.747 131.68C275.619 131.552 275.555 131.388 275.555 131.188ZM278.57 134.716C278.57 134.46 278.562 134.22 278.546 133.996C278.53 133.772 278.522 133.568 278.522 133.384H279.41C279.41 133.536 279.414 133.688 279.422 133.84C279.43 133.992 279.434 134.148 279.434 134.308H279.458C279.522 134.172 279.61 134.04 279.722 133.912C279.842 133.784 279.982 133.672 280.142 133.576C280.302 133.472 280.482 133.392 280.682 133.336C280.882 133.272 281.098 133.24 281.33 133.24C281.698 133.24 282.014 133.296 282.278 133.408C282.55 133.52 282.774 133.676 282.95 133.876C283.126 134.076 283.254 134.32 283.334 134.608C283.422 134.888 283.466 135.196 283.466 135.532V139H282.53V135.628C282.53 135.156 282.426 134.784 282.218 134.512C282.01 134.24 281.686 134.104 281.246 134.104C280.942 134.104 280.678 134.156 280.454 134.26C280.238 134.364 280.058 134.512 279.914 134.704C279.778 134.896 279.674 135.124 279.602 135.388C279.538 135.652 279.506 135.944 279.506 136.264V139H278.57V134.716ZM290.254 137.98C289.918 138.412 289.55 138.716 289.15 138.892C288.75 139.06 288.286 139.144 287.758 139.144C287.318 139.144 286.922 139.068 286.57 138.916C286.218 138.756 285.918 138.544 285.67 138.28C285.43 138.016 285.242 137.704 285.106 137.344C284.978 136.984 284.914 136.6 284.914 136.192C284.914 135.76 284.986 135.364 285.13 135.004C285.274 134.636 285.474 134.324 285.73 134.068C285.986 133.804 286.29 133.6 286.642 133.456C286.994 133.312 287.378 133.24 287.794 133.24C288.186 133.24 288.546 133.308 288.874 133.444C289.202 133.572 289.482 133.764 289.714 134.02C289.954 134.268 290.138 134.576 290.266 134.944C290.394 135.304 290.458 135.716 290.458 136.18V136.48H285.922C285.938 136.72 285.994 136.952 286.09 137.176C286.194 137.392 286.326 137.584 286.486 137.752C286.646 137.912 286.834 138.04 287.05 138.136C287.266 138.232 287.502 138.28 287.758 138.28C288.166 138.28 288.51 138.208 288.79 138.064C289.07 137.92 289.322 137.708 289.546 137.428L290.254 137.98ZM289.45 135.688C289.434 135.208 289.278 134.824 288.982 134.536C288.686 134.248 288.278 134.104 287.758 134.104C287.238 134.104 286.818 134.248 286.498 134.536C286.178 134.824 285.986 135.208 285.922 135.688H289.45ZM296.574 138.004H296.55C296.374 138.324 296.094 138.596 295.71 138.82C295.334 139.036 294.894 139.144 294.39 139.144C293.998 139.144 293.63 139.072 293.286 138.928C292.942 138.776 292.642 138.568 292.386 138.304C292.138 138.04 291.942 137.728 291.798 137.368C291.654 137.008 291.582 136.616 291.582 136.192C291.582 135.768 291.654 135.376 291.798 135.016C291.942 134.656 292.142 134.344 292.398 134.08C292.654 133.816 292.962 133.612 293.322 133.468C293.69 133.316 294.094 133.24 294.534 133.24C294.942 133.24 295.314 133.324 295.65 133.492C295.994 133.66 296.294 133.896 296.55 134.2H296.574V129.928H297.51V139H296.574V138.004ZM296.574 136.192C296.574 135.896 296.526 135.624 296.43 135.376C296.342 135.12 296.21 134.9 296.034 134.716C295.858 134.524 295.646 134.376 295.398 134.272C295.158 134.16 294.886 134.104 294.582 134.104C294.278 134.104 294.002 134.16 293.754 134.272C293.514 134.376 293.306 134.524 293.13 134.716C292.954 134.9 292.818 135.12 292.722 135.376C292.634 135.624 292.59 135.896 292.59 136.192C292.59 136.488 292.634 136.764 292.722 137.02C292.818 137.268 292.954 137.488 293.13 137.68C293.306 137.864 293.514 138.012 293.754 138.124C294.002 138.228 294.278 138.28 294.582 138.28C294.886 138.28 295.158 138.228 295.398 138.124C295.646 138.012 295.858 137.864 296.034 137.68C296.21 137.488 296.342 137.268 296.43 137.02C296.526 136.764 296.574 136.488 296.574 136.192ZM300.022 137.632C300.222 137.632 300.39 137.704 300.526 137.848C300.67 137.984 300.742 138.152 300.742 138.352C300.742 138.552 300.666 138.724 300.514 138.868C300.37 139.004 300.206 139.072 300.022 139.072C299.838 139.072 299.67 139.004 299.518 138.868C299.374 138.724 299.302 138.552 299.302 138.352C299.302 138.152 299.37 137.984 299.506 137.848C299.65 137.704 299.822 137.632 300.022 137.632Z" fill="black"/>
<path d="M316 129L314.943 130.057L319.128 134.25H310V135.75H319.128L314.943 139.943L316 141L322 135L316 129Z" fill="black"/>
</g>
</g>
<defs>
<filter id="filter0_d" x="-4" y="0" width="383" height="176" filterUnits="userSpaceOnUse" color-interpolation-filters="sRGB">
<feFlood flood-opacity="0" result="BackgroundImageFix"/>
<feColorMatrix in="SourceAlpha" type="matrix" values="0 0 0 0 0 0 0 0 0 0 0 0 0 0 0 0 0 0 127 0"/>
<feOffset dy="4"/>
<feGaussianBlur stdDeviation="8"/>
<feColorMatrix type="matrix" values="0 0 0 0 0 0 0 0 0 0 0 0 0 0 0 0 0 0 0.15 0"/>
<feBlend mode="normal" in2="BackgroundImageFix" result="effect1_dropShadow"/>
<feBlend mode="normal" in="SourceGraphic" in2="effect1_dropShadow" result="shape"/>
</filter>
<clipPath id="clip0">
<rect x="12" y="12" width="351" height="144" rx="16" fill="white"/>
</clipPath>
</defs>
</svg>
