<svg width="70" height="46" viewBox="0 0 70 46" fill="none" xmlns="http://www.w3.org/2000/svg">
<path d="M56.6393 8.99666C55.5845 8.52369 59.569 -0.344361 60.2722 0.0103612C60.9753 0.365083 57.694 9.35136 56.6393 8.99666Z" fill="white"/>
<path d="M59.2174 11.2432C58.7487 10.4155 66.6787 5.15399 67.1864 5.92238C67.6551 6.63182 59.6862 12.0709 59.2174 11.2432Z" fill="white"/>
<path d="M60.2722 14.1992C60.3893 13.2533 70.1161 14.7905 69.9989 15.4999C69.86 16.3409 60.155 15.1452 60.2722 14.1992Z" fill="white"/>
<path fill-rule="evenodd" clip-rule="evenodd" d="M25.015 14.6974C25.6055 13.5489 26.326 12.1478 28.1622 11.9528C30.3888 11.7163 32.4983 13.9628 32.1467 15.027C32.0679 15.2654 31.5128 16.2455 30.725 17.6364C27.9962 22.4543 22.4762 32.2003 24.2949 33.1179C24.2949 33.1179 44.1001 4.62181 45.8579 3.55763C50.0768 1.00357 64.0224 23.1855 60.2723 25.314L48.3187 29.503C48.5531 30.2349 49.2563 32.4083 49.2563 32.4083C49.4906 33.236 49.1391 34.1819 48.4359 34.4184L35.8966 38.6751C34.6075 39.0298 33.7871 38.3203 33.5528 37.6109L32.6152 35.0061L29.5685 36.0738C26.5215 43.1682 15.74 52.2728 15.9744 38.3204C15.9744 38.3204 3.60165 53.0162 0.50503 41.7493C-3.36218 27.6787 15.9745 1.66573 24.6465 15.3817C24.7698 15.1744 24.8895 14.9416 25.015 14.6974ZM11.8726 33.709C6.59899 30.8712 15.1539 12.8986 20.1931 17.8647C20.8156 18.3986 21.2628 19.8285 20.8962 21.7666C19.4899 27.0875 15.3566 35.5838 11.8726 33.709ZM46.5609 30.1617L34.7247 34.3002L35.3106 36.0738C35.545 36.5467 35.8966 36.6819 36.3653 36.5467L46.3265 33.1178C46.9125 32.8813 47.264 32.4083 47.1468 31.8171L46.5609 30.1617ZM46.5609 4.97647C43.5139 7.69599 55.1367 25.8419 58.7487 23.7767C62.2644 21.7666 49.1391 3.20284 46.5609 4.97647Z" fill="white"/>
</svg>
