<svg width="278" height="177" viewBox="0 0 278 177" fill="none" xmlns="http://www.w3.org/2000/svg">
<path d="M244.644 130.684C245.995 131.895 247.523 134.179 247.93 135.89C247.999 136.168 248.033 136.454 248.032 136.741C248.032 136.821 248.032 136.921 248.006 137.035C247.836 138.349 246.874 141.844 245.9 145.189C245.866 145.304 245.829 145.419 245.798 145.537C245.44 146.732 245.078 147.893 244.749 148.921C244.372 150.093 243.489 153.504 243.297 154.172C243.161 154.642 240.116 167.811 238.014 176.962H262.416C262.88 168.491 263.548 156.036 263.571 155.86C263.805 153.683 264.008 151.697 264.133 150.67C264.175 150.288 264.314 149.624 264.367 149.387C264.42 149.15 264.476 148.844 264.529 148.566C265.057 145.663 265.239 142.336 265.473 140.874C265.499 140.713 265.525 140.576 265.552 140.465C265.578 140.354 265.635 140.179 265.691 140.018C266.065 139.105 266.498 138.218 266.989 137.364C267.25 136.886 267.503 136.432 267.703 136.054C267.82 135.832 267.918 135.637 267.989 135.477C268.465 134.419 270.065 131.998 270.729 129.767C270.937 128.876 271.083 127.971 271.166 127.059C271.197 126.834 271.227 126.609 271.261 126.383C271.378 125.539 271.499 124.718 271.608 124.092C271.661 123.739 271.732 123.39 271.823 123.045C272.046 122.369 272.046 120.33 271.876 119.547C271.706 118.764 272.068 118.401 271.94 117.187C271.711 115.765 271.296 114.381 270.706 113.07C270.329 112.378 269.299 111.863 268.627 111.748C268.13 111.74 267.64 111.873 267.212 112.13C267.124 112.174 267.038 112.222 266.955 112.275L266.918 112.294C266.918 112.294 266.918 112.241 266.888 112.142C266.854 111.966 266.793 111.66 266.706 111.32C266.624 110.965 266.522 110.614 266.401 110.27C266.378 110.209 266.359 110.156 266.337 110.102C265.997 109.266 264.495 108.032 263.25 108.047C262.284 108.047 261.314 108.781 260.926 109.109C260.863 109.158 260.802 109.21 260.745 109.266C260.745 109.266 260.696 109.201 260.628 109.101C260.303 108.638 259.928 108.213 259.511 107.833C258.818 107.485 258.067 107.273 257.296 107.211C256.541 107.115 255.571 107.631 255.164 107.875C255.039 107.948 254.968 107.998 254.968 107.998L254.839 107.868C254.594 107.62 254.047 107.07 253.798 106.825C253.473 106.501 252.16 106.195 250.998 106.554C249.836 106.913 248.5 108.429 248.04 109.453C247.754 110.228 247.602 111.047 247.591 111.874C247.591 112.008 247.591 112.088 247.591 112.088L247.213 111.924C246.327 111.561 244.161 110.748 243.029 110.927C241.58 111.16 241.561 111.878 241.18 113.6C240.799 115.323 239.135 124.191 239.512 125.421C239.889 126.651 243.048 129.252 244.644 130.684Z" fill="#7C443E"/>
<path d="M258.201 144.418C258.201 144.418 256.586 145.182 255.839 146.61C255.092 148.039 252.911 158.068 252.911 158.068C252.911 158.068 254.462 149.005 254.485 146.576C254.485 145.048 253.3 143.521 253.3 143.521C254.7 144.632 256.364 144.838 258.201 144.418Z" fill="#592A1E"/>
<path d="M247.13 112.187C247.13 112.187 244.817 111.064 243.278 111.191C241.738 111.317 241.625 112.142 241.18 114.933C241.18 114.933 241.87 112.172 242.987 111.836C244.104 111.5 247.13 112.187 247.13 112.187Z" fill="#9B5954"/>
<path d="M264.903 141.175C264.903 141.175 262.801 155.979 262.122 158.595L262.152 156.208C262.219 151.418 263.036 146.668 264.574 142.138C264.684 141.825 264.793 141.5 264.903 141.175Z" fill="#9B5954"/>
<path d="M260.186 109.277C260.186 109.277 259.786 108.002 258.639 107.75C257.492 107.498 255.918 107.505 255.375 108.07C254.832 108.636 254.209 111.069 254.315 111.89C254.454 113.128 254.492 114.376 254.428 115.621C254.773 114.667 254.947 113.658 254.941 112.642C254.941 110.977 254.964 109.109 255.941 108.613C256.918 108.116 258.518 107.555 260.186 109.277Z" fill="#9B5954"/>
<path d="M254.353 108.017C254.241 107.714 254.06 107.443 253.825 107.224C253.591 107.005 253.309 106.845 253.002 106.756C252.009 106.535 250.681 106.707 249.96 107.375C249.24 108.043 247.67 109.709 247.889 111.733C248.699 111.948 249.535 112.041 250.372 112.008C250.372 112.008 248.757 111.744 248.991 110.186C249.225 108.628 250.247 107.513 251.311 107.276C251.839 107.126 252.395 107.115 252.927 107.245C253.46 107.375 253.95 107.64 254.353 108.017Z" fill="#9B5954"/>
<path d="M240.784 118.611C240.784 118.611 239.674 124.233 239.957 125.238C240.24 126.242 244.689 129.798 246.142 131.348C246.142 131.348 245.942 129.622 244.048 128.24C242.153 126.857 240.682 124.997 240.761 124.134C240.84 123.271 240.784 118.611 240.784 118.611Z" fill="#9B5954"/>
<path d="M270.631 126.865C270.644 128.261 270.404 129.647 269.921 130.955C269.514 132.036 267.337 135.382 266.386 136.054C265.435 136.726 261.59 135.901 260.311 135.408C259.032 134.916 256.232 134.843 256.232 134.843C256.232 134.843 257.428 134.175 260.111 134.694C262.794 135.214 265.103 136.092 266.439 135.03C267.774 133.969 269.552 131.452 270.631 126.865Z" fill="#9B5954"/>
<path d="M257.941 121.965C257.941 121.965 258.545 124.023 260.235 124.226C260.714 124.292 261.202 124.251 261.663 124.106C262.125 123.961 262.549 123.715 262.907 123.385C262.907 123.385 263.08 124.417 264.827 124.604C266.574 124.791 267.261 123.748 267.261 123.748C267.025 123.418 266.709 123.155 266.344 122.984C266.246 122.935 266.148 122.885 266.042 122.839C265.685 123.115 265.257 123.282 264.808 123.321C263.782 123.29 263.261 122.916 263.269 122.205C263.267 122.19 263.267 122.175 263.269 122.16L262.982 122.125C262.98 122.152 262.98 122.179 262.982 122.205C262.981 122.289 262.987 122.372 263.001 122.454C262.318 123.018 261.446 123.292 260.567 123.217C260.182 123.152 259.815 123.006 259.49 122.787C259.165 122.569 258.889 122.283 258.681 121.949C258.681 121.949 258.681 121.949 258.681 121.949H258.484H258.379L257.941 121.965Z" fill="#592A1E"/>
<path d="M265.827 123.332L271.242 126.387C271.359 125.543 271.48 124.722 271.589 124.096L266.416 122.595L265.827 123.332Z" fill="#592A1E"/>
<path d="M270.736 115.09C270.736 115.09 270.959 113.513 269.959 112.856C268.959 112.199 268.05 112.092 267.589 112.371C267.129 112.65 265.948 115.235 265.722 115.59C265.495 115.946 264.778 116.885 264.718 117.347C264.694 117.619 264.744 117.892 264.863 118.137C264.982 118.381 265.166 118.588 265.393 118.734C265.393 118.734 264.982 117.676 265.393 117.057C265.805 116.438 267.359 113.39 267.899 113.047C268.438 112.703 269.838 112.745 270.736 115.09Z" fill="#9B5954"/>
<path d="M266.005 110.163C265.738 109.727 265.381 109.355 264.959 109.071C264.537 108.787 264.06 108.598 263.56 108.517L263.356 108.494C262.79 108.465 262.232 108.641 261.783 108.991C261.334 109.341 261.023 109.842 260.907 110.404L259.888 115.163C259.888 115.163 261.492 110.159 262.695 109.655C263.899 109.151 266.005 110.163 266.005 110.163Z" fill="#9B5954"/>
<path d="M265.031 115.587L266.918 112.394V112.264L266.88 112.287L266.85 112.134C266.73 111.498 266.568 110.872 266.363 110.259C266.276 112.516 265.054 115.526 265.031 115.587Z" fill="#592A1E"/>
<path d="M258.288 121.422C258.277 121.662 258.329 121.901 258.439 122.114C258.67 122.48 258.974 122.794 259.331 123.035C259.689 123.276 260.092 123.44 260.514 123.515C260.631 123.515 260.748 123.542 260.862 123.546C261.661 123.541 262.437 123.272 263.073 122.782L263.201 122.679C263.215 122.665 263.225 122.649 263.233 122.632C263.24 122.614 263.244 122.595 263.244 122.576C263.244 122.556 263.24 122.538 263.233 122.52C263.225 122.502 263.215 122.486 263.201 122.473C263.188 122.459 263.173 122.448 263.155 122.441C263.138 122.434 263.12 122.43 263.101 122.43C263.082 122.43 263.064 122.434 263.047 122.441C263.03 122.448 263.014 122.459 263.001 122.473H262.978C262.299 123.041 261.426 123.315 260.548 123.236C260.164 123.171 259.797 123.024 259.472 122.806C259.147 122.587 258.871 122.302 258.662 121.968C258.477 121.674 258.571 121.006 258.662 120.361C258.738 119.909 258.778 119.451 258.779 118.993C258.777 118.269 258.868 117.547 259.05 116.847C259.137 116.431 259.239 115.915 259.356 115.269C259.628 113.776 260.45 110.705 260.884 109.113L260.703 109.269L260.586 109.105C260.145 110.725 259.341 113.738 259.077 115.216C258.964 115.861 258.858 116.362 258.771 116.786C258.583 117.51 258.49 118.256 258.496 119.005C258.491 119.446 258.453 119.887 258.383 120.322C258.345 120.593 258.307 120.861 258.288 121.109C258.296 121.201 258.288 121.319 258.288 121.422Z" fill="#592A1E"/>
<path d="M253.368 118.631C253.349 119.23 254.036 121.212 255.428 121.686C255.7 121.774 255.984 121.822 256.269 121.827C256.962 121.825 257.648 121.684 258.288 121.415C258.413 121.365 258.488 121.327 258.499 121.323C258.534 121.306 258.561 121.276 258.573 121.24C258.586 121.203 258.584 121.163 258.567 121.128C258.551 121.093 258.521 121.067 258.485 121.054C258.449 121.041 258.409 121.043 258.375 121.06L258.303 121.09C257.975 121.235 256.609 121.781 255.522 121.407C254.281 120.983 253.636 119.158 253.654 118.631C253.699 118.198 253.769 117.768 253.866 117.343C253.994 116.78 254.086 116.208 254.141 115.632C254.164 115.293 254.141 114.674 254.085 113.96C254 113.052 253.986 112.139 254.043 111.229C254.291 110.063 254.67 108.93 255.175 107.853L254.979 107.975L254.854 107.849C254.371 108.915 254.006 110.032 253.768 111.179C253.703 112.111 253.716 113.046 253.805 113.975C253.843 114.655 253.881 115.293 253.862 115.617C253.805 116.179 253.714 116.736 253.59 117.286C253.488 117.729 253.414 118.178 253.368 118.631Z" fill="#592A1E"/>
<path d="M265.974 121.705C265.343 121.387 264.732 121.03 264.144 120.635C264.144 120.635 263.499 121.426 263.533 122.01C263.567 122.595 263.884 122.935 264.722 122.95C265.367 122.961 265.974 121.705 265.974 121.705Z" fill="#BF8A79"/>
<path d="M259.156 122.209C259.045 121.835 259.045 121.437 259.156 121.063C259.574 121.336 260.009 121.582 260.458 121.8C261.024 122.005 261.635 122.047 262.224 121.923C262.256 122.071 262.256 122.225 262.224 122.373C262.208 122.481 262.177 122.585 262.129 122.683C261.922 122.819 261.688 122.906 261.443 122.938C260.254 123.133 259.896 122.782 259.299 122.327C259.248 122.293 259.2 122.253 259.156 122.209Z" fill="#BF8A79"/>
<path d="M254.519 120.368C254.357 120.079 254.283 119.749 254.304 119.417C254.843 119.766 255.429 120.035 256.043 120.215C256.618 120.326 257.208 120.326 257.783 120.215C257.816 120.362 257.816 120.515 257.783 120.662C257.768 120.771 257.736 120.877 257.688 120.976C257.482 121.11 257.249 121.198 257.005 121.231C255.817 121.422 255.458 121.071 254.862 120.617C254.743 120.541 254.628 120.458 254.519 120.368Z" fill="#BF8A79"/>
<path d="M252.685 112.829C252.685 112.829 251.681 114.548 250.73 114.739C249.779 114.93 247.923 113.803 247.923 113.803C247.945 113.55 248.022 113.304 248.148 113.084C248.274 112.864 248.445 112.674 248.651 112.527C248.651 112.527 251.587 112.417 252.685 112.829Z" fill="#BF8A79"/>
<path d="M243.478 115.766C243.997 116.542 244.667 117.202 245.448 117.706C246.37 118.383 247.436 118.832 248.561 119.016C248.674 119.016 248.791 119.035 248.904 119.039C249.766 119.058 250.608 118.779 251.292 118.249C251.984 117.718 252.554 117.044 252.964 116.27C253.719 114.922 253.605 113.245 253.028 112.699C252.689 112.375 251.602 112.317 250.104 112.279H249.938C249.376 112.279 248.851 112.245 248.515 112.199C248.187 112.16 247.872 112.045 247.595 111.863C247.595 111.996 247.595 112.077 247.595 112.077L247.217 111.912C247.571 112.236 248.018 112.437 248.493 112.485C248.87 112.539 249.455 112.554 250.074 112.573C251.123 112.6 252.564 112.642 252.851 112.913C253.285 113.322 253.455 114.823 252.734 116.133C252.255 117.004 250.9 118.997 248.61 118.73C246.519 118.482 244.274 116.58 243.75 115.629C243.731 115.595 243.699 115.571 243.663 115.56C243.626 115.549 243.587 115.553 243.553 115.571C243.535 115.579 243.519 115.59 243.506 115.604C243.492 115.618 243.482 115.634 243.475 115.652C243.468 115.671 243.464 115.69 243.465 115.71C243.465 115.729 243.47 115.748 243.478 115.766Z" fill="#592A1E"/>
<path d="M253.926 113.75C253.926 113.75 253.749 114.193 253.356 114.063C253.356 114.063 253.519 116.736 250.696 118.459C250.206 118.701 249.677 118.854 249.134 118.909C249.134 118.909 249.511 120.254 250.745 120.639C251.979 121.025 255.156 121.747 256.556 123.172C257.956 124.596 259.126 128.519 257.854 130.325C257.854 130.325 258.805 129.622 258.915 127.365C259.024 125.108 257.82 123.492 257.835 122.923C257.85 122.354 258.779 122.343 258.779 122.343C258.779 122.343 258.213 122.159 258.462 120.937C258.462 120.937 258.352 121.419 257.432 121.556C256.511 121.694 255.839 121.816 254.839 121.201C253.839 120.586 253.545 119.104 253.511 118.642C253.477 118.18 253.983 116.209 253.994 115.728C254.005 115.247 253.926 113.75 253.926 113.75Z" fill="#592A1E"/>
<path d="M250.198 120.364C249.669 120.161 249.099 120.093 248.538 120.166C247.621 120.469 246.773 120.953 246.041 121.589C245.31 122.224 244.709 123 244.274 123.871C244.274 123.871 245.27 119.837 249.134 118.906C249.134 118.909 250.277 119.597 250.198 120.364Z" fill="#592A1E"/>
<path d="M249.13 119.073C249.13 119.073 245.689 118.508 242.587 119.566C242.587 119.566 245.949 119.524 247.689 119.948L249.13 119.073Z" fill="#592A1E"/>
<path d="M269.276 118.863C269.965 118.786 270.627 118.549 271.212 118.172C270.936 118.533 270.59 118.832 270.194 119.051C269.799 119.27 269.363 119.404 268.914 119.444L269.276 118.863Z" fill="#592A1E"/>
<path d="M267.654 121.483C268.835 121.427 270.014 121.637 271.106 122.098C271.106 122.098 268.087 121.892 266.842 122.419L267.654 121.483Z" fill="#592A1E"/>
<path d="M264.258 117.825C264.463 118.253 264.756 118.632 265.117 118.937C265.478 119.242 265.899 119.466 266.352 119.593C266.352 119.593 265.386 119.776 264.133 118.547L264.258 117.825Z" fill="#592A1E"/>
<path d="M258.654 118.627C259.046 119.133 259.55 119.54 260.125 119.813C260.701 120.086 261.332 120.219 261.967 120.2C261.967 120.2 260.612 120.945 258.631 119.394L258.654 118.627Z" fill="#592A1E"/>
<path d="M253.424 116.687C253.424 116.687 254.337 118.054 256.722 118.867C256.722 118.867 255.383 119.001 253.402 117.45L253.424 116.687Z" fill="#592A1E"/>
<path d="M248.1 118.787C248.1 118.787 244.478 117.744 243.323 114.811C243.323 114.811 242.889 116.671 245.131 117.798C247.372 118.925 244.829 119.054 244.829 119.054C244.829 119.054 246.647 119.49 247.312 119.314C247.772 119.199 248.242 119.124 248.715 119.093L248.1 118.787Z" fill="#592A1E"/>
<path d="M248.032 136.741C248.032 136.822 248.032 136.921 248.006 137.039C250.077 137.524 251.13 137.139 254.519 136.558C257.613 136.027 260.982 136.73 261.062 136.745C257.53 135.191 252.923 136.199 251.092 136.253C250.027 136.251 248.966 136.123 247.93 135.871C248.002 136.155 248.037 136.448 248.032 136.741Z" fill="#592A1E"/>
<path d="M256.59 138.055C257.725 138.515 258.832 139.04 259.907 139.629C261.303 140.446 262.503 140.331 263.488 140.362C264.165 140.428 264.829 140.601 265.454 140.874C265.48 140.713 265.507 140.576 265.533 140.465C265.559 140.354 265.616 140.179 265.673 140.018C264.801 139.674 263.859 139.552 262.929 139.663C260.79 139.85 258.315 138.105 256.59 138.055Z" fill="#592A1E"/>
<path d="M257.216 141.531C257.216 141.531 256.537 140.541 254.009 140.538C251.481 140.534 249.572 140.156 248.406 139.541C249.709 140.416 251.238 140.881 252.802 140.877C254.983 140.805 256.998 141.332 257.216 141.531Z" fill="#592A1E"/>
<path d="M262.971 122.228C262.971 122.31 262.977 122.392 262.99 122.473C263.005 122.578 263.033 122.68 263.073 122.778C263.299 123.309 263.888 123.607 264.793 123.634C265.778 123.657 267.276 122.419 267.91 121.342C268.287 120.716 269.231 119.2 269.951 118.065L271.17 116.297C270.743 116.531 270.38 116.868 270.114 117.279L270.091 117.305L269.699 117.932C268.982 119.077 268.038 120.559 267.672 121.186C267.027 122.293 265.608 123.363 264.812 123.34C263.786 123.313 263.265 122.939 263.273 122.228C263.314 121.797 263.443 121.378 263.65 120.998C263.781 120.732 263.891 120.454 263.978 120.17C264.069 119.841 264.152 119.329 264.239 118.791C264.325 118.252 264.427 117.645 264.537 117.263C264.872 116.473 265.262 115.707 265.703 114.972C266.22 114.04 266.801 112.986 267.212 112.134C267.035 112.226 266.918 112.298 266.918 112.298L266.888 112.145C266.51 112.963 265.956 113.948 265.469 114.819C265.017 115.572 264.619 116.357 264.28 117.168C264.152 117.688 264.05 118.214 263.975 118.745C263.888 119.276 263.808 119.776 263.722 120.093C263.635 120.356 263.529 120.611 263.405 120.857C263.168 121.279 263.02 121.746 262.971 122.228Z" fill="#592A1E"/>
<path d="M269.699 117.932L270.099 117.298C269.952 117.5 269.818 117.712 269.699 117.932Z" fill="#592A1E"/>
<path d="M264.333 137.482C265.204 137.723 266.128 137.682 266.974 137.364C267.238 136.886 267.488 136.432 267.688 136.054C266.785 136.938 265.588 137.447 264.333 137.482Z" fill="#592A1E"/>
<path d="M39.0801 176.962C37.7066 172.455 36.2199 167.543 35.1294 163.896C34.9684 163.354 34.81 162.819 34.654 162.292C33.1447 157.231 31.8278 152.847 31.3901 151.422C31.3146 151.178 31.258 150.995 31.2203 150.884L31.1523 150.674C30.9357 149.662 30.8885 148.62 31.0127 147.592C31.0467 147.21 31.092 146.874 31.1448 146.534C31.2282 145.938 31.3685 145.352 31.5636 144.784C31.614 144.63 31.6935 144.488 31.7976 144.364C31.8391 144.322 31.9259 144.238 32.0542 144.124C32.7447 143.486 34.5521 141.832 36.235 140.144C37.9179 138.456 39.4801 136.707 39.6763 135.909C40.0951 134.14 38.9216 128.503 39.0084 126.983C39.0952 125.463 39.8499 122.511 40.6498 121.155C41.4498 119.799 43.3553 117.11 40.88 116.514C40.7668 116.488 40.6574 116.469 40.5555 116.453C38.2651 116.117 36.7822 118.195 35.6502 119.91C35.0508 120.823 34.5773 121.815 34.2427 122.858C34.1899 123.042 34.1672 123.141 34.1672 123.141C34.1672 123.141 34.0955 123.32 33.9937 123.637C33.7653 124.357 33.59 125.092 33.4692 125.837C33.34 126.707 33.1418 127.566 32.8768 128.404C32.8079 128.601 32.726 128.794 32.6315 128.98C32.3636 129.477 32.0542 129.66 31.707 129.187C31.707 129.187 30.0241 127.434 29.3751 125.944C29.2883 125.743 29.2177 125.535 29.1638 125.322C29.0735 124.982 29.0054 124.636 28.96 124.287C28.7638 122.912 28.7676 121.311 28.5827 120.223C28.3374 118.649 29.0883 114.46 28.9261 112.352C28.7638 110.243 28.5223 107.73 28.4808 106.733C28.4791 106.729 28.4782 106.725 28.4782 106.72C28.4782 106.715 28.4791 106.711 28.4808 106.707C28.4808 106.6 28.4808 106.447 28.4808 106.256C28.5789 104.488 29.028 99.4654 26.2583 99.2439C23.1642 99.0033 23.7604 105.24 23.6811 106.367C23.6245 107.203 23.5642 109.422 23.4849 110.996C23.4849 111.225 23.4585 111.443 23.451 111.634C23.4283 111.905 23.4095 112.138 23.3906 112.313C23.2774 113.325 23.3151 116.671 22.8586 117.855C22.8181 118.004 22.7339 118.137 22.6171 118.237C22.4527 118.359 22.2607 118.438 22.0586 118.466C21.9913 118.475 21.9229 118.469 21.8579 118.45C21.7929 118.43 21.7327 118.396 21.6813 118.352C21.5341 118.188 21.4405 117.983 21.4134 117.763C21.4134 117.702 21.3832 117.634 21.3719 117.561C21.2436 116.732 20.9945 112.214 20.5531 110.568C20.5078 110.4 20.4625 110.186 20.3983 109.903C20.3682 109.751 20.3342 109.579 20.2965 109.395C20.0361 108.093 19.6739 106.126 19.3116 104.255L19.2777 104.071C19.0054 102.518 18.6528 100.981 18.2211 99.4654C17.5646 97.6055 16.7986 96.2343 15.1685 96.4329C13.5384 96.6315 13.1611 98.8543 13.6101 101.398C13.8327 102.651 13.9875 103.72 14.1271 104.663C14.125 104.699 14.125 104.735 14.1271 104.77C14.2667 105.702 14.3912 106.508 14.5459 107.234C14.7625 108.429 14.9137 109.635 14.9987 110.847C14.9964 110.873 14.9964 110.9 14.9987 110.927C15.0515 111.5 15.1195 112.046 15.2062 112.523C15.4855 114.051 16.6703 117.58 15.9609 118.554C15.9295 118.614 15.8759 118.66 15.8117 118.681C15.7474 118.701 15.6777 118.696 15.6175 118.665C15.4845 118.594 15.3705 118.492 15.2855 118.367C14.5723 117.446 13.7497 114.872 13.6328 114.223C13.6026 114.047 13.5196 113.704 13.4026 113.245C13.3724 113.123 13.3422 112.993 13.3007 112.863C12.7838 110.877 11.814 107.448 11.3688 106.035C10.7801 104.159 10.6858 99.0911 8.25576 99.0033C5.82574 98.9155 5.45595 101.295 5.69367 103.204C5.93139 105.114 6.38796 106.584 6.77284 108.227C7.15772 109.869 8.09351 113.035 8.58404 114.399C9.07457 115.762 10.6631 120.001 10.5537 121.025C10.4783 121.72 10.3198 122.121 10.0028 122.251C9.82217 122.308 9.62878 122.308 9.44813 122.251C9.4199 122.244 9.39306 122.233 9.36889 122.217C8.96515 121.972 8.09728 120.567 7.26337 119.028L7.02188 118.581C6.53512 117.653 6.071 116.717 5.74649 115.987C5.68612 115.846 5.62575 115.709 5.57669 115.586C5.47859 115.361 5.40312 115.162 5.35407 115.01C4.85599 113.482 3.53532 108.777 1.61847 109.46C-0.298384 110.144 0.244975 113.551 1.18454 116.335C2.1241 119.119 3.32779 122.828 3.98057 124.611C4.63336 126.395 5.24087 127.667 5.79555 129.435C5.95025 129.909 6.17288 130.894 6.42947 132.135C6.5238 132.571 6.62568 133.037 6.72756 133.525C7.42185 136.791 8.35009 140.992 9.24815 142.833C10.6518 145.732 12.829 148.409 13.5573 150.655C13.7388 151.423 13.8649 152.205 13.9346 152.992C14.2176 155.356 14.8629 160.86 15.527 166.569C15.5873 167.127 15.6553 167.688 15.7194 168.246C16.0477 171.072 16.4363 174.158 16.7948 176.954L39.0801 176.962Z" fill="#FFB79D"/>
<path d="M21.1154 157.01C22.0075 157.446 22.7635 158.123 23.3001 158.965C24.0095 160.237 26.1867 169.358 26.1867 169.358C26.1867 169.358 24.6019 161.116 24.5378 158.897C24.5076 157.484 25.5641 156.074 25.5641 156.074C24.3151 157.14 22.802 157.357 21.1154 157.01Z" fill="#E28B7E"/>
<path d="M15.5194 166.577C15.5798 167.135 15.6477 167.696 15.7118 168.254C24.2283 170.251 33.3748 164.977 35.1294 163.896C34.9684 163.354 34.8099 162.819 34.654 162.292C29.3374 166.184 18.3607 166.547 15.5194 166.577Z" fill="#E28B7E"/>
<path d="M15.5609 167.337C15.5609 167.337 25.3716 169.167 35.3936 162.754C35.3936 162.754 35.1974 158.988 33.5484 157.594C31.9447 158.396 30.285 159.078 28.5827 159.634L28.5223 159.653H28.4959H28.477C27.8997 159.855 27.2658 160.069 26.5904 160.287C20.9492 162.12 14.9987 161.685 14.9987 161.685C14.7539 162.928 14.7042 164.203 14.8515 165.462C14.9253 166.138 15.1695 166.784 15.5609 167.337Z" fill="#C6A4FF"/>
<path d="M15.561 167.337C15.561 167.337 25.3717 169.167 35.3937 162.754C35.3937 162.754 35.1975 158.988 33.5485 157.594C31.9448 158.396 30.2851 159.078 28.5828 159.634C29.1073 159.458 31.3524 158.82 32.5863 160.1C33.99 161.559 30.2808 164.935 23.6435 165.79C19.0174 166.386 16.1497 165.848 14.8365 165.47C14.916 166.145 15.1655 166.788 15.561 167.337Z" fill="#B18EF7"/>
<path d="M23.8887 146.939C23.8887 146.939 27.6016 147.852 30.9599 146.606L31.1448 146.538C31.2278 145.941 31.3681 145.354 31.5636 144.785C31.613 144.631 31.6912 144.488 31.7938 144.365L32.0542 144.12C33.4314 142.848 39.2877 137.524 39.6725 135.909C40.0951 134.144 38.9179 128.507 39.0084 126.983C39.099 125.459 39.8499 122.511 40.6498 121.155C41.4498 119.799 43.3553 117.111 40.88 116.515C40.7716 116.489 40.6621 116.468 40.5517 116.454C40.6272 116.454 41.8988 116.729 41.2649 118.562C40.631 120.395 38.2462 123.657 38.0915 125.948C37.9368 128.24 38.9065 132.766 37.6689 134.648C34.3333 139.713 32.1447 143.097 29.9524 143.967C27.7601 144.838 25.8319 147.027 23.8887 146.939Z" fill="#E28B7E"/>
<path d="M19.5267 147.657C19.5267 147.657 23.0699 147.332 25.4811 147.813C27.5488 148.23 29.6808 148.47 30.9977 147.588C31.0679 146.634 31.2529 145.693 31.5486 144.785C30.7939 145.709 29.2393 147.248 27.2923 147.111C24.549 146.92 21.504 146.683 19.5267 147.657Z" fill="#E28B7E"/>
<path d="M13.5422 150.662C13.7237 151.431 13.8498 152.212 13.9196 153C14.3761 153.091 15.2931 153.137 16.7081 152.618C18.8362 151.816 20.3871 149.734 26.2999 149.142C26.2999 149.142 21.2059 149.173 18.5419 150.582C15.8779 151.991 14.3535 151.732 13.5422 150.662Z" fill="#E28B7E"/>
<path d="M22.8096 152.438C22.8662 152.419 26.2509 151.212 31.3901 151.423C31.3147 151.178 31.2581 150.995 31.2203 150.884C31.1826 150.773 31.1751 150.747 31.1524 150.67C29.1412 150.674 25.1868 150.892 22.8096 152.438Z" fill="#E28B7E"/>
<path d="M24.1716 106.191C24.2396 106.191 26.7526 105.916 28.5072 106.707C28.5072 106.6 28.5072 106.447 28.5072 106.256C27.0915 105.858 25.5983 105.835 24.1716 106.191Z" fill="#E28B7E"/>
<path d="M23.5227 111C23.5227 111.229 23.4963 111.443 23.485 111.634L23.6925 111.565C25.3 110.973 28.3979 111.863 28.3979 111.863C26.9308 110.984 25.1974 110.677 23.5227 111Z" fill="#E28B7E"/>
<path d="M15.4591 135.512C15.4591 135.512 20.6927 128.637 23.5227 126.792C25.6584 125.414 28.0998 125.295 29.1827 125.322C29.0937 124.982 29.0269 124.636 28.9827 124.287C26.763 124.359 24.6202 125.128 22.8511 126.487C19.1494 129.221 15.4591 135.512 15.4591 135.512Z" fill="#E28B7E"/>
<path d="M6.41443 132.143C6.50876 132.578 6.60687 133.044 6.71252 133.529C8.1728 132.128 12.7083 129.641 15.6742 128.809C19.0249 127.869 21.4663 123.37 21.504 123.302C17.0326 128.977 15.3761 128.167 12.4253 129.382C9.90476 130.417 7.27475 131.715 6.41443 132.143Z" fill="#E28B7E"/>
<path d="M23.9491 126.548C23.9491 126.548 19.1494 134.515 20.8965 138.956C19.9613 136.488 20.0155 133.747 21.0474 131.318C22.8058 127.335 22.6548 127.636 22.2737 127.785C21.8926 127.934 22.9454 126.036 23.9491 126.548Z" fill="#E28B7E"/>
<path d="M22.0963 118.462C22.1982 118.462 24.8848 118.436 26.9752 119.383C26.9149 119.345 24.915 118.081 22.8963 117.855C22.8558 118.004 22.7716 118.138 22.6548 118.237C22.49 118.358 22.2981 118.436 22.0963 118.462Z" fill="#E28B7E"/>
<path d="M16.8137 118.168C16.8137 118.168 20.0022 117.966 21.719 118.348C21.5581 118.191 21.451 117.986 21.4134 117.763C20.504 117.763 18.0363 117.763 16.8137 118.168Z" fill="#E28B7E"/>
<path d="M11.033 120.788C11.9124 120.842 12.7914 120.677 13.5932 120.307C14.395 119.938 15.0952 119.375 15.6327 118.669C15.5015 118.595 15.3891 118.492 15.3044 118.367C14.8509 119.101 14.2217 119.708 13.4752 120.132C12.7286 120.555 11.8886 120.781 11.033 120.788Z" fill="#E28B7E"/>
<path d="M42.0271 118.012C42.0271 118.012 42.3025 118.336 41.8837 119.299C41.5064 120.131 40.8422 121.529 40.446 121.533C41.098 120.421 41.6282 119.24 42.0271 118.012Z" fill="#EEC09F"/>
<path d="M34.0012 123.637C34.8812 123.173 35.882 122.997 36.8652 123.133C36.0412 122.776 35.1293 122.68 34.2503 122.858C34.1974 123.042 34.1748 123.141 34.1748 123.141C34.1748 123.141 34.1031 123.324 34.0012 123.637Z" fill="#E28B7E"/>
<path d="M32.6353 128.981C33.7817 129.926 34.854 130.961 35.8426 132.074C35.0188 130.724 34.0229 129.49 32.8805 128.404C32.8149 128.603 32.7329 128.796 32.6353 128.981Z" fill="#E28B7E"/>
<path d="M14.9988 110.847C15.0006 110.874 15.0006 110.9 14.9988 110.927C16.8586 111.095 18.7282 110.741 20.4022 109.903C20.3682 109.747 20.3343 109.579 20.2965 109.396C18.425 110.557 16.01 110.797 14.9988 110.847Z" fill="#E28B7E"/>
<path d="M14.1422 104.667C14.1422 104.706 14.1422 104.74 14.1422 104.778C16.0289 104.075 18.2212 104.152 19.3117 104.255L19.2777 104.075C18.4286 103.804 17.5325 103.716 16.6477 103.818C15.7629 103.92 14.9092 104.209 14.1422 104.667Z" fill="#E28B7E"/>
<path d="M11.7839 107.352C11.7839 107.352 8.76518 107.646 7.38037 108.364C7.38037 108.364 8.6633 107.299 11.6367 106.837L11.7839 107.352Z" fill="#E28B7E"/>
<path d="M9.11609 114.811C10.6681 114.704 12.1601 114.162 13.4252 113.245C13.3925 113.123 13.3586 112.996 13.3234 112.863C11.8065 114.162 9.11609 114.811 9.11609 114.811Z" fill="#E28B7E"/>
<path d="M5.64844 126.548C8.0596 126.215 9.96136 122.312 9.98777 122.255C9.80743 122.314 9.61343 122.314 9.43309 122.255C9.40452 122.249 9.37748 122.238 9.35385 122.22C7.82942 125.654 5.64844 126.548 5.64844 126.548Z" fill="#E28B7E"/>
<path d="M3.67871 121.247C5.48236 121.247 6.73888 119.761 7.24074 119.047C7.1615 118.898 7.07848 118.749 6.99924 118.596C5.8031 120.972 3.75418 121.239 3.67871 121.247Z" fill="#E28B7E"/>
<path d="M2.19958 117.454C3.7542 117.66 5.0409 116.69 5.73142 116.003L5.5654 115.602C5.17062 116.139 4.66511 116.583 4.08391 116.903C3.50272 117.223 2.85975 117.411 2.19958 117.454Z" fill="#E28B7E"/>
<path d="M84.5676 127.48C84.1726 128.986 83.5826 130.434 82.813 131.784C82.1074 132.884 81.5452 132.949 81.1603 133.724C80.7754 134.499 79.3906 136.207 78.7492 136.619C78.4387 136.845 78.1414 137.088 77.8586 137.348C77.3455 137.795 76.6889 138.399 76.0173 139.025L75.4814 139.533C74.793 140.238 74.058 140.895 73.2816 141.5C71.2138 142.909 68.2366 143.83 67.1197 144.387C66.9499 144.471 66.7424 144.567 66.4858 144.67C66.067 144.849 65.5463 145.052 65.0029 145.273C64.4595 145.495 63.9388 145.709 63.4332 145.938C63.4332 145.938 63.4332 145.976 63.4068 146.018C63.3615 146.144 63.2747 146.4 63.154 146.763C62.0899 149.906 58.0071 167.589 56.6035 177.004H26.5564C26.5564 177.004 36.8387 155.799 41.9667 144.021C43.6873 140.068 44.5326 138.548 47.6267 133.808L48.3512 132.823C48.4795 132.658 48.7285 132.391 48.7285 132.383C48.941 132.219 49.1415 132.039 49.3285 131.845C49.4077 131.772 49.4833 131.696 49.5549 131.616C49.7504 131.377 49.9152 131.114 50.0454 130.833C50.8604 129.118 51.1246 126.139 50.8001 124.184C50.4227 121.892 49.5134 117.485 50.0454 116.209C50.5774 114.933 57.9468 108.635 59.4448 107.448C60.9428 106.26 61.4409 105.664 62.8144 106.478C63.886 107.112 65.1501 109.292 65.6481 110.213C65.784 110.469 65.8632 110.625 65.8632 110.625L66.0141 110.45C66.5842 109.762 67.2671 109.18 68.0329 108.727C69.1121 108.189 71.2591 107.841 72.4741 108.345C73.6891 108.849 74.5872 110.014 74.64 110.515C74.6815 110.896 74.7683 111.733 74.806 112.115C74.806 112.237 74.806 112.31 74.806 112.31L75.0513 112.344C75.5569 112.42 76.7229 112.661 77.2889 113.264C77.8945 113.851 78.3827 114.549 78.7265 115.323C78.8133 115.929 78.831 116.543 78.7793 117.152C78.7793 117.282 78.7793 117.37 78.7793 117.37C78.7793 117.37 78.8737 117.37 79.0359 117.37C79.5868 117.37 80.8849 117.431 81.7037 118.096C82.7602 118.947 83.1866 121.021 82.9036 121.957C82.8847 122.018 82.8659 122.079 82.8432 122.144C82.7127 122.517 82.5616 122.881 82.3904 123.236C82.2282 123.584 82.0735 123.882 81.9867 124.05L81.9037 124.199H81.9489L82.2621 124.26C82.7946 124.343 83.2937 124.574 83.7035 124.928C84.2016 125.49 84.7261 126.647 84.5676 127.48Z" fill="#68231D"/>
<path d="M63.4332 145.934C63.415 145.957 63.4055 145.985 63.4068 146.014C63.3615 146.14 63.2747 146.396 63.154 146.759C62.5757 146.267 61.9425 145.846 61.2673 145.503C60.3919 145.155 59.2712 144.865 58.2751 143.673C57.4942 142.792 56.6639 141.957 55.7885 141.172C57.328 141.779 58.9996 144.158 60.9881 144.693C61.8862 144.912 62.7227 145.337 63.4332 145.934Z" fill="#4B1218"/>
<path d="M55.0186 145.025C55.0186 145.025 54.6866 143.769 52.117 142.829C49.5473 141.89 47.7361 140.801 46.7701 139.743C47.7806 141.115 49.1698 142.153 50.7623 142.726C53.0075 143.463 54.8715 144.743 55.0186 145.025Z" fill="#4B1218"/>
<path d="M54.5168 149.33C53.4947 149.527 52.5465 150.007 51.7774 150.716C50.7208 151.812 46.0985 160.47 46.0985 160.47C46.0985 160.47 49.8718 152.542 50.5397 150.311C50.951 148.898 50.2492 147.176 50.2492 147.176C51.2416 148.592 52.732 149.226 54.5168 149.33Z" fill="#4B1218"/>
<path d="M65.4105 110.396C65.4105 110.396 64.2332 107.849 62.8559 106.89C61.4787 105.931 60.8221 106.539 58.5619 108.574C58.5619 108.574 61.0108 106.737 62.173 107.23C63.3352 107.723 65.4105 110.396 65.4105 110.396Z" fill="#7C3837"/>
<path d="M78.3266 117C78.3266 117 78.8586 115.651 78.0662 114.647C77.2738 113.642 75.9531 112.554 75.1079 112.653C74.2627 112.753 72.0892 114.357 71.6251 115.136C70.9031 116.269 70.0904 117.341 69.1951 118.34C70.1293 117.779 70.9573 117.053 71.6402 116.198C72.7533 114.788 74.0551 113.249 75.2098 113.524C76.3644 113.799 78.0964 114.41 78.3266 117Z" fill="#7C3837"/>
<path d="M74.2891 111.912C74.3991 111.58 74.4311 111.227 74.3827 110.88C74.3342 110.534 74.2065 110.203 74.0099 109.915C73.3269 109.04 72.1006 108.265 71.0402 108.326C69.9799 108.387 67.5424 108.708 66.3538 110.541C66.8838 111.283 67.5196 111.94 68.2404 112.493C68.2404 112.493 67.0594 111.152 68.3121 110.007C69.5649 108.861 71.1836 108.632 72.2288 109.178C72.7756 109.416 73.2525 109.793 73.6134 110.272C73.9743 110.751 74.207 111.316 74.2891 111.912Z" fill="#7C3837"/>
<path d="M55.7507 111.382C55.7507 111.382 51.0114 115.327 50.5699 116.347C50.1285 117.366 51.4529 123.45 51.6265 125.75C51.6265 125.75 52.6302 124.165 51.9774 121.686C51.3246 119.207 51.351 116.633 52.0038 115.957C52.6566 115.281 55.7507 111.382 55.7507 111.382Z" fill="#7C3837"/>
<path d="M75.1797 139.006C74.2464 140.187 73.1052 141.183 71.8139 141.943C70.7422 142.566 66.652 143.853 65.3992 143.769C64.1465 143.685 61.4825 140.331 60.7429 139.01C60.0033 137.688 57.7242 135.706 57.7242 135.706C57.7242 135.706 59.177 135.977 61.075 138.273C62.973 140.568 64.3163 142.909 66.1539 142.944C67.9915 142.978 71.1724 142.104 75.1797 139.006Z" fill="#7C3837"/>
<path d="M67.8443 126.109C67.8443 126.109 66.9575 128.251 68.2216 129.596C68.5795 129.983 69.017 130.287 69.5034 130.485C69.9897 130.683 70.5131 130.77 71.0365 130.741C71.0365 130.741 70.4818 131.723 71.8176 133.09C73.1533 134.457 74.4401 134.064 74.4401 134.064C74.4613 133.625 74.373 133.188 74.1835 132.792C74.1344 132.685 74.0854 132.575 74.025 132.464C73.5387 132.446 73.0676 132.288 72.6666 132.009C71.8251 131.272 71.644 130.596 72.127 130.004L72.1572 129.966L71.9421 129.737L71.8855 129.802C71.8293 129.871 71.7788 129.945 71.7346 130.023C70.7811 130.022 69.866 129.643 69.1838 128.969C68.9088 128.647 68.7033 128.271 68.5805 127.863C68.4577 127.456 68.4203 127.028 68.4706 126.605L68.3008 126.475L68.2027 126.399L67.8443 126.109Z" fill="#4B1218"/>
<path d="M73.542 132.712L76.0173 139.025C76.689 138.399 77.3455 137.795 77.8587 137.349L74.5382 132.502L73.542 132.712Z" fill="#4B1218"/>
<path d="M83.2432 129.198C83.2432 129.198 84.4998 128.03 84.1073 126.788C83.7149 125.547 83.0244 124.825 82.4471 124.738C81.8698 124.65 79.1303 125.998 78.7039 126.139C78.2776 126.28 77.0361 126.571 76.6701 126.903C76.4637 127.112 76.319 127.375 76.2524 127.662C76.1857 127.95 76.1997 128.25 76.2928 128.53C76.2928 128.53 76.6701 127.361 77.4248 127.121C78.1794 126.88 81.5528 125.41 82.2395 125.498C82.9263 125.585 84.0734 126.613 83.2432 129.198Z" fill="#7C3837"/>
<path d="M82.6093 121.789C82.6791 121.238 82.6313 120.679 82.4693 120.148C82.3072 119.618 82.0345 119.129 81.6697 118.714C81.621 118.658 81.5694 118.605 81.515 118.554C81.059 118.137 80.4704 117.898 79.8557 117.882C79.2411 117.866 78.6411 118.073 78.1643 118.466L74.0891 121.735C74.0891 121.735 78.8209 118.653 80.1679 119.062C81.515 119.471 82.6093 121.789 82.6093 121.789Z" fill="#7C3837"/>
<path d="M78.119 125.662L81.8735 124.302L81.9641 124.199H81.9188L81.998 124.05C82.3284 123.435 82.6159 122.796 82.8583 122.14C81.2471 123.951 78.1794 125.627 78.119 125.662Z" fill="#4B1218"/>
<path d="M68.5159 125.879C68.3425 126.072 68.2238 126.308 68.1726 126.563C68.1176 127.031 68.1597 127.505 68.2962 127.956C68.4326 128.406 68.6604 128.823 68.965 129.179C69.0498 129.274 69.1406 129.363 69.2366 129.446C69.9111 129.997 70.7443 130.309 71.6101 130.336H71.7874C71.8288 130.334 71.8677 130.316 71.8959 130.285C71.9242 130.255 71.9394 130.214 71.9383 130.172C71.9379 130.151 71.9333 130.131 71.9248 130.112C71.9163 130.092 71.9042 130.075 71.8891 130.061C71.8739 130.047 71.8561 130.036 71.8367 130.029C71.8173 130.021 71.7967 130.018 71.7761 130.019H71.7459C71.5195 130.019 70.1007 129.973 69.1989 128.961C68.9237 128.64 68.7178 128.264 68.5944 127.858C68.4709 127.451 68.4326 127.023 68.482 126.601C68.5272 126.219 69.0593 125.73 69.5725 125.249C69.9417 124.923 70.2837 124.567 70.595 124.184C71.0827 123.574 71.6472 123.032 72.2742 122.572C72.6289 122.282 73.0666 121.923 73.6024 121.46C74.8363 120.399 77.6059 118.405 79.0511 117.359C78.8888 117.359 78.7907 117.359 78.7907 117.359C78.7907 117.359 78.7907 117.275 78.7907 117.141C77.3229 118.187 74.6099 120.158 73.3835 121.212C72.8515 121.674 72.4138 122.029 72.0629 122.32C71.4172 122.797 70.835 123.357 70.3309 123.985C70.029 124.354 69.6984 124.697 69.3423 125.012C69.1272 125.215 68.9159 125.413 68.731 125.608C68.6631 125.707 68.5801 125.784 68.5159 125.879Z" fill="#4B1218"/>
<path d="M66.2783 120.124C65.8594 120.616 65.0897 122.755 65.9349 124.122C66.1022 124.386 66.3069 124.622 66.5424 124.825C67.1252 125.305 67.7959 125.663 68.5159 125.879C68.6517 125.925 68.7385 125.944 68.7536 125.948C68.7734 125.954 68.7942 125.955 68.8146 125.952C68.8351 125.95 68.8547 125.943 68.8724 125.932C68.8901 125.921 68.9054 125.907 68.9174 125.89C68.9294 125.873 68.9379 125.854 68.9422 125.833C68.9473 125.813 68.9484 125.792 68.9455 125.772C68.9425 125.751 68.9356 125.732 68.925 125.714C68.9145 125.696 68.9006 125.681 68.8841 125.669C68.8676 125.656 68.8489 125.647 68.829 125.642L68.746 125.62C68.3687 125.513 66.8594 125.024 66.199 123.954C65.4444 122.736 66.1462 120.761 66.516 120.33C66.846 119.997 67.1963 119.686 67.565 119.398C68.0534 119.009 68.5183 118.591 68.9573 118.145C69.2026 117.874 69.5913 117.328 70.0403 116.698C70.5838 115.879 71.1907 115.105 71.8553 114.383C72.8488 113.576 73.9314 112.888 75.0815 112.332L74.8362 112.298C74.8362 112.298 74.8362 112.225 74.8362 112.103C73.7098 112.664 72.6481 113.35 71.6704 114.147C70.9842 114.881 70.3607 115.673 69.8063 116.514C69.3799 117.11 68.98 117.66 68.746 117.931C68.3182 118.363 67.8645 118.767 67.3876 119.142C66.9982 119.446 66.6277 119.774 66.2783 120.124Z" fill="#4B1218"/>
<path d="M74.7683 131.448C74.454 130.744 74.1842 130.021 73.9608 129.282C73.9608 129.282 72.8816 129.5 72.5156 130.012C72.1496 130.523 72.1836 131.028 72.893 131.623C73.4061 132.082 74.7683 131.448 74.7683 131.448Z" fill="#853D36"/>
<path d="M68.7084 127.144C68.8615 126.755 69.1239 126.42 69.4631 126.181C69.6273 126.703 69.8252 127.213 70.0555 127.709C70.3918 128.273 70.8748 128.733 71.4516 129.038C71.3768 129.187 71.2698 129.318 71.1384 129.42C71.053 129.499 70.9563 129.565 70.8517 129.615C70.584 129.584 70.3262 129.494 70.097 129.351C68.965 128.69 68.9084 128.144 68.716 127.354C68.7071 127.284 68.7046 127.214 68.7084 127.144Z" fill="#853D36"/>
<path d="M66.067 122.385C66.1299 122.03 66.2908 121.7 66.5311 121.434C66.7458 122.102 67.0547 122.734 67.4481 123.313C67.8534 123.805 68.3477 124.215 68.9046 124.52C68.8297 124.669 68.7227 124.8 68.5914 124.902C68.5066 124.982 68.4098 125.047 68.3046 125.096C68.0369 125.069 67.7788 124.98 67.5499 124.837C66.4179 124.172 66.3576 123.63 66.1651 122.835C66.1576 122.759 66.0708 122.446 66.067 122.385Z" fill="#853D36"/>
<path d="M69.6366 114.788C69.6366 114.788 67.6254 115.552 66.6934 115.044C65.7614 114.536 64.9728 112.31 64.9728 112.31C65.1638 112.113 65.3946 111.961 65.6493 111.863C65.904 111.766 66.1765 111.725 66.4482 111.744C66.4482 111.744 68.9914 113.692 69.6366 114.788Z" fill="#853D36"/>
<path d="M59.924 110.866C59.8326 111.876 59.9483 112.894 60.2636 113.856C60.5763 115.064 61.1657 116.18 61.9842 117.114C62.0748 117.206 62.1654 117.29 62.2559 117.374C62.9668 117.987 63.8622 118.337 64.7954 118.367C65.7347 118.401 66.6703 118.231 67.5386 117.867C69.0706 117.252 70.1233 115.774 70.0101 114.918C69.946 114.41 69.0706 113.612 67.8405 112.535L67.7084 112.417C67.2443 112.015 66.8179 111.653 66.5764 111.362C66.3287 111.103 66.1429 110.789 66.033 110.446L65.8821 110.621C65.8821 110.621 65.8029 110.465 65.667 110.209C65.744 110.727 65.9835 111.206 66.35 111.576C66.6292 111.886 67.1047 112.302 67.6141 112.745C68.4782 113.509 69.6554 114.529 69.7158 114.96C69.7988 115.602 68.9347 116.973 67.4518 117.576C66.4594 117.958 63.9728 118.722 62.2371 116.893C60.6485 115.235 60.0523 112.084 60.256 110.919C60.2595 110.899 60.259 110.878 60.2545 110.858C60.25 110.838 60.2417 110.819 60.23 110.802C60.2182 110.785 60.2033 110.771 60.1861 110.76C60.1689 110.749 60.1497 110.741 60.1296 110.738C60.1096 110.734 60.089 110.735 60.0691 110.739C60.0493 110.744 60.0305 110.752 60.0138 110.764C59.9972 110.776 59.983 110.791 59.9721 110.809C59.9613 110.826 59.9539 110.846 59.9504 110.866H59.924Z" fill="#4B1218"/>
<path d="M70.0517 116.423C70.0517 116.423 69.6026 116.667 69.3611 116.285C69.3611 116.285 67.6896 118.646 64.1577 118.13C64.1577 118.13 62.9955 117.828 62.5465 117.416C62.5465 117.416 61.9692 118.818 62.7238 119.986C63.4785 121.155 65.6746 123.974 65.8859 126.139C66.0972 128.305 64.4218 132.403 62.1125 133.037C62.1125 133.037 63.3842 133.109 65.0067 131.291C66.6292 129.473 66.7123 127.285 67.1085 126.819C67.5047 126.353 68.2933 126.987 68.2933 126.987C68.2933 126.987 67.9424 126.437 68.98 125.589C68.98 125.589 68.5612 125.914 67.6971 125.39C66.833 124.867 66.1878 124.504 65.7614 123.298C65.335 122.091 66.0972 120.624 66.3802 120.242C66.6632 119.86 68.4254 118.531 68.7574 118.134C69.0895 117.737 70.0517 116.423 70.0517 116.423Z" fill="#4B1218"/>
<path d="M62.4446 119.383C62.1389 118.845 61.7074 118.391 61.1881 118.061C60.2143 117.681 59.1758 117.498 58.1321 117.523C57.0885 117.549 56.06 117.782 55.1055 118.21C55.1055 118.21 58.6713 115.537 62.5465 117.416C62.5427 117.416 63.0333 118.795 62.4446 119.383Z" fill="#4B1218"/>
<path d="M62.4258 117.557C62.4258 117.557 59.9203 114.697 56.6035 113.432C56.6035 113.432 59.4524 115.724 60.6297 117.29L62.4258 117.557Z" fill="#4B1218"/>
<path d="M79.4623 131.36C80.0922 131.773 80.8074 132.034 81.5528 132.124C81.0772 132.235 80.584 132.246 80.1041 132.155C79.6242 132.065 79.168 131.874 78.7643 131.597L79.4623 131.36Z" fill="#4B1218"/>
<path d="M76.3267 132.426C77.3569 133.199 78.2049 134.194 78.8095 135.34C78.8095 135.34 76.4059 133.048 75.0135 132.666L76.3267 132.426Z" fill="#4B1218"/>
<path d="M75.9569 127.006C75.8387 127.507 75.8274 128.028 75.9237 128.534C76.02 129.039 76.2217 129.519 76.5154 129.939C76.5154 129.939 75.5796 129.424 75.3645 127.522L75.9569 127.006Z" fill="#4B1218"/>
<path d="M70.712 123.79C70.6979 124.487 70.8455 125.177 71.1431 125.805C71.4406 126.433 71.8798 126.982 72.4251 127.407C72.4251 127.407 70.7837 127.094 70.1611 124.42L70.712 123.79Z" fill="#4B1218"/>
<path d="M67.6443 118.527C67.6443 118.527 67.4821 120.307 68.931 122.644C68.931 122.644 67.716 121.831 67.1047 119.154L67.6443 118.527Z" fill="#4B1218"/>
<path d="M61.754 116.618C61.754 116.618 59.4221 113.23 60.4409 109.972C60.4409 109.972 58.8184 111.229 59.9353 113.734C61.0522 116.24 58.8297 114.574 58.8297 114.574C58.8297 114.574 60.0636 116.201 60.739 116.515C61.2015 116.739 61.6446 117.002 62.0634 117.301L61.754 116.618Z" fill="#4B1218"/>
<path d="M49.5437 131.612C49.4871 131.677 49.4116 131.757 49.321 131.845C50.7285 133.69 51.868 134.095 55.1056 135.958C58.0601 137.662 60.4109 140.587 60.4675 140.656C58.5582 136.898 54.0075 134.545 52.4378 133.327C51.5419 132.593 50.7351 131.755 50.0342 130.829C49.904 131.11 49.7392 131.373 49.5437 131.612Z" fill="#4B1218"/>
<path d="M71.8967 129.806C71.8414 129.874 71.791 129.947 71.7458 130.023C71.6873 130.121 71.6417 130.227 71.6099 130.336C71.4364 130.936 71.7307 131.597 72.474 132.246C73.2815 132.949 75.3757 132.949 76.6247 132.479C77.3794 132.208 79.183 131.601 80.5565 131.146L82.7752 130.508C82.259 130.409 81.7264 130.439 81.2244 130.596H81.1904L80.4358 130.848C79.066 131.299 77.2662 131.899 76.5341 132.17C75.2399 132.651 73.3306 132.552 72.6778 131.994C71.8363 131.261 71.6514 130.585 72.1382 129.993C72.4696 129.662 72.8636 129.402 73.2966 129.229C73.5874 129.096 73.8675 128.94 74.1343 128.763C74.4324 128.549 74.8475 128.179 75.2889 127.789C75.7304 127.399 76.2323 126.945 76.5794 126.701C77.3956 126.271 78.2404 125.9 79.1076 125.589C80.1716 125.165 81.3716 124.684 82.2772 124.245C82.0659 124.199 81.8998 124.176 81.8998 124.176L81.9791 124.027C81.1036 124.447 79.9792 124.894 78.9604 125.295C78.0697 125.612 77.2033 125.995 76.3681 126.441C75.9087 126.787 75.4678 127.158 75.0474 127.552C74.6135 127.934 74.206 128.316 73.9154 128.503C73.6632 128.672 73.3983 128.82 73.123 128.946C72.6595 129.143 72.2418 129.436 71.8967 129.806Z" fill="#4B1218"/>
<path d="M80.4471 130.867L81.2018 130.615C80.9453 130.683 80.6932 130.767 80.4471 130.867Z" fill="#4B1218"/>
<path d="M62.7087 143.543C63.2755 144.349 64.078 144.954 65.0029 145.273L66.4896 144.67C65.1345 144.785 63.7858 144.383 62.7087 143.543Z" fill="#4B1218"/>
<path d="M68.2631 117.286L68.7235 117.943C67.9195 118.371 67.1934 118.934 66.5764 119.608L66.1991 118.229C66.9247 118.007 67.6185 117.69 68.2631 117.286Z" fill="#AF6857"/>
<path d="M67.2934 109.208C66.7983 109.624 66.3377 110.08 65.9161 110.572L65.8708 110.621C65.8029 110.488 65.7086 110.339 65.5954 110.163C65.3426 109.758 64.9954 109.262 64.6407 108.765C64.5577 108.647 64.4747 108.536 64.3955 108.418C63.7049 107.482 63.0635 106.646 63.0635 106.646L62.3088 103.896L62.1805 103.422L60.6146 97.6436L60.5127 97.2617L60.1618 95.9632L60.0524 95.5812L43.5553 34.5804L43.4422 34.1679L43.0195 32.6135C42.9054 32.1897 42.9555 31.7378 43.1596 31.3502C43.3637 30.9626 43.7064 30.6686 44.1176 30.5282L44.2119 30.4976C44.3032 30.4723 44.3967 30.4556 44.4911 30.448H44.6647C44.9428 30.451 45.216 30.5221 45.4611 30.6551C45.7061 30.7881 45.9158 30.9791 46.0722 31.2118C46.171 31.3607 46.2462 31.5244 46.2948 31.6969V31.7274L47.9588 37.8841L48.0645 38.266L62.6484 92.1172L62.8069 92.7092L63.388 94.8479L63.505 95.2872L63.9163 96.8148L64.0521 97.3228L65.7803 103.632L65.8859 104.014L66.7991 107.379L66.9198 107.826L67.2934 109.208Z" fill="#AF6857"/>
<path d="M44.3289 33.5721C44.152 33.9593 43.8946 34.3032 43.5743 34.5804L43.4611 34.1679C43.6897 33.9508 43.8754 33.6916 44.0082 33.4041C44.4308 32.5066 44.3478 31.4257 44.1365 30.5282L44.2308 30.4977C44.3222 30.4723 44.4156 30.4556 44.51 30.448C44.7985 31.4804 44.7347 32.581 44.3289 33.5721Z" fill="#C98A7D"/>
<path d="M48.0757 38.2394H47.9475C47.4332 38.2613 46.9265 38.1075 46.5091 37.8027C46.0916 37.4979 45.7875 37.0598 45.6457 36.559C44.9627 34.4928 45.5287 32.4495 46.0721 31.1853C46.171 31.3342 46.2461 31.4979 46.2947 31.6703C45.8306 32.8925 45.4231 34.6761 46.0042 36.4406C46.1224 36.8687 46.3821 37.2428 46.7398 37.5006C47.0975 37.7584 47.5317 37.8844 47.9701 37.8575L48.0757 38.2394Z" fill="#C98A7D"/>
<path d="M63.5162 95.2606C62.6842 96.2047 61.7084 97.008 60.6258 97.64L60.5239 97.2581C61.6089 96.6108 62.5805 95.7862 63.3992 94.8176L63.5162 95.2606Z" fill="#C98A7D"/>
<path d="M65.8859 104.014C65.2508 103.929 64.6551 103.654 64.1747 103.225C63.6943 102.796 63.3508 102.232 63.188 101.604C62.9595 100.793 62.9087 99.9414 63.039 99.1083C63.1693 98.2751 63.4777 97.4808 63.9426 96.7808L64.0785 97.2887C63.7149 97.9168 63.4819 98.6133 63.3936 99.3357C63.3054 100.058 63.3638 100.791 63.5653 101.49C63.7016 102.021 63.9833 102.501 64.3778 102.877C64.7724 103.253 65.2638 103.508 65.7953 103.613L65.8859 104.014Z" fill="#C98A7D"/>
<path d="M64.6407 108.762C64.5577 108.643 64.4746 108.532 64.3954 108.414C64.6261 108.049 64.773 107.637 64.8253 107.208C64.8775 106.778 64.8338 106.342 64.6973 105.931C64.3577 105.007 63.3389 104.339 62.3201 103.892L62.1918 103.418C63.3691 103.896 64.6293 104.66 65.052 105.802C65.2181 106.293 65.2674 106.817 65.196 107.331C65.1245 107.846 64.9343 108.336 64.6407 108.762Z" fill="#C98A7D"/>
<path d="M66.9198 107.833C66.5424 108.288 66.1311 109.113 65.9161 110.576L65.8708 110.625C65.8029 110.492 65.7085 110.343 65.5953 110.167C65.8783 108.639 66.3802 107.818 66.799 107.39L66.9198 107.833Z" fill="#C98A7D"/>
<path d="M62.8181 92.6827C62.2303 93.9874 61.3207 95.1172 60.1768 95.9634L60.0674 95.5815C61.339 94.6725 62.1691 93.2326 62.6634 92.106L62.8181 92.6827Z" fill="#C98A7D"/>
<path d="M77.3116 152.74C76.9994 152.828 76.6684 152.82 76.3607 152.717C76.2405 152.684 76.1251 152.635 76.0173 152.572C75.6258 152.346 75.3383 151.973 75.2174 151.533L74.9381 150.502L74.8325 150.12L72.9458 143.127L72.8477 142.745L71.7459 138.67L71.6063 138.162L69.8517 131.669L69.7158 131.161L69.2593 129.481C69.9133 130.051 70.7548 130.352 71.6176 130.325C71.5044 131.956 72.6628 132.525 73.6703 132.716L74.6136 136.199L74.7268 136.619L75.9645 141.202L76.0664 141.584L76.9041 144.674L77.0097 145.056L77.8474 148.146L77.9568 148.558L78.436 150.326L78.5115 150.598C78.5133 150.628 78.5133 150.659 78.5115 150.689C78.6113 151.122 78.5422 151.576 78.3186 151.959C78.095 152.341 77.7342 152.621 77.3116 152.74Z" fill="#AF6857"/>
<path d="M72.6137 136.23C72.547 137.111 72.2444 137.957 71.7383 138.678L71.5987 138.17C71.9623 137.577 72.1809 136.906 72.2364 136.21C72.3173 135.302 72.1339 134.39 71.7088 133.586C71.2837 132.781 70.6356 132.121 69.8441 131.685L69.7083 131.177C70.6467 131.615 71.4291 132.335 71.949 133.239C72.4689 134.143 72.701 135.187 72.6137 136.23Z" fill="#C98A7D"/>
<path d="M76.0588 141.592C75.1117 141.592 73.7042 141.321 73.342 139.789C72.9269 138.032 74.0439 136.734 74.6061 136.214L74.7193 136.634C74.1872 137.169 73.3684 138.265 73.708 139.69C73.9986 140.927 75.1306 141.187 75.972 141.218L76.0588 141.592Z" fill="#C98A7D"/>
<path d="M75.8513 149.731C75.6193 150.063 75.3041 150.326 74.9381 150.495L74.8325 150.113C75.1152 149.984 75.3587 149.781 75.5381 149.524C75.8664 149.02 75.7305 148.474 75.1607 147.936C73.957 146.832 74.1231 145.953 74.274 145.17C74.4255 144.684 74.396 144.158 74.191 143.692C74.1307 143.57 74.046 143.461 73.9421 143.373C73.8382 143.284 73.7174 143.219 73.5873 143.181C73.3814 143.122 73.1665 143.101 72.9533 143.12L72.8552 142.738C73.1384 142.701 73.4259 142.723 73.7005 142.803C73.8782 142.855 74.0433 142.945 74.1854 143.065C74.3276 143.185 74.4438 143.334 74.5268 143.501C74.7743 144.041 74.816 144.655 74.6438 145.224C74.5004 145.988 74.3683 146.683 75.3985 147.638C76.1267 148.318 76.2852 149.081 75.8513 149.731Z" fill="#C98A7D"/>
<path d="M77.9492 148.577C77.4802 148.534 77.0385 148.335 76.6931 148.011C76.3477 147.687 76.118 147.256 76.0399 146.786C75.9669 146.389 76.0089 145.979 76.1609 145.605C76.3129 145.232 76.5683 144.911 76.8965 144.681L77.0021 145.063C76.7648 145.26 76.5846 145.518 76.4809 145.81C76.3772 146.102 76.3539 146.417 76.4135 146.721C76.4515 147.016 76.5692 147.294 76.7536 147.525C76.9381 147.756 77.1821 147.931 77.4587 148.031C77.5804 148.084 77.7067 148.124 77.836 148.153L77.9492 148.577Z" fill="#C98A7D"/>
<path d="M78.5228 150.708C78.046 150.876 77.6083 151.141 77.2364 151.486C76.8646 151.832 76.5665 152.251 76.3607 152.717C76.2405 152.684 76.1251 152.635 76.0173 152.572C76.2497 152.055 76.5832 151.592 76.9976 151.209C77.412 150.826 77.8988 150.532 78.4285 150.345L78.5039 150.617C78.5121 150.647 78.5184 150.677 78.5228 150.708Z" fill="#C98A7D"/>
<path d="M102.917 81.6411L91.7785 83.9327L88.2127 84.6659L14.2553 99.9429C13.7699 100.039 13.2666 99.9385 12.8537 99.6628C12.4409 99.387 12.1515 98.9582 12.0479 98.4687L1.47884 45.9618C1.38673 45.4738 1.48614 44.9687 1.75596 44.5537C2.02579 44.1387 2.44479 43.8464 2.92402 43.739L91.5974 25.4296C91.838 25.3795 92.086 25.378 92.3272 25.4252C92.5684 25.4725 92.798 25.5675 93.0028 25.7048C93.2076 25.8422 93.3835 26.0192 93.5205 26.2256C93.6575 26.432 93.7528 26.6638 93.801 26.9077L99.7515 56.4227L101.261 63.8282L104.404 79.4069C104.498 79.9025 104.395 80.4158 104.116 80.8345C103.838 81.2532 103.407 81.5432 102.917 81.6411Z" fill="#C6A4FF"/>
<path d="M193.53 126.624C193.856 128.075 194.371 129.475 195.062 130.787C195.696 131.857 196.228 131.933 196.572 132.697C196.915 133.461 198.175 135.122 198.775 135.538C199.062 135.763 199.337 136.004 199.598 136.26C200.073 136.707 200.681 137.303 201.3 137.922L201.794 138.418C202.426 139.115 203.105 139.766 203.828 140.366C205.752 141.779 208.563 142.757 209.608 143.326C209.763 143.41 209.986 143.509 210.201 143.616C210.578 143.799 211.084 143.998 211.597 144.242C212.11 144.487 212.597 144.693 213.072 144.926C213.078 144.953 213.085 144.98 213.095 145.006C213.129 145.125 213.204 145.365 213.31 145.72C214.219 148.753 216.816 156.189 217.838 165.199L242.531 166.111C242.531 166.111 238.097 155.192 233.592 143.803C232.082 139.984 231.328 138.502 228.543 133.873L227.887 132.907C227.77 132.75 227.532 132.487 227.536 132.475C227.339 132.311 227.154 132.134 226.981 131.944C226.908 131.874 226.84 131.798 226.777 131.719C226.598 131.484 226.448 131.228 226.332 130.955C225.611 129.294 225.456 126.445 225.815 124.596C226.245 122.408 227.264 118.253 226.788 117.019C226.313 115.785 219.506 109.537 218.11 108.353C216.714 107.169 216.265 106.589 214.929 107.318C213.887 107.883 212.612 109.923 212.106 110.782C211.967 111.023 211.888 111.164 211.888 111.164L211.752 110.992C211.224 110.318 210.586 109.741 209.865 109.285C208.854 108.735 206.816 108.334 205.643 108.777C204.469 109.22 203.575 110.305 203.507 110.771C203.454 111.133 203.345 111.916 203.296 112.298C203.296 112.413 203.273 112.485 203.273 112.485C203.273 112.485 203.182 112.485 203.035 112.508C202.552 112.566 201.435 112.757 200.873 113.31C200.279 113.849 199.791 114.497 199.436 115.22C199.336 115.795 199.3 116.379 199.33 116.962C199.33 117.088 199.33 117.172 199.33 117.172C199.33 117.172 199.239 117.172 199.085 117.153C198.56 117.13 197.319 117.153 196.519 117.756C195.485 118.52 195.009 120.498 195.251 121.4C195.251 121.457 195.281 121.514 195.3 121.575C195.413 121.935 195.545 122.288 195.696 122.633C195.84 122.969 195.975 123.26 196.055 123.424C196.104 123.515 196.126 123.569 196.126 123.569H196.119C196.062 123.569 195.953 123.592 195.817 123.619C195.308 123.679 194.825 123.883 194.425 124.207C193.942 124.741 193.402 125.826 193.53 126.624Z" fill="#E79C78"/>
<path d="M213.072 144.918C213.088 144.942 213.096 144.97 213.095 144.998C213.129 145.117 213.204 145.357 213.31 145.713C213.879 145.257 214.5 144.873 215.159 144.567C216.008 144.265 217.083 144.025 218.072 142.925C218.845 142.113 219.664 141.348 220.525 140.633C219.034 141.16 217.366 143.375 215.453 143.818C214.586 143.992 213.77 144.368 213.072 144.918Z" fill="#E27961"/>
<path d="M221.117 144.334C221.117 144.334 221.494 143.146 223.958 142.336C226.422 141.527 228.2 140.549 229.154 139.571C228.146 140.846 226.787 141.79 225.249 142.283C223.087 142.909 221.272 144.067 221.117 144.334Z" fill="#E27961"/>
<path d="M221.457 148.451C222.426 148.673 223.315 149.162 224.026 149.864C224.996 150.945 229.117 159.347 229.117 159.347C229.117 159.347 225.766 151.667 225.219 149.52C224.872 148.157 225.596 146.538 225.596 146.538C224.604 147.859 223.177 148.413 221.457 148.451Z" fill="#E27961"/>
<path d="M212.344 110.981C212.344 110.981 213.551 108.594 214.895 107.723C216.238 106.852 216.842 107.459 218.932 109.472C218.932 109.472 216.668 107.643 215.536 108.07C214.404 108.498 212.344 110.981 212.344 110.981Z" fill="#E9B18D"/>
<path d="M199.817 116.858C199.817 116.858 199.356 115.552 200.141 114.624C200.926 113.696 202.224 112.714 203.024 112.818C203.824 112.921 205.831 114.544 206.262 115.3C206.914 116.405 207.655 117.454 208.476 118.436C207.602 117.87 206.836 117.151 206.212 116.312C205.197 114.937 204.013 113.425 202.899 113.639C201.786 113.853 200.119 114.387 199.817 116.858Z" fill="#E9B18D"/>
<path d="M203.828 112.13C203.731 111.808 203.711 111.467 203.769 111.135C203.827 110.804 203.96 110.49 204.16 110.221C204.839 109.411 206.046 108.693 207.043 108.804C208.039 108.914 210.367 109.27 211.438 111.072C210.901 111.763 210.265 112.37 209.552 112.871C209.552 112.871 210.718 111.634 209.552 110.499C208.386 109.365 206.858 109.094 205.846 109.579C205.322 109.794 204.861 110.141 204.508 110.588C204.154 111.034 203.92 111.566 203.828 112.13Z" fill="#E9B18D"/>
<path d="M221.525 112.245C221.525 112.245 225.928 116.159 226.305 117.168C226.683 118.176 225.234 123.909 224.992 126.089C224.992 126.089 224.09 124.562 224.789 122.209C225.487 119.856 225.543 117.412 224.951 116.755C224.358 116.098 221.525 112.245 221.525 112.245Z" fill="#E9B18D"/>
<path d="M202.099 137.922C202.951 139.078 204.007 140.066 205.212 140.836C206.212 141.466 210.072 142.837 211.25 142.787C212.427 142.738 215.095 139.629 215.842 138.41C216.589 137.192 218.861 135.355 218.861 135.355C218.861 135.355 217.464 135.565 215.582 137.689C213.699 139.812 212.344 142.008 210.589 141.978C208.835 141.947 205.82 141.007 202.099 137.922Z" fill="#E9B18D"/>
<path d="M209.51 125.875C209.51 125.875 210.288 127.946 209.024 129.183C208.672 129.542 208.246 129.819 207.776 129.993C207.306 130.166 206.805 130.233 206.307 130.187C206.307 130.187 206.801 131.142 205.48 132.403C204.16 133.663 202.952 133.243 202.952 133.243C202.944 132.823 203.043 132.409 203.239 132.04C203.286 131.934 203.339 131.83 203.398 131.73C203.861 131.731 204.315 131.599 204.707 131.348C205.533 130.672 205.726 130.038 205.284 129.439L205.254 129.401L205.469 129.191L205.522 129.256C205.573 129.323 205.619 129.394 205.658 129.469C206.566 129.499 207.45 129.169 208.122 128.549C208.394 128.251 208.601 127.898 208.731 127.514C208.861 127.13 208.911 126.723 208.876 126.319L209.042 126.2L209.137 126.131L209.51 125.875Z" fill="#E27961"/>
<path d="M203.865 131.979L201.299 137.914C200.681 137.295 200.073 136.699 199.598 136.252L202.926 131.746L203.865 131.979Z" fill="#E27961"/>
<path d="M194.734 128.305C194.734 128.305 193.575 127.159 193.979 125.979C194.383 124.798 195.073 124.145 195.628 124.069C196.183 123.993 198.745 125.383 199.149 125.532C199.552 125.681 200.726 125.998 201.062 126.341C201.249 126.549 201.376 126.804 201.43 127.08C201.483 127.355 201.46 127.64 201.364 127.903C201.364 127.903 201.05 126.777 200.334 126.525C199.617 126.273 196.455 124.756 195.806 124.814C195.156 124.871 194.025 125.814 194.734 128.305Z" fill="#E9B18D"/>
<path d="M195.579 121.27C195.53 120.742 195.593 120.21 195.764 119.709C195.935 119.209 196.21 118.751 196.572 118.367L196.726 118.218C197.175 117.836 197.744 117.63 198.33 117.635C198.916 117.641 199.481 117.859 199.922 118.249L203.696 121.499C203.696 121.499 199.288 118.405 197.99 118.753C196.692 119.1 195.579 121.27 195.579 121.27Z" fill="#E9B18D"/>
<path d="M199.73 125.108L196.198 123.683L196.115 123.584H196.156L196.085 123.439C195.791 122.841 195.539 122.223 195.33 121.59C196.809 123.374 199.677 125.073 199.73 125.108Z" fill="#E27961"/>
<path d="M208.876 125.635C209.037 125.823 209.143 126.053 209.182 126.299C209.22 126.747 209.165 127.197 209.02 127.622C208.875 128.046 208.643 128.435 208.34 128.763C208.258 128.852 208.17 128.934 208.076 129.011C207.414 129.511 206.609 129.78 205.782 129.775H205.616C205.596 129.774 205.577 129.769 205.559 129.76C205.542 129.752 205.526 129.74 205.513 129.725C205.5 129.71 205.49 129.692 205.484 129.673C205.477 129.654 205.475 129.634 205.477 129.615C205.48 129.575 205.499 129.539 205.529 129.514C205.558 129.488 205.596 129.475 205.635 129.477H205.665C206.574 129.507 207.459 129.175 208.129 128.553C208.401 128.255 208.609 127.904 208.739 127.52C208.869 127.137 208.918 126.73 208.884 126.326C208.85 125.967 208.363 125.478 207.888 125.005C207.546 124.681 207.232 124.33 206.948 123.954C206.503 123.353 205.983 122.813 205.401 122.347C205.077 122.06 204.669 121.705 204.175 121.247C203.043 120.192 200.458 118.191 199.115 117.152C199.269 117.152 199.36 117.171 199.36 117.171C199.36 117.171 199.36 117.091 199.36 116.961C200.722 118.012 203.247 119.979 204.379 121.025C204.873 121.48 205.277 121.835 205.601 122.121C206.203 122.597 206.741 123.151 207.201 123.767C207.474 124.13 207.777 124.468 208.107 124.779C208.307 124.978 208.484 125.161 208.673 125.368C208.744 125.467 208.816 125.551 208.876 125.635Z" fill="#E27961"/>
<path d="M211.212 120.223C211.589 120.708 212.261 122.771 211.412 124.042C211.243 124.287 211.04 124.506 210.808 124.692C210.237 125.13 209.586 125.45 208.891 125.631C208.816 125.656 208.739 125.675 208.661 125.688C208.642 125.693 208.623 125.693 208.604 125.69C208.585 125.687 208.567 125.679 208.55 125.669C208.534 125.658 208.52 125.644 208.509 125.628C208.499 125.611 208.491 125.593 208.488 125.574C208.483 125.555 208.483 125.535 208.486 125.515C208.489 125.495 208.496 125.477 208.507 125.46C208.518 125.443 208.531 125.429 208.547 125.418C208.564 125.406 208.582 125.398 208.601 125.394L208.684 125.375C209.061 125.287 210.499 124.871 211.163 123.874C211.918 122.729 211.318 120.819 210.982 120.41C210.678 120.082 210.355 119.773 210.012 119.486C209.559 119.104 209.131 118.693 208.729 118.256C208.503 117.989 208.148 117.458 207.741 116.843C207.251 116.043 206.699 115.284 206.088 114.574C205.164 113.771 204.151 113.079 203.069 112.512C203.213 112.493 203.303 112.489 203.303 112.489C203.303 112.489 203.303 112.417 203.326 112.302C204.383 112.873 205.374 113.563 206.28 114.357C206.908 115.081 207.476 115.856 207.978 116.675C208.356 117.256 208.733 117.821 208.944 118.061C209.337 118.487 209.756 118.887 210.197 119.261C210.556 119.559 210.895 119.88 211.212 120.223Z" fill="#E27961"/>
<path d="M202.737 130.749C203.06 130.089 203.341 129.409 203.579 128.713C203.579 128.713 204.597 128.954 204.933 129.454C205.269 129.954 205.212 130.436 204.537 130.982C204.012 131.383 202.737 130.749 202.737 130.749Z" fill="#EDC4AB"/>
<path d="M208.654 126.83C208.516 126.454 208.272 126.127 207.952 125.891C207.778 126.38 207.572 126.857 207.337 127.319C206.999 127.846 206.523 128.267 205.963 128.538C206.028 128.686 206.126 128.817 206.25 128.92C206.329 128.999 206.419 129.066 206.518 129.118C206.772 129.097 207.017 129.02 207.239 128.893C208.337 128.301 208.412 127.781 208.624 127.033C208.64 126.967 208.65 126.899 208.654 126.83Z" fill="#EDC4AB"/>
<path d="M211.325 122.385C211.28 122.044 211.137 121.724 210.914 121.464C210.687 122.093 210.371 122.686 209.978 123.225C209.576 123.68 209.092 124.053 208.552 124.325C208.619 124.465 208.716 124.589 208.835 124.688C208.916 124.767 209.007 124.833 209.107 124.886C209.36 124.865 209.606 124.788 209.827 124.661C210.925 124.069 211.001 123.55 211.212 122.801C211.212 122.729 211.322 122.446 211.325 122.385Z" fill="#EDC4AB"/>
<path d="M208.171 115.025C208.171 115.025 210.057 115.789 210.967 115.369C211.876 114.949 212.695 112.821 212.695 112.821C212.52 112.627 212.306 112.474 212.067 112.373C211.828 112.271 211.569 112.223 211.31 112.233C211.31 112.233 208.82 114.001 208.171 115.025Z" fill="#EDC4AB"/>
<path d="M217.555 111.611C217.608 112.577 217.466 113.544 217.136 114.452C216.8 115.597 216.2 116.644 215.385 117.508C215.302 117.592 215.212 117.672 215.121 117.748C214.423 118.308 213.559 118.612 212.669 118.612C211.775 118.606 210.893 118.408 210.08 118.031C208.642 117.393 207.684 115.95 207.816 115.136C207.895 114.659 208.756 113.922 209.963 112.94L210.095 112.833C210.548 112.451 210.967 112.119 211.227 111.863C211.474 111.626 211.661 111.332 211.774 111.007C211.865 111.114 211.914 111.179 211.914 111.179C211.914 111.179 211.993 111.034 212.133 110.797C212.041 111.288 211.798 111.737 211.438 112.081C211.159 112.363 210.684 112.745 210.193 113.15C209.348 113.841 208.19 114.781 208.122 115.189C208.02 115.801 208.801 117.133 210.208 117.76C211.137 118.172 213.487 118.955 215.201 117.282C216.766 115.755 217.438 112.772 217.28 111.657C217.277 111.637 217.278 111.617 217.283 111.598C217.288 111.579 217.296 111.561 217.308 111.545C217.32 111.529 217.334 111.516 217.351 111.506C217.368 111.496 217.387 111.489 217.406 111.487C217.425 111.484 217.445 111.485 217.464 111.49C217.483 111.495 217.501 111.504 217.516 111.516C217.532 111.527 217.545 111.542 217.555 111.559C217.565 111.576 217.571 111.595 217.574 111.615L217.555 111.611Z" fill="#E27961"/>
<path d="M207.722 116.572C207.722 116.572 208.144 116.82 208.382 116.465C208.382 116.465 209.891 118.756 213.287 118.374C213.839 118.259 214.366 118.047 214.846 117.748C214.846 117.748 215.351 119.104 214.593 120.192C213.834 121.281 211.653 123.893 211.382 125.952C211.11 128.01 212.57 131.967 214.736 132.651C214.736 132.651 213.521 132.674 212.038 130.89C210.555 129.107 210.529 127.017 210.178 126.559C209.827 126.101 209.046 126.677 209.046 126.677C209.046 126.677 209.397 126.166 208.435 125.322C208.435 125.322 208.812 125.646 209.665 125.177C210.518 124.707 211.137 124.382 211.574 123.244C212.012 122.106 211.34 120.7 211.084 120.299C210.827 119.898 209.197 118.6 208.888 118.21C208.578 117.821 207.722 116.572 207.722 116.572Z" fill="#E27961"/>
<path d="M214.876 119.646C215.183 119.142 215.61 118.724 216.117 118.428C218.017 117.761 220.1 117.885 221.909 118.772C221.909 118.772 218.6 116.098 214.842 117.767C214.842 117.764 214.333 119.066 214.876 119.646Z" fill="#E27961"/>
<path d="M214.955 117.909C214.955 117.909 217.434 115.266 220.634 114.17C220.634 114.17 217.846 116.263 216.672 117.71L214.955 117.909Z" fill="#E27961"/>
<path d="M198.266 130.493C197.652 130.863 196.963 131.087 196.251 131.15C196.701 131.272 197.171 131.298 197.631 131.227C198.092 131.156 198.532 130.99 198.926 130.737L198.266 130.493Z" fill="#E27961"/>
<path d="M201.22 131.616C200.213 132.318 199.373 133.238 198.76 134.309C198.76 134.309 201.126 132.219 202.465 131.868L201.22 131.616Z" fill="#E27961"/>
<path d="M201.749 126.46C201.846 126.941 201.841 127.438 201.733 127.917C201.625 128.396 201.417 128.846 201.122 129.237C201.122 129.237 202.032 128.778 202.296 126.972L201.749 126.46Z" fill="#E27961"/>
<path d="M206.854 123.569C206.844 124.233 206.681 124.886 206.377 125.475C206.073 126.064 205.636 126.573 205.103 126.96C205.103 126.96 206.676 126.716 207.344 124.188L206.854 123.569Z" fill="#E27961"/>
<path d="M209.948 118.661C209.948 118.661 210.042 120.365 208.59 122.545C208.59 122.545 209.771 121.808 210.439 119.28L209.948 118.661Z" fill="#E27961"/>
<path d="M215.623 117.019C215.623 117.019 217.955 113.868 217.091 110.729C217.091 110.729 218.6 111.981 217.468 114.33C216.336 116.679 218.495 115.166 218.495 115.166C218.495 115.166 217.265 116.675 216.608 116.954C216.159 117.151 215.727 117.388 215.318 117.66L215.623 117.019Z" fill="#E27961"/>
<path d="M226.777 131.73C226.841 131.81 226.909 131.887 226.981 131.96C225.577 133.671 224.475 134.018 221.321 135.687C218.449 137.215 216.114 139.923 216.038 139.988C217.981 136.47 222.392 134.385 223.928 133.27C224.805 132.603 225.602 131.834 226.302 130.978C226.428 131.248 226.588 131.501 226.777 131.73Z" fill="#E27961"/>
<path d="M205.529 129.263C205.581 129.33 205.626 129.402 205.665 129.477C205.718 129.572 205.757 129.673 205.782 129.779C205.929 130.359 205.628 130.978 204.899 131.57C204.107 132.212 202.111 132.143 200.918 131.654C200.228 131.371 198.511 130.73 197.217 130.252L195.123 129.569C195.618 129.494 196.124 129.541 196.598 129.706H196.632L197.353 129.97C198.647 130.443 200.345 131.077 201.032 131.36C202.247 131.86 204.073 131.841 204.714 131.318C205.541 130.642 205.733 130.008 205.292 129.408C204.986 129.084 204.619 128.824 204.213 128.645C203.94 128.509 203.678 128.35 203.431 128.171C203.148 127.957 202.767 127.59 202.364 127.205C201.982 126.824 201.581 126.463 201.164 126.124C200.401 125.687 199.609 125.304 198.794 124.978C197.79 124.539 196.666 124.042 195.813 123.592C196.017 123.553 196.156 123.538 196.156 123.538L196.085 123.393C196.911 123.821 197.971 124.287 198.911 124.703C199.749 125.032 200.562 125.426 201.341 125.879C201.681 126.135 202.13 126.563 202.567 126.979C203.005 127.396 203.322 127.724 203.609 127.927C203.847 128.097 204.1 128.247 204.363 128.373C204.809 128.584 205.206 128.887 205.529 129.263Z" fill="#E27961"/>
<path d="M197.345 129.985L196.624 129.721C196.869 129.796 197.11 129.884 197.345 129.985Z" fill="#E27961"/>
<path d="M213.853 142.661C213.281 143.414 212.489 143.965 211.589 144.235C211.08 144.006 210.593 143.795 210.197 143.608C211.49 143.768 212.795 143.43 213.853 142.661Z" fill="#E27961"/>
<path d="M211.895 111.179C212.469 110.182 214.699 107.478 214.699 107.478L236.207 37.5862C236.334 37.1698 236.293 36.7193 236.093 36.3334C235.893 35.9475 235.55 35.6577 235.139 35.5276C234.999 35.4837 234.855 35.458 234.709 35.4512C234.354 35.4387 234.006 35.5439 233.716 35.7508C233.427 35.9577 233.212 36.2549 233.105 36.597L210.586 109.789C211.057 110.217 211.495 110.682 211.895 111.179Z" fill="#10161C"/>
<path d="M209.397 117.45L208.948 118.065C209.698 118.5 210.371 119.061 210.937 119.723L211.34 118.42C210.654 118.184 210 117.857 209.397 117.45Z" fill="#10161C"/>
<path d="M199.62 150.941C200.032 151.07 200.477 151.029 200.858 150.826C201.239 150.624 201.526 150.276 201.654 149.86L208.069 129.053C207.432 129.575 206.623 129.834 205.805 129.779C205.861 131.345 204.737 131.845 203.775 131.998L198.575 148.883C198.447 149.296 198.484 149.744 198.68 150.129C198.876 150.515 199.214 150.806 199.62 150.941Z" fill="#10161C"/>
<path d="M174.637 86.3846L261.594 107.532C262.077 107.647 262.585 107.565 263.009 107.303C263.433 107.042 263.738 106.621 263.858 106.134L276.079 54.6544C276.193 54.1653 276.112 53.6505 275.854 53.2216C275.595 52.7926 275.18 52.4841 274.698 52.3628L187.731 31.2234C187.247 31.108 186.739 31.1901 186.315 31.4517C185.891 31.7134 185.586 32.1336 185.467 32.6212L173.256 84.1007C173.144 84.5886 173.227 85.1015 173.485 85.5287C173.743 85.9559 174.157 86.2633 174.637 86.3846Z" fill="#C6A4FF"/>
<path d="M216.171 158.327C216.153 158.214 216.141 158.087 216.136 157.951L216.284 158.637C216.27 158.63 216.256 158.623 216.242 158.615C216.24 158.609 216.237 158.602 216.234 158.593C216.212 158.534 216.189 158.445 216.171 158.327Z" fill="#515414" stroke="#B18EF7"/>
<path d="M236.822 151.923L237.988 154.944C238.158 154.893 238.314 154.803 238.444 154.682C238.575 154.561 238.677 154.412 238.742 154.245C238.889 153.718 237.542 151.755 236.822 151.923Z" fill="#B18EF7"/>
<path d="M248.568 176.962H219.796L216.344 162.227L216.068 161.051C216.068 161.051 212.65 158.965 216.223 155.983C215.841 156.858 215.786 157.845 216.068 158.759C216.544 160.287 233.509 157.85 236.067 156.639C238.625 155.429 238.603 152.965 236.822 151.923C237.19 151.799 237.586 151.79 237.959 151.898C238.332 152.005 238.664 152.224 238.912 152.526C239.784 153.584 239.32 155.937 239.32 155.937L248.568 176.962Z" fill="#C6A4FF"/>
<path d="M219.502 167.083C219.581 167.626 219.686 168.244 219.811 168.925L218.96 165.441C218.98 165.472 219 165.505 219.021 165.541C219.261 165.961 219.421 166.56 219.502 167.083Z" fill="#95931B" stroke="#B18EF7"/>
<path d="M238.716 176.462C239.57 175.733 240.113 174.704 240.428 173.535C240.939 171.639 240.875 169.31 240.583 167.088C240.29 164.855 239.76 162.68 239.306 161.067C239.078 160.26 238.869 159.591 238.716 159.123C238.64 158.889 238.577 158.705 238.534 158.579C238.512 158.516 238.496 158.468 238.484 158.435L238.471 158.397L238.467 158.387L238.466 158.385L238.466 158.384C238.466 158.384 238.466 158.383 237.995 158.553L238.466 158.383L238.304 157.936L238.204 157.966C238.481 157.733 238.713 157.511 238.907 157.308C239.026 157.183 239.131 157.065 239.222 156.956L247.802 176.462H238.716Z" fill="#B18EF7" stroke="#B18EF7"/>
<path d="M216.721 161.596C216.973 161.611 217.288 161.628 217.657 161.644C218.66 161.688 220.059 161.725 221.644 161.697C221.872 161.693 222.104 161.687 222.34 161.68C220.764 161.768 218.917 161.796 216.754 161.738L216.721 161.596Z" fill="#515414" stroke="#B18EF7"/>
<path d="M202.087 51.6799H85.1755C84.2933 51.6799 83.5782 52.5196 83.5782 53.5553V125.299C83.5782 126.334 84.2933 127.174 85.1755 127.174H202.087C202.969 127.174 203.684 126.334 203.684 125.299V53.5553C203.684 52.5196 202.969 51.6799 202.087 51.6799Z" fill="#B18EF7"/>
<path d="M190.998 156.483C190.855 155.952 190.715 155.414 190.572 154.883C189.112 149.437 187.712 144.189 187.116 141.928C186.894 141.184 186.728 140.424 186.617 139.655C186.47 137.341 187.485 134.098 187.719 130.936C187.758 129.566 187.673 128.196 187.466 126.842H162.302C162.155 127.38 161.812 127.327 161.393 126.976C161.347 126.934 161.298 126.892 161.249 126.842H161.114V126.704C161.061 126.651 161.012 126.597 160.963 126.54C160.417 125.876 159.926 125.167 159.495 124.421C159.114 123.787 158.688 123.184 158.219 122.614C158.016 122.362 157.887 122.232 157.887 122.232L157.714 122.003C157.031 121.178 156.241 120.45 155.367 119.837C153.74 118.692 151.624 117.351 149.661 118.501L149.386 118.68C147.348 120.135 150.054 121.877 151.273 122.82C152.491 123.764 154.242 126.17 154.872 127.522C155.503 128.874 156.469 134.442 157.491 135.897C157.959 136.562 160.008 137.563 162.155 138.483C164.302 139.403 166.54 140.232 167.4 140.557L167.724 140.683C167.868 140.756 167.996 140.857 168.102 140.981C168.486 141.425 168.826 141.908 169.117 142.421C169.287 142.707 169.453 143.013 169.619 143.333C170.101 144.224 170.434 145.189 170.603 146.19V146.412C170.603 146.522 170.622 146.71 170.641 146.962C170.758 148.421 171.147 152.901 171.596 158.068C171.645 158.61 171.694 159.153 171.743 159.706C172.532 168.747 172.498 176.969 172.498 176.969H197.432C197.432 176.969 192.994 163.938 190.998 156.483Z" fill="#A25E4A"/>
<path d="M177.671 149.058C178.567 149.495 179.326 150.174 179.863 151.021C180.569 152.293 182.72 161.421 182.72 161.421C182.72 161.421 181.157 153.172 181.101 150.957C181.063 149.547 182.131 148.138 182.131 148.138C180.871 149.196 179.358 149.414 177.671 149.058Z" fill="#853D36"/>
<path d="M170.494 162.112L170.566 162.903L171.886 176.962H197.421L196.153 170.282L196.081 169.9L195.768 168.246L195.685 167.811L194.326 160.642L194.225 160.1L193.968 158.74C193.968 158.74 194.949 157.319 194.496 156.261C194.304 155.807 189.685 156.372 184.478 157.167C177.539 158.225 169.554 159.687 169.554 159.687C169.517 160.137 169.582 160.59 169.744 161.011C169.907 161.432 170.164 161.808 170.494 162.112Z" fill="#C6A4FF"/>
<path d="M185.648 174.8C185.92 174.667 186.16 174.474 186.349 174.235C186.538 173.995 186.671 173.716 186.738 173.417C187.289 171.508 188.025 171.424 188.957 171.294C189.723 171.25 190.452 170.944 191.025 170.427C191.685 169.804 191.983 168.662 191.866 167.215C191.785 166.24 191.551 165.285 191.172 164.385C190.918 163.688 190.484 163.072 189.915 162.601C189.491 162.346 189.008 162.207 188.514 162.196C188.02 162.185 187.532 162.304 187.097 162.54C186.491 162.856 185.98 163.33 185.616 163.913C185.251 164.495 185.048 165.166 185.025 165.855C185.032 166.048 185 166.24 184.93 166.419C184.861 166.598 184.756 166.761 184.621 166.898C184.27 167.177 183.674 167.074 183.048 166.967C182.082 166.799 180.991 166.612 180.467 167.792C180.243 168.312 180.115 168.87 180.09 169.438C180.014 170.637 180.347 171.826 181.034 172.807C181.721 173.787 182.72 174.499 183.863 174.823C184.443 175.021 185.073 175.013 185.648 174.8ZM183.976 174.452C183.277 174.266 182.63 173.915 182.089 173.429C181.54 172.934 181.109 172.321 180.827 171.633C180.545 170.946 180.421 170.203 180.463 169.461C180.487 168.941 180.605 168.429 180.81 167.952C181.214 167.039 182.071 167.188 182.98 167.345C183.663 167.463 184.365 167.585 184.867 167.2C185.042 167.031 185.181 166.827 185.273 166.601C185.366 166.374 185.41 166.131 185.402 165.886C185.421 165.263 185.603 164.657 185.93 164.13C186.257 163.602 186.717 163.172 187.263 162.884C187.639 162.68 188.061 162.577 188.488 162.583C188.915 162.589 189.333 162.704 189.704 162.918C190.542 163.484 191.342 165.424 191.489 167.246C191.598 168.575 191.342 169.606 190.768 170.144C190.251 170.607 189.593 170.877 188.904 170.908C187.923 171.046 186.995 171.176 186.372 173.303C186.044 174.426 185.263 174.8 183.976 174.452Z" fill="#B18EF7"/>
<path d="M175.667 176.962H176.12C175.834 176.58 175.595 176.164 175.407 175.724C175.27 175.408 175.161 175.079 175.082 174.743C174.931 174.124 174.539 172.489 175.007 171.726C175.067 171.626 175.147 171.541 175.242 171.475C175.337 171.409 175.445 171.365 175.558 171.344C176.105 171.218 176.312 171.607 176.743 172.421C177.173 173.234 177.754 174.395 179.154 175.132C180.644 175.919 181.357 176.473 181.689 176.966H182.157C182.078 176.808 181.981 176.66 181.867 176.526C181.437 176.015 180.663 175.48 179.358 174.792C178.052 174.105 177.535 173.078 177.094 172.245C176.652 171.412 176.339 170.775 175.486 170.969C175.324 171.002 175.169 171.068 175.034 171.164C174.898 171.26 174.783 171.384 174.698 171.527C174.207 172.325 174.452 173.715 174.724 174.834C174.907 175.596 175.227 176.317 175.667 176.962Z" fill="#B18EF7"/>
<path d="M178.524 169.495C178.72 169.197 178.682 168.766 178.407 168.208C177.886 167.146 178.229 166.493 178.561 165.863C178.799 165.412 179.044 164.946 178.818 164.423C178.79 164.357 178.757 164.293 178.72 164.232C178.433 163.781 177.878 163.579 177.158 163.659C176.192 163.77 174.965 164.423 174.679 165.21C174.282 166.31 175.399 168.078 175.513 168.265C175.726 168.683 176.036 169.043 176.415 169.315C176.795 169.586 177.233 169.762 177.694 169.827C177.849 169.855 178.008 169.838 178.155 169.779C178.301 169.721 178.429 169.622 178.524 169.495ZM177.724 169.434C177.325 169.376 176.945 169.223 176.617 168.986C176.289 168.749 176.022 168.437 175.837 168.074V168.051C175.632 167.731 175.454 167.394 175.305 167.043C175.056 166.463 174.871 165.794 175.033 165.34C175.241 164.767 176.275 164.144 177.203 164.041C177.531 164.003 178.124 164.007 178.399 164.423C178.675 164.839 178.505 165.137 178.226 165.668C177.882 166.317 177.471 167.123 178.067 168.365C178.271 168.777 178.32 169.098 178.21 169.266C178.149 169.332 178.073 169.382 177.988 169.411C177.903 169.441 177.812 169.448 177.724 169.434Z" fill="#B18EF7"/>
<path d="M187.663 176.962C187.606 176.693 187.591 176.418 187.617 176.144C187.617 175.812 187.726 175.488 187.926 175.225C188.127 174.961 188.409 174.773 188.727 174.689C189.215 174.546 189.71 174.429 190.21 174.338C191.47 174.09 192.232 173.956 193.481 172.153C194.116 171.22 195.066 170.554 196.153 170.282L196.081 169.9C194.895 170.186 193.857 170.91 193.172 171.932C192.013 173.593 191.346 173.723 190.153 173.96C189.644 174.053 189.14 174.173 188.644 174.319C188.254 174.428 187.91 174.661 187.661 174.984C187.413 175.306 187.273 175.701 187.263 176.11C187.237 176.394 187.251 176.681 187.304 176.962H187.663Z" fill="#B18EF7"/>
<path d="M195.768 168.246L195.685 167.811C195.525 167.751 195.368 167.681 195.217 167.601C194.767 167.357 194.37 167.023 194.051 166.619C193.731 166.215 193.497 165.75 193.36 165.252C192.821 163.51 193.693 161.67 194.326 160.642L194.225 160.1C193.94 160.515 193.687 160.951 193.47 161.406C192.798 162.838 192.632 164.209 192.991 165.367C193.145 165.914 193.407 166.425 193.76 166.869C194.113 167.312 194.551 167.679 195.047 167.948C195.277 168.071 195.519 168.171 195.768 168.246Z" fill="#B18EF7"/>
<path d="M170.932 161.765C170.932 161.765 170.003 161.097 169.996 160.237L181.316 158.217C181.316 158.217 172.637 160.191 171.569 160.776C170.773 161.203 170.932 161.765 170.932 161.765Z" fill="#B18EF7"/>
<path d="M173.305 176.962C173.109 172.673 172.845 168.846 172.83 166.478C172.83 165.363 172.539 163.724 171.445 163.843L172.679 176.962H173.305Z" fill="#B18EF7"/>
<path d="M170.494 162.113C170.494 162.113 179.173 161.551 184.591 160.753C184.591 160.753 179.618 162.563 170.566 162.903L170.494 162.113Z" fill="#B18EF7"/>
<g style="mix-blend-mode:multiply" opacity="0.3">
<path d="M188.232 159.393C189.214 162.025 188.3 164.988 189.678 170.141C190.218 172.373 190.346 174.687 190.055 176.966H197.417L193.964 158.744C193.964 158.744 194.945 157.323 194.492 156.265C194.3 155.811 189.681 156.376 184.474 157.17C184.636 157.148 187.282 156.842 188.232 159.393Z" fill="#C6A4FF"/>
</g>
<path d="M175.848 140.095C175.848 140.095 172.799 142.302 169.29 142.409H169.098C168.805 141.898 168.466 141.415 168.083 140.969C167.978 140.845 167.85 140.744 167.705 140.671L167.381 140.545C165.664 139.896 158.408 137.215 157.472 135.886C156.45 134.435 155.487 128.862 154.857 127.51C154.227 126.158 152.473 123.748 151.254 122.809C150.035 121.869 147.329 120.135 149.367 118.669C149.461 118.604 149.552 118.543 149.643 118.489C149.578 118.531 148.511 119.253 149.756 120.674C151.001 122.095 154.34 124.199 155.314 126.227C156.287 128.255 157.034 132.739 158.846 133.995C163.71 137.375 166.928 139.644 169.241 139.629C171.554 139.613 174.113 140.893 175.848 140.095Z" fill="#853D36"/>
<path d="M180.071 139.151C180.071 139.151 176.724 140.167 174.701 141.496C172.969 142.642 171.113 143.65 169.596 143.333C169.188 142.492 168.681 141.703 168.087 140.985C169.105 141.546 171.079 142.375 172.803 141.531C175.241 140.32 177.931 138.976 180.071 139.151Z" fill="#853D36"/>
<path d="M186.621 139.655C186.728 140.425 186.893 141.184 187.116 141.928C186.738 142.18 185.916 142.558 184.433 142.6C182.203 142.661 180.041 141.336 174.437 142.982C174.437 142.982 179.09 141.122 182.025 141.416C184.961 141.71 186.267 140.931 186.621 139.655Z" fill="#853D36"/>
<path d="M178.822 144.705C178.761 144.705 175.241 144.861 170.637 146.958C170.619 146.702 170.603 146.515 170.6 146.4C170.596 146.286 170.6 146.259 170.581 146.183C172.418 145.438 176.082 144.181 178.822 144.705Z" fill="#853D36"/>
<path d="M173.701 126.842C174.833 128.392 175.69 130.1 175.694 131.715C175.669 130.003 175.212 128.325 174.366 126.842H173.701Z" fill="#853D36"/>
<path d="M148.88 120.46C148.88 120.46 148.744 120.842 149.477 121.579C150.107 122.202 151.227 123.225 151.59 123.084C150.595 122.311 149.687 121.431 148.88 120.46Z" fill="#CB8C7F"/>
<path d="M158.223 122.614C157.253 122.514 156.276 122.725 155.431 123.217C156.047 122.588 156.836 122.162 157.695 121.995C157.812 122.14 157.872 122.224 157.872 122.224C157.872 122.224 158.008 122.366 158.223 122.614Z" fill="#853D36"/>
<path d="M161.114 126.842V126.704C161.064 126.651 161.012 126.597 160.963 126.54C160.316 127.952 159.856 129.444 159.593 130.978C160.094 129.599 160.699 128.26 161.404 126.975C161.355 126.933 161.306 126.891 161.257 126.842H161.114Z" fill="#853D36"/>
<path d="M92.488 156.483L92.9181 154.883C94.3746 149.437 95.7783 144.189 96.3745 141.928C96.5931 141.183 96.7582 140.424 96.8688 139.655C97.016 137.341 96.0009 134.098 95.767 130.936C95.7287 129.566 95.8133 128.196 96.0198 126.842H121.184C121.331 127.38 121.678 127.327 122.094 126.976C122.139 126.934 122.188 126.892 122.237 126.842H122.377V126.704L122.527 126.54C123.071 125.874 123.56 125.166 123.992 124.421C124.372 123.787 124.798 123.184 125.267 122.614C125.471 122.362 125.603 122.232 125.603 122.232C125.603 122.232 125.659 122.152 125.776 122.003C126.457 121.177 127.245 120.448 128.12 119.837C129.75 118.692 131.863 117.351 133.829 118.501C133.919 118.558 134.014 118.615 134.104 118.68C136.142 120.135 133.44 121.877 132.217 122.82C130.995 123.764 129.248 126.17 128.618 127.522C127.987 128.874 127.022 134.442 125.999 135.897C125.531 136.562 123.482 137.563 121.335 138.483C119.188 139.403 116.95 140.232 116.09 140.557L115.769 140.683C115.625 140.755 115.497 140.856 115.392 140.981C115.008 141.425 114.668 141.908 114.377 142.421C114.207 142.707 114.037 143.013 113.875 143.333C113.392 144.224 113.058 145.189 112.887 146.19V146.412C112.887 146.522 112.868 146.71 112.845 146.962C112.728 148.421 112.339 152.901 111.89 158.068C111.845 158.61 111.792 159.153 111.743 159.706C110.958 168.747 110.989 176.969 110.989 176.969L86.5 177C86.5 177 90.4956 163.938 92.488 156.483Z" fill="#A25E4A"/>
<path d="M105.936 148.947C105.066 149.433 104.345 150.152 103.853 151.025C103.219 152.335 101.563 161.566 101.563 161.566C101.563 161.566 102.695 153.248 102.616 151.033C102.574 149.623 101.434 148.271 101.434 148.271C102.744 149.261 104.268 149.394 105.936 148.947Z" fill="#853D36"/>
<path d="M113.268 162.112L113.192 162.903L111.871 176.962H86.3411L87.6051 170.282L87.6806 169.9L87.9938 168.246L88.073 167.811L89.4314 160.642L89.5371 160.1L89.7937 158.74C89.7937 158.74 88.8126 157.319 89.2654 156.261C89.4578 155.807 94.0726 156.372 99.2836 157.167C106.223 158.225 114.207 159.687 114.207 159.687C114.245 160.137 114.18 160.59 114.017 161.011C113.854 161.432 113.598 161.808 113.268 162.112Z" fill="#C6A4FF"/>
<path d="M99.8987 174.823C101.042 174.499 102.041 173.787 102.728 172.807C103.415 171.827 103.748 170.637 103.672 169.438C103.645 168.871 103.517 168.313 103.295 167.792C102.77 166.612 101.676 166.799 100.714 166.967C100.084 167.074 99.4912 167.177 99.1365 166.898C99.0029 166.761 98.8984 166.598 98.8296 166.419C98.7608 166.239 98.7291 166.048 98.7365 165.855C98.7141 165.166 98.5103 164.495 98.1461 163.913C97.7819 163.33 97.2706 162.856 96.665 162.54C96.2297 162.304 95.7415 162.185 95.2477 162.196C94.7539 162.207 94.2711 162.346 93.8463 162.601C93.2756 163.07 92.8413 163.686 92.5898 164.385C92.2111 165.285 91.9755 166.24 91.8917 167.215C91.7747 168.662 92.0728 169.804 92.7332 170.427C93.3068 170.945 94.0371 171.251 94.8047 171.294C95.7367 171.424 96.4687 171.523 97.0234 173.417C97.0903 173.716 97.2227 173.995 97.4109 174.234C97.599 174.474 97.838 174.667 98.1101 174.8C98.6863 175.014 99.3174 175.022 99.8987 174.823ZM97.4045 173.295C96.7819 171.168 95.8575 171.038 94.8764 170.901C94.1871 170.869 93.5292 170.599 93.0124 170.137C92.4388 169.598 92.1822 168.567 92.2917 167.238C92.4388 165.416 93.2388 163.476 94.0765 162.911C94.4467 162.697 94.8646 162.581 95.2909 162.575C95.7172 162.569 96.138 162.673 96.514 162.876C97.06 163.164 97.5205 163.594 97.8481 164.122C98.1756 164.649 98.3586 165.255 98.378 165.878C98.3725 166.124 98.418 166.367 98.5116 166.594C98.6052 166.82 98.7449 167.024 98.9214 167.192C99.4082 167.574 100.114 167.456 100.808 167.337C101.717 167.181 102.574 167.032 102.978 167.944C103.184 168.421 103.3 168.933 103.321 169.453C103.366 170.196 103.243 170.94 102.961 171.627C102.679 172.315 102.246 172.928 101.695 173.421C101.155 173.908 100.508 174.259 99.8081 174.445C98.4988 174.8 97.7139 174.426 97.3857 173.307L97.4045 173.295Z" fill="#B18EF7"/>
<path d="M108.094 176.962H107.623C107.911 176.581 108.152 176.165 108.34 175.724C108.475 175.407 108.583 175.079 108.664 174.743C108.811 174.124 109.208 172.489 108.74 171.726C108.679 171.627 108.599 171.542 108.504 171.476C108.409 171.41 108.302 171.365 108.189 171.344C107.642 171.218 107.434 171.607 107 172.421C106.566 173.234 105.993 174.395 104.593 175.132C103.102 175.919 102.389 176.473 102.057 176.966H101.619C101.698 176.808 101.796 176.66 101.91 176.526C102.34 176.015 103.114 175.48 104.415 174.792C105.717 174.105 106.238 173.078 106.679 172.245C107.121 171.412 107.434 170.775 108.283 170.969C108.446 171.001 108.601 171.068 108.737 171.164C108.874 171.26 108.989 171.383 109.075 171.527C109.566 172.325 109.317 173.715 109.049 174.834C108.861 175.596 108.537 176.317 108.094 176.962Z" fill="#B18EF7"/>
<path d="M106.068 169.816C106.528 169.751 106.966 169.575 107.345 169.304C107.724 169.032 108.033 168.672 108.245 168.254C108.362 168.078 109.475 166.31 109.083 165.198C108.796 164.408 107.574 163.759 106.6 163.648C105.883 163.568 105.328 163.77 105.042 164.221C105.002 164.281 104.968 164.345 104.94 164.412C104.717 164.935 104.962 165.401 105.2 165.851C105.532 166.482 105.876 167.135 105.355 168.196C105.079 168.754 105.038 169.186 105.234 169.484C105.33 169.61 105.459 169.709 105.605 169.767C105.752 169.826 105.912 169.842 106.068 169.816ZM105.551 169.281C105.438 169.113 105.491 168.792 105.691 168.38C106.302 167.139 105.876 166.333 105.536 165.683C105.257 165.153 105.11 164.832 105.359 164.438C105.608 164.045 106.23 164.003 106.559 164.056C107.487 164.16 108.517 164.782 108.725 165.355C108.887 165.809 108.706 166.478 108.457 167.058C108.307 167.409 108.129 167.746 107.925 168.067V168.09C107.739 168.452 107.472 168.764 107.144 169C106.815 169.237 106.436 169.39 106.038 169.449C105.951 169.462 105.861 169.454 105.778 169.425C105.694 169.395 105.619 169.346 105.559 169.281H105.551Z" fill="#B18EF7"/>
<path d="M96.0952 176.962C96.1534 176.693 96.17 176.418 96.1443 176.144C96.1442 175.812 96.0353 175.489 95.8346 175.225C95.6339 174.962 95.3527 174.774 95.0349 174.689C94.5469 174.546 94.052 174.429 93.552 174.338C92.2879 174.09 91.5257 173.956 90.2805 172.153C89.6454 171.219 88.6934 170.553 87.6052 170.282L87.6807 169.9C88.8662 170.188 89.9033 170.912 90.5899 171.932C91.7484 173.593 92.4125 173.723 93.6086 173.96C94.1174 174.053 94.6212 174.173 95.1179 174.319C95.5066 174.429 95.8501 174.662 96.098 174.985C96.3459 175.307 96.4851 175.702 96.4952 176.11C96.5357 176.392 96.5382 176.679 96.5028 176.962H96.0952Z" fill="#B18EF7"/>
<path d="M87.9939 168.246L88.0731 167.811C88.234 167.753 88.3903 167.682 88.541 167.601C88.9914 167.356 89.3882 167.022 89.7079 166.618C90.0276 166.215 90.2634 165.75 90.4013 165.252C90.9371 163.51 90.0655 161.67 89.4315 160.642L89.5372 160.1C89.822 160.515 90.0744 160.951 90.2919 161.406C90.9673 162.838 91.1333 164.209 90.7749 165.367C90.6197 165.914 90.3578 166.425 90.0046 166.868C89.6514 167.311 89.2141 167.679 88.7184 167.948C88.4864 168.07 88.2439 168.17 87.9939 168.246Z" fill="#B18EF7"/>
<path d="M112.826 161.765C112.826 161.765 113.758 161.097 113.762 160.237L102.442 158.217C102.442 158.217 111.121 160.191 112.192 160.776C112.985 161.203 112.826 161.765 112.826 161.765Z" fill="#B18EF7"/>
<path d="M110.464 176.962C110.664 172.673 110.924 168.846 110.94 166.478C110.94 165.363 111.23 163.724 112.324 163.843L111.079 176.962H110.464Z" fill="#B18EF7"/>
<path d="M113.268 162.113C113.268 162.113 104.589 161.551 99.1704 160.753C99.1704 160.753 104.144 162.563 113.192 162.903L113.268 162.113Z" fill="#B18EF7"/>
<g style="mix-blend-mode:multiply" opacity="0.3">
<path d="M95.5291 159.393C94.5443 162.025 95.4574 164.988 94.084 170.141C93.5413 172.372 93.4133 174.687 93.7066 176.966H86.3411L89.7937 158.744C89.7937 158.744 88.8126 157.323 89.2654 156.265C89.4578 155.811 94.0726 156.376 99.2836 157.17C99.1214 157.148 96.48 156.842 95.5291 159.393Z" fill="#C6A4FF"/>
</g>
<path d="M107.638 140.095C107.638 140.095 110.687 142.302 114.2 142.409H114.392C114.684 141.898 115.024 141.415 115.407 140.969C115.512 140.845 115.64 140.744 115.784 140.671L116.105 140.545C117.822 139.896 125.078 137.215 126.014 135.886C127.037 134.435 127.999 128.862 128.633 127.51C129.267 126.158 131.017 123.748 132.236 122.809C133.455 121.869 136.16 120.135 134.123 118.669C134.034 118.604 133.942 118.544 133.847 118.489C133.912 118.531 134.979 119.253 133.734 120.674C132.489 122.095 129.15 124.199 128.176 126.227C127.203 128.255 126.455 132.739 124.648 133.995C119.78 137.375 116.562 139.644 114.252 139.629C111.943 139.613 109.374 140.893 107.638 140.095Z" fill="#853D36"/>
<path d="M103.415 139.151C103.415 139.151 106.766 140.167 108.785 141.496C110.521 142.642 112.373 143.65 113.89 143.333C114.298 142.492 114.805 141.703 115.399 140.985C114.381 141.546 112.403 142.375 110.683 141.531C108.245 140.32 105.559 138.976 103.415 139.151Z" fill="#853D36"/>
<path d="M96.88 139.655C96.7695 140.424 96.6043 141.183 96.3857 141.928C96.7631 142.18 97.5857 142.558 99.0648 142.6C101.295 142.661 103.457 141.336 109.06 142.982C109.06 142.982 104.408 141.122 101.472 141.416C98.5365 141.71 97.2196 140.931 96.88 139.655Z" fill="#853D36"/>
<path d="M104.668 144.705C104.725 144.705 108.245 144.861 112.849 146.958C112.871 146.702 112.883 146.515 112.89 146.4C112.898 146.286 112.89 146.259 112.89 146.183C111.072 145.438 107.404 144.181 104.668 144.705Z" fill="#853D36"/>
<path d="M109.785 126.842C108.653 128.392 107.796 130.1 107.792 131.715C107.819 130.003 108.276 128.326 109.121 126.842H109.785Z" fill="#853D36"/>
<path d="M134.613 120.46C134.613 120.46 134.749 120.842 134.021 121.579C133.391 122.202 132.266 123.225 131.904 123.084C132.898 122.311 133.807 121.431 134.613 120.46Z" fill="#CB8C7F"/>
<path d="M125.267 122.614C126.237 122.515 127.214 122.726 128.059 123.217C127.438 122.585 126.642 122.159 125.776 121.995C125.659 122.14 125.603 122.224 125.603 122.224C125.603 122.224 125.471 122.366 125.267 122.614Z" fill="#853D36"/>
<path d="M122.376 126.842V126.704L122.539 126.548C123.185 127.96 123.646 129.452 123.908 130.986C123.41 129.607 122.808 128.269 122.109 126.983C122.154 126.941 122.203 126.899 122.252 126.85L122.376 126.842Z" fill="#853D36"/>
<path d="M222.366 4.80202C218.593 3.0719 215.951 6.3679 215.951 6.3679C215.951 6.3679 216.189 2.5143 212.74 1.78482C209.291 1.05535 207.982 5.15339 207.982 5.15339C207.982 5.15339 205.367 -0.74351 200.964 1.06299C196.56 2.86949 198.228 9.24761 198.228 9.24761C198.228 9.24761 196.209 7.33799 194.187 7.44111C192.164 7.54423 191.806 12.494 191.806 12.494H229.071C229.071 12.494 227.366 7.08974 222.366 4.80202Z" fill="#E3E3E3"/>
<path d="M53.1304 10.5354C49.3571 8.80524 46.7158 12.1012 46.7158 12.1012C46.7158 12.1012 46.9535 8.24763 43.5046 7.51815C40.0558 6.78868 38.7465 10.8867 38.7465 10.8867C38.7465 10.8867 36.1429 5.70784 31.7394 7.51434C27.3359 9.32083 28.9924 14.9809 28.9924 14.9809C28.9924 14.9809 26.9699 13.0713 24.9474 13.1744C22.9249 13.2776 22.5702 18.2273 22.5702 18.2273H59.8356C59.8356 18.2273 58.1301 12.8231 53.1304 10.5354Z" fill="#E3E3E3"/>
<path d="M156.725 38.0333C152.952 36.3032 150.31 39.5992 150.31 39.5992C150.31 39.5992 150.548 35.7456 147.099 35.0161C143.651 34.2866 142.341 38.3885 142.341 38.3885C142.341 38.3885 139.723 32.4878 135.323 34.2942C130.923 36.1007 132.587 42.4827 132.587 42.4827C132.587 42.4827 130.565 40.5731 128.542 40.6762C126.52 40.7793 126.165 45.7252 126.165 45.7252H163.43C163.43 45.7252 161.725 40.321 156.725 38.0333Z" fill="#E3E3E3"/>
<path d="M278 29.6766C277.592 29.3863 277.181 29.0999 276.77 28.8287C272.88 26.266 271.076 29.795 271.076 29.795C271.076 29.795 268.597 21.5836 262.288 22.7218C255.979 23.8599 257.149 32.3042 257.149 32.3042C257.149 32.3042 254.511 26.4837 249.7 28.0114C244.889 29.5391 242.821 35.5162 242.821 35.5162L278.015 35.1343L278 29.6766Z" fill="#E3E3E3"/>
</svg>
