<svg width="27" height="24" viewBox="0 0 27 24" fill="none" xmlns="http://www.w3.org/2000/svg">
<path d="M17.3716 14H16.5236L16.223 13.73C17.275 12.59 17.9083 11.11 17.9083 9.5C17.9083 5.91 14.7847 3 10.9312 3C7.07771 3 3.95413 5.91 3.95413 9.5C3.95413 13.09 7.07771 16 10.9312 16C12.6594 16 14.248 15.41 15.4717 14.43L15.7615 14.71V15.5L21.1284 20.49L22.7278 19L17.3716 14ZM10.9312 14C8.25844 14 6.10092 11.99 6.10092 9.5C6.10092 7.01 8.25844 5 10.9312 5C13.6039 5 15.7615 7.01 15.7615 9.5C15.7615 11.99 13.6039 14 10.9312 14Z" fill="black"/>
</svg>
