<svg width="16" height="19" viewBox="0 0 16 19" fill="none" xmlns="http://www.w3.org/2000/svg">
<path d="M15.2 16.7105V5.7L9.5 0H1.9C0.855 0 0.00950022 0.855 0.00950022 1.9L0 17.1C0 18.145 0.8455 19 1.8905 19H13.3C13.7275 19 14.1075 18.8575 14.4305 18.62L10.222 14.4115C9.462 14.9055 8.569 15.2 7.6 15.2C4.978 15.2 2.85 13.072 2.85 10.45C2.85 7.828 4.978 5.7 7.6 5.7C10.222 5.7 12.35 7.828 12.35 10.45C12.35 11.419 12.0555 12.312 11.5615 13.0625L15.2 16.7105ZM4.75 10.45C4.75 12.027 6.023 13.3 7.6 13.3C9.177 13.3 10.45 12.027 10.45 10.45C10.45 8.873 9.177 7.6 7.6 7.6C6.023 7.6 4.75 8.873 4.75 10.45Z" fill="black"/>
</svg>
