<svg width="63" height="63" viewBox="0 0 63 63" fill="none" xmlns="http://www.w3.org/2000/svg">
<rect width="63" height="63" rx="8" fill="#C6A4FF"/>
<path d="M32.75 23.25H29.25V30.25H22.25V33.75H29.25V40.75H32.75V33.75H39.75V30.25H32.75V23.25ZM31 14.5C21.34 14.5 13.5 22.34 13.5 32C13.5 41.66 21.34 49.5 31 49.5C40.66 49.5 48.5 41.66 48.5 32C48.5 22.34 40.66 14.5 31 14.5ZM31 46C23.2825 46 17 39.7175 17 32C17 24.2825 23.2825 18 31 18C38.7175 18 45 24.2825 45 32C45 39.7175 38.7175 46 31 46Z" fill="#1B0A60"/>
</svg>
