<svg width="32" height="32" viewBox="0 0 32 32" fill="none" xmlns="http://www.w3.org/2000/svg">
<path d="M5.19996 16.0002C5.19996 13.7202 7.05329 11.8668 9.33329 11.8668H14.6666V9.3335H9.33329C5.65329 9.3335 2.66663 12.3202 2.66663 16.0002C2.66663 19.6802 5.65329 22.6668 9.33329 22.6668H14.6666V20.1335H9.33329C7.05329 20.1335 5.19996 18.2802 5.19996 16.0002ZM10.6666 17.3335H21.3333V14.6668H10.6666V17.3335ZM22.6666 9.3335H17.3333V11.8668H22.6666C24.9466 11.8668 26.8 13.7202 26.8 16.0002C26.8 18.2802 24.9466 20.1335 22.6666 20.1335H17.3333V22.6668H22.6666C26.3466 22.6668 29.3333 19.6802 29.3333 16.0002C29.3333 12.3202 26.3466 9.3335 22.6666 9.3335Z" fill="black"/>
</svg>
