<svg width="351" height="175" viewBox="0 0 351 175" fill="none" xmlns="http://www.w3.org/2000/svg">
<rect width="351" height="175" rx="16" fill="#1B0A60"/>
<path d="M191.125 50.25H159.875V56.5H191.125V50.25ZM197.375 28.375H194.25V22.125H188V28.375H163V22.125H156.75V28.375H153.625C150.156 28.375 147.406 31.1875 147.406 34.625L147.375 78.375C147.375 81.8125 150.156 84.625 153.625 84.625H197.375C200.812 84.625 203.625 81.8125 203.625 78.375V34.625C203.625 31.1875 200.812 28.375 197.375 28.375ZM197.375 78.375H153.625V44H197.375V78.375ZM181.75 62.75H159.875V69H181.75V62.75Z" fill="#C6A4FF"/>
<path d="M90.2352 105.412C89.8712 105.02 89.5165 104.759 89.1712 104.628C88.8352 104.497 88.4945 104.432 88.1492 104.432C87.6359 104.432 87.1692 104.525 86.7492 104.712C86.3385 104.889 85.9839 105.141 85.6852 105.468C85.3865 105.785 85.1532 106.159 84.9852 106.588C84.8265 107.017 84.7472 107.479 84.7472 107.974C84.7472 108.506 84.8265 108.996 84.9852 109.444C85.1532 109.892 85.3865 110.279 85.6852 110.606C85.9839 110.933 86.3385 111.189 86.7492 111.376C87.1692 111.563 87.6359 111.656 88.1492 111.656C88.5505 111.656 88.9379 111.563 89.3112 111.376C89.6939 111.18 90.0485 110.872 90.3752 110.452L91.8312 111.488C91.3832 112.104 90.8372 112.552 90.1932 112.832C89.5492 113.112 88.8632 113.252 88.1352 113.252C87.3699 113.252 86.6652 113.131 86.0212 112.888C85.3865 112.636 84.8359 112.286 84.3692 111.838C83.9119 111.381 83.5525 110.835 83.2912 110.2C83.0299 109.565 82.8992 108.861 82.8992 108.086C82.8992 107.293 83.0299 106.574 83.2912 105.93C83.5525 105.277 83.9119 104.721 84.3692 104.264C84.8359 103.807 85.3865 103.457 86.0212 103.214C86.6652 102.962 87.3699 102.836 88.1352 102.836C88.8072 102.836 89.4279 102.957 89.9972 103.2C90.5759 103.433 91.1125 103.835 91.6072 104.404L90.2352 105.412ZM92.5252 109.64C92.5252 109.108 92.6185 108.627 92.8052 108.198C93.0012 107.759 93.2625 107.386 93.5892 107.078C93.9158 106.77 94.3032 106.532 94.7512 106.364C95.1992 106.196 95.6752 106.112 96.1792 106.112C96.6832 106.112 97.1592 106.196 97.6072 106.364C98.0552 106.532 98.4425 106.77 98.7692 107.078C99.0958 107.386 99.3525 107.759 99.5392 108.198C99.7352 108.627 99.8332 109.108 99.8332 109.64C99.8332 110.172 99.7352 110.657 99.5392 111.096C99.3525 111.525 99.0958 111.894 98.7692 112.202C98.4425 112.51 98.0552 112.748 97.6072 112.916C97.1592 113.084 96.6832 113.168 96.1792 113.168C95.6752 113.168 95.1992 113.084 94.7512 112.916C94.3032 112.748 93.9158 112.51 93.5892 112.202C93.2625 111.894 93.0012 111.525 92.8052 111.096C92.6185 110.657 92.5252 110.172 92.5252 109.64ZM94.2052 109.64C94.2052 109.901 94.2472 110.153 94.3312 110.396C94.4245 110.639 94.5552 110.853 94.7232 111.04C94.9005 111.227 95.1105 111.376 95.3532 111.488C95.5958 111.6 95.8712 111.656 96.1792 111.656C96.4872 111.656 96.7625 111.6 97.0052 111.488C97.2478 111.376 97.4532 111.227 97.6212 111.04C97.7985 110.853 97.9292 110.639 98.0132 110.396C98.1065 110.153 98.1532 109.901 98.1532 109.64C98.1532 109.379 98.1065 109.127 98.0132 108.884C97.9292 108.641 97.7985 108.427 97.6212 108.24C97.4532 108.053 97.2478 107.904 97.0052 107.792C96.7625 107.68 96.4872 107.624 96.1792 107.624C95.8712 107.624 95.5958 107.68 95.3532 107.792C95.1105 107.904 94.9005 108.053 94.7232 108.24C94.5552 108.427 94.4245 108.641 94.3312 108.884C94.2472 109.127 94.2052 109.379 94.2052 109.64ZM101.336 106.28H102.932V107.33H102.96C103.109 107.013 103.347 106.733 103.674 106.49C104.01 106.238 104.458 106.112 105.018 106.112C106.073 106.112 106.773 106.527 107.118 107.358C107.361 106.929 107.664 106.616 108.028 106.42C108.392 106.215 108.826 106.112 109.33 106.112C109.778 106.112 110.156 106.187 110.464 106.336C110.772 106.485 111.019 106.691 111.206 106.952C111.402 107.213 111.542 107.521 111.626 107.876C111.71 108.221 111.752 108.595 111.752 108.996V113H110.072V109.192C110.072 108.987 110.053 108.791 110.016 108.604C109.979 108.408 109.913 108.24 109.82 108.1C109.727 107.951 109.601 107.834 109.442 107.75C109.283 107.666 109.078 107.624 108.826 107.624C108.565 107.624 108.341 107.675 108.154 107.778C107.977 107.871 107.827 108.002 107.706 108.17C107.594 108.329 107.51 108.515 107.454 108.73C107.407 108.935 107.384 109.145 107.384 109.36V113H105.704V108.996C105.704 108.576 105.615 108.245 105.438 108.002C105.261 107.75 104.967 107.624 104.556 107.624C104.276 107.624 104.038 107.671 103.842 107.764C103.655 107.857 103.497 107.983 103.366 108.142C103.245 108.301 103.156 108.483 103.1 108.688C103.044 108.893 103.016 109.108 103.016 109.332V113H101.336V106.28ZM113.518 106.28H115.114V107.33H115.142C115.291 107.013 115.529 106.733 115.856 106.49C116.192 106.238 116.64 106.112 117.2 106.112C118.254 106.112 118.954 106.527 119.3 107.358C119.542 106.929 119.846 106.616 120.21 106.42C120.574 106.215 121.008 106.112 121.512 106.112C121.96 106.112 122.338 106.187 122.646 106.336C122.954 106.485 123.201 106.691 123.388 106.952C123.584 107.213 123.724 107.521 123.808 107.876C123.892 108.221 123.934 108.595 123.934 108.996V113H122.254V109.192C122.254 108.987 122.235 108.791 122.198 108.604C122.16 108.408 122.095 108.24 122.002 108.1C121.908 107.951 121.782 107.834 121.624 107.75C121.465 107.666 121.26 107.624 121.008 107.624C120.746 107.624 120.522 107.675 120.336 107.778C120.158 107.871 120.009 108.002 119.888 108.17C119.776 108.329 119.692 108.515 119.636 108.73C119.589 108.935 119.566 109.145 119.566 109.36V113H117.886V108.996C117.886 108.576 117.797 108.245 117.62 108.002C117.442 107.75 117.148 107.624 116.738 107.624C116.458 107.624 116.22 107.671 116.024 107.764C115.837 107.857 115.678 107.983 115.548 108.142C115.426 108.301 115.338 108.483 115.282 108.688C115.226 108.893 115.198 109.108 115.198 109.332V113H113.518V106.28ZM131.901 113H130.305V111.922H130.277C130.119 112.258 129.876 112.552 129.549 112.804C129.223 113.047 128.779 113.168 128.219 113.168C127.771 113.168 127.389 113.098 127.071 112.958C126.763 112.809 126.511 112.613 126.315 112.37C126.119 112.118 125.979 111.833 125.895 111.516C125.811 111.199 125.769 110.867 125.769 110.522V106.28H127.449V109.682C127.449 109.869 127.459 110.079 127.477 110.312C127.496 110.536 127.543 110.751 127.617 110.956C127.701 111.152 127.823 111.32 127.981 111.46C128.149 111.591 128.383 111.656 128.681 111.656C128.961 111.656 129.195 111.609 129.381 111.516C129.577 111.423 129.736 111.297 129.857 111.138C129.988 110.979 130.081 110.797 130.137 110.592C130.193 110.387 130.221 110.172 130.221 109.948V106.28H131.901V113ZM133.808 106.28H135.404V107.358H135.432C135.591 107.022 135.834 106.733 136.16 106.49C136.487 106.238 136.93 106.112 137.49 106.112C137.938 106.112 138.316 106.187 138.624 106.336C138.942 106.485 139.198 106.681 139.394 106.924C139.59 107.167 139.73 107.447 139.814 107.764C139.898 108.081 139.94 108.413 139.94 108.758V113H138.26V109.598C138.26 109.411 138.251 109.206 138.232 108.982C138.214 108.749 138.162 108.534 138.078 108.338C138.004 108.133 137.882 107.965 137.714 107.834C137.546 107.694 137.318 107.624 137.028 107.624C136.748 107.624 136.51 107.671 136.314 107.764C136.128 107.857 135.969 107.983 135.838 108.142C135.717 108.301 135.628 108.483 135.572 108.688C135.516 108.893 135.488 109.108 135.488 109.332V113H133.808V106.28ZM141.876 106.28H143.556V113H141.876V106.28ZM141.638 103.998C141.638 103.727 141.736 103.494 141.932 103.298C142.137 103.093 142.394 102.99 142.702 102.99C143.01 102.99 143.266 103.088 143.472 103.284C143.686 103.471 143.794 103.709 143.794 103.998C143.794 104.287 143.686 104.53 143.472 104.726C143.266 104.913 143.01 105.006 142.702 105.006C142.394 105.006 142.137 104.908 141.932 104.712C141.736 104.507 141.638 104.269 141.638 103.998ZM144.7 107.708V106.28H146.086V104.334H147.766V106.28H149.614V107.708H147.766V110.648C147.766 110.984 147.827 111.25 147.948 111.446C148.079 111.642 148.331 111.74 148.704 111.74C148.854 111.74 149.017 111.726 149.194 111.698C149.372 111.661 149.512 111.605 149.614 111.53V112.944C149.437 113.028 149.218 113.084 148.956 113.112C148.704 113.149 148.48 113.168 148.284 113.168C147.836 113.168 147.468 113.117 147.178 113.014C146.898 112.921 146.674 112.776 146.506 112.58C146.348 112.375 146.236 112.123 146.17 111.824C146.114 111.525 146.086 111.18 146.086 110.788V107.708H144.7ZM150.016 106.28H151.864L153.74 110.942H153.768L155.448 106.28H157.198L154.02 114.442C153.898 114.759 153.763 115.035 153.614 115.268C153.474 115.511 153.306 115.711 153.11 115.87C152.914 116.038 152.68 116.159 152.41 116.234C152.148 116.318 151.831 116.36 151.458 116.36C151.019 116.36 150.59 116.304 150.17 116.192L150.38 114.68C150.51 114.727 150.646 114.764 150.786 114.792C150.935 114.829 151.084 114.848 151.234 114.848C151.439 114.848 151.612 114.829 151.752 114.792C151.892 114.755 152.008 114.694 152.102 114.61C152.204 114.535 152.288 114.433 152.354 114.302C152.419 114.181 152.489 114.031 152.564 113.854L152.886 113.056L150.016 106.28ZM162.482 103.088H169.048V104.684H164.246V107.12H168.796V108.716H164.246V111.404H169.3V113H162.482V103.088ZM169.977 106.28H171.811L173.603 110.984H173.631L175.437 106.28H177.159L174.513 113H172.721L169.977 106.28ZM179.49 110.228C179.546 110.732 179.742 111.124 180.078 111.404C180.414 111.684 180.82 111.824 181.296 111.824C181.716 111.824 182.066 111.74 182.346 111.572C182.636 111.395 182.888 111.175 183.102 110.914L184.306 111.824C183.914 112.309 183.476 112.655 182.99 112.86C182.505 113.065 181.996 113.168 181.464 113.168C180.96 113.168 180.484 113.084 180.036 112.916C179.588 112.748 179.201 112.51 178.874 112.202C178.548 111.894 178.286 111.525 178.09 111.096C177.904 110.657 177.81 110.172 177.81 109.64C177.81 109.108 177.904 108.627 178.09 108.198C178.286 107.759 178.548 107.386 178.874 107.078C179.201 106.77 179.588 106.532 180.036 106.364C180.484 106.196 180.96 106.112 181.464 106.112C181.931 106.112 182.356 106.196 182.738 106.364C183.13 106.523 183.462 106.756 183.732 107.064C184.012 107.372 184.227 107.755 184.376 108.212C184.535 108.66 184.614 109.178 184.614 109.766V110.228H179.49ZM182.934 108.968C182.925 108.473 182.771 108.086 182.472 107.806C182.174 107.517 181.758 107.372 181.226 107.372C180.722 107.372 180.321 107.517 180.022 107.806C179.733 108.095 179.556 108.483 179.49 108.968H182.934ZM186.185 106.28H187.781V107.358H187.809C187.968 107.022 188.211 106.733 188.537 106.49C188.864 106.238 189.307 106.112 189.867 106.112C190.315 106.112 190.693 106.187 191.001 106.336C191.319 106.485 191.575 106.681 191.771 106.924C191.967 107.167 192.107 107.447 192.191 107.764C192.275 108.081 192.317 108.413 192.317 108.758V113H190.637V109.598C190.637 109.411 190.628 109.206 190.609 108.982C190.591 108.749 190.539 108.534 190.455 108.338C190.381 108.133 190.259 107.965 190.091 107.834C189.923 107.694 189.695 107.624 189.405 107.624C189.125 107.624 188.887 107.671 188.691 107.764C188.505 107.857 188.346 107.983 188.215 108.142C188.094 108.301 188.005 108.483 187.949 108.688C187.893 108.893 187.865 109.108 187.865 109.332V113H186.185V106.28ZM193.44 107.708V106.28H194.826V104.334H196.506V106.28H198.354V107.708H196.506V110.648C196.506 110.984 196.567 111.25 196.688 111.446C196.819 111.642 197.071 111.74 197.444 111.74C197.594 111.74 197.757 111.726 197.934 111.698C198.112 111.661 198.252 111.605 198.354 111.53V112.944C198.177 113.028 197.958 113.084 197.696 113.112C197.444 113.149 197.22 113.168 197.024 113.168C196.576 113.168 196.208 113.117 195.918 113.014C195.638 112.921 195.414 112.776 195.246 112.58C195.088 112.375 194.976 112.123 194.91 111.824C194.854 111.525 194.826 111.18 194.826 110.788V107.708H193.44ZM203.25 108.142C202.923 107.685 202.485 107.456 201.934 107.456C201.71 107.456 201.491 107.512 201.276 107.624C201.061 107.736 200.954 107.918 200.954 108.17C200.954 108.375 201.043 108.525 201.22 108.618C201.397 108.711 201.621 108.791 201.892 108.856C202.163 108.921 202.452 108.991 202.76 109.066C203.077 109.131 203.371 109.239 203.642 109.388C203.913 109.528 204.137 109.724 204.314 109.976C204.491 110.228 204.58 110.573 204.58 111.012C204.58 111.413 204.491 111.754 204.314 112.034C204.146 112.305 203.922 112.524 203.642 112.692C203.371 112.86 203.063 112.981 202.718 113.056C202.373 113.131 202.027 113.168 201.682 113.168C201.159 113.168 200.679 113.093 200.24 112.944C199.801 112.795 199.409 112.524 199.064 112.132L200.184 111.082C200.399 111.325 200.627 111.525 200.87 111.684C201.122 111.833 201.425 111.908 201.78 111.908C201.901 111.908 202.027 111.894 202.158 111.866C202.289 111.838 202.41 111.791 202.522 111.726C202.634 111.661 202.723 111.581 202.788 111.488C202.863 111.385 202.9 111.269 202.9 111.138C202.9 110.905 202.811 110.732 202.634 110.62C202.457 110.508 202.233 110.419 201.962 110.354C201.691 110.279 201.397 110.214 201.08 110.158C200.772 110.093 200.483 109.995 200.212 109.864C199.941 109.724 199.717 109.533 199.54 109.29C199.363 109.047 199.274 108.711 199.274 108.282C199.274 107.909 199.349 107.587 199.498 107.316C199.657 107.036 199.862 106.807 200.114 106.63C200.366 106.453 200.655 106.322 200.982 106.238C201.309 106.154 201.64 106.112 201.976 106.112C202.424 106.112 202.867 106.191 203.306 106.35C203.745 106.499 204.099 106.761 204.37 107.134L203.25 108.142ZM216.987 105.412C216.623 105.02 216.268 104.759 215.923 104.628C215.587 104.497 215.246 104.432 214.901 104.432C214.388 104.432 213.921 104.525 213.501 104.712C213.09 104.889 212.736 105.141 212.437 105.468C212.138 105.785 211.905 106.159 211.737 106.588C211.578 107.017 211.499 107.479 211.499 107.974C211.499 108.506 211.578 108.996 211.737 109.444C211.905 109.892 212.138 110.279 212.437 110.606C212.736 110.933 213.09 111.189 213.501 111.376C213.921 111.563 214.388 111.656 214.901 111.656C215.302 111.656 215.69 111.563 216.063 111.376C216.446 111.18 216.8 110.872 217.127 110.452L218.583 111.488C218.135 112.104 217.589 112.552 216.945 112.832C216.301 113.112 215.615 113.252 214.887 113.252C214.122 113.252 213.417 113.131 212.773 112.888C212.138 112.636 211.588 112.286 211.121 111.838C210.664 111.381 210.304 110.835 210.043 110.2C209.782 109.565 209.651 108.861 209.651 108.086C209.651 107.293 209.782 106.574 210.043 105.93C210.304 105.277 210.664 104.721 211.121 104.264C211.588 103.807 212.138 103.457 212.773 103.214C213.417 102.962 214.122 102.836 214.887 102.836C215.559 102.836 216.18 102.957 216.749 103.2C217.328 103.433 217.864 103.835 218.359 104.404L216.987 105.412ZM223.813 112.076H223.771C223.528 112.459 223.22 112.739 222.847 112.916C222.474 113.084 222.063 113.168 221.615 113.168C221.307 113.168 221.004 113.126 220.705 113.042C220.416 112.958 220.154 112.832 219.921 112.664C219.697 112.496 219.515 112.286 219.375 112.034C219.235 111.782 219.165 111.488 219.165 111.152C219.165 110.788 219.23 110.48 219.361 110.228C219.492 109.967 219.664 109.752 219.879 109.584C220.103 109.407 220.36 109.267 220.649 109.164C220.938 109.061 221.237 108.987 221.545 108.94C221.862 108.884 222.18 108.851 222.497 108.842C222.814 108.823 223.113 108.814 223.393 108.814H223.813V108.632C223.813 108.212 223.668 107.899 223.379 107.694C223.09 107.479 222.721 107.372 222.273 107.372C221.918 107.372 221.587 107.437 221.279 107.568C220.971 107.689 220.705 107.857 220.481 108.072L219.599 107.19C219.972 106.807 220.406 106.532 220.901 106.364C221.405 106.196 221.923 106.112 222.455 106.112C222.931 106.112 223.332 106.168 223.659 106.28C223.986 106.383 224.256 106.518 224.471 106.686C224.686 106.854 224.849 107.05 224.961 107.274C225.082 107.489 225.166 107.708 225.213 107.932C225.269 108.156 225.302 108.375 225.311 108.59C225.32 108.795 225.325 108.977 225.325 109.136V113H223.813V112.076ZM223.715 109.99H223.365C223.132 109.99 222.87 109.999 222.581 110.018C222.292 110.037 222.016 110.083 221.755 110.158C221.503 110.223 221.288 110.326 221.111 110.466C220.934 110.597 220.845 110.783 220.845 111.026C220.845 111.185 220.878 111.32 220.943 111.432C221.018 111.535 221.111 111.623 221.223 111.698C221.335 111.773 221.461 111.829 221.601 111.866C221.741 111.894 221.881 111.908 222.021 111.908C222.6 111.908 223.024 111.773 223.295 111.502C223.575 111.222 223.715 110.844 223.715 110.368V109.99ZM227.161 102.416H228.841V113H227.161V102.416ZM232.113 110.228C232.169 110.732 232.365 111.124 232.701 111.404C233.037 111.684 233.443 111.824 233.919 111.824C234.339 111.824 234.689 111.74 234.969 111.572C235.259 111.395 235.511 111.175 235.725 110.914L236.929 111.824C236.537 112.309 236.099 112.655 235.613 112.86C235.128 113.065 234.619 113.168 234.087 113.168C233.583 113.168 233.107 113.084 232.659 112.916C232.211 112.748 231.824 112.51 231.497 112.202C231.171 111.894 230.909 111.525 230.713 111.096C230.527 110.657 230.433 110.172 230.433 109.64C230.433 109.108 230.527 108.627 230.713 108.198C230.909 107.759 231.171 107.386 231.497 107.078C231.824 106.77 232.211 106.532 232.659 106.364C233.107 106.196 233.583 106.112 234.087 106.112C234.554 106.112 234.979 106.196 235.361 106.364C235.753 106.523 236.085 106.756 236.355 107.064C236.635 107.372 236.85 107.755 236.999 108.212C237.158 108.66 237.237 109.178 237.237 109.766V110.228H232.113ZM235.557 108.968C235.548 108.473 235.394 108.086 235.095 107.806C234.797 107.517 234.381 107.372 233.849 107.372C233.345 107.372 232.944 107.517 232.645 107.806C232.356 108.095 232.179 108.483 232.113 108.968H235.557ZM238.808 106.28H240.404V107.358H240.432C240.591 107.022 240.834 106.733 241.16 106.49C241.487 106.238 241.93 106.112 242.49 106.112C242.938 106.112 243.316 106.187 243.624 106.336C243.942 106.485 244.198 106.681 244.394 106.924C244.59 107.167 244.73 107.447 244.814 107.764C244.898 108.081 244.94 108.413 244.94 108.758V113H243.26V109.598C243.26 109.411 243.251 109.206 243.232 108.982C243.214 108.749 243.162 108.534 243.078 108.338C243.004 108.133 242.882 107.965 242.714 107.834C242.546 107.694 242.318 107.624 242.028 107.624C241.748 107.624 241.51 107.671 241.314 107.764C241.128 107.857 240.969 107.983 240.838 108.142C240.717 108.301 240.628 108.483 240.572 108.688C240.516 108.893 240.488 109.108 240.488 109.332V113H238.808V106.28ZM252.168 111.992H252.14C251.897 112.403 251.57 112.701 251.16 112.888C250.749 113.075 250.306 113.168 249.83 113.168C249.307 113.168 248.84 113.079 248.43 112.902C248.028 112.715 247.683 112.463 247.394 112.146C247.104 111.829 246.885 111.455 246.736 111.026C246.586 110.597 246.512 110.135 246.512 109.64C246.512 109.145 246.591 108.683 246.75 108.254C246.908 107.825 247.128 107.451 247.408 107.134C247.697 106.817 248.042 106.569 248.444 106.392C248.845 106.205 249.284 106.112 249.76 106.112C250.077 106.112 250.357 106.145 250.6 106.21C250.842 106.275 251.057 106.359 251.244 106.462C251.43 106.565 251.589 106.677 251.72 106.798C251.85 106.91 251.958 107.022 252.042 107.134H252.084V102.416H253.764V113H252.168V111.992ZM248.192 109.64C248.192 109.901 248.234 110.153 248.318 110.396C248.411 110.639 248.542 110.853 248.71 111.04C248.887 111.227 249.097 111.376 249.34 111.488C249.582 111.6 249.858 111.656 250.166 111.656C250.474 111.656 250.749 111.6 250.992 111.488C251.234 111.376 251.44 111.227 251.608 111.04C251.785 110.853 251.916 110.639 252 110.396C252.093 110.153 252.14 109.901 252.14 109.64C252.14 109.379 252.093 109.127 252 108.884C251.916 108.641 251.785 108.427 251.608 108.24C251.44 108.053 251.234 107.904 250.992 107.792C250.749 107.68 250.474 107.624 250.166 107.624C249.858 107.624 249.582 107.68 249.34 107.792C249.097 107.904 248.887 108.053 248.71 108.24C248.542 108.427 248.411 108.641 248.318 108.884C248.234 109.127 248.192 109.379 248.192 109.64ZM259.866 112.076H259.824C259.581 112.459 259.273 112.739 258.9 112.916C258.527 113.084 258.116 113.168 257.668 113.168C257.36 113.168 257.057 113.126 256.758 113.042C256.469 112.958 256.207 112.832 255.974 112.664C255.75 112.496 255.568 112.286 255.428 112.034C255.288 111.782 255.218 111.488 255.218 111.152C255.218 110.788 255.283 110.48 255.414 110.228C255.545 109.967 255.717 109.752 255.932 109.584C256.156 109.407 256.413 109.267 256.702 109.164C256.991 109.061 257.29 108.987 257.598 108.94C257.915 108.884 258.233 108.851 258.55 108.842C258.867 108.823 259.166 108.814 259.446 108.814H259.866V108.632C259.866 108.212 259.721 107.899 259.432 107.694C259.143 107.479 258.774 107.372 258.326 107.372C257.971 107.372 257.64 107.437 257.332 107.568C257.024 107.689 256.758 107.857 256.534 108.072L255.652 107.19C256.025 106.807 256.459 106.532 256.954 106.364C257.458 106.196 257.976 106.112 258.508 106.112C258.984 106.112 259.385 106.168 259.712 106.28C260.039 106.383 260.309 106.518 260.524 106.686C260.739 106.854 260.902 107.05 261.014 107.274C261.135 107.489 261.219 107.708 261.266 107.932C261.322 108.156 261.355 108.375 261.364 108.59C261.373 108.795 261.378 108.977 261.378 109.136V113H259.866V112.076ZM259.768 109.99H259.418C259.185 109.99 258.923 109.999 258.634 110.018C258.345 110.037 258.069 110.083 257.808 110.158C257.556 110.223 257.341 110.326 257.164 110.466C256.987 110.597 256.898 110.783 256.898 111.026C256.898 111.185 256.931 111.32 256.996 111.432C257.071 111.535 257.164 111.623 257.276 111.698C257.388 111.773 257.514 111.829 257.654 111.866C257.794 111.894 257.934 111.908 258.074 111.908C258.653 111.908 259.077 111.773 259.348 111.502C259.628 111.222 259.768 110.844 259.768 110.368V109.99ZM263.185 106.28H264.865V107.344H264.893C265.08 106.952 265.346 106.649 265.691 106.434C266.037 106.219 266.433 106.112 266.881 106.112C266.984 106.112 267.082 106.121 267.175 106.14C267.278 106.159 267.381 106.182 267.483 106.21V107.834C267.343 107.797 267.203 107.769 267.063 107.75C266.933 107.722 266.802 107.708 266.671 107.708C266.279 107.708 265.962 107.783 265.719 107.932C265.486 108.072 265.304 108.235 265.173 108.422C265.052 108.609 264.968 108.795 264.921 108.982C264.884 109.169 264.865 109.309 264.865 109.402V113H263.185V106.28Z" fill="#C6A4FF"/>
<rect x="111.5" y="130.5" width="127" height="26" rx="7.5" fill="#C6A4FF"/>
<path d="M128.232 138.088H129.408V146.908H133.944V148H128.232V138.088ZM140.888 146.81C140.496 147.314 140.067 147.669 139.6 147.874C139.133 148.07 138.592 148.168 137.976 148.168C137.463 148.168 137.001 148.079 136.59 147.902C136.179 147.715 135.829 147.468 135.54 147.16C135.26 146.852 135.041 146.488 134.882 146.068C134.733 145.648 134.658 145.2 134.658 144.724C134.658 144.22 134.742 143.758 134.91 143.338C135.078 142.909 135.311 142.545 135.61 142.246C135.909 141.938 136.263 141.7 136.674 141.532C137.085 141.364 137.533 141.28 138.018 141.28C138.475 141.28 138.895 141.359 139.278 141.518C139.661 141.667 139.987 141.891 140.258 142.19C140.538 142.479 140.753 142.839 140.902 143.268C141.051 143.688 141.126 144.169 141.126 144.71V145.06H135.834C135.853 145.34 135.918 145.611 136.03 145.872C136.151 146.124 136.305 146.348 136.492 146.544C136.679 146.731 136.898 146.88 137.15 146.992C137.402 147.104 137.677 147.16 137.976 147.16C138.452 147.16 138.853 147.076 139.18 146.908C139.507 146.74 139.801 146.493 140.062 146.166L140.888 146.81ZM139.95 144.136C139.931 143.576 139.749 143.128 139.404 142.792C139.059 142.456 138.583 142.288 137.976 142.288C137.369 142.288 136.879 142.456 136.506 142.792C136.133 143.128 135.909 143.576 135.834 144.136H139.95ZM142.731 142.288C143.067 141.943 143.464 141.691 143.921 141.532C144.388 141.364 144.859 141.28 145.335 141.28C146.306 141.28 147.006 141.509 147.435 141.966C147.865 142.423 148.079 143.119 148.079 144.052V146.866C148.079 147.053 148.089 147.249 148.107 147.454C148.126 147.65 148.149 147.832 148.177 148H147.127C147.09 147.851 147.067 147.687 147.057 147.51C147.057 147.323 147.057 147.16 147.057 147.02H147.029C146.815 147.356 146.525 147.631 146.161 147.846C145.807 148.061 145.377 148.168 144.873 148.168C144.537 148.168 144.22 148.126 143.921 148.042C143.632 147.958 143.375 147.837 143.151 147.678C142.937 147.51 142.764 147.305 142.633 147.062C142.503 146.819 142.437 146.539 142.437 146.222C142.437 145.681 142.577 145.256 142.857 144.948C143.137 144.64 143.483 144.411 143.893 144.262C144.313 144.113 144.761 144.019 145.237 143.982C145.723 143.945 146.166 143.926 146.567 143.926H146.987V143.73C146.987 143.254 146.843 142.895 146.553 142.652C146.273 142.409 145.877 142.288 145.363 142.288C145.009 142.288 144.659 142.349 144.313 142.47C143.977 142.582 143.679 142.759 143.417 143.002L142.731 142.288ZM145.895 144.85C145.195 144.85 144.64 144.948 144.229 145.144C143.819 145.34 143.613 145.662 143.613 146.11C143.613 146.521 143.749 146.815 144.019 146.992C144.299 147.16 144.645 147.244 145.055 147.244C145.373 147.244 145.648 147.193 145.881 147.09C146.124 146.978 146.325 146.833 146.483 146.656C146.642 146.479 146.763 146.273 146.847 146.04C146.931 145.797 146.978 145.541 146.987 145.27V144.85H145.895ZM150.075 143.002C150.075 142.703 150.066 142.423 150.047 142.162C150.028 141.901 150.019 141.663 150.019 141.448H151.055C151.055 141.625 151.06 141.803 151.069 141.98C151.078 142.157 151.083 142.339 151.083 142.526H151.111C151.186 142.367 151.288 142.213 151.419 142.064C151.559 141.915 151.722 141.784 151.909 141.672C152.096 141.551 152.306 141.457 152.539 141.392C152.772 141.317 153.024 141.28 153.295 141.28C153.37 141.28 153.444 141.285 153.519 141.294C153.594 141.303 153.668 141.322 153.743 141.35L153.673 142.456C153.486 142.4 153.29 142.372 153.085 142.372C152.413 142.372 151.923 142.591 151.615 143.03C151.316 143.459 151.167 144.052 151.167 144.808V148H150.075V143.002ZM154.997 143.002C154.997 142.703 154.988 142.423 154.969 142.162C154.95 141.901 154.941 141.663 154.941 141.448H155.977C155.977 141.625 155.982 141.803 155.991 141.98C156 142.157 156.005 142.339 156.005 142.526H156.033C156.108 142.367 156.21 142.213 156.341 142.064C156.481 141.915 156.644 141.784 156.831 141.672C157.018 141.551 157.228 141.457 157.461 141.392C157.694 141.317 157.946 141.28 158.217 141.28C158.646 141.28 159.015 141.345 159.323 141.476C159.64 141.607 159.902 141.789 160.107 142.022C160.312 142.255 160.462 142.54 160.555 142.876C160.658 143.203 160.709 143.562 160.709 143.954V148H159.617V144.066C159.617 143.515 159.496 143.081 159.253 142.764C159.01 142.447 158.632 142.288 158.119 142.288C157.764 142.288 157.456 142.349 157.195 142.47C156.943 142.591 156.733 142.764 156.565 142.988C156.406 143.212 156.285 143.478 156.201 143.786C156.126 144.094 156.089 144.435 156.089 144.808V148H154.997V143.002ZM166.869 138.088H168.619L171.979 145.858H172.007L175.395 138.088H177.103V148H175.927V139.684H175.899L172.343 148H171.629L168.073 139.684H168.045V148H166.869V138.088ZM178.996 144.724C178.996 144.211 179.085 143.744 179.262 143.324C179.439 142.904 179.682 142.545 179.99 142.246C180.298 141.938 180.667 141.7 181.096 141.532C181.525 141.364 181.992 141.28 182.496 141.28C183 141.28 183.467 141.364 183.896 141.532C184.325 141.7 184.694 141.938 185.002 142.246C185.31 142.545 185.553 142.904 185.73 143.324C185.907 143.744 185.996 144.211 185.996 144.724C185.996 145.237 185.907 145.704 185.73 146.124C185.553 146.544 185.31 146.908 185.002 147.216C184.694 147.515 184.325 147.748 183.896 147.916C183.467 148.084 183 148.168 182.496 148.168C181.992 148.168 181.525 148.084 181.096 147.916C180.667 147.748 180.298 147.515 179.99 147.216C179.682 146.908 179.439 146.544 179.262 146.124C179.085 145.704 178.996 145.237 178.996 144.724ZM180.172 144.724C180.172 145.069 180.223 145.391 180.326 145.69C180.438 145.979 180.597 146.236 180.802 146.46C181.007 146.675 181.25 146.847 181.53 146.978C181.819 147.099 182.141 147.16 182.496 147.16C182.851 147.16 183.168 147.099 183.448 146.978C183.737 146.847 183.985 146.675 184.19 146.46C184.395 146.236 184.549 145.979 184.652 145.69C184.764 145.391 184.82 145.069 184.82 144.724C184.82 144.379 184.764 144.061 184.652 143.772C184.549 143.473 184.395 143.217 184.19 143.002C183.985 142.778 183.737 142.605 183.448 142.484C183.168 142.353 182.851 142.288 182.496 142.288C182.141 142.288 181.819 142.353 181.53 142.484C181.25 142.605 181.007 142.778 180.802 143.002C180.597 143.217 180.438 143.473 180.326 143.772C180.223 144.061 180.172 144.379 180.172 144.724ZM187.686 143.002C187.686 142.703 187.677 142.423 187.658 142.162C187.64 141.901 187.63 141.663 187.63 141.448H188.666C188.666 141.625 188.671 141.803 188.68 141.98C188.69 142.157 188.694 142.339 188.694 142.526H188.722C188.797 142.367 188.9 142.213 189.03 142.064C189.17 141.915 189.334 141.784 189.52 141.672C189.707 141.551 189.917 141.457 190.15 141.392C190.384 141.317 190.636 141.28 190.906 141.28C190.981 141.28 191.056 141.285 191.13 141.294C191.205 141.303 191.28 141.322 191.354 141.35L191.284 142.456C191.098 142.4 190.902 142.372 190.696 142.372C190.024 142.372 189.534 142.591 189.226 143.03C188.928 143.459 188.778 144.052 188.778 144.808V148H187.686V143.002ZM198.214 146.81C197.822 147.314 197.393 147.669 196.926 147.874C196.46 148.07 195.918 148.168 195.302 148.168C194.789 148.168 194.327 148.079 193.916 147.902C193.506 147.715 193.156 147.468 192.866 147.16C192.586 146.852 192.367 146.488 192.208 146.068C192.059 145.648 191.984 145.2 191.984 144.724C191.984 144.22 192.068 143.758 192.236 143.338C192.404 142.909 192.638 142.545 192.936 142.246C193.235 141.938 193.59 141.7 194 141.532C194.411 141.364 194.859 141.28 195.344 141.28C195.802 141.28 196.222 141.359 196.604 141.518C196.987 141.667 197.314 141.891 197.584 142.19C197.864 142.479 198.079 142.839 198.228 143.268C198.378 143.688 198.452 144.169 198.452 144.71V145.06H193.16C193.179 145.34 193.244 145.611 193.356 145.872C193.478 146.124 193.632 146.348 193.818 146.544C194.005 146.731 194.224 146.88 194.476 146.992C194.728 147.104 195.004 147.16 195.302 147.16C195.778 147.16 196.18 147.076 196.506 146.908C196.833 146.74 197.127 146.493 197.388 146.166L198.214 146.81ZM197.276 144.136C197.258 143.576 197.076 143.128 196.73 142.792C196.385 142.456 195.909 142.288 195.302 142.288C194.696 142.288 194.206 142.456 193.832 142.792C193.459 143.128 193.235 143.576 193.16 144.136H197.276Z" fill="#1E0964"/>
<path d="M213.5 137.167L212.384 138.283L216.801 142.708H207.167V144.292H216.801L212.384 148.717L213.5 149.833L219.833 143.5L213.5 137.167Z" fill="#1E0964"/>
<rect x="111.5" y="130.5" width="127" height="26" rx="7.5" stroke="#C6A4FF"/>
<path d="M250 69L251.621 73.3795L256 75L251.621 76.6205L250 81L248.379 76.6205L244 75L248.379 73.3795L250 69Z" fill="#C6A4FF"/>
<path d="M22 69L23.6205 73.3795L28 75L23.6205 76.6205L22 81L20.3795 76.6205L16 75L20.3795 73.3795L22 69Z" fill="#C6A4FF"/>
<path d="M287 36L288.621 40.3795L293 42L288.621 43.6205L287 48L285.379 43.6205L281 42L285.379 40.3795L287 36Z" fill="#C6A4FF"/>
<path d="M59 36L60.6205 40.3795L65 42L60.6205 43.6205L59 48L57.3795 43.6205L53 42L57.3795 40.3795L59 36Z" fill="#C6A4FF"/>
<path d="M324 69L325.621 73.3795L330 75L325.621 76.6205L324 81L322.379 76.6205L318 75L322.379 73.3795L324 69Z" fill="#C6A4FF"/>
<path d="M96 69L97.6205 73.3795L102 75L97.6205 76.6205L96 81L94.3795 76.6205L90 75L94.3795 73.3795L96 69Z" fill="#C6A4FF"/>
<path d="M331 18.41L329.59 17L324 22.59L318.41 17L317 18.41L322.59 24L317 29.59L318.41 31L324 25.41L329.59 31L331 29.59L325.41 24L331 18.41Z" fill="#C6A4FF"/>
</svg>
