<svg width="375" height="144" viewBox="0 0 375 144" fill="none" xmlns="http://www.w3.org/2000/svg">
<rect width="375" height="144" fill="#1B0A60"/>
<path d="M31.17 111.244C30.702 110.74 30.246 110.404 29.802 110.236C29.37 110.068 28.932 109.984 28.488 109.984C27.828 109.984 27.228 110.104 26.688 110.344C26.16 110.572 25.704 110.896 25.32 111.316C24.936 111.724 24.636 112.204 24.42 112.756C24.216 113.308 24.114 113.902 24.114 114.538C24.114 115.222 24.216 115.852 24.42 116.428C24.636 117.004 24.936 117.502 25.32 117.922C25.704 118.342 26.16 118.672 26.688 118.912C27.228 119.152 27.828 119.272 28.488 119.272C29.004 119.272 29.502 119.152 29.982 118.912C30.474 118.66 30.93 118.264 31.35 117.724L33.222 119.056C32.646 119.848 31.944 120.424 31.116 120.784C30.288 121.144 29.406 121.324 28.47 121.324C27.486 121.324 26.58 121.168 25.752 120.856C24.936 120.532 24.228 120.082 23.628 119.506C23.04 118.918 22.578 118.216 22.242 117.4C21.906 116.584 21.738 115.678 21.738 114.682C21.738 113.662 21.906 112.738 22.242 111.91C22.578 111.07 23.04 110.356 23.628 109.768C24.228 109.18 24.936 108.73 25.752 108.418C26.58 108.094 27.486 107.932 28.47 107.932C29.334 107.932 30.132 108.088 30.864 108.4C31.608 108.7 32.298 109.216 32.934 109.948L31.17 111.244ZM34.1143 116.68C34.1143 115.996 34.2343 115.378 34.4743 114.826C34.7263 114.262 35.0623 113.782 35.4823 113.386C35.9023 112.99 36.4003 112.684 36.9763 112.468C37.5523 112.252 38.1643 112.144 38.8123 112.144C39.4603 112.144 40.0723 112.252 40.6483 112.468C41.2243 112.684 41.7223 112.99 42.1423 113.386C42.5623 113.782 42.8923 114.262 43.1323 114.826C43.3843 115.378 43.5103 115.996 43.5103 116.68C43.5103 117.364 43.3843 117.988 43.1323 118.552C42.8923 119.104 42.5623 119.578 42.1423 119.974C41.7223 120.37 41.2243 120.676 40.6483 120.892C40.0723 121.108 39.4603 121.216 38.8123 121.216C38.1643 121.216 37.5523 121.108 36.9763 120.892C36.4003 120.676 35.9023 120.37 35.4823 119.974C35.0623 119.578 34.7263 119.104 34.4743 118.552C34.2343 117.988 34.1143 117.364 34.1143 116.68ZM36.2743 116.68C36.2743 117.016 36.3283 117.34 36.4363 117.652C36.5563 117.964 36.7243 118.24 36.9403 118.48C37.1683 118.72 37.4383 118.912 37.7503 119.056C38.0623 119.2 38.4163 119.272 38.8123 119.272C39.2083 119.272 39.5623 119.2 39.8743 119.056C40.1863 118.912 40.4503 118.72 40.6663 118.48C40.8943 118.24 41.0623 117.964 41.1703 117.652C41.2903 117.34 41.3503 117.016 41.3503 116.68C41.3503 116.344 41.2903 116.02 41.1703 115.708C41.0623 115.396 40.8943 115.12 40.6663 114.88C40.4503 114.64 40.1863 114.448 39.8743 114.304C39.5623 114.16 39.2083 114.088 38.8123 114.088C38.4163 114.088 38.0623 114.16 37.7503 114.304C37.4383 114.448 37.1683 114.64 36.9403 114.88C36.7243 115.12 36.5563 115.396 36.4363 115.708C36.3283 116.02 36.2743 116.344 36.2743 116.68ZM45.4426 112.36H47.4946V113.71H47.5306C47.7226 113.302 48.0286 112.942 48.4486 112.63C48.8806 112.306 49.4566 112.144 50.1766 112.144C51.5326 112.144 52.4326 112.678 52.8766 113.746C53.1886 113.194 53.5786 112.792 54.0466 112.54C54.5146 112.276 55.0726 112.144 55.7206 112.144C56.2966 112.144 56.7826 112.24 57.1786 112.432C57.5746 112.624 57.8926 112.888 58.1326 113.224C58.3846 113.56 58.5646 113.956 58.6726 114.412C58.7806 114.856 58.8346 115.336 58.8346 115.852V121H56.6746V116.104C56.6746 115.84 56.6506 115.588 56.6026 115.348C56.5546 115.096 56.4706 114.88 56.3506 114.7C56.2306 114.508 56.0686 114.358 55.8646 114.25C55.6606 114.142 55.3966 114.088 55.0726 114.088C54.7366 114.088 54.4486 114.154 54.2086 114.286C53.9806 114.406 53.7886 114.574 53.6326 114.79C53.4886 114.994 53.3806 115.234 53.3086 115.51C53.2486 115.774 53.2186 116.044 53.2186 116.32V121H51.0586V115.852C51.0586 115.312 50.9446 114.886 50.7166 114.574C50.4886 114.25 50.1106 114.088 49.5826 114.088C49.2226 114.088 48.9166 114.148 48.6646 114.268C48.4246 114.388 48.2206 114.55 48.0526 114.754C47.8966 114.958 47.7826 115.192 47.7106 115.456C47.6386 115.72 47.6026 115.996 47.6026 116.284V121H45.4426V112.36ZM61.1047 112.36H63.1567V113.71H63.1927C63.3847 113.302 63.6907 112.942 64.1107 112.63C64.5427 112.306 65.1187 112.144 65.8387 112.144C67.1947 112.144 68.0947 112.678 68.5387 113.746C68.8507 113.194 69.2407 112.792 69.7087 112.54C70.1767 112.276 70.7347 112.144 71.3827 112.144C71.9587 112.144 72.4447 112.24 72.8407 112.432C73.2367 112.624 73.5547 112.888 73.7947 113.224C74.0467 113.56 74.2267 113.956 74.3347 114.412C74.4427 114.856 74.4967 115.336 74.4967 115.852V121H72.3367V116.104C72.3367 115.84 72.3127 115.588 72.2647 115.348C72.2167 115.096 72.1327 114.88 72.0127 114.7C71.8927 114.508 71.7307 114.358 71.5267 114.25C71.3227 114.142 71.0587 114.088 70.7347 114.088C70.3987 114.088 70.1107 114.154 69.8707 114.286C69.6427 114.406 69.4507 114.574 69.2947 114.79C69.1507 114.994 69.0427 115.234 68.9707 115.51C68.9107 115.774 68.8807 116.044 68.8807 116.32V121H66.7207V115.852C66.7207 115.312 66.6067 114.886 66.3787 114.574C66.1507 114.25 65.7727 114.088 65.2447 114.088C64.8847 114.088 64.5787 114.148 64.3267 114.268C64.0867 114.388 63.8827 114.55 63.7147 114.754C63.5587 114.958 63.4447 115.192 63.3727 115.456C63.3007 115.72 63.2647 115.996 63.2647 116.284V121H61.1047V112.36ZM84.7408 121H82.6888V119.614H82.6528C82.4488 120.046 82.1368 120.424 81.7168 120.748C81.2968 121.06 80.7268 121.216 80.0068 121.216C79.4308 121.216 78.9388 121.126 78.5308 120.946C78.1348 120.754 77.8108 120.502 77.5588 120.19C77.3068 119.866 77.1268 119.5 77.0188 119.092C76.9108 118.684 76.8568 118.258 76.8568 117.814V112.36H79.0168V116.734C79.0168 116.974 79.0288 117.244 79.0528 117.544C79.0768 117.832 79.1368 118.108 79.2328 118.372C79.3408 118.624 79.4968 118.84 79.7008 119.02C79.9168 119.188 80.2168 119.272 80.6008 119.272C80.9608 119.272 81.2608 119.212 81.5008 119.092C81.7528 118.972 81.9568 118.81 82.1128 118.606C82.2808 118.402 82.4008 118.168 82.4728 117.904C82.5448 117.64 82.5808 117.364 82.5808 117.076V112.36H84.7408V121ZM87.1928 112.36H89.2448V113.746H89.2808C89.4848 113.314 89.7968 112.942 90.2168 112.63C90.6368 112.306 91.2068 112.144 91.9268 112.144C92.5028 112.144 92.9888 112.24 93.3848 112.432C93.7928 112.624 94.1228 112.876 94.3748 113.188C94.6268 113.5 94.8068 113.86 94.9148 114.268C95.0228 114.676 95.0768 115.102 95.0768 115.546V121H92.9168V116.626C92.9168 116.386 92.9048 116.122 92.8808 115.834C92.8568 115.534 92.7908 115.258 92.6828 115.006C92.5868 114.742 92.4308 114.526 92.2148 114.358C91.9988 114.178 91.7048 114.088 91.3328 114.088C90.9728 114.088 90.6668 114.148 90.4148 114.268C90.1748 114.388 89.9708 114.55 89.8028 114.754C89.6468 114.958 89.5328 115.192 89.4608 115.456C89.3888 115.72 89.3528 115.996 89.3528 116.284V121H87.1928V112.36ZM97.5647 112.36H99.7247V121H97.5647V112.36ZM97.2587 109.426C97.2587 109.078 97.3847 108.778 97.6367 108.526C97.9007 108.262 98.2307 108.13 98.6267 108.13C99.0227 108.13 99.3527 108.256 99.6167 108.508C99.8927 108.748 100.031 109.054 100.031 109.426C100.031 109.798 99.8927 110.11 99.6167 110.362C99.3527 110.602 99.0227 110.722 98.6267 110.722C98.2307 110.722 97.9007 110.596 97.6367 110.344C97.3847 110.08 97.2587 109.774 97.2587 109.426ZM101.196 114.196V112.36H102.978V109.858H105.138V112.36H107.514V114.196H105.138V117.976C105.138 118.408 105.216 118.75 105.372 119.002C105.54 119.254 105.864 119.38 106.344 119.38C106.536 119.38 106.746 119.362 106.974 119.326C107.202 119.278 107.382 119.206 107.514 119.11V120.928C107.286 121.036 107.004 121.108 106.668 121.144C106.344 121.192 106.056 121.216 105.804 121.216C105.228 121.216 104.754 121.15 104.382 121.018C104.022 120.898 103.734 120.712 103.518 120.46C103.314 120.196 103.17 119.872 103.086 119.488C103.014 119.104 102.978 118.66 102.978 118.156V114.196H101.196ZM108.031 112.36H110.407L112.819 118.354H112.855L115.015 112.36H117.265L113.179 122.854C113.023 123.262 112.849 123.616 112.657 123.916C112.477 124.228 112.261 124.486 112.009 124.69C111.757 124.906 111.457 125.062 111.109 125.158C110.773 125.266 110.365 125.32 109.885 125.32C109.321 125.32 108.769 125.248 108.229 125.104L108.499 123.16C108.667 123.22 108.841 123.268 109.021 123.304C109.213 123.352 109.405 123.376 109.597 123.376C109.861 123.376 110.083 123.352 110.263 123.304C110.443 123.256 110.593 123.178 110.713 123.07C110.845 122.974 110.953 122.842 111.037 122.674C111.121 122.518 111.211 122.326 111.307 122.098L111.721 121.072L108.031 112.36ZM124.059 108.256H132.501V110.308H126.327V113.44H132.177V115.492H126.327V118.948H132.825V121H124.059V108.256ZM133.695 112.36H136.053L138.357 118.408H138.393L140.715 112.36H142.929L139.527 121H137.223L133.695 112.36ZM145.927 117.436C145.999 118.084 146.251 118.588 146.683 118.948C147.115 119.308 147.637 119.488 148.249 119.488C148.789 119.488 149.239 119.38 149.599 119.164C149.971 118.936 150.295 118.654 150.571 118.318L152.119 119.488C151.615 120.112 151.051 120.556 150.427 120.82C149.803 121.084 149.149 121.216 148.465 121.216C147.817 121.216 147.205 121.108 146.629 120.892C146.053 120.676 145.555 120.37 145.135 119.974C144.715 119.578 144.379 119.104 144.127 118.552C143.887 117.988 143.767 117.364 143.767 116.68C143.767 115.996 143.887 115.378 144.127 114.826C144.379 114.262 144.715 113.782 145.135 113.386C145.555 112.99 146.053 112.684 146.629 112.468C147.205 112.252 147.817 112.144 148.465 112.144C149.065 112.144 149.611 112.252 150.103 112.468C150.607 112.672 151.033 112.972 151.381 113.368C151.741 113.764 152.017 114.256 152.209 114.844C152.413 115.42 152.515 116.086 152.515 116.842V117.436H145.927ZM150.355 115.816C150.343 115.18 150.145 114.682 149.761 114.322C149.377 113.95 148.843 113.764 148.159 113.764C147.511 113.764 146.995 113.95 146.611 114.322C146.239 114.694 146.011 115.192 145.927 115.816H150.355ZM154.535 112.36H156.587V113.746H156.623C156.827 113.314 157.139 112.942 157.559 112.63C157.979 112.306 158.549 112.144 159.269 112.144C159.845 112.144 160.331 112.24 160.727 112.432C161.135 112.624 161.465 112.876 161.717 113.188C161.969 113.5 162.149 113.86 162.257 114.268C162.365 114.676 162.419 115.102 162.419 115.546V121H160.259V116.626C160.259 116.386 160.247 116.122 160.223 115.834C160.199 115.534 160.133 115.258 160.025 115.006C159.929 114.742 159.773 114.526 159.557 114.358C159.341 114.178 159.047 114.088 158.675 114.088C158.315 114.088 158.009 114.148 157.757 114.268C157.517 114.388 157.313 114.55 157.145 114.754C156.989 114.958 156.875 115.192 156.803 115.456C156.731 115.72 156.695 115.996 156.695 116.284V121H154.535V112.36ZM163.862 114.196V112.36H165.644V109.858H167.804V112.36H170.18V114.196H167.804V117.976C167.804 118.408 167.882 118.75 168.038 119.002C168.206 119.254 168.53 119.38 169.01 119.38C169.202 119.38 169.412 119.362 169.64 119.326C169.868 119.278 170.048 119.206 170.18 119.11V120.928C169.952 121.036 169.67 121.108 169.334 121.144C169.01 121.192 168.722 121.216 168.47 121.216C167.894 121.216 167.42 121.15 167.048 121.018C166.688 120.898 166.4 120.712 166.184 120.46C165.98 120.196 165.836 119.872 165.752 119.488C165.68 119.104 165.644 118.66 165.644 118.156V114.196H163.862ZM176.475 114.754C176.055 114.166 175.491 113.872 174.783 113.872C174.495 113.872 174.213 113.944 173.937 114.088C173.661 114.232 173.523 114.466 173.523 114.79C173.523 115.054 173.637 115.246 173.865 115.366C174.093 115.486 174.381 115.588 174.729 115.672C175.077 115.756 175.449 115.846 175.845 115.942C176.253 116.026 176.631 116.164 176.979 116.356C177.327 116.536 177.615 116.788 177.843 117.112C178.071 117.436 178.185 117.88 178.185 118.444C178.185 118.96 178.071 119.398 177.843 119.758C177.627 120.106 177.339 120.388 176.979 120.604C176.631 120.82 176.235 120.976 175.791 121.072C175.347 121.168 174.903 121.216 174.459 121.216C173.787 121.216 173.169 121.12 172.605 120.928C172.041 120.736 171.537 120.388 171.093 119.884L172.533 118.534C172.809 118.846 173.103 119.104 173.415 119.308C173.739 119.5 174.129 119.596 174.585 119.596C174.741 119.596 174.903 119.578 175.071 119.542C175.239 119.506 175.395 119.446 175.539 119.362C175.683 119.278 175.797 119.176 175.881 119.056C175.977 118.924 176.025 118.774 176.025 118.606C176.025 118.306 175.911 118.084 175.683 117.94C175.455 117.796 175.167 117.682 174.819 117.598C174.471 117.502 174.093 117.418 173.685 117.346C173.289 117.262 172.917 117.136 172.569 116.968C172.221 116.788 171.933 116.542 171.705 116.23C171.477 115.918 171.363 115.486 171.363 114.934C171.363 114.454 171.459 114.04 171.651 113.692C171.855 113.332 172.119 113.038 172.443 112.81C172.767 112.582 173.139 112.414 173.559 112.306C173.979 112.198 174.405 112.144 174.837 112.144C175.413 112.144 175.983 112.246 176.547 112.45C177.111 112.642 177.567 112.978 177.915 113.458L176.475 114.754ZM194.137 111.244C193.669 110.74 193.213 110.404 192.769 110.236C192.337 110.068 191.899 109.984 191.455 109.984C190.795 109.984 190.195 110.104 189.655 110.344C189.127 110.572 188.671 110.896 188.287 111.316C187.903 111.724 187.603 112.204 187.387 112.756C187.183 113.308 187.081 113.902 187.081 114.538C187.081 115.222 187.183 115.852 187.387 116.428C187.603 117.004 187.903 117.502 188.287 117.922C188.671 118.342 189.127 118.672 189.655 118.912C190.195 119.152 190.795 119.272 191.455 119.272C191.971 119.272 192.469 119.152 192.949 118.912C193.441 118.66 193.897 118.264 194.317 117.724L196.189 119.056C195.613 119.848 194.911 120.424 194.083 120.784C193.255 121.144 192.373 121.324 191.437 121.324C190.453 121.324 189.547 121.168 188.719 120.856C187.903 120.532 187.195 120.082 186.595 119.506C186.007 118.918 185.545 118.216 185.209 117.4C184.873 116.584 184.705 115.678 184.705 114.682C184.705 113.662 184.873 112.738 185.209 111.91C185.545 111.07 186.007 110.356 186.595 109.768C187.195 109.18 187.903 108.73 188.719 108.418C189.547 108.094 190.453 107.932 191.437 107.932C192.301 107.932 193.099 108.088 193.831 108.4C194.575 108.7 195.265 109.216 195.901 109.948L194.137 111.244ZM202.913 119.812H202.859C202.547 120.304 202.151 120.664 201.671 120.892C201.191 121.108 200.663 121.216 200.087 121.216C199.691 121.216 199.301 121.162 198.917 121.054C198.545 120.946 198.209 120.784 197.909 120.568C197.621 120.352 197.387 120.082 197.207 119.758C197.027 119.434 196.937 119.056 196.937 118.624C196.937 118.156 197.021 117.76 197.189 117.436C197.357 117.1 197.579 116.824 197.855 116.608C198.143 116.38 198.473 116.2 198.845 116.068C199.217 115.936 199.601 115.84 199.997 115.78C200.405 115.708 200.813 115.666 201.221 115.654C201.629 115.63 202.013 115.618 202.373 115.618H202.913V115.384C202.913 114.844 202.727 114.442 202.355 114.178C201.983 113.902 201.509 113.764 200.933 113.764C200.477 113.764 200.051 113.848 199.655 114.016C199.259 114.172 198.917 114.388 198.629 114.664L197.495 113.53C197.975 113.038 198.533 112.684 199.169 112.468C199.817 112.252 200.483 112.144 201.167 112.144C201.779 112.144 202.295 112.216 202.715 112.36C203.135 112.492 203.483 112.666 203.759 112.882C204.035 113.098 204.245 113.35 204.389 113.638C204.545 113.914 204.653 114.196 204.713 114.484C204.785 114.772 204.827 115.054 204.839 115.33C204.851 115.594 204.857 115.828 204.857 116.032V121H202.913V119.812ZM202.787 117.13H202.337C202.037 117.13 201.701 117.142 201.329 117.166C200.957 117.19 200.603 117.25 200.267 117.346C199.943 117.43 199.667 117.562 199.439 117.742C199.211 117.91 199.097 118.15 199.097 118.462C199.097 118.666 199.139 118.84 199.223 118.984C199.319 119.116 199.439 119.23 199.583 119.326C199.727 119.422 199.889 119.494 200.069 119.542C200.249 119.578 200.429 119.596 200.609 119.596C201.353 119.596 201.899 119.422 202.247 119.074C202.607 118.714 202.787 118.228 202.787 117.616V117.13ZM207.217 107.392H209.377V121H207.217V107.392ZM213.585 117.436C213.657 118.084 213.909 118.588 214.341 118.948C214.773 119.308 215.295 119.488 215.907 119.488C216.447 119.488 216.897 119.38 217.257 119.164C217.629 118.936 217.953 118.654 218.229 118.318L219.777 119.488C219.273 120.112 218.709 120.556 218.085 120.82C217.461 121.084 216.807 121.216 216.123 121.216C215.475 121.216 214.863 121.108 214.287 120.892C213.711 120.676 213.213 120.37 212.793 119.974C212.373 119.578 212.037 119.104 211.785 118.552C211.545 117.988 211.425 117.364 211.425 116.68C211.425 115.996 211.545 115.378 211.785 114.826C212.037 114.262 212.373 113.782 212.793 113.386C213.213 112.99 213.711 112.684 214.287 112.468C214.863 112.252 215.475 112.144 216.123 112.144C216.723 112.144 217.269 112.252 217.761 112.468C218.265 112.672 218.691 112.972 219.039 113.368C219.399 113.764 219.675 114.256 219.867 114.844C220.071 115.42 220.173 116.086 220.173 116.842V117.436H213.585ZM218.013 115.816C218.001 115.18 217.803 114.682 217.419 114.322C217.035 113.95 216.501 113.764 215.817 113.764C215.169 113.764 214.653 113.95 214.269 114.322C213.897 114.694 213.669 115.192 213.585 115.816H218.013ZM222.193 112.36H224.245V113.746H224.281C224.485 113.314 224.797 112.942 225.217 112.63C225.637 112.306 226.207 112.144 226.927 112.144C227.503 112.144 227.989 112.24 228.385 112.432C228.793 112.624 229.123 112.876 229.375 113.188C229.627 113.5 229.807 113.86 229.915 114.268C230.023 114.676 230.077 115.102 230.077 115.546V121H227.917V116.626C227.917 116.386 227.905 116.122 227.881 115.834C227.857 115.534 227.791 115.258 227.683 115.006C227.587 114.742 227.431 114.526 227.215 114.358C226.999 114.178 226.705 114.088 226.333 114.088C225.973 114.088 225.667 114.148 225.415 114.268C225.175 114.388 224.971 114.55 224.803 114.754C224.647 114.958 224.533 115.192 224.461 115.456C224.389 115.72 224.353 115.996 224.353 116.284V121H222.193V112.36ZM239.369 119.704H239.333C239.021 120.232 238.601 120.616 238.073 120.856C237.545 121.096 236.975 121.216 236.363 121.216C235.691 121.216 235.091 121.102 234.563 120.874C234.047 120.634 233.603 120.31 233.231 119.902C232.859 119.494 232.577 119.014 232.385 118.462C232.193 117.91 232.097 117.316 232.097 116.68C232.097 116.044 232.199 115.45 232.403 114.898C232.607 114.346 232.889 113.866 233.249 113.458C233.621 113.05 234.065 112.732 234.581 112.504C235.097 112.264 235.661 112.144 236.273 112.144C236.681 112.144 237.041 112.186 237.353 112.27C237.665 112.354 237.941 112.462 238.181 112.594C238.421 112.726 238.625 112.87 238.793 113.026C238.961 113.17 239.099 113.314 239.207 113.458H239.261V107.392H241.421V121H239.369V119.704ZM234.257 116.68C234.257 117.016 234.311 117.34 234.419 117.652C234.539 117.964 234.707 118.24 234.923 118.48C235.151 118.72 235.421 118.912 235.733 119.056C236.045 119.2 236.399 119.272 236.795 119.272C237.191 119.272 237.545 119.2 237.857 119.056C238.169 118.912 238.433 118.72 238.649 118.48C238.877 118.24 239.045 117.964 239.153 117.652C239.273 117.34 239.333 117.016 239.333 116.68C239.333 116.344 239.273 116.02 239.153 115.708C239.045 115.396 238.877 115.12 238.649 114.88C238.433 114.64 238.169 114.448 237.857 114.304C237.545 114.16 237.191 114.088 236.795 114.088C236.399 114.088 236.045 114.16 235.733 114.304C235.421 114.448 235.151 114.64 234.923 114.88C234.707 115.12 234.539 115.396 234.419 115.708C234.311 116.02 234.257 116.344 234.257 116.68ZM249.267 119.812H249.213C248.901 120.304 248.505 120.664 248.025 120.892C247.545 121.108 247.017 121.216 246.441 121.216C246.045 121.216 245.655 121.162 245.271 121.054C244.899 120.946 244.563 120.784 244.263 120.568C243.975 120.352 243.741 120.082 243.561 119.758C243.381 119.434 243.291 119.056 243.291 118.624C243.291 118.156 243.375 117.76 243.543 117.436C243.711 117.1 243.933 116.824 244.209 116.608C244.497 116.38 244.827 116.2 245.199 116.068C245.571 115.936 245.955 115.84 246.351 115.78C246.759 115.708 247.167 115.666 247.575 115.654C247.983 115.63 248.367 115.618 248.727 115.618H249.267V115.384C249.267 114.844 249.081 114.442 248.709 114.178C248.337 113.902 247.863 113.764 247.287 113.764C246.831 113.764 246.405 113.848 246.009 114.016C245.613 114.172 245.271 114.388 244.983 114.664L243.849 113.53C244.329 113.038 244.887 112.684 245.523 112.468C246.171 112.252 246.837 112.144 247.521 112.144C248.133 112.144 248.649 112.216 249.069 112.36C249.489 112.492 249.837 112.666 250.113 112.882C250.389 113.098 250.599 113.35 250.743 113.638C250.899 113.914 251.007 114.196 251.067 114.484C251.139 114.772 251.181 115.054 251.193 115.33C251.205 115.594 251.211 115.828 251.211 116.032V121H249.267V119.812ZM249.141 117.13H248.691C248.391 117.13 248.055 117.142 247.683 117.166C247.311 117.19 246.957 117.25 246.621 117.346C246.297 117.43 246.021 117.562 245.793 117.742C245.565 117.91 245.451 118.15 245.451 118.462C245.451 118.666 245.493 118.84 245.577 118.984C245.673 119.116 245.793 119.23 245.937 119.326C246.081 119.422 246.243 119.494 246.423 119.542C246.603 119.578 246.783 119.596 246.963 119.596C247.707 119.596 248.253 119.422 248.601 119.074C248.961 118.714 249.141 118.228 249.141 117.616V117.13ZM253.535 112.36H255.695V113.728H255.731C255.971 113.224 256.313 112.834 256.757 112.558C257.201 112.282 257.711 112.144 258.287 112.144C258.419 112.144 258.545 112.156 258.665 112.18C258.797 112.204 258.929 112.234 259.061 112.27V114.358C258.881 114.31 258.701 114.274 258.521 114.25C258.353 114.214 258.185 114.196 258.017 114.196C257.513 114.196 257.105 114.292 256.793 114.484C256.493 114.664 256.259 114.874 256.091 115.114C255.935 115.354 255.827 115.594 255.767 115.834C255.719 116.074 255.695 116.254 255.695 116.374V121H253.535V112.36Z" fill="white"/>
<path d="M308.083 66.1665H283.917V70.9998H308.083V66.1665ZM312.917 49.2498H310.5V44.4165H305.667V49.2498H286.333V44.4165H281.5V49.2498H279.083C276.401 49.2498 274.274 51.4248 274.274 54.0832L274.25 87.9165C274.25 90.5748 276.401 92.7498 279.083 92.7498H312.917C315.575 92.7498 317.75 90.5748 317.75 87.9165V54.0832C317.75 51.4248 315.575 49.2498 312.917 49.2498ZM312.917 87.9165H279.083V61.3332H312.917V87.9165ZM300.833 75.8332H283.917V80.6665H300.833V75.8332Z" fill="white"/>
<path d="M19.7956 69.553L22.4944 73.3638L27.144 73.7957L23.3332 76.4945L22.9014 81.1442L20.2026 77.3334L15.5529 76.9015L19.3637 74.2027L19.7956 69.553Z" fill="white"/>
<path d="M298.534 125.898L299.741 121.387L297.102 117.535L301.613 118.741L305.466 116.102L304.259 120.613L306.898 124.466L302.387 123.259L298.534 125.898Z" fill="white"/>
<path d="M355.454 102.475L352.184 99.1414L347.525 99.4538L350.858 96.1838L350.546 91.5246L353.816 94.8582L358.475 94.5458L355.142 97.8158L355.454 102.475Z" fill="white"/>
<path d="M87.2426 47.2427L91.4853 49.1936L95.7279 47.2427L93.7771 51.4854L95.7279 55.728L91.4853 53.7771L87.2426 55.728L89.1935 51.4854L87.2426 47.2427Z" fill="white"/>
<path d="M50.7281 29.728L46.4854 27.7771L42.2428 29.728L44.1936 25.4854L42.2428 21.2427L46.4854 23.1936L50.7281 21.2427L48.7772 25.4854L50.7281 29.728Z" fill="white"/>
<path d="M209.143 63.4035L213.2 65.7167L217.596 64.1431L215.283 68.1995L216.857 72.5961L212.8 70.2829L208.404 71.8565L210.717 67.8001L209.143 63.4035Z" fill="white"/>
<path d="M131.247 78.0585L134.701 74.9154L134.563 70.2477L137.706 73.7012L142.374 73.5632L138.92 76.7063L139.058 81.3739L135.915 77.9204L131.247 78.0585Z" fill="white"/>
<path d="M174 38.1963L170.407 35.2138L165.804 36.0001L168.786 32.407L168 27.804L171.593 30.7864L176.196 30.0001L173.214 33.5933L174 38.1963Z" fill="white"/>
<path d="M243.723 39.9142C243.189 39.9491 242.763 40.0593 242.444 40.2447C242.13 40.4228 241.864 40.6458 241.646 40.9137C241.322 41.3118 241.1 41.7327 240.98 42.1763C240.858 42.6068 240.83 43.0409 240.895 43.4788C240.953 43.9107 241.095 44.3273 241.322 44.7286C241.555 45.1227 241.863 45.4758 242.247 45.788C242.659 46.1238 243.089 46.3715 243.537 46.5312C243.991 46.6836 244.438 46.7471 244.88 46.7216C245.322 46.6961 245.745 46.583 246.149 46.3823C246.559 46.1743 246.926 45.8713 247.25 45.4731C247.503 45.1618 247.675 44.8025 247.766 44.3951C247.856 43.9745 247.84 43.505 247.721 42.9866L249.443 42.5111C249.638 43.2474 249.641 43.9536 249.452 44.6299C249.263 45.3061 248.938 45.9266 248.479 46.4913C247.996 47.0849 247.457 47.5549 246.862 47.9013C246.266 48.2345 245.647 48.4408 245.005 48.52C244.362 48.5861 243.712 48.5202 243.054 48.3223C242.397 48.1244 241.768 47.781 241.167 47.2921C240.552 46.7914 240.077 46.2365 239.742 45.6273C239.4 45.0122 239.196 44.383 239.13 43.7396C239.07 43.089 239.146 42.441 239.359 41.7955C239.57 41.137 239.917 40.5109 240.4 39.9172C240.824 39.396 241.31 38.9911 241.857 38.7027C242.403 38.4011 243.053 38.2381 243.807 38.2138L243.723 39.9142Z" fill="white"/>
<path d="M251.77 38.1059C251.453 37.6786 251.241 37.237 251.135 36.781C251.031 36.3119 251.019 35.8563 251.098 35.4143C251.177 34.9724 251.346 34.5504 251.606 34.1486C251.865 33.7468 252.198 33.3957 252.602 33.0954C253.007 32.7952 253.439 32.579 253.899 32.4471C254.359 32.3151 254.812 32.2755 255.258 32.3282C255.704 32.381 256.132 32.5279 256.544 32.769C256.957 32.997 257.322 33.3247 257.639 33.752C257.956 34.1792 258.166 34.6274 258.27 35.0965C258.376 35.5525 258.39 36.0016 258.311 36.4435C258.232 36.8855 258.063 37.3074 257.803 37.7093C257.543 38.1111 257.211 38.4622 256.806 38.7625C256.401 39.0627 255.969 39.2789 255.509 39.4108C255.049 39.5428 254.596 39.5824 254.15 39.5297C253.705 39.4769 253.275 39.3365 252.862 39.1085C252.451 38.8674 252.086 38.5332 251.77 38.1059ZM253.119 37.105C253.274 37.3149 253.458 37.4923 253.67 37.6371C253.89 37.7764 254.123 37.871 254.369 37.9208C254.623 37.9651 254.88 37.9599 255.142 37.9053C255.403 37.8507 255.658 37.7316 255.905 37.5481C256.153 37.3646 256.34 37.1556 256.469 36.9211C256.597 36.6865 256.673 36.4443 256.696 36.1942C256.728 35.9387 256.705 35.6884 256.628 35.4435C256.558 35.193 256.445 34.9628 256.29 34.7529C256.134 34.543 255.946 34.3684 255.727 34.2291C255.515 34.0843 255.282 33.9897 255.028 33.9454C254.782 33.8956 254.528 33.898 254.267 33.9526C254.005 34.0072 253.75 34.1263 253.503 34.3098C253.256 34.4933 253.068 34.7023 252.94 34.9368C252.812 35.1714 252.732 35.4164 252.701 35.672C252.677 35.922 252.7 36.1723 252.77 36.4228C252.847 36.6677 252.963 36.8951 253.119 37.105Z" fill="white"/>
<path d="M260.417 28.2221L261.872 27.5656L262.304 28.5227L262.329 28.5111C262.335 28.1605 262.437 27.8074 262.635 27.4518C262.837 27.0839 263.194 26.7848 263.704 26.5544C264.665 26.1206 265.474 26.2112 266.131 26.8263C266.175 26.3351 266.323 25.9254 266.574 25.597C266.822 25.2601 267.175 24.988 267.634 24.7807C268.043 24.5964 268.418 24.509 268.76 24.5184C269.102 24.5278 269.412 24.6132 269.69 24.7746C269.976 24.9322 270.23 25.1553 270.453 25.4441C270.671 25.7243 270.863 26.0473 271.028 26.4131L272.675 30.0626L271.144 30.7537L269.578 27.2828C269.493 27.0956 269.396 26.9247 269.285 26.7699C269.17 26.6066 269.041 26.4803 268.899 26.3911C268.752 26.2934 268.589 26.2389 268.41 26.2276C268.231 26.2163 268.027 26.2625 267.797 26.3661C267.559 26.4736 267.376 26.6126 267.248 26.7829C267.125 26.941 267.042 27.1215 267.001 27.3245C266.964 27.5152 266.964 27.7199 267.001 27.9386C267.043 28.145 267.108 28.346 267.197 28.5416L268.694 31.8594L267.163 32.5505L265.516 28.9009C265.343 28.5181 265.126 28.2526 264.864 28.1043C264.599 27.9476 264.279 27.9537 263.905 28.1226C263.65 28.2378 263.452 28.3782 263.312 28.5439C263.18 28.7058 263.087 28.8859 263.033 29.0842C262.988 29.2788 262.982 29.4811 263.015 29.6913C263.049 29.9015 263.112 30.1087 263.204 30.3129L264.713 33.6562L263.181 34.3472L260.417 28.2221Z" fill="white"/>
<path d="M275.467 22.3707L277.089 21.9337L278.837 28.4223L277.215 28.8594L275.467 22.3707ZM274.643 20.2292C274.573 19.9679 274.607 19.7171 274.745 19.4768C274.89 19.2252 275.111 19.0593 275.408 18.9791C275.706 18.899 275.979 18.9269 276.228 19.0627C276.484 19.1871 276.65 19.389 276.725 19.6684C276.8 19.9477 276.76 20.21 276.603 20.4551C276.454 20.6887 276.23 20.8456 275.933 20.9257C275.635 21.0058 275.362 20.978 275.113 20.8421C274.87 20.6949 274.714 20.4906 274.643 20.2292Z" fill="white"/>
<path d="M283.629 20.4815L285.209 20.2607L285.358 21.3283L285.386 21.3244C285.497 20.9697 285.697 20.6496 285.987 20.3641C286.276 20.0693 286.697 19.8832 287.252 19.8057C287.696 19.7437 288.08 19.7653 288.406 19.8706C288.741 19.9746 289.022 20.1332 289.25 20.3464C289.478 20.5596 289.655 20.8176 289.782 21.1202C289.909 21.4229 289.997 21.7452 290.044 22.0872L290.631 26.2884L288.968 26.5209L288.497 23.1516C288.471 22.9667 288.433 22.7647 288.384 22.5454C288.333 22.3169 288.253 22.1114 288.142 21.9289C288.04 21.7359 287.897 21.5863 287.712 21.4801C287.526 21.3647 287.29 21.327 287.004 21.3671C286.726 21.4058 286.497 21.4849 286.316 21.6045C286.144 21.7228 286.004 21.8695 285.897 22.0447C285.798 22.2187 285.736 22.4112 285.709 22.6223C285.682 22.8334 285.684 23.0499 285.715 23.2717L286.222 26.9044L284.558 27.1369L283.629 20.4815Z" fill="white"/>
<path d="M302.769 19.3967L302.637 25.5132C302.624 26.1198 302.537 26.664 302.378 27.146C302.218 27.6374 301.975 28.0476 301.651 28.3767C301.336 28.7153 300.938 28.9728 300.458 29.1491C299.978 29.3255 299.412 29.4066 298.758 29.3925C298.133 29.379 297.542 29.287 296.986 29.1163C296.429 28.9456 295.918 28.6451 295.451 28.215L296.488 26.865C296.818 27.1802 297.162 27.4257 297.523 27.6015C297.883 27.7773 298.301 27.8703 298.777 27.8806C299.178 27.8892 299.515 27.8405 299.788 27.7343C300.071 27.6284 300.293 27.4792 300.456 27.2866C300.628 27.0943 300.75 26.8589 300.821 26.5804C300.902 26.3114 300.946 26.0089 300.953 25.673L300.964 25.1831L300.936 25.1825C300.686 25.5038 300.359 25.7442 299.954 25.9035C299.549 26.0535 299.137 26.1239 298.717 26.1149C298.213 26.104 297.758 26.0055 297.351 25.8194C296.945 25.6239 296.595 25.369 296.303 25.0546C296.021 24.7404 295.805 24.3717 295.655 23.9484C295.505 23.525 295.436 23.0754 295.446 22.5995C295.457 22.105 295.541 21.6447 295.7 21.2187C295.858 20.7927 296.086 20.4242 296.382 20.1131C296.678 19.8021 297.029 19.5623 297.434 19.3936C297.848 19.2159 298.317 19.1326 298.839 19.1439C299.315 19.1542 299.756 19.257 300.163 19.4525C300.57 19.648 300.89 19.9536 301.123 20.3694L301.151 20.37L301.173 19.3623L302.769 19.3967ZM299.157 20.6631C298.858 20.6566 298.586 20.7021 298.342 20.7995C298.097 20.8876 297.884 21.0184 297.703 21.1919C297.531 21.3562 297.391 21.5632 297.283 21.813C297.185 22.0536 297.132 22.3232 297.126 22.6218C297.12 22.8924 297.161 23.1453 297.25 23.3806C297.347 23.6161 297.483 23.8244 297.656 24.0055C297.83 24.1866 298.037 24.3311 298.277 24.439C298.517 24.5469 298.778 24.6038 299.058 24.6099C299.365 24.6165 299.642 24.5711 299.887 24.4737C300.141 24.3765 300.354 24.2457 300.525 24.0814C300.706 23.9079 300.846 23.7009 300.945 23.4603C301.043 23.2197 301.096 22.9594 301.102 22.6795C301.114 22.0916 300.947 21.6119 300.601 21.2403C300.254 20.8688 299.772 20.6764 299.157 20.6631Z" fill="white"/>
<path d="M321.662 22.0503C321.562 21.7369 321.378 21.4759 321.11 21.2673C320.854 21.0525 320.56 20.8947 320.23 20.7939C320.034 20.734 319.835 20.6978 319.634 20.6853C319.442 20.6754 319.255 20.6965 319.073 20.7484C318.9 20.803 318.745 20.8971 318.606 21.0305C318.471 21.1551 318.37 21.3245 318.305 21.5387C318.207 21.8601 318.244 22.1397 318.415 22.3773C318.587 22.615 318.818 22.8467 319.111 23.0725C319.403 23.2982 319.728 23.529 320.085 23.7649C320.442 24.0007 320.755 24.2717 321.023 24.5778C321.29 24.8838 321.484 25.2405 321.604 25.6478C321.723 26.0551 321.698 26.54 321.526 27.1024C321.371 27.6113 321.141 28.0291 320.836 28.3558C320.535 28.6735 320.185 28.9084 319.787 29.0603C319.398 29.215 318.975 29.2908 318.518 29.2878C318.06 29.2849 317.599 29.2126 317.135 29.071C316.545 28.8913 316.009 28.6202 315.524 28.2577C315.039 27.8952 314.671 27.4219 314.42 26.8379L316.068 25.9939C316.178 26.369 316.371 26.6962 316.647 26.9755C316.934 27.2486 317.266 27.4423 317.64 27.5567C317.837 27.6166 318.041 27.6497 318.254 27.656C318.467 27.6624 318.67 27.6365 318.863 27.5783C319.057 27.5202 319.227 27.4258 319.374 27.2951C319.524 27.1554 319.632 26.9784 319.697 26.7642C319.803 26.416 319.773 26.1141 319.607 25.8586C319.441 25.6031 319.212 25.3624 318.92 25.1367C318.631 24.902 318.307 24.6668 317.95 24.4309C317.592 24.1951 317.278 23.9286 317.008 23.6314C316.74 23.3253 316.545 22.9731 316.423 22.5747C316.303 22.1674 316.329 21.6826 316.501 21.1201C316.65 20.6291 316.878 20.235 317.183 19.9378C317.497 19.6434 317.851 19.4291 318.243 19.295C318.647 19.1547 319.076 19.0905 319.531 19.1024C319.986 19.1144 320.432 19.187 320.87 19.3204C321.37 19.4729 321.829 19.6958 322.246 19.9892C322.673 20.2853 323.021 20.6646 323.29 21.1271L321.662 22.0503Z" fill="white"/>
<path d="M326.147 28.5629C326.404 28.0969 326.718 27.7209 327.088 27.435C327.472 27.1453 327.881 26.9444 328.315 26.8323C328.75 26.7201 329.204 26.6985 329.678 26.7676C330.151 26.8366 330.609 26.9927 331.05 27.2359C331.492 27.4791 331.868 27.7823 332.179 28.1456C332.491 28.5089 332.715 28.9043 332.853 29.3317C332.99 29.7591 333.035 30.2099 332.987 30.6842C332.951 31.1549 332.805 31.6231 332.548 32.0891C332.292 32.5551 331.972 32.9329 331.588 33.2225C331.218 33.5085 330.815 33.7076 330.38 33.8197C329.945 33.9319 329.491 33.9535 329.018 33.8844C328.544 33.8154 328.087 33.6593 327.645 33.4161C327.204 33.1729 326.828 32.8697 326.516 32.5064C326.205 32.143 325.981 31.7477 325.843 31.3203C325.706 30.8929 325.655 30.4439 325.69 29.9733C325.738 29.499 325.891 29.0288 326.147 28.5629ZM327.619 29.3735C327.493 29.6024 327.408 29.8434 327.364 30.0965C327.329 30.3541 327.34 30.6051 327.397 30.8497C327.462 31.0988 327.574 31.3309 327.733 31.5461C327.891 31.7613 328.105 31.9432 328.375 32.0918C328.645 32.2404 328.913 32.3242 329.18 32.3432C329.446 32.3622 329.698 32.3305 329.935 32.248C330.181 32.1701 330.399 32.0451 330.589 31.8731C330.788 31.7056 330.951 31.5074 331.077 31.2785C331.203 31.0496 331.284 30.8063 331.319 30.5488C331.362 30.2957 331.352 30.0446 331.286 29.7955C331.229 29.551 331.121 29.3211 330.963 29.1059C330.804 28.8907 330.59 28.7088 330.321 28.5602C330.051 28.4116 329.783 28.3278 329.516 28.3088C329.249 28.2898 328.993 28.3193 328.748 28.3972C328.511 28.4796 328.293 28.6046 328.094 28.7721C327.903 28.9441 327.745 29.1446 327.619 29.3735Z" fill="white"/>
<path d="M336.299 34.914C336.67 34.5321 337.071 34.252 337.504 34.0737C337.95 33.8953 338.398 33.8092 338.847 33.8155C339.296 33.8218 339.74 33.9206 340.178 34.1119C340.617 34.3032 341.017 34.5742 341.379 34.9251C341.741 35.276 342.024 35.6676 342.228 36.1001C342.433 36.5326 342.545 36.9731 342.566 37.4216C342.586 37.8701 342.51 38.3168 342.339 38.7617C342.18 39.2064 341.916 39.6196 341.546 40.0016C341.175 40.3835 340.767 40.6637 340.321 40.8421C339.888 41.0204 339.447 41.1064 338.998 41.1001C338.549 41.0938 338.106 40.995 337.667 40.8037C337.229 40.6124 336.828 40.3414 336.467 39.9905C336.105 39.6396 335.822 39.2479 335.617 38.8155C335.412 38.383 335.3 37.9425 335.28 37.494C335.26 37.0454 335.329 36.5988 335.487 36.1542C335.658 35.7093 335.929 35.2959 336.299 34.914ZM337.506 36.0836C337.324 36.2712 337.178 36.4813 337.07 36.714C336.968 36.9532 336.912 37.1983 336.903 37.4492C336.9 37.7067 336.947 37.9601 337.043 38.2094C337.139 38.4587 337.298 38.6906 337.519 38.905C337.74 39.1195 337.977 39.2709 338.229 39.3595C338.481 39.448 338.733 39.4837 338.983 39.4667C339.24 39.4561 339.484 39.393 339.713 39.2773C339.949 39.168 340.158 39.0196 340.34 38.832C340.522 38.6444 340.664 38.431 340.766 38.1918C340.874 37.9591 340.93 37.7141 340.932 37.4566C340.942 37.2057 340.898 36.9555 340.802 36.7062C340.706 36.4568 340.547 36.225 340.326 36.0105C340.105 35.7961 339.868 35.6446 339.616 35.5561C339.364 35.4676 339.109 35.4286 338.852 35.4391C338.601 35.4562 338.358 35.5193 338.122 35.6286C337.893 35.7443 337.687 35.896 337.506 36.0836Z" fill="white"/>
<path d="M347.481 41.4974L348.464 42.7545L347.615 43.4187L347.632 43.4408C347.994 43.3587 348.372 43.3716 348.764 43.4794C349.164 43.5814 349.536 43.853 349.881 44.2941C350.157 44.6469 350.332 44.9907 350.404 45.3253C350.482 45.6672 350.485 45.9902 350.415 46.294C350.345 46.5979 350.21 46.8807 350.012 47.1424C349.814 47.4041 349.579 47.6413 349.307 47.8541L345.966 50.4677L344.93 49.1444L347.61 47.0484C347.757 46.9333 347.913 46.7995 348.078 46.6468C348.25 46.4883 348.388 46.3156 348.49 46.1287C348.606 45.9434 348.664 45.7443 348.663 45.5315C348.67 45.3129 348.584 45.0896 348.406 44.8617C348.233 44.6412 348.05 44.4825 347.856 44.3856C347.667 44.2961 347.47 44.2488 347.265 44.2436C347.065 44.2458 346.867 44.2881 346.671 44.3705C346.474 44.4529 346.288 44.5631 346.112 44.7011L343.223 46.961L342.187 45.6378L347.481 41.4974Z" fill="white"/>
<path d="M229.309 13.8567L225.253 16.1698L220.857 14.5962L223.17 18.6527L221.596 23.0492L225.653 20.736L230.049 22.3096L227.736 18.2532L229.309 13.8567Z" fill="white"/>
<path d="M357.705 26.925L356.249 22.488L351.934 20.7047L356.371 19.2491L358.154 14.9334L359.609 19.3704L363.925 21.1536L359.488 22.6092L357.705 26.925Z" fill="white"/>
</svg>
