<svg width="375" height="144" viewBox="0 0 375 144" fill="none" xmlns="http://www.w3.org/2000/svg">
<rect width="375" height="144" fill="#C6A4FF"/>
<path d="M22.422 108.256H30.648V110.308H24.69V113.656H30.306V115.708H24.69V121H22.422V108.256ZM40.4439 121H38.3919V119.614H38.3559C38.1519 120.046 37.8399 120.424 37.4199 120.748C36.9999 121.06 36.4299 121.216 35.7099 121.216C35.1339 121.216 34.6419 121.126 34.2339 120.946C33.8379 120.754 33.5139 120.502 33.2619 120.19C33.0099 119.866 32.8299 119.5 32.7219 119.092C32.6139 118.684 32.5599 118.258 32.5599 117.814V112.36H34.7199V116.734C34.7199 116.974 34.7319 117.244 34.7559 117.544C34.7799 117.832 34.8399 118.108 34.9359 118.372C35.0439 118.624 35.1999 118.84 35.4039 119.02C35.6199 119.188 35.9199 119.272 36.3039 119.272C36.6639 119.272 36.9639 119.212 37.2039 119.092C37.4559 118.972 37.6599 118.81 37.8159 118.606C37.9839 118.402 38.1039 118.168 38.1759 117.904C38.2479 117.64 38.2839 117.364 38.2839 117.076V112.36H40.4439V121ZM42.8959 112.36H44.9479V113.746H44.9839C45.1879 113.314 45.4999 112.942 45.9199 112.63C46.3399 112.306 46.9099 112.144 47.6299 112.144C48.2059 112.144 48.6919 112.24 49.0879 112.432C49.4959 112.624 49.8259 112.876 50.0779 113.188C50.3299 113.5 50.5099 113.86 50.6179 114.268C50.7259 114.676 50.7799 115.102 50.7799 115.546V121H48.6199V116.626C48.6199 116.386 48.6079 116.122 48.5839 115.834C48.5599 115.534 48.4939 115.258 48.3859 115.006C48.2899 114.742 48.1339 114.526 47.9179 114.358C47.7019 114.178 47.4079 114.088 47.0359 114.088C46.6759 114.088 46.3699 114.148 46.1179 114.268C45.8779 114.388 45.6739 114.55 45.5059 114.754C45.3499 114.958 45.2359 115.192 45.1639 115.456C45.0919 115.72 45.0559 115.996 45.0559 116.284V121H42.8959V112.36ZM60.0718 119.704H60.0358C59.7238 120.232 59.3038 120.616 58.7758 120.856C58.2478 121.096 57.6778 121.216 57.0658 121.216C56.3938 121.216 55.7938 121.102 55.2658 120.874C54.7498 120.634 54.3058 120.31 53.9338 119.902C53.5618 119.494 53.2798 119.014 53.0878 118.462C52.8958 117.91 52.7998 117.316 52.7998 116.68C52.7998 116.044 52.9018 115.45 53.1058 114.898C53.3098 114.346 53.5918 113.866 53.9518 113.458C54.3238 113.05 54.7678 112.732 55.2838 112.504C55.7998 112.264 56.3638 112.144 56.9758 112.144C57.3838 112.144 57.7438 112.186 58.0558 112.27C58.3678 112.354 58.6438 112.462 58.8838 112.594C59.1238 112.726 59.3278 112.87 59.4958 113.026C59.6638 113.17 59.8018 113.314 59.9098 113.458H59.9638V107.392H62.1238V121H60.0718V119.704ZM54.9598 116.68C54.9598 117.016 55.0138 117.34 55.1218 117.652C55.2418 117.964 55.4098 118.24 55.6258 118.48C55.8538 118.72 56.1238 118.912 56.4358 119.056C56.7478 119.2 57.1018 119.272 57.4978 119.272C57.8938 119.272 58.2478 119.2 58.5598 119.056C58.8718 118.912 59.1358 118.72 59.3518 118.48C59.5798 118.24 59.7478 117.964 59.8558 117.652C59.9758 117.34 60.0358 117.016 60.0358 116.68C60.0358 116.344 59.9758 116.02 59.8558 115.708C59.7478 115.396 59.5798 115.12 59.3518 114.88C59.1358 114.64 58.8718 114.448 58.5598 114.304C58.2478 114.16 57.8938 114.088 57.4978 114.088C57.1018 114.088 56.7478 114.16 56.4358 114.304C56.1238 114.448 55.8538 114.64 55.6258 114.88C55.4098 115.12 55.2418 115.396 55.1218 115.708C55.0138 116.02 54.9598 116.344 54.9598 116.68ZM64.5697 112.36H66.7297V113.728H66.7657C67.0057 113.224 67.3477 112.834 67.7917 112.558C68.2357 112.282 68.7457 112.144 69.3217 112.144C69.4537 112.144 69.5797 112.156 69.6997 112.18C69.8317 112.204 69.9637 112.234 70.0957 112.27V114.358C69.9157 114.31 69.7357 114.274 69.5557 114.25C69.3877 114.214 69.2197 114.196 69.0517 114.196C68.5477 114.196 68.1397 114.292 67.8277 114.484C67.5277 114.664 67.2937 114.874 67.1257 115.114C66.9697 115.354 66.8617 115.594 66.8017 115.834C66.7537 116.074 66.7297 116.254 66.7297 116.374V121H64.5697V112.36ZM76.9658 119.812H76.9118C76.5998 120.304 76.2038 120.664 75.7238 120.892C75.2438 121.108 74.7158 121.216 74.1398 121.216C73.7438 121.216 73.3538 121.162 72.9698 121.054C72.5978 120.946 72.2618 120.784 71.9618 120.568C71.6738 120.352 71.4398 120.082 71.2598 119.758C71.0798 119.434 70.9898 119.056 70.9898 118.624C70.9898 118.156 71.0738 117.76 71.2418 117.436C71.4098 117.1 71.6318 116.824 71.9078 116.608C72.1958 116.38 72.5258 116.2 72.8978 116.068C73.2698 115.936 73.6538 115.84 74.0498 115.78C74.4578 115.708 74.8658 115.666 75.2738 115.654C75.6818 115.63 76.0658 115.618 76.4258 115.618H76.9658V115.384C76.9658 114.844 76.7798 114.442 76.4078 114.178C76.0358 113.902 75.5618 113.764 74.9858 113.764C74.5298 113.764 74.1038 113.848 73.7078 114.016C73.3118 114.172 72.9698 114.388 72.6818 114.664L71.5478 113.53C72.0278 113.038 72.5858 112.684 73.2218 112.468C73.8698 112.252 74.5358 112.144 75.2198 112.144C75.8318 112.144 76.3478 112.216 76.7678 112.36C77.1878 112.492 77.5358 112.666 77.8118 112.882C78.0878 113.098 78.2978 113.35 78.4418 113.638C78.5978 113.914 78.7058 114.196 78.7658 114.484C78.8378 114.772 78.8798 115.054 78.8918 115.33C78.9038 115.594 78.9098 115.828 78.9098 116.032V121H76.9658V119.812ZM76.8398 117.13H76.3898C76.0898 117.13 75.7538 117.142 75.3818 117.166C75.0098 117.19 74.6558 117.25 74.3198 117.346C73.9958 117.43 73.7198 117.562 73.4918 117.742C73.2638 117.91 73.1498 118.15 73.1498 118.462C73.1498 118.666 73.1918 118.84 73.2758 118.984C73.3718 119.116 73.4918 119.23 73.6358 119.326C73.7798 119.422 73.9418 119.494 74.1218 119.542C74.3018 119.578 74.4818 119.596 74.6618 119.596C75.4058 119.596 75.9518 119.422 76.2998 119.074C76.6598 118.714 76.8398 118.228 76.8398 117.616V117.13ZM81.2698 112.36H83.4298V121H81.2698V112.36ZM80.9638 109.426C80.9638 109.078 81.0898 108.778 81.3418 108.526C81.6058 108.262 81.9358 108.13 82.3318 108.13C82.7278 108.13 83.0578 108.256 83.3218 108.508C83.5978 108.748 83.7358 109.054 83.7358 109.426C83.7358 109.798 83.5978 110.11 83.3218 110.362C83.0578 110.602 82.7278 110.722 82.3318 110.722C81.9358 110.722 81.6058 110.596 81.3418 110.344C81.0898 110.08 80.9638 109.774 80.9638 109.426ZM90.5175 114.754C90.0975 114.166 89.5335 113.872 88.8255 113.872C88.5375 113.872 88.2555 113.944 87.9795 114.088C87.7035 114.232 87.5655 114.466 87.5655 114.79C87.5655 115.054 87.6795 115.246 87.9075 115.366C88.1355 115.486 88.4235 115.588 88.7715 115.672C89.1195 115.756 89.4915 115.846 89.8875 115.942C90.2955 116.026 90.6735 116.164 91.0215 116.356C91.3695 116.536 91.6575 116.788 91.8855 117.112C92.1135 117.436 92.2275 117.88 92.2275 118.444C92.2275 118.96 92.1135 119.398 91.8855 119.758C91.6695 120.106 91.3815 120.388 91.0215 120.604C90.6735 120.82 90.2775 120.976 89.8335 121.072C89.3895 121.168 88.9455 121.216 88.5015 121.216C87.8295 121.216 87.2115 121.12 86.6475 120.928C86.0835 120.736 85.5795 120.388 85.1355 119.884L86.5755 118.534C86.8515 118.846 87.1455 119.104 87.4575 119.308C87.7815 119.5 88.1715 119.596 88.6275 119.596C88.7835 119.596 88.9455 119.578 89.1135 119.542C89.2815 119.506 89.4375 119.446 89.5815 119.362C89.7255 119.278 89.8395 119.176 89.9235 119.056C90.0195 118.924 90.0675 118.774 90.0675 118.606C90.0675 118.306 89.9535 118.084 89.7255 117.94C89.4975 117.796 89.2095 117.682 88.8615 117.598C88.5135 117.502 88.1355 117.418 87.7275 117.346C87.3315 117.262 86.9595 117.136 86.6115 116.968C86.2635 116.788 85.9755 116.542 85.7475 116.23C85.5195 115.918 85.4055 115.486 85.4055 114.934C85.4055 114.454 85.5015 114.04 85.6935 113.692C85.8975 113.332 86.1615 113.038 86.4855 112.81C86.8095 112.582 87.1815 112.414 87.6015 112.306C88.0215 112.198 88.4475 112.144 88.8795 112.144C89.4555 112.144 90.0255 112.246 90.5895 112.45C91.1535 112.642 91.6095 112.978 91.9575 113.458L90.5175 114.754ZM95.6356 117.436C95.7076 118.084 95.9596 118.588 96.3916 118.948C96.8236 119.308 97.3456 119.488 97.9576 119.488C98.4976 119.488 98.9476 119.38 99.3076 119.164C99.6796 118.936 100.004 118.654 100.28 118.318L101.828 119.488C101.324 120.112 100.76 120.556 100.136 120.82C99.5116 121.084 98.8576 121.216 98.1736 121.216C97.5256 121.216 96.9136 121.108 96.3376 120.892C95.7616 120.676 95.2636 120.37 94.8436 119.974C94.4236 119.578 94.0876 119.104 93.8356 118.552C93.5956 117.988 93.4756 117.364 93.4756 116.68C93.4756 115.996 93.5956 115.378 93.8356 114.826C94.0876 114.262 94.4236 113.782 94.8436 113.386C95.2636 112.99 95.7616 112.684 96.3376 112.468C96.9136 112.252 97.5256 112.144 98.1736 112.144C98.7736 112.144 99.3196 112.252 99.8116 112.468C100.316 112.672 100.742 112.972 101.09 113.368C101.45 113.764 101.726 114.256 101.918 114.844C102.122 115.42 102.224 116.086 102.224 116.842V117.436H95.6356ZM100.064 115.816C100.052 115.18 99.8536 114.682 99.4696 114.322C99.0856 113.95 98.5516 113.764 97.8676 113.764C97.2196 113.764 96.7036 113.95 96.3196 114.322C95.9476 114.694 95.7196 115.192 95.6356 115.816H100.064ZM104.244 112.36H106.404V113.728H106.44C106.68 113.224 107.022 112.834 107.466 112.558C107.91 112.282 108.42 112.144 108.996 112.144C109.128 112.144 109.254 112.156 109.374 112.18C109.506 112.204 109.638 112.234 109.77 112.27V114.358C109.59 114.31 109.41 114.274 109.23 114.25C109.062 114.214 108.894 114.196 108.726 114.196C108.222 114.196 107.814 114.292 107.502 114.484C107.202 114.664 106.968 114.874 106.8 115.114C106.644 115.354 106.536 115.594 106.476 115.834C106.428 116.074 106.404 116.254 106.404 116.374V121H104.244V112.36ZM115.848 114.754C115.428 114.166 114.864 113.872 114.156 113.872C113.868 113.872 113.586 113.944 113.31 114.088C113.034 114.232 112.896 114.466 112.896 114.79C112.896 115.054 113.01 115.246 113.238 115.366C113.466 115.486 113.754 115.588 114.102 115.672C114.45 115.756 114.822 115.846 115.218 115.942C115.626 116.026 116.004 116.164 116.352 116.356C116.7 116.536 116.988 116.788 117.216 117.112C117.444 117.436 117.558 117.88 117.558 118.444C117.558 118.96 117.444 119.398 117.216 119.758C117 120.106 116.712 120.388 116.352 120.604C116.004 120.82 115.608 120.976 115.164 121.072C114.72 121.168 114.276 121.216 113.832 121.216C113.16 121.216 112.542 121.12 111.978 120.928C111.414 120.736 110.91 120.388 110.466 119.884L111.906 118.534C112.182 118.846 112.476 119.104 112.788 119.308C113.112 119.5 113.502 119.596 113.958 119.596C114.114 119.596 114.276 119.578 114.444 119.542C114.612 119.506 114.768 119.446 114.912 119.362C115.056 119.278 115.17 119.176 115.254 119.056C115.35 118.924 115.398 118.774 115.398 118.606C115.398 118.306 115.284 118.084 115.056 117.94C114.828 117.796 114.54 117.682 114.192 117.598C113.844 117.502 113.466 117.418 113.058 117.346C112.662 117.262 112.29 117.136 111.942 116.968C111.594 116.788 111.306 116.542 111.078 116.23C110.85 115.918 110.736 115.486 110.736 114.934C110.736 114.454 110.832 114.04 111.024 113.692C111.228 113.332 111.492 113.038 111.816 112.81C112.14 112.582 112.512 112.414 112.932 112.306C113.352 112.198 113.778 112.144 114.21 112.144C114.786 112.144 115.356 112.246 115.92 112.45C116.484 112.642 116.94 112.978 117.288 113.458L115.848 114.754ZM124.132 116.68C124.132 115.996 124.252 115.378 124.492 114.826C124.744 114.262 125.08 113.782 125.5 113.386C125.92 112.99 126.418 112.684 126.994 112.468C127.57 112.252 128.182 112.144 128.83 112.144C129.478 112.144 130.09 112.252 130.666 112.468C131.242 112.684 131.74 112.99 132.16 113.386C132.58 113.782 132.91 114.262 133.15 114.826C133.402 115.378 133.528 115.996 133.528 116.68C133.528 117.364 133.402 117.988 133.15 118.552C132.91 119.104 132.58 119.578 132.16 119.974C131.74 120.37 131.242 120.676 130.666 120.892C130.09 121.108 129.478 121.216 128.83 121.216C128.182 121.216 127.57 121.108 126.994 120.892C126.418 120.676 125.92 120.37 125.5 119.974C125.08 119.578 124.744 119.104 124.492 118.552C124.252 117.988 124.132 117.364 124.132 116.68ZM126.292 116.68C126.292 117.016 126.346 117.34 126.454 117.652C126.574 117.964 126.742 118.24 126.958 118.48C127.186 118.72 127.456 118.912 127.768 119.056C128.08 119.2 128.434 119.272 128.83 119.272C129.226 119.272 129.58 119.2 129.892 119.056C130.204 118.912 130.468 118.72 130.684 118.48C130.912 118.24 131.08 117.964 131.188 117.652C131.308 117.34 131.368 117.016 131.368 116.68C131.368 116.344 131.308 116.02 131.188 115.708C131.08 115.396 130.912 115.12 130.684 114.88C130.468 114.64 130.204 114.448 129.892 114.304C129.58 114.16 129.226 114.088 128.83 114.088C128.434 114.088 128.08 114.16 127.768 114.304C127.456 114.448 127.186 114.64 126.958 114.88C126.742 115.12 126.574 115.396 126.454 115.708C126.346 116.02 126.292 116.344 126.292 116.68ZM135.55 112.36H137.602V113.746H137.638C137.842 113.314 138.154 112.942 138.574 112.63C138.994 112.306 139.564 112.144 140.284 112.144C140.86 112.144 141.346 112.24 141.742 112.432C142.15 112.624 142.48 112.876 142.732 113.188C142.984 113.5 143.164 113.86 143.272 114.268C143.38 114.676 143.434 115.102 143.434 115.546V121H141.274V116.626C141.274 116.386 141.262 116.122 141.238 115.834C141.214 115.534 141.148 115.258 141.04 115.006C140.944 114.742 140.788 114.526 140.572 114.358C140.356 114.178 140.062 114.088 139.69 114.088C139.33 114.088 139.024 114.148 138.772 114.268C138.532 114.388 138.328 114.55 138.16 114.754C138.004 114.958 137.89 115.192 137.818 115.456C137.746 115.72 137.71 115.996 137.71 116.284V121H135.55V112.36ZM155.532 108.256H157.494L162.984 121H160.392L159.204 118.084H153.678L152.526 121H149.988L155.532 108.256ZM158.412 116.14L156.45 110.956L154.452 116.14H158.412ZM168.811 114.754C168.391 114.166 167.827 113.872 167.119 113.872C166.831 113.872 166.549 113.944 166.273 114.088C165.997 114.232 165.859 114.466 165.859 114.79C165.859 115.054 165.973 115.246 166.201 115.366C166.429 115.486 166.717 115.588 167.065 115.672C167.413 115.756 167.785 115.846 168.181 115.942C168.589 116.026 168.967 116.164 169.315 116.356C169.663 116.536 169.951 116.788 170.179 117.112C170.407 117.436 170.521 117.88 170.521 118.444C170.521 118.96 170.407 119.398 170.179 119.758C169.963 120.106 169.675 120.388 169.315 120.604C168.967 120.82 168.571 120.976 168.127 121.072C167.683 121.168 167.239 121.216 166.795 121.216C166.123 121.216 165.505 121.12 164.941 120.928C164.377 120.736 163.873 120.388 163.429 119.884L164.869 118.534C165.145 118.846 165.439 119.104 165.751 119.308C166.075 119.5 166.465 119.596 166.921 119.596C167.077 119.596 167.239 119.578 167.407 119.542C167.575 119.506 167.731 119.446 167.875 119.362C168.019 119.278 168.133 119.176 168.217 119.056C168.313 118.924 168.361 118.774 168.361 118.606C168.361 118.306 168.247 118.084 168.019 117.94C167.791 117.796 167.503 117.682 167.155 117.598C166.807 117.502 166.429 117.418 166.021 117.346C165.625 117.262 165.253 117.136 164.905 116.968C164.557 116.788 164.269 116.542 164.041 116.23C163.813 115.918 163.699 115.486 163.699 114.934C163.699 114.454 163.795 114.04 163.987 113.692C164.191 113.332 164.455 113.038 164.779 112.81C165.103 112.582 165.475 112.414 165.895 112.306C166.315 112.198 166.741 112.144 167.173 112.144C167.749 112.144 168.319 112.246 168.883 112.45C169.447 112.642 169.903 112.978 170.251 113.458L168.811 114.754ZM172.111 112.36H174.163V113.71H174.199C174.391 113.302 174.697 112.942 175.117 112.63C175.549 112.306 176.125 112.144 176.845 112.144C178.201 112.144 179.101 112.678 179.545 113.746C179.857 113.194 180.247 112.792 180.715 112.54C181.183 112.276 181.741 112.144 182.389 112.144C182.965 112.144 183.451 112.24 183.847 112.432C184.243 112.624 184.561 112.888 184.801 113.224C185.053 113.56 185.233 113.956 185.341 114.412C185.449 114.856 185.503 115.336 185.503 115.852V121H183.343V116.104C183.343 115.84 183.319 115.588 183.271 115.348C183.223 115.096 183.139 114.88 183.019 114.7C182.899 114.508 182.737 114.358 182.533 114.25C182.329 114.142 182.065 114.088 181.741 114.088C181.405 114.088 181.117 114.154 180.877 114.286C180.649 114.406 180.457 114.574 180.301 114.79C180.157 114.994 180.049 115.234 179.977 115.51C179.917 115.774 179.887 116.044 179.887 116.32V121H177.727V115.852C177.727 115.312 177.613 114.886 177.385 114.574C177.157 114.25 176.779 114.088 176.251 114.088C175.891 114.088 175.585 114.148 175.333 114.268C175.093 114.388 174.889 114.55 174.721 114.754C174.565 114.958 174.451 115.192 174.379 115.456C174.307 115.72 174.271 115.996 174.271 116.284V121H172.111V112.36ZM187.863 107.392H190.023V113.458H190.077C190.185 113.314 190.323 113.17 190.491 113.026C190.659 112.87 190.863 112.726 191.103 112.594C191.343 112.462 191.619 112.354 191.931 112.27C192.243 112.186 192.603 112.144 193.011 112.144C193.623 112.144 194.187 112.264 194.703 112.504C195.219 112.732 195.657 113.05 196.017 113.458C196.389 113.866 196.677 114.346 196.881 114.898C197.085 115.45 197.187 116.044 197.187 116.68C197.187 117.316 197.091 117.91 196.899 118.462C196.707 119.014 196.425 119.494 196.053 119.902C195.681 120.31 195.231 120.634 194.703 120.874C194.175 121.102 193.581 121.216 192.921 121.216C192.309 121.216 191.739 121.096 191.211 120.856C190.683 120.616 190.263 120.232 189.951 119.704H189.915V121H187.863V107.392ZM195.027 116.68C195.027 116.344 194.967 116.02 194.847 115.708C194.739 115.396 194.571 115.12 194.343 114.88C194.127 114.64 193.863 114.448 193.551 114.304C193.239 114.16 192.885 114.088 192.489 114.088C192.093 114.088 191.739 114.16 191.427 114.304C191.115 114.448 190.845 114.64 190.617 114.88C190.401 115.12 190.233 115.396 190.113 115.708C190.005 116.02 189.951 116.344 189.951 116.68C189.951 117.016 190.005 117.34 190.113 117.652C190.233 117.964 190.401 118.24 190.617 118.48C190.845 118.72 191.115 118.912 191.427 119.056C191.739 119.2 192.093 119.272 192.489 119.272C192.885 119.272 193.239 119.2 193.551 119.056C193.863 118.912 194.127 118.72 194.343 118.48C194.571 118.24 194.739 117.964 194.847 117.652C194.967 117.34 195.027 117.016 195.027 116.68ZM199.237 107.392H201.397V121H199.237V107.392Z" fill="#1B0A60"/>
<path d="M19.7956 69.553L22.4944 73.3638L27.144 73.7957L23.3332 76.4945L22.9014 81.1442L20.2026 77.3334L15.5529 76.9015L19.3637 74.2027L19.7956 69.553Z" fill="#1B0A60"/>
<path d="M298.534 125.898L299.741 121.387L297.102 117.535L301.613 118.741L305.466 116.102L304.259 120.613L306.898 124.466L302.387 123.259L298.534 125.898Z" fill="#1B0A60"/>
<path d="M355.454 102.475L352.184 99.1414L347.525 99.4538L350.858 96.1838L350.546 91.5246L353.816 94.8582L358.475 94.5458L355.142 97.8158L355.454 102.475Z" fill="#1B0A60"/>
<path d="M87.2426 47.2427L91.4853 49.1936L95.7279 47.2427L93.7771 51.4854L95.7279 55.728L91.4853 53.7771L87.2426 55.728L89.1935 51.4854L87.2426 47.2427Z" fill="#1B0A60"/>
<path d="M50.7281 29.728L46.4854 27.7771L42.2428 29.728L44.1936 25.4854L42.2428 21.2427L46.4854 23.1936L50.7281 21.2427L48.7772 25.4854L50.7281 29.728Z" fill="#1B0A60"/>
<path d="M209.143 63.4035L213.2 65.7167L217.596 64.1431L215.283 68.1995L216.857 72.5961L212.8 70.2829L208.404 71.8565L210.717 67.8001L209.143 63.4035Z" fill="#1B0A60"/>
<path d="M229.309 13.8567L225.253 16.1698L220.857 14.5962L223.17 18.6527L221.596 23.0492L225.653 20.736L230.049 22.3096L227.736 18.2532L229.309 13.8567Z" fill="#1B0A60"/>
<path d="M237.31 106.857L233.254 109.17L228.857 107.596L231.17 111.653L229.597 116.049L233.653 113.736L238.05 115.31L235.736 111.253L237.31 106.857Z" fill="#1B0A60"/>
<path d="M131.247 78.0585L134.701 74.9154L134.563 70.2477L137.706 73.7012L142.374 73.5632L138.92 76.7063L139.058 81.3739L135.915 77.9204L131.247 78.0585Z" fill="#1B0A60"/>
<path d="M174 38.1963L170.407 35.2138L165.804 36.0001L168.786 32.407L168 27.804L171.593 30.7864L176.196 30.0001L173.214 33.5933L174 38.1963Z" fill="#1B0A60"/>
<path d="M301.083 43.5835C306.192 43.5811 311.147 45.3302 315.122 48.5391C319.097 51.748 321.852 56.2227 322.927 61.217C324.002 66.2112 323.332 71.4231 321.03 75.9834C318.727 80.5437 314.93 84.1767 310.273 86.2765C308.785 89.5676 306.52 92.4485 303.673 94.6722C300.827 96.8959 297.483 98.3959 293.93 99.0437C290.376 99.6915 286.719 99.4676 283.27 98.3914C279.822 97.3152 276.687 95.4186 274.133 92.8645C271.578 90.3103 269.682 87.1747 268.606 83.7267C267.529 80.2786 267.306 76.6209 267.953 73.0673C268.601 69.5137 270.101 66.1703 272.325 63.3238C274.549 60.4772 277.429 58.2125 280.721 56.7239C282.491 52.8069 285.354 49.4837 288.965 47.1529C292.577 44.8222 296.785 43.5828 301.083 43.5835ZM292.708 63.1252H287.125V65.9168C285.31 65.9124 283.566 66.6147 282.26 67.8747C280.955 69.1348 280.192 70.8537 280.132 72.667C280.073 74.4802 280.722 76.2455 281.942 77.5884C283.161 78.9314 284.856 79.7466 286.667 79.8612L287.125 79.8752H292.708L292.959 79.8975C293.281 79.9558 293.572 80.1252 293.782 80.3762C293.992 80.6273 294.106 80.9439 294.106 81.271C294.106 81.5981 293.992 81.9147 293.782 82.1658C293.572 82.4168 293.281 82.5862 292.959 82.6445L292.708 82.6668H281.541V88.2502H287.125V91.0418H292.708V88.2502C294.522 88.2546 296.267 87.5523 297.572 86.2923C298.878 85.0322 299.641 83.3133 299.7 81.5C299.76 79.6867 299.111 77.9215 297.891 76.5786C296.671 75.2356 294.977 74.4204 293.166 74.3058L292.708 74.2918H287.125L286.873 74.2695C286.552 74.2112 286.26 74.0418 286.051 73.7908C285.841 73.5397 285.726 73.2231 285.726 72.896C285.726 72.5689 285.841 72.2523 286.051 72.0012C286.26 71.7502 286.552 71.5808 286.873 71.5225L287.125 71.5002H298.291V65.9168H292.708V63.1252ZM301.083 49.1668C298.718 49.1641 296.379 49.6636 294.221 50.6323C292.063 51.6011 290.135 53.017 288.565 54.7865C291.721 54.5949 294.881 55.0754 297.836 56.1961C300.792 57.3168 303.476 59.0522 305.711 61.2876C307.947 63.523 309.682 66.2074 310.802 69.1634C311.922 72.1193 312.403 75.2794 312.211 78.4347C314.749 76.1779 316.541 73.2029 317.35 69.9042C318.158 66.6055 317.945 63.1389 316.738 59.9642C315.531 56.7896 313.387 54.0568 310.591 52.1285C307.795 50.2001 304.479 49.1672 301.083 49.1668Z" fill="#1B0A60"/>
<path d="M243.723 39.9142C243.189 39.9491 242.763 40.0593 242.444 40.2447C242.13 40.4228 241.864 40.6458 241.646 40.9137C241.322 41.3118 241.1 41.7327 240.98 42.1763C240.858 42.6068 240.83 43.0409 240.895 43.4788C240.953 43.9107 241.095 44.3273 241.322 44.7286C241.555 45.1227 241.863 45.4758 242.247 45.788C242.659 46.1238 243.089 46.3715 243.537 46.5312C243.991 46.6836 244.438 46.7471 244.88 46.7216C245.322 46.6961 245.745 46.583 246.149 46.3823C246.559 46.1743 246.926 45.8713 247.25 45.4731C247.503 45.1618 247.675 44.8025 247.766 44.3951C247.856 43.9745 247.84 43.505 247.721 42.9866L249.443 42.5111C249.638 43.2474 249.641 43.9536 249.452 44.6299C249.263 45.3061 248.938 45.9266 248.479 46.4913C247.996 47.0849 247.457 47.5549 246.862 47.9013C246.266 48.2345 245.647 48.4408 245.005 48.52C244.362 48.5861 243.712 48.5202 243.054 48.3223C242.397 48.1244 241.768 47.781 241.167 47.2921C240.552 46.7914 240.077 46.2365 239.742 45.6273C239.4 45.0122 239.196 44.383 239.13 43.7396C239.07 43.089 239.146 42.441 239.359 41.7955C239.57 41.137 239.917 40.5109 240.4 39.9172C240.824 39.396 241.31 38.9911 241.857 38.7027C242.403 38.4011 243.053 38.2381 243.807 38.2138L243.723 39.9142Z" fill="#1B0A60"/>
<path d="M251.77 38.1059C251.453 37.6786 251.241 37.237 251.135 36.781C251.031 36.3119 251.019 35.8563 251.098 35.4143C251.177 34.9724 251.346 34.5504 251.606 34.1486C251.865 33.7468 252.198 33.3957 252.602 33.0954C253.007 32.7952 253.439 32.579 253.899 32.4471C254.359 32.3151 254.812 32.2755 255.258 32.3282C255.704 32.381 256.132 32.5279 256.544 32.769C256.957 32.997 257.322 33.3247 257.639 33.752C257.956 34.1792 258.166 34.6274 258.27 35.0965C258.376 35.5525 258.39 36.0016 258.311 36.4435C258.232 36.8855 258.063 37.3074 257.803 37.7093C257.543 38.1111 257.211 38.4622 256.806 38.7625C256.401 39.0627 255.969 39.2789 255.509 39.4108C255.049 39.5428 254.596 39.5824 254.15 39.5297C253.705 39.4769 253.275 39.3365 252.862 39.1085C252.451 38.8674 252.086 38.5332 251.77 38.1059ZM253.119 37.105C253.274 37.3149 253.458 37.4923 253.67 37.6371C253.89 37.7764 254.123 37.871 254.369 37.9208C254.623 37.9651 254.88 37.9599 255.142 37.9053C255.403 37.8507 255.658 37.7316 255.905 37.5481C256.153 37.3646 256.34 37.1556 256.469 36.9211C256.597 36.6865 256.673 36.4443 256.696 36.1942C256.728 35.9387 256.705 35.6884 256.628 35.4435C256.558 35.193 256.445 34.9628 256.29 34.7529C256.134 34.543 255.946 34.3684 255.727 34.2291C255.515 34.0843 255.282 33.9897 255.028 33.9454C254.782 33.8956 254.528 33.898 254.267 33.9526C254.005 34.0072 253.75 34.1263 253.503 34.3098C253.256 34.4933 253.068 34.7023 252.94 34.9368C252.812 35.1714 252.732 35.4164 252.701 35.672C252.677 35.922 252.7 36.1723 252.77 36.4228C252.847 36.6677 252.963 36.8951 253.119 37.105Z" fill="#1B0A60"/>
<path d="M260.417 28.2221L261.872 27.5656L262.304 28.5227L262.329 28.5111C262.335 28.1605 262.437 27.8074 262.635 27.4518C262.837 27.0839 263.194 26.7848 263.704 26.5544C264.665 26.1206 265.474 26.2112 266.131 26.8263C266.175 26.3351 266.323 25.9254 266.574 25.597C266.822 25.2601 267.175 24.988 267.634 24.7807C268.043 24.5964 268.418 24.509 268.76 24.5184C269.102 24.5278 269.412 24.6132 269.69 24.7746C269.976 24.9322 270.23 25.1553 270.453 25.4441C270.671 25.7243 270.863 26.0473 271.028 26.4131L272.675 30.0626L271.144 30.7537L269.578 27.2828C269.493 27.0956 269.396 26.9247 269.285 26.7699C269.17 26.6066 269.041 26.4803 268.899 26.3911C268.752 26.2934 268.589 26.2389 268.41 26.2276C268.231 26.2163 268.027 26.2625 267.797 26.3661C267.559 26.4736 267.376 26.6126 267.248 26.7829C267.125 26.941 267.042 27.1215 267.001 27.3245C266.964 27.5152 266.964 27.7199 267.001 27.9386C267.043 28.145 267.108 28.346 267.197 28.5416L268.694 31.8594L267.163 32.5505L265.516 28.9009C265.343 28.5181 265.126 28.2526 264.864 28.1043C264.599 27.9476 264.279 27.9537 263.905 28.1226C263.65 28.2378 263.452 28.3782 263.312 28.5439C263.18 28.7058 263.087 28.8859 263.033 29.0842C262.988 29.2788 262.982 29.4811 263.015 29.6913C263.049 29.9015 263.112 30.1087 263.204 30.3129L264.713 33.6562L263.181 34.3472L260.417 28.2221Z" fill="#1B0A60"/>
<path d="M275.467 22.3707L277.089 21.9337L278.837 28.4223L277.215 28.8594L275.467 22.3707ZM274.643 20.2292C274.573 19.9679 274.607 19.7171 274.745 19.4768C274.89 19.2252 275.111 19.0593 275.408 18.9791C275.706 18.899 275.979 18.9269 276.228 19.0627C276.484 19.1871 276.65 19.389 276.725 19.6684C276.8 19.9477 276.76 20.21 276.603 20.4551C276.454 20.6887 276.23 20.8456 275.933 20.9257C275.635 21.0058 275.362 20.978 275.113 20.8421C274.87 20.6949 274.714 20.4906 274.643 20.2292Z" fill="#1B0A60"/>
<path d="M283.629 20.4815L285.209 20.2607L285.358 21.3283L285.386 21.3244C285.497 20.9697 285.697 20.6496 285.987 20.3641C286.276 20.0693 286.697 19.8832 287.252 19.8057C287.696 19.7437 288.08 19.7653 288.406 19.8706C288.741 19.9746 289.022 20.1332 289.25 20.3464C289.478 20.5596 289.655 20.8176 289.782 21.1202C289.909 21.4229 289.997 21.7452 290.044 22.0872L290.631 26.2884L288.968 26.5209L288.497 23.1516C288.471 22.9667 288.433 22.7647 288.384 22.5454C288.333 22.3169 288.253 22.1114 288.142 21.9289C288.04 21.7359 287.897 21.5863 287.712 21.4801C287.526 21.3647 287.29 21.327 287.004 21.3671C286.726 21.4058 286.497 21.4849 286.316 21.6045C286.144 21.7228 286.004 21.8695 285.897 22.0447C285.798 22.2187 285.736 22.4112 285.709 22.6223C285.682 22.8334 285.684 23.0499 285.715 23.2717L286.222 26.9044L284.558 27.1369L283.629 20.4815Z" fill="#1B0A60"/>
<path d="M302.769 19.3967L302.637 25.5132C302.624 26.1198 302.537 26.664 302.378 27.146C302.218 27.6374 301.975 28.0476 301.651 28.3767C301.336 28.7153 300.938 28.9728 300.458 29.1491C299.978 29.3255 299.412 29.4066 298.758 29.3925C298.133 29.379 297.542 29.287 296.986 29.1163C296.429 28.9456 295.918 28.6451 295.451 28.215L296.488 26.865C296.818 27.1802 297.162 27.4257 297.523 27.6015C297.883 27.7773 298.301 27.8703 298.777 27.8806C299.178 27.8892 299.515 27.8405 299.788 27.7343C300.071 27.6284 300.293 27.4792 300.456 27.2866C300.628 27.0943 300.75 26.8589 300.821 26.5804C300.902 26.3114 300.946 26.0089 300.953 25.673L300.964 25.1831L300.936 25.1825C300.686 25.5038 300.359 25.7442 299.954 25.9035C299.549 26.0535 299.137 26.1239 298.717 26.1149C298.213 26.104 297.758 26.0055 297.351 25.8194C296.945 25.6239 296.595 25.369 296.303 25.0546C296.021 24.7404 295.805 24.3717 295.655 23.9484C295.505 23.525 295.436 23.0754 295.446 22.5995C295.457 22.105 295.541 21.6447 295.7 21.2187C295.858 20.7927 296.086 20.4242 296.382 20.1131C296.678 19.8021 297.029 19.5623 297.434 19.3936C297.848 19.2159 298.317 19.1326 298.839 19.1439C299.315 19.1542 299.756 19.257 300.163 19.4525C300.57 19.648 300.89 19.9536 301.123 20.3694L301.151 20.37L301.173 19.3623L302.769 19.3967ZM299.157 20.6631C298.858 20.6566 298.586 20.7021 298.342 20.7995C298.097 20.8876 297.884 21.0184 297.703 21.1919C297.531 21.3562 297.391 21.5632 297.283 21.813C297.185 22.0536 297.132 22.3232 297.126 22.6218C297.12 22.8924 297.161 23.1453 297.25 23.3806C297.347 23.6161 297.483 23.8244 297.656 24.0055C297.83 24.1866 298.037 24.3311 298.277 24.439C298.517 24.5469 298.778 24.6038 299.058 24.6099C299.365 24.6165 299.642 24.5711 299.887 24.4737C300.141 24.3765 300.354 24.2457 300.525 24.0814C300.706 23.9079 300.846 23.7009 300.945 23.4603C301.043 23.2197 301.096 22.9594 301.102 22.6795C301.114 22.0916 300.947 21.6119 300.601 21.2403C300.254 20.8688 299.772 20.6764 299.157 20.6631Z" fill="#1B0A60"/>
<path d="M321.662 22.0503C321.562 21.7369 321.378 21.4759 321.11 21.2673C320.854 21.0525 320.56 20.8947 320.23 20.7939C320.034 20.734 319.835 20.6978 319.634 20.6853C319.442 20.6754 319.255 20.6965 319.073 20.7484C318.9 20.803 318.745 20.8971 318.606 21.0305C318.471 21.1551 318.37 21.3245 318.305 21.5387C318.207 21.8601 318.244 22.1397 318.415 22.3773C318.587 22.615 318.818 22.8467 319.111 23.0725C319.403 23.2982 319.728 23.529 320.085 23.7649C320.442 24.0007 320.755 24.2717 321.023 24.5778C321.29 24.8838 321.484 25.2405 321.604 25.6478C321.723 26.0551 321.698 26.54 321.526 27.1024C321.371 27.6113 321.141 28.0291 320.836 28.3558C320.535 28.6735 320.185 28.9084 319.787 29.0603C319.398 29.215 318.975 29.2908 318.518 29.2878C318.06 29.2849 317.599 29.2126 317.135 29.071C316.545 28.8913 316.009 28.6202 315.524 28.2577C315.039 27.8952 314.671 27.4219 314.42 26.8379L316.068 25.9939C316.178 26.369 316.371 26.6962 316.647 26.9755C316.934 27.2486 317.266 27.4423 317.64 27.5567C317.837 27.6166 318.041 27.6497 318.254 27.656C318.467 27.6624 318.67 27.6365 318.863 27.5783C319.057 27.5202 319.227 27.4258 319.374 27.2951C319.524 27.1554 319.632 26.9784 319.697 26.7642C319.803 26.416 319.773 26.1141 319.607 25.8586C319.441 25.6031 319.212 25.3624 318.92 25.1367C318.631 24.902 318.307 24.6668 317.95 24.4309C317.592 24.1951 317.278 23.9286 317.008 23.6314C316.74 23.3253 316.545 22.9731 316.423 22.5747C316.303 22.1674 316.329 21.6826 316.501 21.1201C316.65 20.6291 316.878 20.235 317.183 19.9378C317.497 19.6434 317.851 19.4291 318.243 19.295C318.647 19.1547 319.076 19.0905 319.531 19.1024C319.986 19.1144 320.432 19.187 320.87 19.3204C321.37 19.4729 321.829 19.6958 322.246 19.9892C322.673 20.2853 323.021 20.6646 323.29 21.1271L321.662 22.0503Z" fill="#1B0A60"/>
<path d="M326.147 28.5629C326.404 28.0969 326.718 27.7209 327.088 27.435C327.472 27.1453 327.881 26.9444 328.315 26.8323C328.75 26.7201 329.204 26.6985 329.678 26.7676C330.151 26.8366 330.609 26.9927 331.05 27.2359C331.492 27.4791 331.868 27.7823 332.179 28.1456C332.491 28.5089 332.715 28.9043 332.853 29.3317C332.99 29.7591 333.035 30.2099 332.987 30.6842C332.951 31.1549 332.805 31.6231 332.548 32.0891C332.292 32.5551 331.972 32.9329 331.588 33.2225C331.218 33.5085 330.815 33.7076 330.38 33.8197C329.945 33.9319 329.491 33.9535 329.018 33.8844C328.544 33.8154 328.087 33.6593 327.645 33.4161C327.204 33.1729 326.828 32.8697 326.516 32.5064C326.205 32.143 325.981 31.7477 325.843 31.3203C325.706 30.8929 325.655 30.4439 325.69 29.9733C325.738 29.499 325.891 29.0288 326.147 28.5629ZM327.619 29.3735C327.493 29.6024 327.408 29.8434 327.364 30.0965C327.329 30.3541 327.34 30.6051 327.397 30.8497C327.462 31.0988 327.574 31.3309 327.733 31.5461C327.891 31.7613 328.105 31.9432 328.375 32.0918C328.645 32.2404 328.913 32.3242 329.18 32.3432C329.446 32.3622 329.698 32.3305 329.935 32.248C330.181 32.1701 330.399 32.0451 330.589 31.8731C330.788 31.7056 330.951 31.5074 331.077 31.2785C331.203 31.0496 331.284 30.8063 331.319 30.5488C331.362 30.2957 331.352 30.0446 331.286 29.7955C331.229 29.551 331.121 29.3211 330.963 29.1059C330.804 28.8907 330.59 28.7088 330.321 28.5602C330.051 28.4116 329.783 28.3278 329.516 28.3088C329.249 28.2898 328.993 28.3193 328.748 28.3972C328.511 28.4796 328.293 28.6046 328.094 28.7721C327.903 28.9441 327.745 29.1446 327.619 29.3735Z" fill="#1B0A60"/>
<path d="M336.299 34.914C336.67 34.5321 337.071 34.252 337.504 34.0737C337.95 33.8953 338.398 33.8092 338.847 33.8155C339.296 33.8218 339.74 33.9206 340.178 34.1119C340.617 34.3032 341.017 34.5742 341.379 34.9251C341.741 35.276 342.024 35.6676 342.228 36.1001C342.433 36.5326 342.545 36.9731 342.566 37.4216C342.586 37.8701 342.51 38.3168 342.339 38.7617C342.18 39.2064 341.916 39.6196 341.546 40.0016C341.175 40.3835 340.767 40.6637 340.321 40.8421C339.888 41.0204 339.447 41.1064 338.998 41.1001C338.549 41.0938 338.106 40.995 337.667 40.8037C337.229 40.6124 336.828 40.3414 336.467 39.9905C336.105 39.6396 335.822 39.2479 335.617 38.8155C335.412 38.383 335.3 37.9425 335.28 37.494C335.26 37.0454 335.329 36.5988 335.487 36.1542C335.658 35.7093 335.929 35.2959 336.299 34.914ZM337.506 36.0836C337.324 36.2712 337.178 36.4813 337.07 36.714C336.968 36.9532 336.912 37.1983 336.903 37.4492C336.9 37.7067 336.947 37.9601 337.043 38.2094C337.139 38.4587 337.298 38.6906 337.519 38.905C337.74 39.1195 337.977 39.2709 338.229 39.3595C338.481 39.448 338.733 39.4837 338.983 39.4667C339.24 39.4561 339.484 39.393 339.713 39.2773C339.949 39.168 340.158 39.0196 340.34 38.832C340.522 38.6444 340.664 38.431 340.766 38.1918C340.874 37.9591 340.93 37.7141 340.932 37.4566C340.942 37.2057 340.898 36.9555 340.802 36.7062C340.706 36.4568 340.547 36.225 340.326 36.0105C340.105 35.7961 339.868 35.6446 339.616 35.5561C339.364 35.4676 339.109 35.4286 338.852 35.4391C338.601 35.4562 338.358 35.5193 338.122 35.6286C337.893 35.7443 337.687 35.896 337.506 36.0836Z" fill="#1B0A60"/>
<path d="M347.481 41.4974L348.464 42.7545L347.615 43.4187L347.632 43.4408C347.994 43.3587 348.372 43.3716 348.764 43.4794C349.164 43.5814 349.536 43.853 349.881 44.2941C350.157 44.6469 350.332 44.9907 350.404 45.3253C350.482 45.6672 350.485 45.9902 350.415 46.294C350.345 46.5979 350.21 46.8807 350.012 47.1424C349.814 47.4041 349.579 47.6413 349.307 47.8541L345.966 50.4677L344.93 49.1444L347.61 47.0484C347.757 46.9333 347.913 46.7995 348.078 46.6468C348.25 46.4883 348.388 46.3156 348.49 46.1287C348.606 45.9434 348.664 45.7443 348.663 45.5315C348.67 45.3129 348.584 45.0896 348.406 44.8617C348.233 44.6412 348.05 44.4825 347.856 44.3856C347.667 44.2961 347.47 44.2488 347.265 44.2436C347.065 44.2458 346.867 44.2881 346.671 44.3705C346.474 44.4529 346.288 44.5631 346.112 44.7011L343.223 46.961L342.187 45.6378L347.481 41.4974Z" fill="#1B0A60"/>
<path d="M357.705 26.925L356.249 22.488L351.934 20.7047L356.371 19.2491L358.154 14.9334L359.609 19.3704L363.925 21.1536L359.488 22.6092L357.705 26.925Z" fill="#1B0A60"/>
</svg>
