<svg width="351" height="175" viewBox="0 0 351 175" fill="none" xmlns="http://www.w3.org/2000/svg">
<rect width="351" height="175" rx="16" fill="#C6A4FF"/>
<path d="M76.3306 103.088H79.0186L81.6646 110.032L84.3386 103.088H86.9986V113H85.3186V104.768H85.2906L82.2806 113H81.0486L78.0386 104.768H78.0106V113H76.3306V103.088ZM93.2956 112.076H93.2536C93.0109 112.459 92.7029 112.739 92.3296 112.916C91.9562 113.084 91.5456 113.168 91.0976 113.168C90.7896 113.168 90.4862 113.126 90.1876 113.042C89.8982 112.958 89.6369 112.832 89.4036 112.664C89.1796 112.496 88.9976 112.286 88.8576 112.034C88.7176 111.782 88.6476 111.488 88.6476 111.152C88.6476 110.788 88.7129 110.48 88.8436 110.228C88.9742 109.967 89.1469 109.752 89.3616 109.584C89.5856 109.407 89.8422 109.267 90.1316 109.164C90.4209 109.061 90.7196 108.987 91.0276 108.94C91.3449 108.884 91.6622 108.851 91.9796 108.842C92.2969 108.823 92.5956 108.814 92.8756 108.814H93.2956V108.632C93.2956 108.212 93.1509 107.899 92.8616 107.694C92.5722 107.479 92.2036 107.372 91.7556 107.372C91.4009 107.372 91.0696 107.437 90.7616 107.568C90.4536 107.689 90.1876 107.857 89.9636 108.072L89.0816 107.19C89.4549 106.807 89.8889 106.532 90.3836 106.364C90.8876 106.196 91.4056 106.112 91.9376 106.112C92.4136 106.112 92.8149 106.168 93.1416 106.28C93.4682 106.383 93.7389 106.518 93.9536 106.686C94.1682 106.854 94.3316 107.05 94.4436 107.274C94.5649 107.489 94.6489 107.708 94.6956 107.932C94.7516 108.156 94.7842 108.375 94.7936 108.59C94.8029 108.795 94.8076 108.977 94.8076 109.136V113H93.2956V112.076ZM93.1976 109.99H92.8476C92.6142 109.99 92.3529 109.999 92.0636 110.018C91.7742 110.037 91.4989 110.083 91.2376 110.158C90.9856 110.223 90.7709 110.326 90.5936 110.466C90.4162 110.597 90.3276 110.783 90.3276 111.026C90.3276 111.185 90.3602 111.32 90.4256 111.432C90.5002 111.535 90.5936 111.623 90.7056 111.698C90.8176 111.773 90.9436 111.829 91.0836 111.866C91.2236 111.894 91.3636 111.908 91.5036 111.908C92.0822 111.908 92.5069 111.773 92.7776 111.502C93.0576 111.222 93.1976 110.844 93.1976 110.368V109.99ZM96.6151 102.416H98.2951V109.066L100.885 106.28H103.041L100.157 109.332L103.223 113H100.997L98.3231 109.57H98.2951V113H96.6151V102.416ZM105.479 110.228C105.535 110.732 105.731 111.124 106.067 111.404C106.403 111.684 106.809 111.824 107.285 111.824C107.705 111.824 108.055 111.74 108.335 111.572C108.624 111.395 108.876 111.175 109.091 110.914L110.295 111.824C109.903 112.309 109.464 112.655 108.979 112.86C108.493 113.065 107.985 113.168 107.453 113.168C106.949 113.168 106.473 113.084 106.025 112.916C105.577 112.748 105.189 112.51 104.863 112.202C104.536 111.894 104.275 111.525 104.079 111.096C103.892 110.657 103.799 110.172 103.799 109.64C103.799 109.108 103.892 108.627 104.079 108.198C104.275 107.759 104.536 107.386 104.863 107.078C105.189 106.77 105.577 106.532 106.025 106.364C106.473 106.196 106.949 106.112 107.453 106.112C107.919 106.112 108.344 106.196 108.727 106.364C109.119 106.523 109.45 106.756 109.721 107.064C110.001 107.372 110.215 107.755 110.365 108.212C110.523 108.66 110.603 109.178 110.603 109.766V110.228H105.479ZM108.923 108.968C108.913 108.473 108.759 108.086 108.461 107.806C108.162 107.517 107.747 107.372 107.215 107.372C106.711 107.372 106.309 107.517 106.011 107.806C105.721 108.095 105.544 108.483 105.479 108.968H108.923ZM123.4 110.662L125.542 113H123.372L122.322 111.866C121.921 112.342 121.492 112.692 121.034 112.916C120.577 113.14 120.031 113.252 119.396 113.252C118.958 113.252 118.533 113.187 118.122 113.056C117.721 112.935 117.366 112.753 117.058 112.51C116.75 112.258 116.503 111.955 116.316 111.6C116.13 111.236 116.036 110.816 116.036 110.34C116.036 110.004 116.092 109.696 116.204 109.416C116.316 109.127 116.466 108.865 116.652 108.632C116.848 108.389 117.077 108.179 117.338 108.002C117.6 107.815 117.88 107.666 118.178 107.554C118.02 107.377 117.87 107.204 117.73 107.036C117.6 106.868 117.483 106.695 117.38 106.518C117.278 106.341 117.194 106.149 117.128 105.944C117.072 105.739 117.044 105.515 117.044 105.272C117.044 104.871 117.119 104.516 117.268 104.208C117.427 103.9 117.637 103.648 117.898 103.452C118.16 103.247 118.463 103.093 118.808 102.99C119.154 102.887 119.513 102.836 119.886 102.836C120.26 102.836 120.614 102.883 120.95 102.976C121.286 103.069 121.58 103.214 121.832 103.41C122.094 103.597 122.299 103.839 122.448 104.138C122.607 104.437 122.686 104.787 122.686 105.188C122.686 105.496 122.63 105.781 122.518 106.042C122.406 106.294 122.257 106.527 122.07 106.742C121.884 106.947 121.669 107.139 121.426 107.316C121.193 107.484 120.955 107.629 120.712 107.75L122.308 109.472L123.414 107.792H125.388L123.4 110.662ZM119.914 104.348C119.588 104.348 119.308 104.441 119.074 104.628C118.841 104.805 118.724 105.043 118.724 105.342C118.724 105.473 118.752 105.603 118.808 105.734C118.864 105.855 118.939 105.981 119.032 106.112C119.126 106.233 119.224 106.35 119.326 106.462C119.438 106.574 119.55 106.681 119.662 106.784C119.802 106.709 119.952 106.625 120.11 106.532C120.269 106.429 120.414 106.317 120.544 106.196C120.684 106.065 120.796 105.925 120.88 105.776C120.964 105.627 121.006 105.459 121.006 105.272C121.006 105.001 120.899 104.782 120.684 104.614C120.47 104.437 120.213 104.348 119.914 104.348ZM119.242 108.548C119.074 108.651 118.911 108.758 118.752 108.87C118.594 108.973 118.449 109.089 118.318 109.22C118.188 109.351 118.08 109.5 117.996 109.668C117.922 109.836 117.884 110.027 117.884 110.242C117.884 110.457 117.926 110.657 118.01 110.844C118.094 111.031 118.206 111.189 118.346 111.32C118.496 111.451 118.664 111.553 118.85 111.628C119.037 111.703 119.238 111.74 119.452 111.74C119.835 111.74 120.171 111.637 120.46 111.432C120.75 111.227 121.02 111.003 121.272 110.76L119.242 108.548ZM130.99 103.088H134.896C135.549 103.088 136.179 103.191 136.786 103.396C137.392 103.592 137.929 103.895 138.396 104.306C138.862 104.717 139.236 105.235 139.516 105.86C139.796 106.476 139.936 107.204 139.936 108.044C139.936 108.893 139.772 109.631 139.446 110.256C139.128 110.872 138.713 111.385 138.2 111.796C137.696 112.197 137.131 112.501 136.506 112.706C135.89 112.902 135.283 113 134.686 113H130.99V103.088ZM134.07 111.404C134.62 111.404 135.138 111.343 135.624 111.222C136.118 111.091 136.548 110.895 136.912 110.634C137.276 110.363 137.56 110.018 137.766 109.598C137.98 109.169 138.088 108.651 138.088 108.044C138.088 107.447 137.994 106.933 137.808 106.504C137.621 106.075 137.36 105.729 137.024 105.468C136.697 105.197 136.305 105.001 135.848 104.88C135.4 104.749 134.905 104.684 134.364 104.684H132.754V111.404H134.07ZM141.123 109.64C141.123 109.108 141.216 108.627 141.403 108.198C141.599 107.759 141.86 107.386 142.187 107.078C142.514 106.77 142.901 106.532 143.349 106.364C143.797 106.196 144.273 106.112 144.777 106.112C145.281 106.112 145.757 106.196 146.205 106.364C146.653 106.532 147.04 106.77 147.367 107.078C147.694 107.386 147.95 107.759 148.137 108.198C148.333 108.627 148.431 109.108 148.431 109.64C148.431 110.172 148.333 110.657 148.137 111.096C147.95 111.525 147.694 111.894 147.367 112.202C147.04 112.51 146.653 112.748 146.205 112.916C145.757 113.084 145.281 113.168 144.777 113.168C144.273 113.168 143.797 113.084 143.349 112.916C142.901 112.748 142.514 112.51 142.187 112.202C141.86 111.894 141.599 111.525 141.403 111.096C141.216 110.657 141.123 110.172 141.123 109.64ZM142.803 109.64C142.803 109.901 142.845 110.153 142.929 110.396C143.022 110.639 143.153 110.853 143.321 111.04C143.498 111.227 143.708 111.376 143.951 111.488C144.194 111.6 144.469 111.656 144.777 111.656C145.085 111.656 145.36 111.6 145.603 111.488C145.846 111.376 146.051 111.227 146.219 111.04C146.396 110.853 146.527 110.639 146.611 110.396C146.704 110.153 146.751 109.901 146.751 109.64C146.751 109.379 146.704 109.127 146.611 108.884C146.527 108.641 146.396 108.427 146.219 108.24C146.051 108.053 145.846 107.904 145.603 107.792C145.36 107.68 145.085 107.624 144.777 107.624C144.469 107.624 144.194 107.68 143.951 107.792C143.708 107.904 143.498 108.053 143.321 108.24C143.153 108.427 143.022 108.641 142.929 108.884C142.845 109.127 142.803 109.379 142.803 109.64ZM150.004 106.28H151.6V107.358H151.628C151.786 107.022 152.029 106.733 152.356 106.49C152.682 106.238 153.126 106.112 153.686 106.112C154.134 106.112 154.512 106.187 154.82 106.336C155.137 106.485 155.394 106.681 155.59 106.924C155.786 107.167 155.926 107.447 156.01 107.764C156.094 108.081 156.136 108.413 156.136 108.758V113H154.456V109.598C154.456 109.411 154.446 109.206 154.428 108.982C154.409 108.749 154.358 108.534 154.274 108.338C154.199 108.133 154.078 107.965 153.91 107.834C153.742 107.694 153.513 107.624 153.224 107.624C152.944 107.624 152.706 107.671 152.51 107.764C152.323 107.857 152.164 107.983 152.034 108.142C151.912 108.301 151.824 108.483 151.768 108.688C151.712 108.893 151.684 109.108 151.684 109.332V113H150.004V106.28ZM162.243 112.076H162.201C161.958 112.459 161.65 112.739 161.277 112.916C160.903 113.084 160.493 113.168 160.045 113.168C159.737 113.168 159.433 113.126 159.135 113.042C158.845 112.958 158.584 112.832 158.351 112.664C158.127 112.496 157.945 112.286 157.805 112.034C157.665 111.782 157.595 111.488 157.595 111.152C157.595 110.788 157.66 110.48 157.791 110.228C157.921 109.967 158.094 109.752 158.309 109.584C158.533 109.407 158.789 109.267 159.079 109.164C159.368 109.061 159.667 108.987 159.975 108.94C160.292 108.884 160.609 108.851 160.927 108.842C161.244 108.823 161.543 108.814 161.823 108.814H162.243V108.632C162.243 108.212 162.098 107.899 161.809 107.694C161.519 107.479 161.151 107.372 160.703 107.372C160.348 107.372 160.017 107.437 159.709 107.568C159.401 107.689 159.135 107.857 158.911 108.072L158.029 107.19C158.402 106.807 158.836 106.532 159.331 106.364C159.835 106.196 160.353 106.112 160.885 106.112C161.361 106.112 161.762 106.168 162.089 106.28C162.415 106.383 162.686 106.518 162.901 106.686C163.115 106.854 163.279 107.05 163.391 107.274C163.512 107.489 163.596 107.708 163.643 107.932C163.699 108.156 163.731 108.375 163.741 108.59C163.75 108.795 163.755 108.977 163.755 109.136V113H162.243V112.076ZM162.145 109.99H161.795C161.561 109.99 161.3 109.999 161.011 110.018C160.721 110.037 160.446 110.083 160.185 110.158C159.933 110.223 159.718 110.326 159.541 110.466C159.363 110.597 159.275 110.783 159.275 111.026C159.275 111.185 159.307 111.32 159.373 111.432C159.447 111.535 159.541 111.623 159.653 111.698C159.765 111.773 159.891 111.829 160.031 111.866C160.171 111.894 160.311 111.908 160.451 111.908C161.029 111.908 161.454 111.773 161.725 111.502C162.005 111.222 162.145 110.844 162.145 110.368V109.99ZM164.778 107.708V106.28H166.164V104.334H167.844V106.28H169.692V107.708H167.844V110.648C167.844 110.984 167.905 111.25 168.026 111.446C168.157 111.642 168.409 111.74 168.782 111.74C168.932 111.74 169.095 111.726 169.272 111.698C169.45 111.661 169.59 111.605 169.692 111.53V112.944C169.515 113.028 169.296 113.084 169.034 113.112C168.782 113.149 168.558 113.168 168.362 113.168C167.914 113.168 167.546 113.117 167.256 113.014C166.976 112.921 166.752 112.776 166.584 112.58C166.426 112.375 166.314 112.123 166.248 111.824C166.192 111.525 166.164 111.18 166.164 110.788V107.708H164.778ZM172.348 110.228C172.404 110.732 172.6 111.124 172.936 111.404C173.272 111.684 173.678 111.824 174.154 111.824C174.574 111.824 174.924 111.74 175.204 111.572C175.493 111.395 175.745 111.175 175.96 110.914L177.164 111.824C176.772 112.309 176.333 112.655 175.848 112.86C175.362 113.065 174.854 113.168 174.322 113.168C173.818 113.168 173.342 113.084 172.894 112.916C172.446 112.748 172.058 112.51 171.732 112.202C171.405 111.894 171.144 111.525 170.948 111.096C170.761 110.657 170.668 110.172 170.668 109.64C170.668 109.108 170.761 108.627 170.948 108.198C171.144 107.759 171.405 107.386 171.732 107.078C172.058 106.77 172.446 106.532 172.894 106.364C173.342 106.196 173.818 106.112 174.322 106.112C174.788 106.112 175.213 106.196 175.596 106.364C175.988 106.523 176.319 106.756 176.59 107.064C176.87 107.372 177.084 107.755 177.234 108.212C177.392 108.66 177.472 109.178 177.472 109.766V110.228H172.348ZM175.792 108.968C175.782 108.473 175.628 108.086 175.33 107.806C175.031 107.517 174.616 107.372 174.084 107.372C173.58 107.372 173.178 107.517 172.88 107.806C172.59 108.095 172.413 108.483 172.348 108.968H175.792ZM182.401 107.708V106.28H183.787V104.334H185.467V106.28H187.315V107.708H185.467V110.648C185.467 110.984 185.528 111.25 185.649 111.446C185.78 111.642 186.032 111.74 186.405 111.74C186.555 111.74 186.718 111.726 186.895 111.698C187.073 111.661 187.213 111.605 187.315 111.53V112.944C187.138 113.028 186.919 113.084 186.657 113.112C186.405 113.149 186.181 113.168 185.985 113.168C185.537 113.168 185.169 113.117 184.879 113.014C184.599 112.921 184.375 112.776 184.207 112.58C184.049 112.375 183.937 112.123 183.871 111.824C183.815 111.525 183.787 111.18 183.787 110.788V107.708H182.401ZM188.291 109.64C188.291 109.108 188.384 108.627 188.571 108.198C188.767 107.759 189.028 107.386 189.355 107.078C189.681 106.77 190.069 106.532 190.517 106.364C190.965 106.196 191.441 106.112 191.945 106.112C192.449 106.112 192.925 106.196 193.373 106.364C193.821 106.532 194.208 106.77 194.535 107.078C194.861 107.386 195.118 107.759 195.305 108.198C195.501 108.627 195.599 109.108 195.599 109.64C195.599 110.172 195.501 110.657 195.305 111.096C195.118 111.525 194.861 111.894 194.535 112.202C194.208 112.51 193.821 112.748 193.373 112.916C192.925 113.084 192.449 113.168 191.945 113.168C191.441 113.168 190.965 113.084 190.517 112.916C190.069 112.748 189.681 112.51 189.355 112.202C189.028 111.894 188.767 111.525 188.571 111.096C188.384 110.657 188.291 110.172 188.291 109.64ZM189.971 109.64C189.971 109.901 190.013 110.153 190.097 110.396C190.19 110.639 190.321 110.853 190.489 111.04C190.666 111.227 190.876 111.376 191.119 111.488C191.361 111.6 191.637 111.656 191.945 111.656C192.253 111.656 192.528 111.6 192.771 111.488C193.013 111.376 193.219 111.227 193.387 111.04C193.564 110.853 193.695 110.639 193.779 110.396C193.872 110.153 193.919 109.901 193.919 109.64C193.919 109.379 193.872 109.127 193.779 108.884C193.695 108.641 193.564 108.427 193.387 108.24C193.219 108.053 193.013 107.904 192.771 107.792C192.528 107.68 192.253 107.624 191.945 107.624C191.637 107.624 191.361 107.68 191.119 107.792C190.876 107.904 190.666 108.053 190.489 108.24C190.321 108.427 190.19 108.641 190.097 108.884C190.013 109.127 189.971 109.379 189.971 109.64ZM201.468 103.088H207.866V104.684H203.232V107.288H207.6V108.884H203.232V113H201.468V103.088ZM215.485 113H213.889V111.922H213.861C213.703 112.258 213.46 112.552 213.133 112.804C212.807 113.047 212.363 113.168 211.803 113.168C211.355 113.168 210.973 113.098 210.655 112.958C210.347 112.809 210.095 112.613 209.899 112.37C209.703 112.118 209.563 111.833 209.479 111.516C209.395 111.199 209.353 110.867 209.353 110.522V106.28H211.033V109.682C211.033 109.869 211.043 110.079 211.061 110.312C211.08 110.536 211.127 110.751 211.201 110.956C211.285 111.152 211.407 111.32 211.565 111.46C211.733 111.591 211.967 111.656 212.265 111.656C212.545 111.656 212.779 111.609 212.965 111.516C213.161 111.423 213.32 111.297 213.441 111.138C213.572 110.979 213.665 110.797 213.721 110.592C213.777 110.387 213.805 110.172 213.805 109.948V106.28H215.485V113ZM217.392 106.28H218.988V107.358H219.016C219.175 107.022 219.418 106.733 219.744 106.49C220.071 106.238 220.514 106.112 221.074 106.112C221.522 106.112 221.9 106.187 222.208 106.336C222.526 106.485 222.782 106.681 222.978 106.924C223.174 107.167 223.314 107.447 223.398 107.764C223.482 108.081 223.524 108.413 223.524 108.758V113H221.844V109.598C221.844 109.411 221.835 109.206 221.816 108.982C221.798 108.749 221.746 108.534 221.662 108.338C221.588 108.133 221.466 107.965 221.298 107.834C221.13 107.694 220.902 107.624 220.612 107.624C220.332 107.624 220.094 107.671 219.898 107.764C219.712 107.857 219.553 107.983 219.422 108.142C219.301 108.301 219.212 108.483 219.156 108.688C219.1 108.893 219.072 109.108 219.072 109.332V113H217.392V106.28ZM230.751 111.992H230.723C230.481 112.403 230.154 112.701 229.743 112.888C229.333 113.075 228.889 113.168 228.413 113.168C227.891 113.168 227.424 113.079 227.013 112.902C226.612 112.715 226.267 112.463 225.977 112.146C225.688 111.829 225.469 111.455 225.319 111.026C225.17 110.597 225.095 110.135 225.095 109.64C225.095 109.145 225.175 108.683 225.333 108.254C225.492 107.825 225.711 107.451 225.991 107.134C226.281 106.817 226.626 106.569 227.027 106.392C227.429 106.205 227.867 106.112 228.343 106.112C228.661 106.112 228.941 106.145 229.183 106.21C229.426 106.275 229.641 106.359 229.827 106.462C230.014 106.565 230.173 106.677 230.303 106.798C230.434 106.91 230.541 107.022 230.625 107.134H230.667V102.416H232.347V113H230.751V111.992ZM226.775 109.64C226.775 109.901 226.817 110.153 226.901 110.396C226.995 110.639 227.125 110.853 227.293 111.04C227.471 111.227 227.681 111.376 227.923 111.488C228.166 111.6 228.441 111.656 228.749 111.656C229.057 111.656 229.333 111.6 229.575 111.488C229.818 111.376 230.023 111.227 230.191 111.04C230.369 110.853 230.499 110.639 230.583 110.396C230.677 110.153 230.723 109.901 230.723 109.64C230.723 109.379 230.677 109.127 230.583 108.884C230.499 108.641 230.369 108.427 230.191 108.24C230.023 108.053 229.818 107.904 229.575 107.792C229.333 107.68 229.057 107.624 228.749 107.624C228.441 107.624 228.166 107.68 227.923 107.792C227.681 107.904 227.471 108.053 227.293 108.24C227.125 108.427 226.995 108.641 226.901 108.884C226.817 109.127 226.775 109.379 226.775 109.64ZM234.25 106.28H235.93V107.344H235.958C236.145 106.952 236.411 106.649 236.756 106.434C237.101 106.219 237.498 106.112 237.946 106.112C238.049 106.112 238.147 106.121 238.24 106.14C238.343 106.159 238.445 106.182 238.548 106.21V107.834C238.408 107.797 238.268 107.769 238.128 107.75C237.997 107.722 237.867 107.708 237.736 107.708C237.344 107.708 237.027 107.783 236.784 107.932C236.551 108.072 236.369 108.235 236.238 108.422C236.117 108.609 236.033 108.795 235.986 108.982C235.949 109.169 235.93 109.309 235.93 109.402V113H234.25V106.28ZM243.891 112.076H243.849C243.607 112.459 243.299 112.739 242.925 112.916C242.552 113.084 242.141 113.168 241.693 113.168C241.385 113.168 241.082 113.126 240.783 113.042C240.494 112.958 240.233 112.832 239.999 112.664C239.775 112.496 239.593 112.286 239.453 112.034C239.313 111.782 239.243 111.488 239.243 111.152C239.243 110.788 239.309 110.48 239.439 110.228C239.57 109.967 239.743 109.752 239.957 109.584C240.181 109.407 240.438 109.267 240.727 109.164C241.017 109.061 241.315 108.987 241.623 108.94C241.941 108.884 242.258 108.851 242.575 108.842C242.893 108.823 243.191 108.814 243.471 108.814H243.891V108.632C243.891 108.212 243.747 107.899 243.457 107.694C243.168 107.479 242.799 107.372 242.351 107.372C241.997 107.372 241.665 107.437 241.357 107.568C241.049 107.689 240.783 107.857 240.559 108.072L239.677 107.19C240.051 106.807 240.485 106.532 240.979 106.364C241.483 106.196 242.001 106.112 242.533 106.112C243.009 106.112 243.411 106.168 243.737 106.28C244.064 106.383 244.335 106.518 244.549 106.686C244.764 106.854 244.927 107.05 245.039 107.274C245.161 107.489 245.245 107.708 245.291 107.932C245.347 108.156 245.38 108.375 245.389 108.59C245.399 108.795 245.403 108.977 245.403 109.136V113H243.891V112.076ZM243.793 109.99H243.443C243.21 109.99 242.949 109.999 242.659 110.018C242.37 110.037 242.095 110.083 241.833 110.158C241.581 110.223 241.367 110.326 241.189 110.466C241.012 110.597 240.923 110.783 240.923 111.026C240.923 111.185 240.956 111.32 241.021 111.432C241.096 111.535 241.189 111.623 241.301 111.698C241.413 111.773 241.539 111.829 241.679 111.866C241.819 111.894 241.959 111.908 242.099 111.908C242.678 111.908 243.103 111.773 243.373 111.502C243.653 111.222 243.793 110.844 243.793 110.368V109.99ZM247.239 106.28H248.919V113H247.239V106.28ZM247.001 103.998C247.001 103.727 247.099 103.494 247.295 103.298C247.5 103.093 247.757 102.99 248.065 102.99C248.373 102.99 248.629 103.088 248.835 103.284C249.049 103.471 249.157 103.709 249.157 103.998C249.157 104.287 249.049 104.53 248.835 104.726C248.629 104.913 248.373 105.006 248.065 105.006C247.757 105.006 247.5 104.908 247.295 104.712C247.099 104.507 247.001 104.269 247.001 103.998ZM254.432 108.142C254.105 107.685 253.666 107.456 253.116 107.456C252.892 107.456 252.672 107.512 252.458 107.624C252.243 107.736 252.136 107.918 252.136 108.17C252.136 108.375 252.224 108.525 252.402 108.618C252.579 108.711 252.803 108.791 253.074 108.856C253.344 108.921 253.634 108.991 253.942 109.066C254.259 109.131 254.553 109.239 254.824 109.388C255.094 109.528 255.318 109.724 255.496 109.976C255.673 110.228 255.762 110.573 255.762 111.012C255.762 111.413 255.673 111.754 255.496 112.034C255.328 112.305 255.104 112.524 254.824 112.692C254.553 112.86 254.245 112.981 253.9 113.056C253.554 113.131 253.209 113.168 252.864 113.168C252.341 113.168 251.86 113.093 251.422 112.944C250.983 112.795 250.591 112.524 250.246 112.132L251.366 111.082C251.58 111.325 251.809 111.525 252.052 111.684C252.304 111.833 252.607 111.908 252.962 111.908C253.083 111.908 253.209 111.894 253.34 111.866C253.47 111.838 253.592 111.791 253.704 111.726C253.816 111.661 253.904 111.581 253.97 111.488C254.044 111.385 254.082 111.269 254.082 111.138C254.082 110.905 253.993 110.732 253.816 110.62C253.638 110.508 253.414 110.419 253.144 110.354C252.873 110.279 252.579 110.214 252.262 110.158C251.954 110.093 251.664 109.995 251.394 109.864C251.123 109.724 250.899 109.533 250.722 109.29C250.544 109.047 250.456 108.711 250.456 108.282C250.456 107.909 250.53 107.587 250.68 107.316C250.838 107.036 251.044 106.807 251.296 106.63C251.548 106.453 251.837 106.322 252.164 106.238C252.49 106.154 252.822 106.112 253.158 106.112C253.606 106.112 254.049 106.191 254.488 106.35C254.926 106.499 255.281 106.761 255.552 107.134L254.432 108.142ZM258.412 110.228C258.468 110.732 258.664 111.124 259 111.404C259.336 111.684 259.742 111.824 260.218 111.824C260.638 111.824 260.988 111.74 261.268 111.572C261.558 111.395 261.81 111.175 262.024 110.914L263.228 111.824C262.836 112.309 262.398 112.655 261.912 112.86C261.427 113.065 260.918 113.168 260.386 113.168C259.882 113.168 259.406 113.084 258.958 112.916C258.51 112.748 258.123 112.51 257.796 112.202C257.47 111.894 257.208 111.525 257.012 111.096C256.826 110.657 256.732 110.172 256.732 109.64C256.732 109.108 256.826 108.627 257.012 108.198C257.208 107.759 257.47 107.386 257.796 107.078C258.123 106.77 258.51 106.532 258.958 106.364C259.406 106.196 259.882 106.112 260.386 106.112C260.853 106.112 261.278 106.196 261.66 106.364C262.052 106.523 262.384 106.756 262.654 107.064C262.934 107.372 263.149 107.755 263.298 108.212C263.457 108.66 263.536 109.178 263.536 109.766V110.228H258.412ZM261.856 108.968C261.847 108.473 261.693 108.086 261.394 107.806C261.096 107.517 260.68 107.372 260.148 107.372C259.644 107.372 259.243 107.517 258.944 107.806C258.655 108.095 258.478 108.483 258.412 108.968H261.856ZM265.107 106.28H266.787V107.344H266.815C267.002 106.952 267.268 106.649 267.613 106.434C267.959 106.219 268.355 106.112 268.803 106.112C268.906 106.112 269.004 106.121 269.097 106.14C269.2 106.159 269.303 106.182 269.405 106.21V107.834C269.265 107.797 269.125 107.769 268.985 107.75C268.855 107.722 268.724 107.708 268.593 107.708C268.201 107.708 267.884 107.783 267.641 107.932C267.408 108.072 267.226 108.235 267.095 108.422C266.974 108.609 266.89 108.795 266.843 108.982C266.806 109.169 266.787 109.309 266.787 109.402V113H265.107V106.28ZM274.133 108.142C273.806 107.685 273.367 107.456 272.817 107.456C272.593 107.456 272.373 107.512 272.159 107.624C271.944 107.736 271.837 107.918 271.837 108.17C271.837 108.375 271.925 108.525 272.103 108.618C272.28 108.711 272.504 108.791 272.775 108.856C273.045 108.921 273.335 108.991 273.643 109.066C273.96 109.131 274.254 109.239 274.525 109.388C274.795 109.528 275.019 109.724 275.197 109.976C275.374 110.228 275.463 110.573 275.463 111.012C275.463 111.413 275.374 111.754 275.197 112.034C275.029 112.305 274.805 112.524 274.525 112.692C274.254 112.86 273.946 112.981 273.601 113.056C273.255 113.131 272.91 113.168 272.565 113.168C272.042 113.168 271.561 113.093 271.123 112.944C270.684 112.795 270.292 112.524 269.947 112.132L271.067 111.082C271.281 111.325 271.51 111.525 271.753 111.684C272.005 111.833 272.308 111.908 272.663 111.908C272.784 111.908 272.91 111.894 273.041 111.866C273.171 111.838 273.293 111.791 273.405 111.726C273.517 111.661 273.605 111.581 273.671 111.488C273.745 111.385 273.783 111.269 273.783 111.138C273.783 110.905 273.694 110.732 273.517 110.62C273.339 110.508 273.115 110.419 272.845 110.354C272.574 110.279 272.28 110.214 271.963 110.158C271.655 110.093 271.365 109.995 271.095 109.864C270.824 109.724 270.6 109.533 270.423 109.29C270.245 109.047 270.157 108.711 270.157 108.282C270.157 107.909 270.231 107.587 270.381 107.316C270.539 107.036 270.745 106.807 270.997 106.63C271.249 106.453 271.538 106.322 271.865 106.238C272.191 106.154 272.523 106.112 272.859 106.112C273.307 106.112 273.75 106.191 274.189 106.35C274.627 106.499 274.982 106.761 275.253 107.134L274.133 108.142Z" fill="#1B0A60"/>
<path d="M250 69L251.621 73.3795L256 75L251.621 76.6205L250 81L248.379 76.6205L244 75L248.379 73.3795L250 69Z" fill="#1B0A60"/>
<path d="M22 69L23.6205 73.3795L28 75L23.6205 76.6205L22 81L20.3795 76.6205L16 75L20.3795 73.3795L22 69Z" fill="#1B0A60"/>
<path d="M287 36L288.621 40.3795L293 42L288.621 43.6205L287 48L285.379 43.6205L281 42L285.379 40.3795L287 36Z" fill="#1B0A60"/>
<path d="M59 36L60.6205 40.3795L65 42L60.6205 43.6205L59 48L57.3795 43.6205L53 42L57.3795 40.3795L59 36Z" fill="#1B0A60"/>
<path d="M324 69L325.621 73.3795L330 75L325.621 76.6205L324 81L322.379 76.6205L318 75L322.379 73.3795L324 69Z" fill="#1B0A60"/>
<path d="M96 69L97.6205 73.3795L102 75L97.6205 76.6205L96 81L94.3795 76.6205L90 75L94.3795 73.3795L96 69Z" fill="#1B0A60"/>
<rect x="111.5" y="130.5" width="127" height="26" rx="7.5" fill="#1B0A60"/>
<path d="M128.232 138.088H129.408V146.908H133.944V148H128.232V138.088ZM140.888 146.81C140.496 147.314 140.067 147.669 139.6 147.874C139.133 148.07 138.592 148.168 137.976 148.168C137.463 148.168 137.001 148.079 136.59 147.902C136.179 147.715 135.829 147.468 135.54 147.16C135.26 146.852 135.041 146.488 134.882 146.068C134.733 145.648 134.658 145.2 134.658 144.724C134.658 144.22 134.742 143.758 134.91 143.338C135.078 142.909 135.311 142.545 135.61 142.246C135.909 141.938 136.263 141.7 136.674 141.532C137.085 141.364 137.533 141.28 138.018 141.28C138.475 141.28 138.895 141.359 139.278 141.518C139.661 141.667 139.987 141.891 140.258 142.19C140.538 142.479 140.753 142.839 140.902 143.268C141.051 143.688 141.126 144.169 141.126 144.71V145.06H135.834C135.853 145.34 135.918 145.611 136.03 145.872C136.151 146.124 136.305 146.348 136.492 146.544C136.679 146.731 136.898 146.88 137.15 146.992C137.402 147.104 137.677 147.16 137.976 147.16C138.452 147.16 138.853 147.076 139.18 146.908C139.507 146.74 139.801 146.493 140.062 146.166L140.888 146.81ZM139.95 144.136C139.931 143.576 139.749 143.128 139.404 142.792C139.059 142.456 138.583 142.288 137.976 142.288C137.369 142.288 136.879 142.456 136.506 142.792C136.133 143.128 135.909 143.576 135.834 144.136H139.95ZM142.731 142.288C143.067 141.943 143.464 141.691 143.921 141.532C144.388 141.364 144.859 141.28 145.335 141.28C146.306 141.28 147.006 141.509 147.435 141.966C147.865 142.423 148.079 143.119 148.079 144.052V146.866C148.079 147.053 148.089 147.249 148.107 147.454C148.126 147.65 148.149 147.832 148.177 148H147.127C147.09 147.851 147.067 147.687 147.057 147.51C147.057 147.323 147.057 147.16 147.057 147.02H147.029C146.815 147.356 146.525 147.631 146.161 147.846C145.807 148.061 145.377 148.168 144.873 148.168C144.537 148.168 144.22 148.126 143.921 148.042C143.632 147.958 143.375 147.837 143.151 147.678C142.937 147.51 142.764 147.305 142.633 147.062C142.503 146.819 142.437 146.539 142.437 146.222C142.437 145.681 142.577 145.256 142.857 144.948C143.137 144.64 143.483 144.411 143.893 144.262C144.313 144.113 144.761 144.019 145.237 143.982C145.723 143.945 146.166 143.926 146.567 143.926H146.987V143.73C146.987 143.254 146.843 142.895 146.553 142.652C146.273 142.409 145.877 142.288 145.363 142.288C145.009 142.288 144.659 142.349 144.313 142.47C143.977 142.582 143.679 142.759 143.417 143.002L142.731 142.288ZM145.895 144.85C145.195 144.85 144.64 144.948 144.229 145.144C143.819 145.34 143.613 145.662 143.613 146.11C143.613 146.521 143.749 146.815 144.019 146.992C144.299 147.16 144.645 147.244 145.055 147.244C145.373 147.244 145.648 147.193 145.881 147.09C146.124 146.978 146.325 146.833 146.483 146.656C146.642 146.479 146.763 146.273 146.847 146.04C146.931 145.797 146.978 145.541 146.987 145.27V144.85H145.895ZM150.075 143.002C150.075 142.703 150.066 142.423 150.047 142.162C150.028 141.901 150.019 141.663 150.019 141.448H151.055C151.055 141.625 151.06 141.803 151.069 141.98C151.078 142.157 151.083 142.339 151.083 142.526H151.111C151.186 142.367 151.288 142.213 151.419 142.064C151.559 141.915 151.722 141.784 151.909 141.672C152.096 141.551 152.306 141.457 152.539 141.392C152.772 141.317 153.024 141.28 153.295 141.28C153.37 141.28 153.444 141.285 153.519 141.294C153.594 141.303 153.668 141.322 153.743 141.35L153.673 142.456C153.486 142.4 153.29 142.372 153.085 142.372C152.413 142.372 151.923 142.591 151.615 143.03C151.316 143.459 151.167 144.052 151.167 144.808V148H150.075V143.002ZM154.997 143.002C154.997 142.703 154.988 142.423 154.969 142.162C154.95 141.901 154.941 141.663 154.941 141.448H155.977C155.977 141.625 155.982 141.803 155.991 141.98C156 142.157 156.005 142.339 156.005 142.526H156.033C156.108 142.367 156.21 142.213 156.341 142.064C156.481 141.915 156.644 141.784 156.831 141.672C157.018 141.551 157.228 141.457 157.461 141.392C157.694 141.317 157.946 141.28 158.217 141.28C158.646 141.28 159.015 141.345 159.323 141.476C159.64 141.607 159.902 141.789 160.107 142.022C160.312 142.255 160.462 142.54 160.555 142.876C160.658 143.203 160.709 143.562 160.709 143.954V148H159.617V144.066C159.617 143.515 159.496 143.081 159.253 142.764C159.01 142.447 158.632 142.288 158.119 142.288C157.764 142.288 157.456 142.349 157.195 142.47C156.943 142.591 156.733 142.764 156.565 142.988C156.406 143.212 156.285 143.478 156.201 143.786C156.126 144.094 156.089 144.435 156.089 144.808V148H154.997V143.002ZM166.869 138.088H168.619L171.979 145.858H172.007L175.395 138.088H177.103V148H175.927V139.684H175.899L172.343 148H171.629L168.073 139.684H168.045V148H166.869V138.088ZM178.996 144.724C178.996 144.211 179.085 143.744 179.262 143.324C179.439 142.904 179.682 142.545 179.99 142.246C180.298 141.938 180.667 141.7 181.096 141.532C181.525 141.364 181.992 141.28 182.496 141.28C183 141.28 183.467 141.364 183.896 141.532C184.325 141.7 184.694 141.938 185.002 142.246C185.31 142.545 185.553 142.904 185.73 143.324C185.907 143.744 185.996 144.211 185.996 144.724C185.996 145.237 185.907 145.704 185.73 146.124C185.553 146.544 185.31 146.908 185.002 147.216C184.694 147.515 184.325 147.748 183.896 147.916C183.467 148.084 183 148.168 182.496 148.168C181.992 148.168 181.525 148.084 181.096 147.916C180.667 147.748 180.298 147.515 179.99 147.216C179.682 146.908 179.439 146.544 179.262 146.124C179.085 145.704 178.996 145.237 178.996 144.724ZM180.172 144.724C180.172 145.069 180.223 145.391 180.326 145.69C180.438 145.979 180.597 146.236 180.802 146.46C181.007 146.675 181.25 146.847 181.53 146.978C181.819 147.099 182.141 147.16 182.496 147.16C182.851 147.16 183.168 147.099 183.448 146.978C183.737 146.847 183.985 146.675 184.19 146.46C184.395 146.236 184.549 145.979 184.652 145.69C184.764 145.391 184.82 145.069 184.82 144.724C184.82 144.379 184.764 144.061 184.652 143.772C184.549 143.473 184.395 143.217 184.19 143.002C183.985 142.778 183.737 142.605 183.448 142.484C183.168 142.353 182.851 142.288 182.496 142.288C182.141 142.288 181.819 142.353 181.53 142.484C181.25 142.605 181.007 142.778 180.802 143.002C180.597 143.217 180.438 143.473 180.326 143.772C180.223 144.061 180.172 144.379 180.172 144.724ZM187.686 143.002C187.686 142.703 187.677 142.423 187.658 142.162C187.64 141.901 187.63 141.663 187.63 141.448H188.666C188.666 141.625 188.671 141.803 188.68 141.98C188.69 142.157 188.694 142.339 188.694 142.526H188.722C188.797 142.367 188.9 142.213 189.03 142.064C189.17 141.915 189.334 141.784 189.52 141.672C189.707 141.551 189.917 141.457 190.15 141.392C190.384 141.317 190.636 141.28 190.906 141.28C190.981 141.28 191.056 141.285 191.13 141.294C191.205 141.303 191.28 141.322 191.354 141.35L191.284 142.456C191.098 142.4 190.902 142.372 190.696 142.372C190.024 142.372 189.534 142.591 189.226 143.03C188.928 143.459 188.778 144.052 188.778 144.808V148H187.686V143.002ZM198.214 146.81C197.822 147.314 197.393 147.669 196.926 147.874C196.46 148.07 195.918 148.168 195.302 148.168C194.789 148.168 194.327 148.079 193.916 147.902C193.506 147.715 193.156 147.468 192.866 147.16C192.586 146.852 192.367 146.488 192.208 146.068C192.059 145.648 191.984 145.2 191.984 144.724C191.984 144.22 192.068 143.758 192.236 143.338C192.404 142.909 192.638 142.545 192.936 142.246C193.235 141.938 193.59 141.7 194 141.532C194.411 141.364 194.859 141.28 195.344 141.28C195.802 141.28 196.222 141.359 196.604 141.518C196.987 141.667 197.314 141.891 197.584 142.19C197.864 142.479 198.079 142.839 198.228 143.268C198.378 143.688 198.452 144.169 198.452 144.71V145.06H193.16C193.179 145.34 193.244 145.611 193.356 145.872C193.478 146.124 193.632 146.348 193.818 146.544C194.005 146.731 194.224 146.88 194.476 146.992C194.728 147.104 195.004 147.16 195.302 147.16C195.778 147.16 196.18 147.076 196.506 146.908C196.833 146.74 197.127 146.493 197.388 146.166L198.214 146.81ZM197.276 144.136C197.258 143.576 197.076 143.128 196.73 142.792C196.385 142.456 195.909 142.288 195.302 142.288C194.696 142.288 194.206 142.456 193.832 142.792C193.459 143.128 193.235 143.576 193.16 144.136H197.276Z" fill="#C6A4FF"/>
<path d="M213.5 137.167L212.384 138.283L216.801 142.708H207.167V144.292H216.801L212.384 148.717L213.5 149.833L219.833 143.5L213.5 137.167Z" fill="#C6A4FF"/>
<rect x="111.5" y="130.5" width="127" height="26" rx="7.5" stroke="#1B0A60"/>
<path d="M181.333 20.3335C187.128 20.3307 192.749 22.3148 197.258 25.9547C201.767 29.5947 204.892 34.6705 206.112 40.3357C207.331 46.0008 206.571 51.9128 203.959 57.0856C201.347 62.2585 197.041 66.3795 191.758 68.7613C190.069 72.4946 187.501 75.7625 184.272 78.2849C181.043 80.8072 177.25 82.5088 173.219 83.2436C169.188 83.9784 165.039 83.7245 161.128 82.5037C157.217 81.2829 153.66 79.1316 150.763 76.2343C147.865 73.337 145.714 69.7803 144.493 65.869C143.273 61.9578 143.019 57.8088 143.753 53.7778C144.488 49.7469 146.19 45.9544 148.712 42.7254C151.235 39.4965 154.502 36.9276 158.236 35.239C160.244 30.7958 163.491 27.0263 167.588 24.3824C171.685 21.7386 176.457 20.3327 181.333 20.3335ZM171.833 42.5002H165.5V45.6668C163.442 45.6618 161.463 46.4584 159.982 47.8878C158.502 49.3171 157.636 51.2668 157.568 53.3237C157.501 55.3806 158.237 57.3829 159.621 58.9063C161.004 60.4297 162.927 61.3543 164.981 61.4843L165.5 61.5002H171.833L172.118 61.5255C172.483 61.5916 172.814 61.7838 173.052 62.0685C173.289 62.3533 173.42 62.7125 173.42 63.0835C173.42 63.4545 173.289 63.8137 173.052 64.0985C172.814 64.3832 172.483 64.5754 172.118 64.6415L171.833 64.6668H159.167V71.0002H165.5V74.1668H171.833V71.0002C173.891 71.0052 175.87 70.2086 177.351 68.7793C178.832 67.3499 179.698 65.4002 179.765 63.3433C179.833 61.2864 179.096 59.2841 177.713 57.7607C176.329 56.2374 174.407 55.3127 172.353 55.1827L171.833 55.1668H165.5L165.215 55.1415C164.85 55.0754 164.52 54.8832 164.282 54.5985C164.044 54.3137 163.914 53.9545 163.914 53.5835C163.914 53.2125 164.044 52.8533 164.282 52.5685C164.52 52.2838 164.85 52.0916 165.215 52.0255L165.5 52.0002H178.167V45.6668H171.833V42.5002ZM181.333 26.6668C178.65 26.6637 175.997 27.2303 173.549 28.3292C171.101 29.4281 168.915 31.0342 167.134 33.0413C170.713 32.8241 174.298 33.3691 177.651 34.6403C181.003 35.9116 184.048 37.8801 186.584 40.4158C189.119 42.9515 191.087 45.9965 192.358 49.3495C193.629 52.7024 194.173 56.287 193.956 59.8662C196.835 57.3063 198.868 53.9317 199.785 50.1898C200.702 46.448 200.46 42.5157 199.091 38.9146C197.722 35.3135 195.29 32.2137 192.119 30.0263C188.947 27.8389 185.186 26.6673 181.333 26.6668Z" fill="#1B0A60"/>
<path d="M331 18.41L329.59 17L324 22.59L318.41 17L317 18.41L322.59 24L317 29.59L318.41 31L324 25.41L329.59 31L331 29.59L325.41 24L331 18.41Z" fill="#1B0A60"/>
</svg>
