<svg width="375" height="144" viewBox="0 0 375 144" fill="none" xmlns="http://www.w3.org/2000/svg">
<rect width="375" height="144" fill="#3C782D"/>
<path d="M22.422 108.256H26.706C27.318 108.256 27.906 108.316 28.47 108.436C29.046 108.556 29.55 108.76 29.982 109.048C30.414 109.324 30.756 109.702 31.008 110.182C31.272 110.65 31.404 111.238 31.404 111.946C31.404 112.75 31.266 113.398 30.99 113.89C30.714 114.382 30.342 114.766 29.874 115.042C29.406 115.306 28.86 115.486 28.236 115.582C27.624 115.678 26.982 115.726 26.31 115.726H24.69V121H22.422V108.256ZM26.058 113.782C26.382 113.782 26.718 113.77 27.066 113.746C27.414 113.722 27.732 113.65 28.02 113.53C28.32 113.41 28.56 113.23 28.74 112.99C28.932 112.75 29.028 112.414 29.028 111.982C29.028 111.586 28.944 111.274 28.776 111.046C28.608 110.806 28.392 110.626 28.128 110.506C27.864 110.374 27.57 110.29 27.246 110.254C26.922 110.218 26.61 110.2 26.31 110.2H24.69V113.782H26.058ZM34.9559 117.436C35.0279 118.084 35.2799 118.588 35.7119 118.948C36.1439 119.308 36.6659 119.488 37.2779 119.488C37.8179 119.488 38.2679 119.38 38.6279 119.164C38.9999 118.936 39.3239 118.654 39.5999 118.318L41.1479 119.488C40.6439 120.112 40.0799 120.556 39.4559 120.82C38.8319 121.084 38.1779 121.216 37.4939 121.216C36.8459 121.216 36.2339 121.108 35.6579 120.892C35.0819 120.676 34.5839 120.37 34.1639 119.974C33.7439 119.578 33.4079 119.104 33.1559 118.552C32.9159 117.988 32.7959 117.364 32.7959 116.68C32.7959 115.996 32.9159 115.378 33.1559 114.826C33.4079 114.262 33.7439 113.782 34.1639 113.386C34.5839 112.99 35.0819 112.684 35.6579 112.468C36.2339 112.252 36.8459 112.144 37.4939 112.144C38.0939 112.144 38.6399 112.252 39.1319 112.468C39.6359 112.672 40.0619 112.972 40.4099 113.368C40.7699 113.764 41.0459 114.256 41.2379 114.844C41.4419 115.42 41.5439 116.086 41.5439 116.842V117.436H34.9559ZM39.3839 115.816C39.3719 115.18 39.1739 114.682 38.7899 114.322C38.4059 113.95 37.8719 113.764 37.1879 113.764C36.5399 113.764 36.0239 113.95 35.6399 114.322C35.2679 114.694 35.0399 115.192 34.9559 115.816H39.3839ZM42.5558 114.196V112.36H44.3378V109.858H46.4978V112.36H48.8738V114.196H46.4978V117.976C46.4978 118.408 46.5758 118.75 46.7318 119.002C46.8998 119.254 47.2238 119.38 47.7038 119.38C47.8958 119.38 48.1058 119.362 48.3338 119.326C48.5618 119.278 48.7418 119.206 48.8738 119.11V120.928C48.6458 121.036 48.3638 121.108 48.0278 121.144C47.7038 121.192 47.4158 121.216 47.1638 121.216C46.5878 121.216 46.1138 121.15 45.7418 121.018C45.3818 120.898 45.0938 120.712 44.8778 120.46C44.6738 120.196 44.5298 119.872 44.4458 119.488C44.3738 119.104 44.3378 118.66 44.3378 118.156V114.196H42.5558ZM50.6135 112.36H52.7735V121H50.6135V112.36ZM50.3075 109.426C50.3075 109.078 50.4335 108.778 50.6855 108.526C50.9495 108.262 51.2795 108.13 51.6755 108.13C52.0715 108.13 52.4015 108.256 52.6655 108.508C52.9415 108.748 53.0795 109.054 53.0795 109.426C53.0795 109.798 52.9415 110.11 52.6655 110.362C52.4015 110.602 52.0715 110.722 51.6755 110.722C51.2795 110.722 50.9495 110.596 50.6855 110.344C50.4335 110.08 50.3075 109.774 50.3075 109.426ZM54.2453 114.196V112.36H56.0273V109.858H58.1873V112.36H60.5633V114.196H58.1873V117.976C58.1873 118.408 58.2653 118.75 58.4213 119.002C58.5893 119.254 58.9133 119.38 59.3933 119.38C59.5853 119.38 59.7953 119.362 60.0233 119.326C60.2513 119.278 60.4313 119.206 60.5633 119.11V120.928C60.3353 121.036 60.0533 121.108 59.7173 121.144C59.3933 121.192 59.1053 121.216 58.8533 121.216C58.2773 121.216 57.8033 121.15 57.4313 121.018C57.0713 120.898 56.7833 120.712 56.5673 120.46C56.3633 120.196 56.2193 119.872 56.1353 119.488C56.0633 119.104 56.0273 118.66 56.0273 118.156V114.196H54.2453ZM62.303 112.36H64.463V121H62.303V112.36ZM61.997 109.426C61.997 109.078 62.123 108.778 62.375 108.526C62.639 108.262 62.969 108.13 63.365 108.13C63.761 108.13 64.091 108.256 64.355 108.508C64.631 108.748 64.769 109.054 64.769 109.426C64.769 109.798 64.631 110.11 64.355 110.362C64.091 110.602 63.761 110.722 63.365 110.722C62.969 110.722 62.639 110.596 62.375 110.344C62.123 110.08 61.997 109.774 61.997 109.426ZM66.5108 116.68C66.5108 115.996 66.6308 115.378 66.8708 114.826C67.1228 114.262 67.4588 113.782 67.8788 113.386C68.2988 112.99 68.7968 112.684 69.3728 112.468C69.9488 112.252 70.5608 112.144 71.2088 112.144C71.8568 112.144 72.4688 112.252 73.0448 112.468C73.6208 112.684 74.1188 112.99 74.5388 113.386C74.9588 113.782 75.2888 114.262 75.5288 114.826C75.7808 115.378 75.9068 115.996 75.9068 116.68C75.9068 117.364 75.7808 117.988 75.5288 118.552C75.2888 119.104 74.9588 119.578 74.5388 119.974C74.1188 120.37 73.6208 120.676 73.0448 120.892C72.4688 121.108 71.8568 121.216 71.2088 121.216C70.5608 121.216 69.9488 121.108 69.3728 120.892C68.7968 120.676 68.2988 120.37 67.8788 119.974C67.4588 119.578 67.1228 119.104 66.8708 118.552C66.6308 117.988 66.5108 117.364 66.5108 116.68ZM68.6708 116.68C68.6708 117.016 68.7248 117.34 68.8328 117.652C68.9528 117.964 69.1208 118.24 69.3368 118.48C69.5648 118.72 69.8348 118.912 70.1468 119.056C70.4588 119.2 70.8128 119.272 71.2088 119.272C71.6048 119.272 71.9588 119.2 72.2708 119.056C72.5828 118.912 72.8468 118.72 73.0628 118.48C73.2908 118.24 73.4588 117.964 73.5668 117.652C73.6868 117.34 73.7468 117.016 73.7468 116.68C73.7468 116.344 73.6868 116.02 73.5668 115.708C73.4588 115.396 73.2908 115.12 73.0628 114.88C72.8468 114.64 72.5828 114.448 72.2708 114.304C71.9588 114.16 71.6048 114.088 71.2088 114.088C70.8128 114.088 70.4588 114.16 70.1468 114.304C69.8348 114.448 69.5648 114.64 69.3368 114.88C69.1208 115.12 68.9528 115.396 68.8328 115.708C68.7248 116.02 68.6708 116.344 68.6708 116.68ZM77.9291 112.36H79.9811V113.746H80.0171C80.2211 113.314 80.5331 112.942 80.9531 112.63C81.3731 112.306 81.9431 112.144 82.6631 112.144C83.2391 112.144 83.7251 112.24 84.1211 112.432C84.5291 112.624 84.8591 112.876 85.1111 113.188C85.3631 113.5 85.5431 113.86 85.6511 114.268C85.7591 114.676 85.8131 115.102 85.8131 115.546V121H83.6531V116.626C83.6531 116.386 83.6411 116.122 83.6171 115.834C83.5931 115.534 83.5271 115.258 83.4191 115.006C83.3231 114.742 83.1671 114.526 82.9511 114.358C82.7351 114.178 82.4411 114.088 82.0691 114.088C81.7091 114.088 81.4031 114.148 81.1511 114.268C80.9111 114.388 80.7071 114.55 80.5391 114.754C80.3831 114.958 80.2691 115.192 80.1971 115.456C80.1251 115.72 80.0891 115.996 80.0891 116.284V121H77.9291V112.36ZM92.873 114.754C92.453 114.166 91.889 113.872 91.181 113.872C90.893 113.872 90.611 113.944 90.335 114.088C90.059 114.232 89.921 114.466 89.921 114.79C89.921 115.054 90.035 115.246 90.263 115.366C90.491 115.486 90.779 115.588 91.127 115.672C91.475 115.756 91.847 115.846 92.243 115.942C92.651 116.026 93.029 116.164 93.377 116.356C93.725 116.536 94.013 116.788 94.241 117.112C94.469 117.436 94.583 117.88 94.583 118.444C94.583 118.96 94.469 119.398 94.241 119.758C94.025 120.106 93.737 120.388 93.377 120.604C93.029 120.82 92.633 120.976 92.189 121.072C91.745 121.168 91.301 121.216 90.857 121.216C90.185 121.216 89.567 121.12 89.003 120.928C88.439 120.736 87.935 120.388 87.491 119.884L88.931 118.534C89.207 118.846 89.501 119.104 89.813 119.308C90.137 119.5 90.527 119.596 90.983 119.596C91.139 119.596 91.301 119.578 91.469 119.542C91.637 119.506 91.793 119.446 91.937 119.362C92.081 119.278 92.195 119.176 92.279 119.056C92.375 118.924 92.423 118.774 92.423 118.606C92.423 118.306 92.309 118.084 92.081 117.94C91.853 117.796 91.565 117.682 91.217 117.598C90.869 117.502 90.491 117.418 90.083 117.346C89.687 117.262 89.315 117.136 88.967 116.968C88.619 116.788 88.331 116.542 88.103 116.23C87.875 115.918 87.761 115.486 87.761 114.934C87.761 114.454 87.857 114.04 88.049 113.692C88.253 113.332 88.517 113.038 88.841 112.81C89.165 112.582 89.537 112.414 89.957 112.306C90.377 112.198 90.803 112.144 91.235 112.144C91.811 112.144 92.381 112.246 92.945 112.45C93.509 112.642 93.965 112.978 94.313 113.458L92.873 114.754ZM101.157 116.68C101.157 115.996 101.277 115.378 101.517 114.826C101.769 114.262 102.105 113.782 102.525 113.386C102.945 112.99 103.443 112.684 104.019 112.468C104.595 112.252 105.207 112.144 105.855 112.144C106.503 112.144 107.115 112.252 107.691 112.468C108.267 112.684 108.765 112.99 109.185 113.386C109.605 113.782 109.935 114.262 110.175 114.826C110.427 115.378 110.553 115.996 110.553 116.68C110.553 117.364 110.427 117.988 110.175 118.552C109.935 119.104 109.605 119.578 109.185 119.974C108.765 120.37 108.267 120.676 107.691 120.892C107.115 121.108 106.503 121.216 105.855 121.216C105.207 121.216 104.595 121.108 104.019 120.892C103.443 120.676 102.945 120.37 102.525 119.974C102.105 119.578 101.769 119.104 101.517 118.552C101.277 117.988 101.157 117.364 101.157 116.68ZM103.317 116.68C103.317 117.016 103.371 117.34 103.479 117.652C103.599 117.964 103.767 118.24 103.983 118.48C104.211 118.72 104.481 118.912 104.793 119.056C105.105 119.2 105.459 119.272 105.855 119.272C106.251 119.272 106.605 119.2 106.917 119.056C107.229 118.912 107.493 118.72 107.709 118.48C107.937 118.24 108.105 117.964 108.213 117.652C108.333 117.34 108.393 117.016 108.393 116.68C108.393 116.344 108.333 116.02 108.213 115.708C108.105 115.396 107.937 115.12 107.709 114.88C107.493 114.64 107.229 114.448 106.917 114.304C106.605 114.16 106.251 114.088 105.855 114.088C105.459 114.088 105.105 114.16 104.793 114.304C104.481 114.448 104.211 114.64 103.983 114.88C103.767 115.12 103.599 115.396 103.479 115.708C103.371 116.02 103.317 116.344 103.317 116.68ZM112.576 112.36H114.628V113.746H114.664C114.868 113.314 115.18 112.942 115.6 112.63C116.02 112.306 116.59 112.144 117.31 112.144C117.886 112.144 118.372 112.24 118.768 112.432C119.176 112.624 119.506 112.876 119.758 113.188C120.01 113.5 120.19 113.86 120.298 114.268C120.406 114.676 120.46 115.102 120.46 115.546V121H118.3V116.626C118.3 116.386 118.288 116.122 118.264 115.834C118.24 115.534 118.174 115.258 118.066 115.006C117.97 114.742 117.814 114.526 117.598 114.358C117.382 114.178 117.088 114.088 116.716 114.088C116.356 114.088 116.05 114.148 115.798 114.268C115.558 114.388 115.354 114.55 115.186 114.754C115.03 114.958 114.916 115.192 114.844 115.456C114.772 115.72 114.736 115.996 114.736 116.284V121H112.576V112.36ZM132.558 108.256H134.52L140.01 121H137.418L136.23 118.084H130.704L129.552 121H127.014L132.558 108.256ZM135.438 116.14L133.476 110.956L131.478 116.14H135.438ZM145.836 114.754C145.416 114.166 144.852 113.872 144.144 113.872C143.856 113.872 143.574 113.944 143.298 114.088C143.022 114.232 142.884 114.466 142.884 114.79C142.884 115.054 142.998 115.246 143.226 115.366C143.454 115.486 143.742 115.588 144.09 115.672C144.438 115.756 144.81 115.846 145.206 115.942C145.614 116.026 145.992 116.164 146.34 116.356C146.688 116.536 146.976 116.788 147.204 117.112C147.432 117.436 147.546 117.88 147.546 118.444C147.546 118.96 147.432 119.398 147.204 119.758C146.988 120.106 146.7 120.388 146.34 120.604C145.992 120.82 145.596 120.976 145.152 121.072C144.708 121.168 144.264 121.216 143.82 121.216C143.148 121.216 142.53 121.12 141.966 120.928C141.402 120.736 140.898 120.388 140.454 119.884L141.894 118.534C142.17 118.846 142.464 119.104 142.776 119.308C143.1 119.5 143.49 119.596 143.946 119.596C144.102 119.596 144.264 119.578 144.432 119.542C144.6 119.506 144.756 119.446 144.9 119.362C145.044 119.278 145.158 119.176 145.242 119.056C145.338 118.924 145.386 118.774 145.386 118.606C145.386 118.306 145.272 118.084 145.044 117.94C144.816 117.796 144.528 117.682 144.18 117.598C143.832 117.502 143.454 117.418 143.046 117.346C142.65 117.262 142.278 117.136 141.93 116.968C141.582 116.788 141.294 116.542 141.066 116.23C140.838 115.918 140.724 115.486 140.724 114.934C140.724 114.454 140.82 114.04 141.012 113.692C141.216 113.332 141.48 113.038 141.804 112.81C142.128 112.582 142.5 112.414 142.92 112.306C143.34 112.198 143.766 112.144 144.198 112.144C144.774 112.144 145.344 112.246 145.908 112.45C146.472 112.642 146.928 112.978 147.276 113.458L145.836 114.754ZM149.136 112.36H151.188V113.71H151.224C151.416 113.302 151.722 112.942 152.142 112.63C152.574 112.306 153.15 112.144 153.87 112.144C155.226 112.144 156.126 112.678 156.57 113.746C156.882 113.194 157.272 112.792 157.74 112.54C158.208 112.276 158.766 112.144 159.414 112.144C159.99 112.144 160.476 112.24 160.872 112.432C161.268 112.624 161.586 112.888 161.826 113.224C162.078 113.56 162.258 113.956 162.366 114.412C162.474 114.856 162.528 115.336 162.528 115.852V121H160.368V116.104C160.368 115.84 160.344 115.588 160.296 115.348C160.248 115.096 160.164 114.88 160.044 114.7C159.924 114.508 159.762 114.358 159.558 114.25C159.354 114.142 159.09 114.088 158.766 114.088C158.43 114.088 158.142 114.154 157.902 114.286C157.674 114.406 157.482 114.574 157.326 114.79C157.182 114.994 157.074 115.234 157.002 115.51C156.942 115.774 156.912 116.044 156.912 116.32V121H154.752V115.852C154.752 115.312 154.638 114.886 154.41 114.574C154.182 114.25 153.804 114.088 153.276 114.088C152.916 114.088 152.61 114.148 152.358 114.268C152.118 114.388 151.914 114.55 151.746 114.754C151.59 114.958 151.476 115.192 151.404 115.456C151.332 115.72 151.296 115.996 151.296 116.284V121H149.136V112.36ZM164.888 107.392H167.048V113.458H167.102C167.21 113.314 167.348 113.17 167.516 113.026C167.684 112.87 167.888 112.726 168.128 112.594C168.368 112.462 168.644 112.354 168.956 112.27C169.268 112.186 169.628 112.144 170.036 112.144C170.648 112.144 171.212 112.264 171.728 112.504C172.244 112.732 172.682 113.05 173.042 113.458C173.414 113.866 173.702 114.346 173.906 114.898C174.11 115.45 174.212 116.044 174.212 116.68C174.212 117.316 174.116 117.91 173.924 118.462C173.732 119.014 173.45 119.494 173.078 119.902C172.706 120.31 172.256 120.634 171.728 120.874C171.2 121.102 170.606 121.216 169.946 121.216C169.334 121.216 168.764 121.096 168.236 120.856C167.708 120.616 167.288 120.232 166.976 119.704H166.94V121H164.888V107.392ZM172.052 116.68C172.052 116.344 171.992 116.02 171.872 115.708C171.764 115.396 171.596 115.12 171.368 114.88C171.152 114.64 170.888 114.448 170.576 114.304C170.264 114.16 169.91 114.088 169.514 114.088C169.118 114.088 168.764 114.16 168.452 114.304C168.14 114.448 167.87 114.64 167.642 114.88C167.426 115.12 167.258 115.396 167.138 115.708C167.03 116.02 166.976 116.344 166.976 116.68C166.976 117.016 167.03 117.34 167.138 117.652C167.258 117.964 167.426 118.24 167.642 118.48C167.87 118.72 168.14 118.912 168.452 119.056C168.764 119.2 169.118 119.272 169.514 119.272C169.91 119.272 170.264 119.2 170.576 119.056C170.888 118.912 171.152 118.72 171.368 118.48C171.596 118.24 171.764 117.964 171.872 117.652C171.992 117.34 172.052 117.016 172.052 116.68ZM176.262 107.392H178.422V121H176.262V107.392Z" fill="white"/>
<path d="M19.7956 69.553L22.4944 73.3638L27.144 73.7957L23.3332 76.4945L22.9014 81.1442L20.2026 77.3334L15.5529 76.9015L19.3637 74.2027L19.7956 69.553Z" fill="white"/>
<path d="M298.534 125.898L299.741 121.387L297.102 117.535L301.613 118.741L305.466 116.102L304.259 120.613L306.898 124.466L302.387 123.259L298.534 125.898Z" fill="white"/>
<path d="M355.454 102.475L352.184 99.1414L347.525 99.4538L350.858 96.1838L350.546 91.5246L353.816 94.8582L358.475 94.5458L355.142 97.8158L355.454 102.475Z" fill="white"/>
<path d="M357.705 26.925L356.249 22.488L351.934 20.7047L356.371 19.2491L358.154 14.9334L359.609 19.3704L363.925 21.1536L359.488 22.6092L357.705 26.925Z" fill="white"/>
<path d="M87.2426 47.2427L91.4853 49.1936L95.7279 47.2427L93.7771 51.4854L95.7279 55.728L91.4853 53.7771L87.2426 55.728L89.1935 51.4854L87.2426 47.2427Z" fill="white"/>
<path d="M50.7281 29.728L46.4854 27.7771L42.2428 29.728L44.1936 25.4854L42.2428 21.2427L46.4854 23.1936L50.7281 21.2427L48.7772 25.4854L50.7281 29.728Z" fill="white"/>
<path d="M209.143 63.4035L213.2 65.7167L217.596 64.1431L215.283 68.1995L216.857 72.5961L212.8 70.2829L208.404 71.8565L210.717 67.8001L209.143 63.4035Z" fill="white"/>
<path d="M237.31 106.857L233.254 109.17L228.857 107.596L231.17 111.653L229.597 116.049L233.653 113.736L238.05 115.31L235.736 111.253L237.31 106.857Z" fill="white"/>
<path d="M131.247 78.0585L134.701 74.9154L134.563 70.2477L137.706 73.7012L142.374 73.5632L138.92 76.7063L139.058 81.3739L135.915 77.9204L131.247 78.0585Z" fill="white"/>
<path d="M174 38.1963L170.407 35.2138L165.804 36.0001L168.786 32.407L168 27.804L171.593 30.7864L176.196 30.0001L173.214 33.5933L174 38.1963Z" fill="white"/>
<path d="M298.028 61.6849L286.206 49.8631C285.868 49.5253 285.53 49.3564 285.024 49.3564H268.135C266.278 49.3564 264.758 50.8764 264.758 52.7341V93.266C264.758 95.1237 266.278 96.6437 268.135 96.6437H295.157C297.014 96.6437 298.534 95.1237 298.534 93.266V62.8671C298.534 62.3604 298.366 62.0227 298.028 61.6849ZM285.024 53.4096L294.481 62.8671H285.024V53.4096ZM295.157 93.266H268.135V52.7341H281.646V62.8671C281.646 64.7248 283.166 66.2447 285.024 66.2447H295.157V93.266Z" fill="white"/>
<path d="M271.513 83.1328H291.779V86.5105H271.513V83.1328Z" fill="white"/>
<path d="M271.513 73H291.779V76.3777H271.513V73Z" fill="white"/>
<path d="M325.457 50.168C324.886 50.1694 324.321 50.2838 323.794 50.5046C323.268 50.7254 322.79 51.0483 322.389 51.4546L305.698 68.1445L305.633 68.4749L304.478 74.2802L304.149 75.8297L305.699 75.5004L311.505 74.3457L311.834 74.2792L328.525 57.5893C328.932 57.189 329.256 56.7115 329.477 56.1848C329.698 55.6581 329.812 55.0926 329.812 54.5215C329.812 53.9503 329.698 53.3848 329.477 52.8581C329.256 52.3314 328.932 51.8539 328.525 51.4536C328.124 51.0473 327.646 50.7246 327.119 50.5039C326.593 50.2832 326.028 50.1691 325.457 50.168ZM325.457 52.1798C325.989 52.1798 326.525 52.4226 327.04 52.9387C328.067 53.9647 328.067 55.0782 327.04 56.1053L326.282 56.8304L323.147 53.6966L323.873 52.9387C324.39 52.4226 324.925 52.1798 325.457 52.1798ZM321.664 55.1817L324.797 58.3155L312.033 71.0788C311.343 69.7306 310.246 68.6343 308.898 67.9461L321.664 55.1817ZM307.547 69.6623C308.171 69.9137 308.739 70.2887 309.215 70.7648C309.691 71.2409 310.066 71.8084 310.317 72.4331L306.853 73.1255L307.547 69.6623Z" fill="white"/>
<path d="M243.723 39.9142C243.189 39.9491 242.763 40.0593 242.444 40.2447C242.13 40.4228 241.864 40.6458 241.646 40.9137C241.322 41.3118 241.1 41.7327 240.98 42.1763C240.858 42.6068 240.83 43.0409 240.895 43.4788C240.953 43.9107 241.095 44.3273 241.322 44.7286C241.555 45.1227 241.863 45.4758 242.247 45.788C242.659 46.1238 243.089 46.3715 243.537 46.5312C243.991 46.6836 244.438 46.7471 244.88 46.7216C245.322 46.6961 245.745 46.583 246.149 46.3823C246.559 46.1743 246.926 45.8713 247.25 45.4731C247.503 45.1618 247.675 44.8025 247.766 44.3951C247.856 43.9745 247.84 43.505 247.721 42.9866L249.443 42.5111C249.638 43.2474 249.641 43.9536 249.452 44.6299C249.263 45.3061 248.938 45.9266 248.479 46.4913C247.996 47.0849 247.457 47.5549 246.862 47.9013C246.266 48.2345 245.647 48.4408 245.005 48.52C244.362 48.5861 243.712 48.5202 243.054 48.3223C242.397 48.1244 241.768 47.781 241.167 47.2921C240.552 46.7914 240.077 46.2365 239.742 45.6273C239.4 45.0122 239.196 44.383 239.13 43.7396C239.07 43.089 239.146 42.441 239.359 41.7955C239.57 41.137 239.917 40.5109 240.4 39.9172C240.824 39.396 241.31 38.9911 241.857 38.7027C242.403 38.4011 243.053 38.2381 243.807 38.2138L243.723 39.9142Z" fill="white"/>
<path d="M251.77 38.1059C251.453 37.6786 251.241 37.237 251.135 36.781C251.031 36.3119 251.019 35.8563 251.098 35.4143C251.177 34.9724 251.346 34.5504 251.606 34.1486C251.865 33.7468 252.198 33.3957 252.602 33.0954C253.007 32.7952 253.439 32.579 253.899 32.4471C254.359 32.3151 254.812 32.2755 255.258 32.3282C255.704 32.381 256.132 32.5279 256.544 32.769C256.957 32.997 257.322 33.3247 257.639 33.752C257.956 34.1792 258.166 34.6274 258.27 35.0965C258.376 35.5525 258.39 36.0016 258.311 36.4435C258.232 36.8855 258.063 37.3074 257.803 37.7093C257.543 38.1111 257.211 38.4622 256.806 38.7625C256.401 39.0627 255.969 39.2789 255.509 39.4108C255.049 39.5428 254.596 39.5824 254.15 39.5297C253.705 39.4769 253.275 39.3365 252.862 39.1085C252.451 38.8674 252.086 38.5332 251.77 38.1059ZM253.119 37.105C253.274 37.3149 253.458 37.4923 253.67 37.6371C253.89 37.7764 254.123 37.871 254.369 37.9208C254.623 37.9651 254.88 37.9599 255.142 37.9053C255.403 37.8507 255.658 37.7316 255.905 37.5481C256.153 37.3646 256.34 37.1556 256.469 36.9211C256.597 36.6865 256.673 36.4443 256.696 36.1942C256.728 35.9387 256.705 35.6884 256.628 35.4435C256.558 35.193 256.445 34.9628 256.29 34.7529C256.134 34.543 255.946 34.3684 255.727 34.2291C255.515 34.0843 255.282 33.9897 255.028 33.9454C254.782 33.8956 254.528 33.898 254.267 33.9526C254.005 34.0072 253.75 34.1263 253.503 34.3098C253.256 34.4933 253.068 34.7023 252.94 34.9368C252.812 35.1714 252.732 35.4164 252.701 35.672C252.677 35.922 252.7 36.1723 252.77 36.4228C252.847 36.6677 252.963 36.8951 253.119 37.105Z" fill="white"/>
<path d="M260.417 28.2221L261.872 27.5656L262.304 28.5227L262.329 28.5111C262.335 28.1605 262.437 27.8074 262.635 27.4518C262.837 27.0839 263.194 26.7848 263.704 26.5544C264.665 26.1206 265.474 26.2112 266.131 26.8263C266.175 26.3351 266.323 25.9254 266.574 25.597C266.822 25.2601 267.175 24.988 267.634 24.7807C268.043 24.5964 268.418 24.509 268.76 24.5184C269.102 24.5278 269.412 24.6132 269.69 24.7746C269.976 24.9322 270.23 25.1553 270.453 25.4441C270.671 25.7243 270.863 26.0473 271.028 26.4131L272.675 30.0626L271.144 30.7537L269.578 27.2828C269.493 27.0956 269.396 26.9247 269.285 26.7699C269.17 26.6066 269.041 26.4803 268.899 26.3911C268.752 26.2934 268.589 26.2389 268.41 26.2276C268.231 26.2163 268.027 26.2625 267.797 26.3661C267.559 26.4736 267.376 26.6126 267.248 26.7829C267.125 26.941 267.042 27.1215 267.001 27.3245C266.964 27.5152 266.964 27.7199 267.001 27.9386C267.043 28.145 267.108 28.346 267.197 28.5416L268.694 31.8594L267.163 32.5505L265.516 28.9009C265.343 28.5181 265.126 28.2526 264.864 28.1043C264.599 27.9476 264.279 27.9537 263.905 28.1226C263.65 28.2378 263.452 28.3782 263.312 28.5439C263.18 28.7058 263.087 28.8859 263.033 29.0842C262.988 29.2788 262.982 29.4811 263.015 29.6913C263.049 29.9015 263.112 30.1087 263.204 30.3129L264.713 33.6562L263.181 34.3472L260.417 28.2221Z" fill="white"/>
<path d="M275.467 22.3707L277.089 21.9337L278.837 28.4223L277.215 28.8594L275.467 22.3707ZM274.643 20.2292C274.573 19.9679 274.607 19.7171 274.745 19.4768C274.89 19.2252 275.111 19.0593 275.408 18.9791C275.706 18.899 275.979 18.9269 276.228 19.0627C276.484 19.1871 276.65 19.389 276.725 19.6684C276.8 19.9477 276.76 20.21 276.603 20.4551C276.454 20.6887 276.23 20.8456 275.933 20.9257C275.635 21.0058 275.362 20.978 275.113 20.8421C274.87 20.6949 274.714 20.4906 274.643 20.2292Z" fill="white"/>
<path d="M283.629 20.4815L285.209 20.2607L285.358 21.3283L285.386 21.3244C285.497 20.9697 285.697 20.6496 285.987 20.3641C286.276 20.0693 286.697 19.8832 287.252 19.8057C287.696 19.7437 288.08 19.7653 288.406 19.8706C288.741 19.9746 289.022 20.1332 289.25 20.3464C289.478 20.5596 289.655 20.8176 289.782 21.1202C289.909 21.4229 289.997 21.7452 290.044 22.0872L290.631 26.2884L288.968 26.5209L288.497 23.1516C288.471 22.9667 288.433 22.7647 288.384 22.5454C288.333 22.3169 288.253 22.1114 288.142 21.9289C288.04 21.7359 287.897 21.5863 287.712 21.4801C287.526 21.3647 287.29 21.327 287.004 21.3671C286.726 21.4058 286.497 21.4849 286.316 21.6045C286.144 21.7228 286.004 21.8695 285.897 22.0447C285.798 22.2187 285.736 22.4112 285.709 22.6223C285.682 22.8334 285.684 23.0499 285.715 23.2717L286.222 26.9044L284.558 27.1369L283.629 20.4815Z" fill="white"/>
<path d="M302.769 19.3967L302.637 25.5132C302.624 26.1198 302.537 26.664 302.378 27.146C302.218 27.6374 301.975 28.0476 301.651 28.3767C301.336 28.7153 300.938 28.9728 300.458 29.1491C299.978 29.3255 299.412 29.4066 298.758 29.3925C298.133 29.379 297.542 29.287 296.986 29.1163C296.429 28.9456 295.918 28.6451 295.451 28.215L296.488 26.865C296.818 27.1802 297.162 27.4257 297.523 27.6015C297.883 27.7773 298.301 27.8703 298.777 27.8806C299.178 27.8892 299.515 27.8405 299.788 27.7343C300.071 27.6284 300.293 27.4792 300.456 27.2866C300.628 27.0943 300.75 26.8589 300.821 26.5804C300.902 26.3114 300.946 26.0089 300.953 25.673L300.964 25.1831L300.936 25.1825C300.686 25.5038 300.359 25.7442 299.954 25.9035C299.549 26.0535 299.137 26.1239 298.717 26.1149C298.213 26.104 297.758 26.0055 297.351 25.8194C296.945 25.6239 296.595 25.369 296.303 25.0546C296.021 24.7404 295.805 24.3717 295.655 23.9484C295.505 23.525 295.436 23.0754 295.446 22.5995C295.457 22.105 295.541 21.6447 295.7 21.2187C295.858 20.7927 296.086 20.4242 296.382 20.1131C296.678 19.8021 297.029 19.5623 297.434 19.3936C297.848 19.2159 298.317 19.1326 298.839 19.1439C299.315 19.1542 299.756 19.257 300.163 19.4525C300.57 19.648 300.89 19.9536 301.123 20.3694L301.151 20.37L301.173 19.3623L302.769 19.3967ZM299.157 20.6631C298.858 20.6566 298.586 20.7021 298.342 20.7995C298.097 20.8876 297.884 21.0184 297.703 21.1919C297.531 21.3562 297.391 21.5632 297.283 21.813C297.185 22.0536 297.132 22.3232 297.126 22.6218C297.12 22.8924 297.161 23.1453 297.25 23.3806C297.347 23.6161 297.483 23.8244 297.656 24.0055C297.83 24.1866 298.037 24.3311 298.277 24.439C298.517 24.5469 298.778 24.6038 299.058 24.6099C299.365 24.6165 299.642 24.5711 299.887 24.4737C300.141 24.3765 300.354 24.2457 300.525 24.0814C300.706 23.9079 300.846 23.7009 300.945 23.4603C301.043 23.2197 301.096 22.9594 301.102 22.6795C301.114 22.0916 300.947 21.6119 300.601 21.2403C300.254 20.8688 299.772 20.6764 299.157 20.6631Z" fill="white"/>
<path d="M321.662 22.0503C321.562 21.7369 321.378 21.4759 321.11 21.2673C320.854 21.0525 320.56 20.8947 320.23 20.7939C320.034 20.734 319.835 20.6978 319.634 20.6853C319.442 20.6754 319.255 20.6965 319.073 20.7484C318.9 20.803 318.745 20.8971 318.606 21.0305C318.471 21.1551 318.37 21.3245 318.305 21.5387C318.207 21.8601 318.244 22.1397 318.415 22.3773C318.587 22.615 318.818 22.8467 319.111 23.0725C319.403 23.2982 319.728 23.529 320.085 23.7649C320.442 24.0007 320.755 24.2717 321.023 24.5778C321.29 24.8838 321.484 25.2405 321.604 25.6478C321.723 26.0551 321.698 26.54 321.526 27.1024C321.371 27.6113 321.141 28.0291 320.836 28.3558C320.535 28.6735 320.185 28.9084 319.787 29.0603C319.398 29.215 318.975 29.2908 318.518 29.2878C318.06 29.2849 317.599 29.2126 317.135 29.071C316.545 28.8913 316.009 28.6202 315.524 28.2577C315.039 27.8952 314.671 27.4219 314.42 26.8379L316.068 25.9939C316.178 26.369 316.371 26.6962 316.647 26.9755C316.934 27.2486 317.266 27.4423 317.64 27.5567C317.837 27.6166 318.041 27.6497 318.254 27.656C318.467 27.6624 318.67 27.6365 318.863 27.5783C319.057 27.5202 319.227 27.4258 319.374 27.2951C319.524 27.1554 319.632 26.9784 319.697 26.7642C319.803 26.416 319.773 26.1141 319.607 25.8586C319.441 25.6031 319.212 25.3624 318.92 25.1367C318.631 24.902 318.307 24.6668 317.95 24.4309C317.592 24.1951 317.278 23.9286 317.008 23.6314C316.74 23.3253 316.545 22.9731 316.423 22.5747C316.303 22.1674 316.329 21.6826 316.501 21.1201C316.65 20.6291 316.878 20.235 317.183 19.9378C317.497 19.6434 317.851 19.4291 318.243 19.295C318.647 19.1547 319.076 19.0905 319.531 19.1024C319.986 19.1144 320.432 19.187 320.87 19.3204C321.37 19.4729 321.829 19.6958 322.246 19.9892C322.673 20.2853 323.021 20.6646 323.29 21.1271L321.662 22.0503Z" fill="white"/>
<path d="M326.147 28.5629C326.404 28.0969 326.718 27.7209 327.088 27.435C327.472 27.1453 327.881 26.9444 328.315 26.8323C328.75 26.7201 329.204 26.6985 329.678 26.7676C330.151 26.8366 330.609 26.9927 331.05 27.2359C331.492 27.4791 331.868 27.7823 332.179 28.1456C332.491 28.5089 332.715 28.9043 332.853 29.3317C332.99 29.7591 333.035 30.2099 332.987 30.6842C332.951 31.1549 332.805 31.6231 332.548 32.0891C332.292 32.5551 331.972 32.9329 331.588 33.2225C331.218 33.5085 330.815 33.7076 330.38 33.8197C329.945 33.9319 329.491 33.9535 329.018 33.8844C328.544 33.8154 328.087 33.6593 327.645 33.4161C327.204 33.1729 326.828 32.8697 326.516 32.5064C326.205 32.143 325.981 31.7477 325.843 31.3203C325.706 30.8929 325.655 30.4439 325.69 29.9733C325.738 29.499 325.891 29.0288 326.147 28.5629ZM327.619 29.3735C327.493 29.6024 327.408 29.8434 327.364 30.0965C327.329 30.3541 327.34 30.6051 327.397 30.8497C327.462 31.0988 327.574 31.3309 327.733 31.5461C327.891 31.7613 328.105 31.9432 328.375 32.0918C328.645 32.2404 328.913 32.3242 329.18 32.3432C329.446 32.3622 329.698 32.3305 329.935 32.248C330.181 32.1701 330.399 32.0451 330.589 31.8731C330.788 31.7056 330.951 31.5074 331.077 31.2785C331.203 31.0496 331.284 30.8063 331.319 30.5488C331.362 30.2957 331.352 30.0446 331.286 29.7955C331.229 29.551 331.121 29.3211 330.963 29.1059C330.804 28.8907 330.59 28.7088 330.321 28.5602C330.051 28.4116 329.783 28.3278 329.516 28.3088C329.249 28.2898 328.993 28.3193 328.748 28.3972C328.511 28.4796 328.293 28.6046 328.094 28.7721C327.903 28.9441 327.745 29.1446 327.619 29.3735Z" fill="white"/>
<path d="M336.299 34.914C336.67 34.5321 337.071 34.252 337.504 34.0737C337.95 33.8953 338.398 33.8092 338.847 33.8155C339.296 33.8218 339.74 33.9206 340.178 34.1119C340.617 34.3032 341.017 34.5742 341.379 34.9251C341.741 35.276 342.024 35.6676 342.228 36.1001C342.433 36.5326 342.545 36.9731 342.566 37.4216C342.586 37.8701 342.51 38.3168 342.339 38.7617C342.18 39.2064 341.916 39.6196 341.546 40.0016C341.175 40.3835 340.767 40.6637 340.321 40.8421C339.888 41.0204 339.447 41.1064 338.998 41.1001C338.549 41.0938 338.106 40.995 337.667 40.8037C337.229 40.6124 336.828 40.3414 336.467 39.9905C336.105 39.6396 335.822 39.2479 335.617 38.8155C335.412 38.383 335.3 37.9425 335.28 37.494C335.26 37.0454 335.329 36.5988 335.487 36.1542C335.658 35.7093 335.929 35.2959 336.299 34.914ZM337.506 36.0836C337.324 36.2712 337.178 36.4813 337.07 36.714C336.968 36.9532 336.912 37.1983 336.903 37.4492C336.9 37.7067 336.947 37.9601 337.043 38.2094C337.139 38.4587 337.298 38.6906 337.519 38.905C337.74 39.1195 337.977 39.2709 338.229 39.3595C338.481 39.448 338.733 39.4837 338.983 39.4667C339.24 39.4561 339.484 39.393 339.713 39.2773C339.949 39.168 340.158 39.0196 340.34 38.832C340.522 38.6444 340.664 38.431 340.766 38.1918C340.874 37.9591 340.93 37.7141 340.932 37.4566C340.942 37.2057 340.898 36.9555 340.802 36.7062C340.706 36.4568 340.547 36.225 340.326 36.0105C340.105 35.7961 339.868 35.6446 339.616 35.5561C339.364 35.4676 339.109 35.4286 338.852 35.4391C338.601 35.4562 338.358 35.5193 338.122 35.6286C337.893 35.7443 337.687 35.896 337.506 36.0836Z" fill="white"/>
<path d="M347.481 41.4974L348.464 42.7545L347.615 43.4187L347.632 43.4408C347.994 43.3587 348.372 43.3716 348.764 43.4794C349.164 43.5814 349.536 43.853 349.881 44.2941C350.157 44.6469 350.332 44.9907 350.404 45.3253C350.482 45.6672 350.485 45.9902 350.415 46.294C350.345 46.5979 350.21 46.8807 350.012 47.1424C349.814 47.4041 349.579 47.6413 349.307 47.8541L345.966 50.4677L344.93 49.1444L347.61 47.0484C347.757 46.9333 347.913 46.7995 348.078 46.6468C348.25 46.4883 348.388 46.3156 348.49 46.1287C348.606 45.9434 348.664 45.7443 348.663 45.5315C348.67 45.3129 348.584 45.0896 348.406 44.8617C348.233 44.6412 348.05 44.4825 347.856 44.3856C347.667 44.2961 347.47 44.2488 347.265 44.2436C347.065 44.2458 346.867 44.2881 346.671 44.3705C346.474 44.4529 346.288 44.5631 346.112 44.7011L343.223 46.961L342.187 45.6378L347.481 41.4974Z" fill="white"/>
<path d="M229.309 13.8567L225.253 16.1698L220.857 14.5962L223.17 18.6527L221.596 23.0492L225.653 20.736L230.049 22.3096L227.736 18.2532L229.309 13.8567Z" fill="white"/>
</svg>
