<svg width="351" height="175" viewBox="0 0 351 175" fill="none" xmlns="http://www.w3.org/2000/svg">
<rect width="351" height="175" rx="16" fill="#3C782D"/>
<path d="M104.167 103.088H106.855L109.501 110.032L112.175 103.088H114.835V113H113.155V104.768H113.127L110.117 113H108.885L105.875 104.768H105.847V113H104.167V103.088ZM121.131 112.076H121.089C120.847 112.459 120.539 112.739 120.165 112.916C119.792 113.084 119.381 113.168 118.933 113.168C118.625 113.168 118.322 113.126 118.023 113.042C117.734 112.958 117.473 112.832 117.239 112.664C117.015 112.496 116.833 112.286 116.693 112.034C116.553 111.782 116.483 111.488 116.483 111.152C116.483 110.788 116.549 110.48 116.679 110.228C116.81 109.967 116.983 109.752 117.197 109.584C117.421 109.407 117.678 109.267 117.967 109.164C118.257 109.061 118.555 108.987 118.863 108.94C119.181 108.884 119.498 108.851 119.815 108.842C120.133 108.823 120.431 108.814 120.711 108.814H121.131V108.632C121.131 108.212 120.987 107.899 120.697 107.694C120.408 107.479 120.039 107.372 119.591 107.372C119.237 107.372 118.905 107.437 118.597 107.568C118.289 107.689 118.023 107.857 117.799 108.072L116.917 107.19C117.291 106.807 117.725 106.532 118.219 106.364C118.723 106.196 119.241 106.112 119.773 106.112C120.249 106.112 120.651 106.168 120.977 106.28C121.304 106.383 121.575 106.518 121.789 106.686C122.004 106.854 122.167 107.05 122.279 107.274C122.401 107.489 122.485 107.708 122.531 107.932C122.587 108.156 122.62 108.375 122.629 108.59C122.639 108.795 122.643 108.977 122.643 109.136V113H121.131V112.076ZM121.033 109.99H120.683C120.45 109.99 120.189 109.999 119.899 110.018C119.61 110.037 119.335 110.083 119.073 110.158C118.821 110.223 118.607 110.326 118.429 110.466C118.252 110.597 118.163 110.783 118.163 111.026C118.163 111.185 118.196 111.32 118.261 111.432C118.336 111.535 118.429 111.623 118.541 111.698C118.653 111.773 118.779 111.829 118.919 111.866C119.059 111.894 119.199 111.908 119.339 111.908C119.918 111.908 120.343 111.773 120.613 111.502C120.893 111.222 121.033 110.844 121.033 110.368V109.99ZM124.451 102.416H126.131V109.066L128.721 106.28H130.877L127.993 109.332L131.059 113H128.833L126.159 109.57H126.131V113H124.451V102.416ZM133.315 110.228C133.371 110.732 133.567 111.124 133.903 111.404C134.239 111.684 134.645 111.824 135.121 111.824C135.541 111.824 135.891 111.74 136.171 111.572C136.46 111.395 136.712 111.175 136.927 110.914L138.131 111.824C137.739 112.309 137.3 112.655 136.815 112.86C136.329 113.065 135.821 113.168 135.289 113.168C134.785 113.168 134.309 113.084 133.861 112.916C133.413 112.748 133.025 112.51 132.699 112.202C132.372 111.894 132.111 111.525 131.915 111.096C131.728 110.657 131.635 110.172 131.635 109.64C131.635 109.108 131.728 108.627 131.915 108.198C132.111 107.759 132.372 107.386 132.699 107.078C133.025 106.77 133.413 106.532 133.861 106.364C134.309 106.196 134.785 106.112 135.289 106.112C135.755 106.112 136.18 106.196 136.563 106.364C136.955 106.523 137.286 106.756 137.557 107.064C137.837 107.372 138.051 107.755 138.201 108.212C138.359 108.66 138.439 109.178 138.439 109.766V110.228H133.315ZM136.759 108.968C136.749 108.473 136.595 108.086 136.297 107.806C135.998 107.517 135.583 107.372 135.051 107.372C134.547 107.372 134.145 107.517 133.847 107.806C133.557 108.095 133.38 108.483 133.315 108.968H136.759ZM151.236 110.662L153.378 113H151.208L150.158 111.866C149.757 112.342 149.328 112.692 148.87 112.916C148.413 113.14 147.867 113.252 147.232 113.252C146.794 113.252 146.369 113.187 145.958 113.056C145.557 112.935 145.202 112.753 144.894 112.51C144.586 112.258 144.339 111.955 144.152 111.6C143.966 111.236 143.872 110.816 143.872 110.34C143.872 110.004 143.928 109.696 144.04 109.416C144.152 109.127 144.302 108.865 144.488 108.632C144.684 108.389 144.913 108.179 145.174 108.002C145.436 107.815 145.716 107.666 146.014 107.554C145.856 107.377 145.706 107.204 145.566 107.036C145.436 106.868 145.319 106.695 145.216 106.518C145.114 106.341 145.03 106.149 144.964 105.944C144.908 105.739 144.88 105.515 144.88 105.272C144.88 104.871 144.955 104.516 145.104 104.208C145.263 103.9 145.473 103.648 145.734 103.452C145.996 103.247 146.299 103.093 146.644 102.99C146.99 102.887 147.349 102.836 147.722 102.836C148.096 102.836 148.45 102.883 148.786 102.976C149.122 103.069 149.416 103.214 149.668 103.41C149.93 103.597 150.135 103.839 150.284 104.138C150.443 104.437 150.522 104.787 150.522 105.188C150.522 105.496 150.466 105.781 150.354 106.042C150.242 106.294 150.093 106.527 149.906 106.742C149.72 106.947 149.505 107.139 149.262 107.316C149.029 107.484 148.791 107.629 148.548 107.75L150.144 109.472L151.25 107.792H153.224L151.236 110.662ZM147.75 104.348C147.424 104.348 147.144 104.441 146.91 104.628C146.677 104.805 146.56 105.043 146.56 105.342C146.56 105.473 146.588 105.603 146.644 105.734C146.7 105.855 146.775 105.981 146.868 106.112C146.962 106.233 147.06 106.35 147.162 106.462C147.274 106.574 147.386 106.681 147.498 106.784C147.638 106.709 147.788 106.625 147.946 106.532C148.105 106.429 148.25 106.317 148.38 106.196C148.52 106.065 148.632 105.925 148.716 105.776C148.8 105.627 148.842 105.459 148.842 105.272C148.842 105.001 148.735 104.782 148.52 104.614C148.306 104.437 148.049 104.348 147.75 104.348ZM147.078 108.548C146.91 108.651 146.747 108.758 146.588 108.87C146.43 108.973 146.285 109.089 146.154 109.22C146.024 109.351 145.916 109.5 145.832 109.668C145.758 109.836 145.72 110.027 145.72 110.242C145.72 110.457 145.762 110.657 145.846 110.844C145.93 111.031 146.042 111.189 146.182 111.32C146.332 111.451 146.5 111.553 146.686 111.628C146.873 111.703 147.074 111.74 147.288 111.74C147.671 111.74 148.007 111.637 148.296 111.432C148.586 111.227 148.856 111.003 149.108 110.76L147.078 108.548ZM163.684 105.216C163.497 104.945 163.245 104.749 162.928 104.628C162.62 104.497 162.293 104.432 161.948 104.432C161.742 104.432 161.542 104.455 161.346 104.502C161.159 104.549 160.986 104.623 160.828 104.726C160.678 104.829 160.557 104.964 160.464 105.132C160.37 105.291 160.324 105.482 160.324 105.706C160.324 106.042 160.44 106.299 160.674 106.476C160.907 106.653 161.196 106.807 161.542 106.938C161.887 107.069 162.265 107.195 162.676 107.316C163.086 107.437 163.464 107.605 163.81 107.82C164.155 108.035 164.444 108.319 164.678 108.674C164.911 109.029 165.028 109.5 165.028 110.088C165.028 110.62 164.93 111.087 164.734 111.488C164.538 111.88 164.272 112.207 163.936 112.468C163.609 112.729 163.226 112.925 162.788 113.056C162.349 113.187 161.887 113.252 161.402 113.252C160.786 113.252 160.193 113.149 159.624 112.944C159.054 112.739 158.564 112.393 158.154 111.908L159.484 110.62C159.698 110.947 159.978 111.203 160.324 111.39C160.678 111.567 161.052 111.656 161.444 111.656C161.649 111.656 161.854 111.628 162.06 111.572C162.265 111.516 162.452 111.432 162.62 111.32C162.788 111.208 162.923 111.068 163.026 110.9C163.128 110.723 163.18 110.522 163.18 110.298C163.18 109.934 163.063 109.654 162.83 109.458C162.596 109.262 162.307 109.099 161.962 108.968C161.616 108.828 161.238 108.697 160.828 108.576C160.417 108.455 160.039 108.291 159.694 108.086C159.348 107.871 159.059 107.591 158.826 107.246C158.592 106.891 158.476 106.42 158.476 105.832C158.476 105.319 158.578 104.875 158.784 104.502C158.998 104.129 159.274 103.821 159.61 103.578C159.955 103.326 160.347 103.139 160.786 103.018C161.224 102.897 161.672 102.836 162.13 102.836C162.652 102.836 163.156 102.915 163.642 103.074C164.136 103.233 164.58 103.494 164.972 103.858L163.684 105.216ZM166.739 106.28H168.419V113H166.739V106.28ZM166.501 103.998C166.501 103.727 166.599 103.494 166.795 103.298C167 103.093 167.257 102.99 167.565 102.99C167.873 102.99 168.129 103.088 168.335 103.284C168.549 103.471 168.657 103.709 168.657 103.998C168.657 104.287 168.549 104.53 168.335 104.726C168.129 104.913 167.873 105.006 167.565 105.006C167.257 105.006 167 104.908 166.795 104.712C166.599 104.507 166.501 104.269 166.501 103.998ZM177.264 106.28V112.398C177.264 113.005 177.189 113.551 177.04 114.036C176.89 114.531 176.657 114.946 176.34 115.282C176.032 115.627 175.64 115.893 175.164 116.08C174.688 116.267 174.123 116.36 173.47 116.36C172.844 116.36 172.252 116.281 171.692 116.122C171.132 115.963 170.614 115.674 170.138 115.254L171.146 113.882C171.482 114.19 171.832 114.428 172.196 114.596C172.56 114.764 172.98 114.848 173.456 114.848C173.857 114.848 174.193 114.792 174.464 114.68C174.744 114.568 174.963 114.414 175.122 114.218C175.29 114.022 175.406 113.784 175.472 113.504C175.546 113.233 175.584 112.93 175.584 112.594V112.104H175.556C175.313 112.431 174.991 112.678 174.59 112.846C174.188 113.005 173.778 113.084 173.358 113.084C172.854 113.084 172.396 112.995 171.986 112.818C171.575 112.631 171.22 112.384 170.922 112.076C170.632 111.768 170.408 111.404 170.25 110.984C170.091 110.564 170.012 110.116 170.012 109.64C170.012 109.145 170.086 108.683 170.236 108.254C170.385 107.825 170.604 107.451 170.894 107.134C171.183 106.817 171.528 106.569 171.93 106.392C172.34 106.205 172.807 106.112 173.33 106.112C173.806 106.112 174.249 106.205 174.66 106.392C175.07 106.579 175.397 106.877 175.64 107.288H175.668V106.28H177.264ZM173.68 107.624C173.381 107.624 173.11 107.675 172.868 107.778C172.625 107.871 172.415 108.007 172.238 108.184C172.07 108.352 171.934 108.562 171.832 108.814C171.738 109.057 171.692 109.327 171.692 109.626C171.692 109.897 171.738 110.149 171.832 110.382C171.934 110.615 172.074 110.821 172.252 110.998C172.429 111.175 172.639 111.315 172.882 111.418C173.124 111.521 173.386 111.572 173.666 111.572C173.974 111.572 174.249 111.521 174.492 111.418C174.744 111.315 174.954 111.18 175.122 111.012C175.299 110.835 175.434 110.625 175.528 110.382C175.621 110.139 175.668 109.878 175.668 109.598C175.668 109.01 175.49 108.534 175.136 108.17C174.781 107.806 174.296 107.624 173.68 107.624ZM179.166 106.28H180.762V107.358H180.79C180.949 107.022 181.191 106.733 181.518 106.49C181.845 106.238 182.288 106.112 182.848 106.112C183.296 106.112 183.674 106.187 183.982 106.336C184.299 106.485 184.556 106.681 184.752 106.924C184.948 107.167 185.088 107.447 185.172 107.764C185.256 108.081 185.298 108.413 185.298 108.758V113H183.618V109.598C183.618 109.411 183.609 109.206 183.59 108.982C183.571 108.749 183.52 108.534 183.436 108.338C183.361 108.133 183.24 107.965 183.072 107.834C182.904 107.694 182.675 107.624 182.386 107.624C182.106 107.624 181.868 107.671 181.672 107.764C181.485 107.857 181.327 107.983 181.196 108.142C181.075 108.301 180.986 108.483 180.93 108.688C180.874 108.893 180.846 109.108 180.846 109.332V113H179.166V106.28ZM191.502 103.088H194.834C195.31 103.088 195.767 103.135 196.206 103.228C196.654 103.321 197.046 103.48 197.382 103.704C197.718 103.919 197.984 104.213 198.18 104.586C198.385 104.95 198.488 105.407 198.488 105.958C198.488 106.583 198.38 107.087 198.166 107.47C197.951 107.853 197.662 108.151 197.298 108.366C196.934 108.571 196.509 108.711 196.024 108.786C195.548 108.861 195.048 108.898 194.526 108.898H193.266V113H191.502V103.088ZM194.33 107.386C194.582 107.386 194.843 107.377 195.114 107.358C195.384 107.339 195.632 107.283 195.856 107.19C196.089 107.097 196.276 106.957 196.416 106.77C196.565 106.583 196.64 106.322 196.64 105.986C196.64 105.678 196.574 105.435 196.444 105.258C196.313 105.071 196.145 104.931 195.94 104.838C195.734 104.735 195.506 104.67 195.254 104.642C195.002 104.614 194.759 104.6 194.526 104.6H193.266V107.386H194.33ZM201.25 110.228C201.306 110.732 201.502 111.124 201.838 111.404C202.174 111.684 202.58 111.824 203.056 111.824C203.476 111.824 203.826 111.74 204.106 111.572C204.395 111.395 204.647 111.175 204.862 110.914L206.066 111.824C205.674 112.309 205.235 112.655 204.75 112.86C204.265 113.065 203.756 113.168 203.224 113.168C202.72 113.168 202.244 113.084 201.796 112.916C201.348 112.748 200.961 112.51 200.634 112.202C200.307 111.894 200.046 111.525 199.85 111.096C199.663 110.657 199.57 110.172 199.57 109.64C199.57 109.108 199.663 108.627 199.85 108.198C200.046 107.759 200.307 107.386 200.634 107.078C200.961 106.77 201.348 106.532 201.796 106.364C202.244 106.196 202.72 106.112 203.224 106.112C203.691 106.112 204.115 106.196 204.498 106.364C204.89 106.523 205.221 106.756 205.492 107.064C205.772 107.372 205.987 107.755 206.136 108.212C206.295 108.66 206.374 109.178 206.374 109.766V110.228H201.25ZM204.694 108.968C204.685 108.473 204.531 108.086 204.232 107.806C203.933 107.517 203.518 107.372 202.986 107.372C202.482 107.372 202.081 107.517 201.782 107.806C201.493 108.095 201.315 108.483 201.25 108.968H204.694ZM207.161 107.708V106.28H208.547V104.334H210.227V106.28H212.075V107.708H210.227V110.648C210.227 110.984 210.288 111.25 210.409 111.446C210.54 111.642 210.792 111.74 211.165 111.74C211.314 111.74 211.478 111.726 211.655 111.698C211.832 111.661 211.972 111.605 212.075 111.53V112.944C211.898 113.028 211.678 113.084 211.417 113.112C211.165 113.149 210.941 113.168 210.745 113.168C210.297 113.168 209.928 113.117 209.639 113.014C209.359 112.921 209.135 112.776 208.967 112.58C208.808 112.375 208.696 112.123 208.631 111.824C208.575 111.525 208.547 111.18 208.547 110.788V107.708H207.161ZM213.428 106.28H215.108V113H213.428V106.28ZM213.19 103.998C213.19 103.727 213.288 103.494 213.484 103.298C213.69 103.093 213.946 102.99 214.254 102.99C214.562 102.99 214.819 103.088 215.024 103.284C215.239 103.471 215.346 103.709 215.346 103.998C215.346 104.287 215.239 104.53 215.024 104.726C214.819 104.913 214.562 105.006 214.254 105.006C213.946 105.006 213.69 104.908 213.484 104.712C213.288 104.507 213.19 104.269 213.19 103.998ZM216.253 107.708V106.28H217.639V104.334H219.319V106.28H221.167V107.708H219.319V110.648C219.319 110.984 219.38 111.25 219.501 111.446C219.632 111.642 219.884 111.74 220.257 111.74C220.406 111.74 220.57 111.726 220.747 111.698C220.924 111.661 221.064 111.605 221.167 111.53V112.944C220.99 113.028 220.77 113.084 220.509 113.112C220.257 113.149 220.033 113.168 219.837 113.168C219.389 113.168 219.02 113.117 218.731 113.014C218.451 112.921 218.227 112.776 218.059 112.58C217.9 112.375 217.788 112.123 217.723 111.824C217.667 111.525 217.639 111.18 217.639 110.788V107.708H216.253ZM222.52 106.28H224.2V113H222.52V106.28ZM222.282 103.998C222.282 103.727 222.38 103.494 222.576 103.298C222.781 103.093 223.038 102.99 223.346 102.99C223.654 102.99 223.911 103.088 224.116 103.284C224.331 103.471 224.438 103.709 224.438 103.998C224.438 104.287 224.331 104.53 224.116 104.726C223.911 104.913 223.654 105.006 223.346 105.006C223.038 105.006 222.781 104.908 222.576 104.712C222.38 104.507 222.282 104.269 222.282 103.998ZM225.793 109.64C225.793 109.108 225.886 108.627 226.073 108.198C226.269 107.759 226.53 107.386 226.857 107.078C227.183 106.77 227.571 106.532 228.019 106.364C228.467 106.196 228.943 106.112 229.447 106.112C229.951 106.112 230.427 106.196 230.875 106.364C231.323 106.532 231.71 106.77 232.037 107.078C232.363 107.386 232.62 107.759 232.807 108.198C233.003 108.627 233.101 109.108 233.101 109.64C233.101 110.172 233.003 110.657 232.807 111.096C232.62 111.525 232.363 111.894 232.037 112.202C231.71 112.51 231.323 112.748 230.875 112.916C230.427 113.084 229.951 113.168 229.447 113.168C228.943 113.168 228.467 113.084 228.019 112.916C227.571 112.748 227.183 112.51 226.857 112.202C226.53 111.894 226.269 111.525 226.073 111.096C225.886 110.657 225.793 110.172 225.793 109.64ZM227.473 109.64C227.473 109.901 227.515 110.153 227.599 110.396C227.692 110.639 227.823 110.853 227.991 111.04C228.168 111.227 228.378 111.376 228.621 111.488C228.863 111.6 229.139 111.656 229.447 111.656C229.755 111.656 230.03 111.6 230.273 111.488C230.515 111.376 230.721 111.227 230.889 111.04C231.066 110.853 231.197 110.639 231.281 110.396C231.374 110.153 231.421 109.901 231.421 109.64C231.421 109.379 231.374 109.127 231.281 108.884C231.197 108.641 231.066 108.427 230.889 108.24C230.721 108.053 230.515 107.904 230.273 107.792C230.03 107.68 229.755 107.624 229.447 107.624C229.139 107.624 228.863 107.68 228.621 107.792C228.378 107.904 228.168 108.053 227.991 108.24C227.823 108.427 227.692 108.641 227.599 108.884C227.515 109.127 227.473 109.379 227.473 109.64ZM234.674 106.28H236.27V107.358H236.298C236.456 107.022 236.699 106.733 237.026 106.49C237.352 106.238 237.796 106.112 238.356 106.112C238.804 106.112 239.182 106.187 239.49 106.336C239.807 106.485 240.064 106.681 240.26 106.924C240.456 107.167 240.596 107.447 240.68 107.764C240.764 108.081 240.806 108.413 240.806 108.758V113H239.126V109.598C239.126 109.411 239.116 109.206 239.098 108.982C239.079 108.749 239.028 108.534 238.944 108.338C238.869 108.133 238.748 107.965 238.58 107.834C238.412 107.694 238.183 107.624 237.894 107.624C237.614 107.624 237.376 107.671 237.18 107.764C236.993 107.857 236.834 107.983 236.704 108.142C236.582 108.301 236.494 108.483 236.438 108.688C236.382 108.893 236.354 109.108 236.354 109.332V113H234.674V106.28ZM246.297 108.142C245.97 107.685 245.531 107.456 244.981 107.456C244.757 107.456 244.537 107.512 244.323 107.624C244.108 107.736 244.001 107.918 244.001 108.17C244.001 108.375 244.089 108.525 244.267 108.618C244.444 108.711 244.668 108.791 244.939 108.856C245.209 108.921 245.499 108.991 245.807 109.066C246.124 109.131 246.418 109.239 246.689 109.388C246.959 109.528 247.183 109.724 247.361 109.976C247.538 110.228 247.627 110.573 247.627 111.012C247.627 111.413 247.538 111.754 247.361 112.034C247.193 112.305 246.969 112.524 246.689 112.692C246.418 112.86 246.11 112.981 245.765 113.056C245.419 113.131 245.074 113.168 244.729 113.168C244.206 113.168 243.725 113.093 243.287 112.944C242.848 112.795 242.456 112.524 242.111 112.132L243.231 111.082C243.445 111.325 243.674 111.525 243.917 111.684C244.169 111.833 244.472 111.908 244.827 111.908C244.948 111.908 245.074 111.894 245.205 111.866C245.335 111.838 245.457 111.791 245.569 111.726C245.681 111.661 245.769 111.581 245.835 111.488C245.909 111.385 245.947 111.269 245.947 111.138C245.947 110.905 245.858 110.732 245.681 110.62C245.503 110.508 245.279 110.419 245.009 110.354C244.738 110.279 244.444 110.214 244.127 110.158C243.819 110.093 243.529 109.995 243.259 109.864C242.988 109.724 242.764 109.533 242.587 109.29C242.409 109.047 242.321 108.711 242.321 108.282C242.321 107.909 242.395 107.587 242.545 107.316C242.703 107.036 242.909 106.807 243.161 106.63C243.413 106.453 243.702 106.322 244.029 106.238C244.355 106.154 244.687 106.112 245.023 106.112C245.471 106.112 245.914 106.191 246.353 106.35C246.791 106.499 247.146 106.761 247.417 107.134L246.297 108.142Z" fill="white"/>
<rect x="111.5" y="130.5" width="127" height="26" rx="7.5" fill="white"/>
<path d="M128.232 138.088H129.408V146.908H133.944V148H128.232V138.088ZM140.888 146.81C140.496 147.314 140.067 147.669 139.6 147.874C139.133 148.07 138.592 148.168 137.976 148.168C137.463 148.168 137.001 148.079 136.59 147.902C136.179 147.715 135.829 147.468 135.54 147.16C135.26 146.852 135.041 146.488 134.882 146.068C134.733 145.648 134.658 145.2 134.658 144.724C134.658 144.22 134.742 143.758 134.91 143.338C135.078 142.909 135.311 142.545 135.61 142.246C135.909 141.938 136.263 141.7 136.674 141.532C137.085 141.364 137.533 141.28 138.018 141.28C138.475 141.28 138.895 141.359 139.278 141.518C139.661 141.667 139.987 141.891 140.258 142.19C140.538 142.479 140.753 142.839 140.902 143.268C141.051 143.688 141.126 144.169 141.126 144.71V145.06H135.834C135.853 145.34 135.918 145.611 136.03 145.872C136.151 146.124 136.305 146.348 136.492 146.544C136.679 146.731 136.898 146.88 137.15 146.992C137.402 147.104 137.677 147.16 137.976 147.16C138.452 147.16 138.853 147.076 139.18 146.908C139.507 146.74 139.801 146.493 140.062 146.166L140.888 146.81ZM139.95 144.136C139.931 143.576 139.749 143.128 139.404 142.792C139.059 142.456 138.583 142.288 137.976 142.288C137.369 142.288 136.879 142.456 136.506 142.792C136.133 143.128 135.909 143.576 135.834 144.136H139.95ZM142.731 142.288C143.067 141.943 143.464 141.691 143.921 141.532C144.388 141.364 144.859 141.28 145.335 141.28C146.306 141.28 147.006 141.509 147.435 141.966C147.865 142.423 148.079 143.119 148.079 144.052V146.866C148.079 147.053 148.089 147.249 148.107 147.454C148.126 147.65 148.149 147.832 148.177 148H147.127C147.09 147.851 147.067 147.687 147.057 147.51C147.057 147.323 147.057 147.16 147.057 147.02H147.029C146.815 147.356 146.525 147.631 146.161 147.846C145.807 148.061 145.377 148.168 144.873 148.168C144.537 148.168 144.22 148.126 143.921 148.042C143.632 147.958 143.375 147.837 143.151 147.678C142.937 147.51 142.764 147.305 142.633 147.062C142.503 146.819 142.437 146.539 142.437 146.222C142.437 145.681 142.577 145.256 142.857 144.948C143.137 144.64 143.483 144.411 143.893 144.262C144.313 144.113 144.761 144.019 145.237 143.982C145.723 143.945 146.166 143.926 146.567 143.926H146.987V143.73C146.987 143.254 146.843 142.895 146.553 142.652C146.273 142.409 145.877 142.288 145.363 142.288C145.009 142.288 144.659 142.349 144.313 142.47C143.977 142.582 143.679 142.759 143.417 143.002L142.731 142.288ZM145.895 144.85C145.195 144.85 144.64 144.948 144.229 145.144C143.819 145.34 143.613 145.662 143.613 146.11C143.613 146.521 143.749 146.815 144.019 146.992C144.299 147.16 144.645 147.244 145.055 147.244C145.373 147.244 145.648 147.193 145.881 147.09C146.124 146.978 146.325 146.833 146.483 146.656C146.642 146.479 146.763 146.273 146.847 146.04C146.931 145.797 146.978 145.541 146.987 145.27V144.85H145.895ZM150.075 143.002C150.075 142.703 150.066 142.423 150.047 142.162C150.028 141.901 150.019 141.663 150.019 141.448H151.055C151.055 141.625 151.06 141.803 151.069 141.98C151.078 142.157 151.083 142.339 151.083 142.526H151.111C151.186 142.367 151.288 142.213 151.419 142.064C151.559 141.915 151.722 141.784 151.909 141.672C152.096 141.551 152.306 141.457 152.539 141.392C152.772 141.317 153.024 141.28 153.295 141.28C153.37 141.28 153.444 141.285 153.519 141.294C153.594 141.303 153.668 141.322 153.743 141.35L153.673 142.456C153.486 142.4 153.29 142.372 153.085 142.372C152.413 142.372 151.923 142.591 151.615 143.03C151.316 143.459 151.167 144.052 151.167 144.808V148H150.075V143.002ZM154.997 143.002C154.997 142.703 154.988 142.423 154.969 142.162C154.95 141.901 154.941 141.663 154.941 141.448H155.977C155.977 141.625 155.982 141.803 155.991 141.98C156 142.157 156.005 142.339 156.005 142.526H156.033C156.108 142.367 156.21 142.213 156.341 142.064C156.481 141.915 156.644 141.784 156.831 141.672C157.018 141.551 157.228 141.457 157.461 141.392C157.694 141.317 157.946 141.28 158.217 141.28C158.646 141.28 159.015 141.345 159.323 141.476C159.64 141.607 159.902 141.789 160.107 142.022C160.312 142.255 160.462 142.54 160.555 142.876C160.658 143.203 160.709 143.562 160.709 143.954V148H159.617V144.066C159.617 143.515 159.496 143.081 159.253 142.764C159.01 142.447 158.632 142.288 158.119 142.288C157.764 142.288 157.456 142.349 157.195 142.47C156.943 142.591 156.733 142.764 156.565 142.988C156.406 143.212 156.285 143.478 156.201 143.786C156.126 144.094 156.089 144.435 156.089 144.808V148H154.997V143.002ZM166.869 138.088H168.619L171.979 145.858H172.007L175.395 138.088H177.103V148H175.927V139.684H175.899L172.343 148H171.629L168.073 139.684H168.045V148H166.869V138.088ZM178.996 144.724C178.996 144.211 179.085 143.744 179.262 143.324C179.439 142.904 179.682 142.545 179.99 142.246C180.298 141.938 180.667 141.7 181.096 141.532C181.525 141.364 181.992 141.28 182.496 141.28C183 141.28 183.467 141.364 183.896 141.532C184.325 141.7 184.694 141.938 185.002 142.246C185.31 142.545 185.553 142.904 185.73 143.324C185.907 143.744 185.996 144.211 185.996 144.724C185.996 145.237 185.907 145.704 185.73 146.124C185.553 146.544 185.31 146.908 185.002 147.216C184.694 147.515 184.325 147.748 183.896 147.916C183.467 148.084 183 148.168 182.496 148.168C181.992 148.168 181.525 148.084 181.096 147.916C180.667 147.748 180.298 147.515 179.99 147.216C179.682 146.908 179.439 146.544 179.262 146.124C179.085 145.704 178.996 145.237 178.996 144.724ZM180.172 144.724C180.172 145.069 180.223 145.391 180.326 145.69C180.438 145.979 180.597 146.236 180.802 146.46C181.007 146.675 181.25 146.847 181.53 146.978C181.819 147.099 182.141 147.16 182.496 147.16C182.851 147.16 183.168 147.099 183.448 146.978C183.737 146.847 183.985 146.675 184.19 146.46C184.395 146.236 184.549 145.979 184.652 145.69C184.764 145.391 184.82 145.069 184.82 144.724C184.82 144.379 184.764 144.061 184.652 143.772C184.549 143.473 184.395 143.217 184.19 143.002C183.985 142.778 183.737 142.605 183.448 142.484C183.168 142.353 182.851 142.288 182.496 142.288C182.141 142.288 181.819 142.353 181.53 142.484C181.25 142.605 181.007 142.778 180.802 143.002C180.597 143.217 180.438 143.473 180.326 143.772C180.223 144.061 180.172 144.379 180.172 144.724ZM187.686 143.002C187.686 142.703 187.677 142.423 187.658 142.162C187.64 141.901 187.63 141.663 187.63 141.448H188.666C188.666 141.625 188.671 141.803 188.68 141.98C188.69 142.157 188.694 142.339 188.694 142.526H188.722C188.797 142.367 188.9 142.213 189.03 142.064C189.17 141.915 189.334 141.784 189.52 141.672C189.707 141.551 189.917 141.457 190.15 141.392C190.384 141.317 190.636 141.28 190.906 141.28C190.981 141.28 191.056 141.285 191.13 141.294C191.205 141.303 191.28 141.322 191.354 141.35L191.284 142.456C191.098 142.4 190.902 142.372 190.696 142.372C190.024 142.372 189.534 142.591 189.226 143.03C188.928 143.459 188.778 144.052 188.778 144.808V148H187.686V143.002ZM198.214 146.81C197.822 147.314 197.393 147.669 196.926 147.874C196.46 148.07 195.918 148.168 195.302 148.168C194.789 148.168 194.327 148.079 193.916 147.902C193.506 147.715 193.156 147.468 192.866 147.16C192.586 146.852 192.367 146.488 192.208 146.068C192.059 145.648 191.984 145.2 191.984 144.724C191.984 144.22 192.068 143.758 192.236 143.338C192.404 142.909 192.638 142.545 192.936 142.246C193.235 141.938 193.59 141.7 194 141.532C194.411 141.364 194.859 141.28 195.344 141.28C195.802 141.28 196.222 141.359 196.604 141.518C196.987 141.667 197.314 141.891 197.584 142.19C197.864 142.479 198.079 142.839 198.228 143.268C198.378 143.688 198.452 144.169 198.452 144.71V145.06H193.16C193.179 145.34 193.244 145.611 193.356 145.872C193.478 146.124 193.632 146.348 193.818 146.544C194.005 146.731 194.224 146.88 194.476 146.992C194.728 147.104 195.004 147.16 195.302 147.16C195.778 147.16 196.18 147.076 196.506 146.908C196.833 146.74 197.127 146.493 197.388 146.166L198.214 146.81ZM197.276 144.136C197.258 143.576 197.076 143.128 196.73 142.792C196.385 142.456 195.909 142.288 195.302 142.288C194.696 142.288 194.206 142.456 193.832 142.792C193.459 143.128 193.235 143.576 193.16 144.136H197.276Z" fill="#1E0964"/>
<path d="M213.5 137.167L212.384 138.283L216.801 142.708H207.167V144.292H216.801L212.384 148.717L213.5 149.833L219.833 143.5L213.5 137.167Z" fill="#1E0964"/>
<rect x="111.5" y="130.5" width="127" height="26" rx="7.5" stroke="white"/>
<path d="M184.175 39.7625L169.3 24.8875C168.875 24.4625 168.45 24.25 167.812 24.25H146.562C144.225 24.25 142.312 26.1625 142.312 28.5V79.5C142.312 81.8375 144.225 83.75 146.562 83.75H180.562C182.9 83.75 184.812 81.8375 184.812 79.5V41.25C184.812 40.6125 184.6 40.1875 184.175 39.7625ZM167.812 29.35L179.713 41.25H167.812V29.35ZM180.562 79.5H146.562V28.5H163.562V41.25C163.562 43.5875 165.475 45.5 167.812 45.5H180.562V79.5Z" fill="white"/>
<path d="M150.812 66.75H176.312V71H150.812V66.75Z" fill="white"/>
<path d="M150.812 54H176.312V58.25H150.812V54Z" fill="white"/>
<path d="M218.688 25.271C217.97 25.2727 217.259 25.4167 216.597 25.6946C215.934 25.9724 215.333 26.3787 214.829 26.89L193.827 47.8903L193.745 48.306L192.292 55.6107L191.877 57.5604L193.828 57.146L201.133 55.693L201.548 55.6094L222.549 34.609C223.062 34.1053 223.469 33.5045 223.747 32.8418C224.025 32.179 224.168 31.4675 224.168 30.7488C224.168 30.0302 224.025 29.3187 223.747 28.6559C223.469 27.9932 223.062 27.3924 222.549 26.8887C222.044 26.3775 221.443 25.9713 220.781 25.6937C220.118 25.4161 219.407 25.2724 218.688 25.271ZM218.688 27.8024C219.358 27.8024 220.032 28.1079 220.68 28.7573C221.973 30.0483 221.973 31.4494 220.68 32.7417L219.727 33.6541L215.782 29.7109L216.696 28.7573C217.346 28.1079 218.019 27.8024 218.688 27.8024ZM213.916 31.5796L217.858 35.5228L201.797 51.5825C200.93 49.886 199.55 48.5065 197.853 47.6406L213.916 31.5796ZM196.153 49.8001C196.939 50.1164 197.653 50.5882 198.252 51.1873C198.851 51.7864 199.323 52.5004 199.639 53.2865L195.28 54.1577L196.153 49.8001Z" fill="white"/>
<path d="M250 69L251.621 73.3795L256 75L251.621 76.6205L250 81L248.379 76.6205L244 75L248.379 73.3795L250 69Z" fill="white"/>
<path d="M22 69L23.6205 73.3795L28 75L23.6205 76.6205L22 81L20.3795 76.6205L16 75L20.3795 73.3795L22 69Z" fill="white"/>
<path d="M287 36L288.621 40.3795L293 42L288.621 43.6205L287 48L285.379 43.6205L281 42L285.379 40.3795L287 36Z" fill="white"/>
<path d="M59 36L60.6205 40.3795L65 42L60.6205 43.6205L59 48L57.3795 43.6205L53 42L57.3795 40.3795L59 36Z" fill="white"/>
<path d="M324 69L325.621 73.3795L330 75L325.621 76.6205L324 81L322.379 76.6205L318 75L322.379 73.3795L324 69Z" fill="white"/>
<path d="M96 69L97.6205 73.3795L102 75L97.6205 76.6205L96 81L94.3795 76.6205L90 75L94.3795 73.3795L96 69Z" fill="white"/>
<path d="M331 18.41L329.59 17L324 22.59L318.41 17L317 18.41L322.59 24L317 29.59L318.41 31L324 25.41L329.59 31L331 29.59L325.41 24L331 18.41Z" fill="white"/>
</svg>
