<svg width="19" height="19" viewBox="0 0 19 19" fill="none" xmlns="http://www.w3.org/2000/svg">
<path d="M12.5 8.75C13.745 8.75 14.7425 7.745 14.7425 6.5C14.7425 5.255 13.745 4.25 12.5 4.25C11.255 4.25 10.25 5.255 10.25 6.5C10.25 7.745 11.255 8.75 12.5 8.75ZM6.5 8.75C7.745 8.75 8.7425 7.745 8.7425 6.5C8.7425 5.255 7.745 4.25 6.5 4.25C5.255 4.25 4.25 5.255 4.25 6.5C4.25 7.745 5.255 8.75 6.5 8.75ZM6.5 10.25C4.7525 10.25 1.25 11.1275 1.25 12.875V14.75H11.75V12.875C11.75 11.1275 8.2475 10.25 6.5 10.25ZM12.5 10.25C12.2825 10.25 12.035 10.265 11.7725 10.2875C12.6425 10.9175 13.25 11.765 13.25 12.875V14.75H17.75V12.875C17.75 11.1275 14.2475 10.25 12.5 10.25Z" fill="#C6A4FF"/>
</svg>
