<svg width="32" height="32" viewBox="0 0 32 32" fill="none" xmlns="http://www.w3.org/2000/svg">
<path d="M15.9999 29.333C17.4666 29.333 18.6666 28.133 18.6666 26.6663H13.3333C13.3333 28.133 14.5333 29.333 15.9999 29.333ZM23.9999 21.333V14.6663C23.9999 10.573 21.8266 7.14634 17.9999 6.23967V5.33301C17.9999 4.22634 17.1066 3.33301 15.9999 3.33301C14.8933 3.33301 13.9999 4.22634 13.9999 5.33301V6.23967C10.1866 7.14634 7.99992 10.5597 7.99992 14.6663V21.333L5.33325 23.9997V25.333H26.6666V23.9997L23.9999 21.333ZM21.3333 22.6663H10.6666V14.6663C10.6666 11.3597 12.6799 8.66634 15.9999 8.66634C19.3199 8.66634 21.3333 11.3597 21.3333 14.6663V22.6663Z" fill="#1B0A60"/>
<ellipse cx="26.6667" cy="5.33366" rx="2.66667" ry="2.66667" fill="#C42727"/>
</svg>
