<svg width="32" height="32" viewBox="0 0 32 32" fill="none" xmlns="http://www.w3.org/2000/svg">
<path d="M25.5201 17.2482C25.5681 16.8482 25.6001 16.4322 25.6001 16.0002C25.6001 15.5682 25.5681 15.1522 25.5041 14.7522L28.2081 12.6402C28.4481 12.4482 28.5121 12.0962 28.3681 11.8242L25.8081 7.3922C25.6481 7.1042 25.3121 7.0082 25.0241 7.1042L21.8401 8.3842C21.1681 7.8722 20.4641 7.4562 19.6801 7.1362L19.2001 3.7442C19.1521 3.4242 18.8801 3.2002 18.5601 3.2002H13.4401C13.1201 3.2002 12.8641 3.4242 12.8161 3.7442L12.3361 7.1362C11.5521 7.4562 10.8321 7.8882 10.1761 8.3842L6.99206 7.1042C6.70406 6.9922 6.36806 7.1042 6.20806 7.3922L3.64806 11.8242C3.48806 12.1122 3.55206 12.4482 3.80806 12.6402L6.51206 14.7522C6.44806 15.1522 6.40006 15.5842 6.40006 16.0002C6.40006 16.4162 6.43206 16.8482 6.49606 17.2482L3.79206 19.3602C3.55206 19.5522 3.48806 19.9042 3.63206 20.1762L6.19206 24.6082C6.35206 24.8962 6.68806 24.9922 6.97606 24.8962L10.1601 23.6162C10.8321 24.1282 11.5361 24.5442 12.3201 24.8642L12.8001 28.2562C12.8641 28.5762 13.1201 28.8002 13.4401 28.8002H18.5601C18.8801 28.8002 19.1521 28.5762 19.1841 28.2562L19.6641 24.8642C20.4481 24.5442 21.1681 24.1122 21.8241 23.6162L25.0081 24.8962C25.2961 25.0082 25.6321 24.8962 25.7921 24.6082L28.3521 20.1762C28.5121 19.8882 28.4481 19.5522 28.1921 19.3602L25.5201 17.2482V17.2482ZM16.0001 20.8002C13.3601 20.8002 11.2001 18.6402 11.2001 16.0002C11.2001 13.3602 13.3601 11.2002 16.0001 11.2002C18.6401 11.2002 20.8001 13.3602 20.8001 16.0002C20.8001 18.6402 18.6401 20.8002 16.0001 20.8002Z" fill="#1B0A60"/>
</svg>
