<svg width="30" height="30" viewBox="0 0 30 30" fill="none" xmlns="http://www.w3.org/2000/svg">
<path d="M24.4 24.2285V10.9L17.5 4H8.3C7.035 4 6.0115 5.035 6.0115 6.3L6 24.7C6 25.965 7.0235 27 8.2885 27H22.1C22.6175 27 23.0775 26.8275 23.4685 26.54L18.374 21.4455C17.454 22.0435 16.373 22.4 15.2 22.4C12.026 22.4 9.45 19.824 9.45 16.65C9.45 13.476 12.026 10.9 15.2 10.9C18.374 10.9 20.95 13.476 20.95 16.65C20.95 17.823 20.5935 18.904 19.9955 19.8125L24.4 24.2285ZM11.75 16.65C11.75 18.559 13.291 20.1 15.2 20.1C17.109 20.1 18.65 18.559 18.65 16.65C18.65 14.741 17.109 13.2 15.2 13.2C13.291 13.2 11.75 14.741 11.75 16.65Z" fill="black"/>
</svg>
