<svg width="32" height="32" viewBox="0 0 32 32" fill="none" xmlns="http://www.w3.org/2000/svg">
<path d="M22.6666 4H9.33329C7.86663 4 6.67996 5.2 6.67996 6.66667L6.66663 28L16 24L25.3333 28V6.66667C25.3333 5.2 24.1333 4 22.6666 4ZM22.6666 24L16 21.0933L9.33329 24V6.66667H22.6666V24Z" fill="black"/>
<path d="M14.5077 15.9311C14.5077 13.0914 15.5514 11.0386 18.6754 11.0386C21.3269 11.0386 21.6427 14.0295 21.6427 16.135C21.6427 16.8724 21.8653 18.9098 21.0311 19.3514C19.6108 20.1033 18.8282 18.5085 18.2224 17.6073C17.5731 16.6412 17.3808 15.3824 17.3617 14.2323C17.3594 14.0953 17.3409 12.5753 17.5202 12.7147C17.9136 13.0207 17.9838 13.9057 18.3357 14.3456C18.7026 14.8042 18.7254 15.5507 19.1511 15.9764C20.0274 16.8528 19.0026 16.1451 18.5848 15.7273" stroke="black" stroke-width="3" stroke-linecap="round"/>
<path d="M19.9523 14.4606C19.9523 13.5153 20.0337 12.582 20.0561 11.6402C20.0616 11.4074 20.1599 11.1704 20.1599 10.9308C20.1599 10.6618 20.1374 10.8049 20.1628 10.9827C20.226 11.4253 20.4384 11.9318 20.6386 12.3323C20.8463 12.7477 20.9108 13.3028 20.9933 13.757C21.1027 14.3582 21.2401 14.9596 21.3048 15.5738C21.309 15.6132 21.3727 16.064 21.4317 16.064C21.4796 16.064 21.4576 15.594 21.4576 15.5392C21.4576 14.7841 21.4383 14.0269 21.4692 13.2725C21.5016 12.4809 21.6262 11.7473 21.7172 10.974C21.7669 10.5514 21.8522 10.1233 21.9277 9.70803C21.9609 9.52534 22.0959 9.21777 21.8729 9.21777" stroke="black" stroke-width="3" stroke-linecap="round"/>
<path d="M21.25 10.5157C21.25 9.51286 21.2543 8.54805 21.6884 7.64051C21.774 7.46152 21.8828 7.31627 22.0171 7.18198C22.1522 7.04685 22.182 7.38062 21.9767 7.40115C21.5351 7.44531 21.1227 7.47604 20.679 7.37519C20.4124 7.3146 20.1497 7.19351 19.8744 7.19351C19.6943 7.19351 18.9296 7.27646 18.8622 7.1416" stroke="black" stroke-width="3" stroke-linecap="round"/>
<path d="M18.8622 7.1416C18.2642 7.1416 17.6719 7.19351 17.0713 7.19351C16.9129 7.19351 16.2792 7.2703 16.2148 7.1416" stroke="black" stroke-width="3" stroke-linecap="round"/>
<path d="M16.2148 7.14142C15.1001 7.14142 14.0207 7.0376 12.9041 7.0376C12.3946 7.0376 11.8851 7.0376 11.3757 7.0376C11.2442 7.0376 10.5799 7.08407 10.5566 7.0376" stroke="black" stroke-width="3" stroke-linecap="round"/>
<path d="M10.5567 7.19336C10.5361 8.03667 10.2452 8.82774 10.2452 9.68501C10.2452 10.0157 10.2119 10.3028 10.1933 10.6194C10.1883 10.7039 10.1612 10.9783 10.1154 11.0606C10.0318 11.2112 10.1324 11.4166 10.0866 11.5768C9.86901 12.3384 10.1933 13.2194 10.1933 13.9964C10.1933 14.9678 10.2452 15.9383 10.2452 16.9004" stroke="black" stroke-width="3" stroke-linecap="round"/>
<path d="M10.1934 16.9526C10.1934 17.8216 10.1934 18.6906 10.1934 19.5596C10.1934 19.7912 10.2453 20.0327 10.2453 20.2489C10.2453 20.418 10.3431 20.7761 10.2453 20.4825" stroke="black" stroke-width="3" stroke-linecap="round"/>
<path d="M10.1934 20.4302C10.1934 21.0687 10.2453 21.6924 10.2453 22.3278C10.2453 22.5171 10.2453 22.7065 10.2453 22.8959C10.2453 23.0145 10.2911 23.354 10.1415 23.1295" stroke="black" stroke-width="3" stroke-linecap="round"/>
<path d="M11.2834 22.8184C11.5173 22.6716 11.6993 22.4891 11.9121 22.3166C12.3137 21.9913 12.7593 21.7346 13.1897 21.4515C13.4914 21.253 13.8415 20.9631 14.1846 20.8488C14.6148 20.7053 14.9864 20.4051 15.4391 20.3297C15.612 20.3008 15.9944 20.2851 16.1226 20.1826C16.1804 20.1363 16.7504 20.1191 16.7339 20.1191" stroke="black" stroke-width="3" stroke-linecap="round"/>
<path d="M17.7721 20.0669C18.1191 20.074 18.2739 20.1706 18.5536 20.3524C18.7041 20.4502 18.971 20.5448 19.0929 20.6667C19.2463 20.8201 19.504 20.9274 19.6927 21.0532" stroke="black" stroke-width="3" stroke-linecap="round"/>
<path d="M20.3675 22.1436C19.7031 22.1308 19.0697 21.783 18.4729 21.5178C17.977 21.2974 17.3271 21.0237 16.9415 20.6382" stroke="black" stroke-width="3" stroke-linecap="round"/>
<path d="M18.8103 21.7803C19.562 21.899 20.3029 22.3602 20.9674 22.7146C21.139 22.8061 21.3175 22.8617 21.4836 22.9511C21.5481 22.9858 21.6899 23.0045 21.7374 23.0521C21.7723 23.0869 21.5458 23.0013 21.5096 22.9742" stroke="black" stroke-width="3" stroke-linecap="round"/>
<path d="M22.1844 20.1709V22.974" stroke="black" stroke-width="3" stroke-linecap="round"/>
<path d="M21.3019 14.1493C20.85 14.1493 20.5163 14.2663 20.0907 14.4262C18.8945 14.8754 17.7456 15.4397 16.6329 16.0671C16.0416 16.4005 15.6169 16.8382 15.2689 17.4311C15.1462 17.6401 15.047 18.0787 15.0757 18.3223C15.1 18.5291 15.5075 18.9003 15.6784 19.0028C15.9331 19.1557 16.2425 19.2474 16.5378 19.2364C17.0284 19.2183 17.0454 18.4635 17.0915 18.1608C17.2725 16.9708 17.0697 15.9623 16.4974 14.9164C16.2318 14.4311 15.9496 13.9898 15.488 13.6821" stroke="black" stroke-width="3" stroke-linecap="round"/>
<path d="M13.5155 14.3052C13.5155 14.583 13.5979 14.7832 13.7347 15.0319C13.8814 15.2987 13.6939 15.2682 13.403 15.2915C12.6448 15.3521 11.8262 15.436 11.0758 15.2655C10.9731 15.2422 10.5486 15.2234 10.5048 15.1357" stroke="black" stroke-width="3" stroke-linecap="round"/>
<path d="M11.2834 13.4746C12.3045 13.4746 15.3671 13.5265 14.3461 13.5265" stroke="black" stroke-width="3" stroke-linecap="round"/>
<path d="M14.7613 12.5919C13.6438 12.5919 12.4963 12.6787 11.3872 12.54" stroke="black" stroke-width="3" stroke-linecap="round"/>
<path d="M11.6469 7.34912C11.6469 7.96917 11.7618 8.5643 11.843 9.17748C11.9267 9.8099 12.0102 10.4913 12.0102 11.127C12.0102 11.5193 12.0621 11.9064 12.0621 12.3036C12.0621 12.5958 12.0621 12.888 12.0621 13.1803C12.0621 13.3282 11.9406 13.0586 11.9064 13.0072" stroke="black" stroke-width="3" stroke-linecap="round"/>
<path d="M12.4254 6.98584C12.4791 7.32157 12.474 7.63855 12.4773 7.97789C12.4811 8.36143 12.6076 8.73356 12.6302 9.11701C12.6547 9.53332 12.685 9.93863 12.685 10.3571C12.685 10.6003 12.685 10.8435 12.685 11.0867C12.685 11.1719 12.7055 11.2873 12.6821 11.3693C12.6531 11.4708 12.4443 11.1182 12.4254 11.0867" stroke="black" stroke-width="3" stroke-linecap="round"/>
<path d="M12.4255 10.7754C12.4255 13.2632 12.4255 15.751 12.4255 18.2388C12.4255 18.5254 12.3815 18.8021 12.3736 19.0809C12.3707 19.1806 12.4249 19.5382 12.3476 19.6C12.2772 19.6563 12.3216 19.9477 12.3216 20.0412C12.3216 20.4163 12.2304 20.3351 11.9064 20.1191" stroke="black" stroke-width="3" stroke-linecap="round"/>
<path d="M11.9064 20.1191C12.1546 19.9366 12.4066 19.7924 12.6735 19.6404C13.1824 19.3505 13.6125 18.9376 14.1039 18.6224C14.3655 18.4545 14.6688 18.3213 14.9171 18.135C15.0323 18.0486 15.1317 17.9036 15.2516 17.8351C15.3631 17.7714 15.2458 17.3131 15.2257 17.241C15.0748 16.7004 14.7578 16.2123 14.6172 15.678C14.4949 15.2134 14.3048 14.7837 14.2538 14.3053C14.2353 14.1312 14.1325 13.4788 14.2538 13.3305C14.3455 13.2184 14.5855 13.6507 14.6085 13.6852C14.8831 14.0972 15.2763 14.7637 15.2286 15.28C15.1964 15.6282 14.944 16.3028 14.8652 16.5201C14.4231 17.7381 13.9624 18.9807 13.3656 20.1335C13.193 20.4669 12.9365 20.8175 12.5293 20.843C12.0777 20.8712 11.8815 20.2956 11.7997 19.9374C11.5817 18.984 11.5206 17.9312 12.0217 17.0565C12.5229 16.1816 13.2609 15.4786 14.0866 14.9282" stroke="black" stroke-width="3" stroke-linecap="round"/>
<path d="M14.0865 14.9278C14.0865 12.7772 13.9979 10.6029 14.6172 8.51989C14.7795 7.97397 15.4916 8.16601 15.938 8.21997C16.2627 8.25922 16.5856 8.373 16.8897 8.49105C17.2401 8.62712 17.6237 8.70587 17.9394 8.91786C18.1432 9.05477 18.6018 9.36628 18.32 9.65613C18.0894 9.89337 17.8382 9.99189 17.5241 10.0887C16.8496 10.2966 16.1854 10.5361 15.5112 10.7462C15.4509 10.765 14.5018 11.1035 14.5018 10.9308C14.5018 10.8541 14.5808 10.8313 14.6172 10.7751C14.7409 10.5839 15.1392 10.446 15.3266 10.3367C15.9143 9.99387 16.4791 9.6485 17.0944 9.35044C17.5088 9.14969 17.9718 9.04184 18.3748 8.82846C18.5882 8.7155 18.8431 8.61562 19.0843 8.59775C19.485 8.56807 19.989 8.43151 20.3676 8.62082C20.6661 8.77009 20.8316 9.35188 20.9126 9.64171C21.0877 10.2682 21.2677 11.1492 20.9617 11.7613C20.3009 13.0827 18.5226 14.0033 17.0656 13.8867C16.2816 13.824 15.8128 12.805 15.5602 12.1766C15.3011 11.5323 14.9423 9.95343 15.9034 9.63306" stroke="black" stroke-width="3" stroke-linecap="round"/>
<path d="M9.98572 7.0377C10.8999 7.0377 11.8141 7.0377 12.7283 7.0377C14.4019 7.0377 16.0755 7.0377 17.7491 7.0377C18.7299 7.0377 19.7095 7.05942 20.6848 6.94542C21.0996 6.89693 21.5342 6.93388 21.9508 6.93388C22.1321 6.93388 22.2132 6.89401 22.2767 7.07807C22.4601 7.60992 22.4671 8.15558 22.5247 8.7161C22.8263 11.6498 22.9112 14.5936 22.9112 17.5407C22.9112 19.0018 23.0038 20.4942 22.6804 21.9299C22.619 22.2029 22.5755 22.5897 22.3401 22.7662" stroke="black" stroke-width="3" stroke-linecap="round"/>
<path d="M22.3401 22.7661C22.3014 22.4471 22.3036 22.2061 22.1555 21.924C21.86 21.3611 21.5917 20.7757 21.3077 20.2053C20.865 19.316 20.4676 18.4045 20.1109 17.4771C19.7923 16.6488 19.4716 15.8381 18.9314 15.1239C18.7908 14.9381 18.6026 14.8378 18.6026 14.6077C18.6026 14.4366 18.5651 14.2121 18.6142 14.0453C18.7102 13.7189 19.4183 14.067 19.5687 14.1751C20.299 14.7 20.9661 15.2952 21.4922 16.0294C21.7112 16.335 21.8823 16.7541 21.9191 17.1311C21.9569 17.5189 21.8048 17.8476 21.7172 18.2154C21.6463 18.5129 21.4677 19.8032 20.8751 19.294C20.6524 19.1026 20.4707 18.8311 20.3099 18.5903C19.8149 17.8494 19.3361 17.0439 19.0006 16.2169C18.4049 14.7487 18.0316 13.0957 18.0316 11.5076C18.0316 10.8244 18.0672 9.99899 18.4181 9.3908C18.4781 9.28669 18.6005 9.25309 18.7064 9.21777" stroke="black" stroke-width="3" stroke-linecap="round"/>
<path d="M21.4577 7.71252C18.9363 7.71252 16.3903 7.82616 13.8732 7.68945C13.17 7.65126 12.3256 7.42832 11.6209 7.56256C11.3068 7.62237 10.9841 7.81379 10.6894 7.93169C10.3315 8.07486 9.85107 8.27458 9.60794 8.58921C9.48034 8.75435 9.51854 8.98269 9.51854 9.17752C9.51854 10.7028 9.49329 12.2276 9.66274 13.7455C9.89317 15.8099 10.0376 17.8916 10.0376 19.9689C10.0376 20.4424 10.0029 20.9119 9.98573 21.3762C9.97979 21.5365 9.99917 22.0328 9.88191 22.0914" stroke="black" stroke-width="3" stroke-linecap="round"/>
<path d="M9.88184 22.0916C11.3757 20.6316 13.2116 19.5102 14.9343 18.3368C15.5713 17.9029 16.2525 17.4697 16.9617 17.1631C17.2532 17.037 17.5987 16.945 17.8586 16.7622C18.4425 16.3516 19.0044 15.9226 19.4332 15.3434C19.8092 14.8353 20.0865 13.9773 19.9667 13.3506C19.8798 12.8961 19.6475 12.5165 19.3293 12.1855C18.8759 11.714 18.1325 11.7754 17.5269 11.7385C16.7353 11.6903 15.819 11.5975 15.0439 11.825C14.3198 12.0376 13.8405 12.8556 13.7866 13.5669C13.7408 14.1704 13.826 14.6538 14.0865 15.2049C14.4548 15.984 15.0804 16.646 15.8918 16.9525C16.775 17.2862 17.607 16.0182 18.0258 15.4299C18.8256 14.3064 18.966 13.2139 18.966 11.8452C18.966 11.5712 18.9773 11.4609 18.7641 11.2713C17.9581 10.5549 17.1542 9.90061 16.1802 9.40838C15.6171 9.12382 15.1904 9.12132 14.6085 9.29591C14.262 9.39984 13.913 9.75423 13.6943 10.0313C13.2488 10.5956 13.2082 11.4197 13.204 12.1019C13.1964 13.336 13.2547 14.5394 13.7837 15.6779C14.2158 16.6078 14.8591 17.7382 15.6611 18.3829C15.804 18.4978 15.9843 18.5232 16.1629 18.5098C16.3256 18.4976 16.4168 18.429 16.5522 18.3195C17.2935 17.72 17.9473 16.9777 18.568 16.2604C19.903 14.7178 21.2038 13.0378 22.0517 11.1675C22.1375 10.9782 22.2676 10.788 22.0777 10.6456C21.6426 10.3193 21.3715 9.79459 20.927 9.46606C19.8467 8.66758 18.637 7.50503 17.1924 7.50503C15.7715 7.50503 14.8691 9.31957 14.3864 10.412C14.1093 11.0391 14.0616 11.8099 14.0923 12.4855C14.1345 13.4156 14.7954 14.3024 15.4823 14.8992C15.9702 15.3231 16.5001 15.6018 17.1145 15.799C17.4022 15.8913 17.639 15.8957 17.8788 15.7038C18.6446 15.0911 20.2367 14.0701 19.9292 12.8402C19.7587 12.1583 19.0495 11.5568 18.568 11.0752C17.9491 10.4563 17.2307 9.87675 16.4311 9.5122C15.546 9.10871 14.9054 9.58742 14.6171 10.4523C14.117 11.9527 14.5393 13.3968 15.6611 14.5186C16.2716 15.129 17.2627 15.0838 18.0547 15.0838C19.7846 15.0838 21.8052 13.8026 22.0921 12.024C22.1847 11.4497 22.0627 11.1993 21.746 10.7638C21.4753 10.3916 21.1492 9.9893 20.8405 9.65062C20.3848 9.15073 19.897 8.82824 19.3207 8.48554C18.865 8.21458 18.4414 7.86416 17.9566 7.64634C17.5667 7.47118 17.1629 7.45312 16.7425 7.45312C16.4097 7.45312 16.1862 7.48546 15.8976 7.65499C15.3458 7.97906 14.7682 8.27741 14.2307 8.62397C13.7005 8.96587 13.2597 9.39749 13.1406 10.0313C12.8163 11.7569 12.7825 13.593 12.9964 15.3347C13.1203 16.3435 13.3803 17.5138 14.0865 18.2906C14.6515 18.9121 15.6355 19.1602 16.4426 19.2106C16.8434 19.2356 17.2688 19.2739 17.6509 19.1241C18.1926 18.9117 18.7104 18.5601 19.1592 18.1955C19.8172 17.6608 20.4618 16.8942 20.7482 16.0903C21.1106 15.0732 21.0424 13.9055 21.0424 12.8402C21.0424 12.0106 20.8127 11.2976 20.5002 10.5331C20.1889 9.77157 19.7395 9.60464 18.9804 9.33051C18.1372 9.02603 17.2935 8.98256 16.4022 9.01329C15.9999 9.02716 15.3874 9.18059 15.0382 9.37954C14.7038 9.56999 14.5203 9.94842 14.3576 10.2793C13.9379 11.1325 13.9423 12.131 13.9423 13.0651C13.9423 13.7994 14.1384 14.5065 14.1384 15.2395" stroke="black" stroke-width="3" stroke-linecap="round"/>
<path d="M12.2178 19.3402C12.2178 18.9807 12.2344 18.699 12.3361 18.3423C12.5755 17.5027 12.8783 16.5765 13.1608 15.7699C13.6916 14.255 14.2297 12.7034 15.1766 11.3865C16.0941 10.1106 17.4625 9.10242 18.7353 8.19117C19.217 7.84637 19.821 7.81489 20.3993 7.74129C20.6948 7.70368 21.0077 7.62946 21.1981 7.89125C21.3507 8.10096 21.5114 8.2929 21.6307 8.53147C21.8466 8.96331 21.885 9.51419 21.9249 9.98493C22.0348 11.2824 21.8746 12.4976 21.6884 13.7743C21.5426 14.7743 21.3966 15.7647 21.2904 16.7678C21.2646 17.0116 21.2572 17.3533 21.1462 17.5752C20.9947 17.8783 20.3307 17.9696 20.0331 17.9876C19.7461 18.005 19.3843 18.038 19.1131 17.9271C18.3277 17.6058 17.6693 16.9014 17.0829 16.315C16.7047 15.9368 16.3262 15.4536 15.8399 15.2105C15.5771 15.0791 14.8619 14.7939 14.5941 15.0432C13.8756 15.7122 13.2603 16.5435 12.6216 17.2869C12.3562 17.5956 12.1024 17.9045 11.7997 18.178C11.7733 18.2018 11.6975 18.3083 11.6468 18.302C11.5416 18.2888 11.5949 17.5428 11.5949 17.5406C11.5869 15.2602 11.4851 12.9746 11.5459 10.6944C11.562 10.0913 11.6376 9.47917 11.6728 8.87465C11.6996 8.41325 11.6987 7.95556 11.6987 7.49328C11.6987 7.17373 11.613 6.72753 11.7247 6.41472C11.8311 6.11681 12.9859 6.20379 13.256 6.19555C14.5342 6.15655 15.8129 6.15517 17.0915 6.15517C17.6126 6.15517 18.1362 6.14328 18.6546 6.20708C18.9728 6.24625 19.2879 6.39596 19.6005 6.41472C20.0397 6.44107 20.4704 6.58161 20.8924 6.69734C21.5573 6.87964 21.9042 7.19212 22.0258 7.89125C22.5267 10.7716 22.3172 13.748 22.4411 16.6582C22.4454 16.7602 22.533 17.3276 22.3661 17.3647C21.9591 17.4552 21.3365 17.385 20.9386 17.3215C20.149 17.1953 19.4606 16.7588 18.7815 16.3669C18.1021 15.9749 17.4504 15.5498 16.7858 15.1355" stroke="black" stroke-width="3" stroke-linecap="round"/>
</svg>
