<svg width="24" height="24" viewBox="0 0 24 24" fill="none" xmlns="http://www.w3.org/2000/svg">
<rect x="2.81" y="3.81" width="17.38" height="17.38" rx="3.19" stroke="black" stroke-width="1.62"/>
<mask id="path-2-outside-1" maskUnits="userSpaceOnUse" x="6" y="7" width="11" height="11" fill="black">
<rect fill="white" x="6" y="7" width="11" height="11"/>
<path fill-rule="evenodd" clip-rule="evenodd" d="M12.1538 8.5C12.1538 8.22386 11.9299 8 11.6538 8C11.3777 8 11.1538 8.22386 11.1538 8.5V12.1539L7.5 12.1539C7.22386 12.1539 7 12.3778 7 12.6539C7 12.9301 7.22386 13.1539 7.5 13.1539L11.1538 13.1539V16.5C11.1538 16.7761 11.3777 17 11.6538 17C11.9299 17 12.1538 16.7761 12.1538 16.5V13.1539L15.5 13.1539C15.7761 13.1539 16 12.9301 16 12.6539C16 12.3778 15.7761 12.1539 15.5 12.1539L12.1538 12.1539V8.5Z"/>
</mask>
<path fill-rule="evenodd" clip-rule="evenodd" d="M12.1538 8.5C12.1538 8.22386 11.9299 8 11.6538 8C11.3777 8 11.1538 8.22386 11.1538 8.5V12.1539L7.5 12.1539C7.22386 12.1539 7 12.3778 7 12.6539C7 12.9301 7.22386 13.1539 7.5 13.1539L11.1538 13.1539V16.5C11.1538 16.7761 11.3777 17 11.6538 17C11.9299 17 12.1538 16.7761 12.1538 16.5V13.1539L15.5 13.1539C15.7761 13.1539 16 12.9301 16 12.6539C16 12.3778 15.7761 12.1539 15.5 12.1539L12.1538 12.1539V8.5Z" fill="black"/>
<path d="M11.1538 12.1539L11.1538 12.5539L11.5538 12.5539V12.1539H11.1538ZM7.5 12.1539L7.5 11.7539H7.5V12.1539ZM7.5 13.1539L7.5 12.7539H7.5V13.1539ZM11.1538 13.1539H11.5538V12.7539L11.1538 12.7539L11.1538 13.1539ZM12.1538 13.1539L12.1538 12.7539L11.7538 12.7539V13.1539H12.1538ZM15.5 13.1539L15.5 13.5539H15.5V13.1539ZM15.5 12.1539L15.5 12.5539H15.5V12.1539ZM12.1538 12.1539H11.7538V12.5539L12.1538 12.5539L12.1538 12.1539ZM11.6538 8.4C11.709 8.4 11.7538 8.44477 11.7538 8.5H12.5538C12.5538 8.00294 12.1508 7.6 11.6538 7.6V8.4ZM11.5538 8.5C11.5538 8.44477 11.5986 8.4 11.6538 8.4V7.6C11.1567 7.6 10.7538 8.00294 10.7538 8.5H11.5538ZM11.5538 12.1539V8.5H10.7538V12.1539H11.5538ZM7.5 12.5539L11.1538 12.5539L11.1538 11.7539L7.5 11.7539L7.5 12.5539ZM7.4 12.6539C7.4 12.5987 7.44477 12.5539 7.5 12.5539V11.7539C7.00294 11.7539 6.6 12.1569 6.6 12.6539H7.4ZM7.5 12.7539C7.44477 12.7539 7.4 12.7092 7.4 12.6539H6.6C6.6 13.151 7.00294 13.5539 7.5 13.5539V12.7539ZM11.1538 12.7539L7.5 12.7539L7.5 13.5539L11.1538 13.5539L11.1538 12.7539ZM11.5538 16.5V13.1539H10.7538V16.5H11.5538ZM11.6538 16.6C11.5986 16.6 11.5538 16.5552 11.5538 16.5H10.7538C10.7538 16.9971 11.1567 17.4 11.6538 17.4V16.6ZM11.7538 16.5C11.7538 16.5552 11.709 16.6 11.6538 16.6V17.4C12.1509 17.4 12.5538 16.9971 12.5538 16.5H11.7538ZM11.7538 13.1539V16.5H12.5538V13.1539H11.7538ZM15.5 12.7539L12.1538 12.7539L12.1538 13.5539L15.5 13.5539L15.5 12.7539ZM15.6 12.6539C15.6 12.7092 15.5552 12.7539 15.5 12.7539V13.5539C15.9971 13.5539 16.4 13.151 16.4 12.6539H15.6ZM15.5 12.5539C15.5552 12.5539 15.6 12.5987 15.6 12.6539H16.4C16.4 12.1569 15.9971 11.7539 15.5 11.7539V12.5539ZM12.1538 12.5539L15.5 12.5539L15.5 11.7539L12.1538 11.7539L12.1538 12.5539ZM11.7538 8.5V12.1539H12.5538V8.5H11.7538Z" fill="black" mask="url(#path-2-outside-1)"/>
</svg>
